<svg xmlns="http://www.w3.org/2000/svg" xmlns:xlink="http://www.w3.org/1999/xlink" viewBox="0 0 607.96 451.09"><defs><style>.cls-1,.cls-12,.cls-17,.cls-18,.cls-22,.cls-28,.cls-52,.cls-53,.cls-56,.cls-57,.cls-59,.cls-60,.cls-64,.cls-65,.cls-66{fill:none;}.cls-2,.cls-8,.cls-9{opacity:0.34;}.cls-3,.cls-8{fill:#497b76;}.cls-10,.cls-11,.cls-12,.cls-17,.cls-3,.cls-4,.cls-5,.cls-6,.cls-64,.cls-70,.cls-71,.cls-74,.cls-75,.cls-76,.cls-77,.cls-78,.cls-8,.cls-9{fill-rule:evenodd;}.cls-4,.cls-9{fill:#9dc5b0;}.cls-5{fill:#7eb7b0;}.cls-6{fill:#65a27e;}.cls-7{opacity:0.35;}.cls-10{fill:#e1eff6;}.cls-11,.cls-19{fill:#cce3e9;}.cls-12,.cls-18,.cls-64{stroke:#cce3e9;}.cls-12,.cls-17,.cls-18,.cls-22,.cls-28,.cls-52,.cls-53,.cls-56,.cls-57,.cls-59,.cls-60,.cls-64,.cls-66{stroke-miterlimit:10;}.cls-12,.cls-18{stroke-width:2.48px;}.cls-13{fill:#253137;}.cls-14{fill:#444;}.cls-15,.cls-76{opacity:0.6;}.cls-16{fill:#fff;}.cls-17,.cls-57,.cls-66{stroke:#0f2831;}.cls-17,.cls-22,.cls-57{stroke-width:1.08px;}.cls-20{fill:#e9c6b9;}.cls-21{fill:#e9c6bb;}.cls-22{stroke:#dca190;}.cls-23{fill:#d1917c;}.cls-24{clip-path:url(#clip-path);}.cls-25{fill:url(#linear-gradient);}.cls-26{fill:url(#linear-gradient-2);}.cls-27{fill:#1d1c1d;}.cls-28{stroke:#181718;}.cls-29{fill:#e0e0df;}.cls-30{fill:#54a7ac;}.cls-31{fill:#4c5864;}.cls-32{fill:url(#Degradado_sin_nombre_16);}.cls-33{fill:url(#Degradado_sin_nombre_16-2);}.cls-34{fill:url(#Degradado_sin_nombre_16-3);}.cls-35{fill:url(#Degradado_sin_nombre_16-4);}.cls-36{fill:url(#Degradado_sin_nombre_16-5);}.cls-37{fill:url(#Degradado_sin_nombre_16-6);}.cls-38{fill:url(#Degradado_sin_nombre_16-7);}.cls-39{fill:url(#Degradado_sin_nombre_16-8);}.cls-40{fill:url(#Degradado_sin_nombre_16-9);}.cls-41{fill:url(#Degradado_sin_nombre_16-10);}.cls-42{fill:url(#Degradado_sin_nombre_16-11);}.cls-43{fill:url(#Degradado_sin_nombre_16-12);}.cls-44{fill:url(#Degradado_sin_nombre_16-13);}.cls-45{fill:url(#Degradado_sin_nombre_16-14);}.cls-46{fill:url(#Degradado_sin_nombre_16-15);}.cls-47{fill:url(#Degradado_sin_nombre_16-16);}.cls-48{fill:url(#Degradado_sin_nombre_16-17);}.cls-49{fill:url(#Degradado_sin_nombre_16-18);}.cls-50{fill:url(#Degradado_sin_nombre_16-19);}.cls-51{fill:url(#Degradado_sin_nombre_22);}.cls-52,.cls-53{stroke:#fff;}.cls-52{stroke-width:1.39px;}.cls-53{stroke-width:0.59px;}.cls-54{fill:#d6978a;}.cls-55{fill:#e1e1e1;}.cls-56,.cls-59,.cls-60{stroke:#4f549a;}.cls-56{stroke-width:0.75px;}.cls-58,.cls-70{fill:#c88370;}.cls-59{stroke-width:0.8px;}.cls-60{stroke-width:0.77px;}.cls-61{fill:#0f2831;}.cls-62{fill:#6e5128;}.cls-63{fill:#9c794d;}.cls-64{stroke-width:2px;}.cls-65{stroke:#c88370;stroke-linejoin:round;stroke-width:0.73px;}.cls-67{fill:#fcfcfc;}.cls-68{fill:#8e4a2c;}.cls-69{fill:#cf8769;}.cls-71,.cls-73{fill:#caa560;}.cls-72{fill:#ebdabb;}.cls-74,.cls-75{fill:#040006;}.cls-74,.cls-77{opacity:0.3;}.cls-75{opacity:0.2;}.cls-76,.cls-77,.cls-78{fill:#2c3337;}.cls-78{opacity:0.5;}</style><clipPath id="clip-path"><rect class="cls-1" x="180.95" y="91.55" width="211.12" height="350.13" rx="9.83" ry="9.83"/></clipPath><linearGradient id="linear-gradient" x1="130.28" y1="402.26" x2="430.69" y2="101.86" gradientUnits="userSpaceOnUse"><stop offset="0.27" stop-color="#fff" stop-opacity="0.1"/><stop offset="1" stop-color="#fff" stop-opacity="0.3"/></linearGradient><linearGradient id="linear-gradient-2" x1="183.79" y1="395.65" x2="470.97" y2="108.47" xlink:href="#linear-gradient"/><linearGradient id="Degradado_sin_nombre_16" x1="201.36" y1="181.55" x2="369.82" y2="181.55" gradientUnits="userSpaceOnUse"><stop offset="0" stop-color="#dfece6"/><stop offset="0" stop-color="#dae9e5" stop-opacity="0.97"/><stop offset="0" stop-color="#d0e5e4" stop-opacity="0.91"/><stop offset="0" stop-color="#c8e1e3" stop-opacity="0.86"/><stop offset="0" stop-color="#c3dee2" stop-opacity="0.82"/><stop offset="0" stop-color="#c0dce2" stop-opacity="0.81"/><stop offset="0" stop-color="#bfdce2" stop-opacity="0.8"/></linearGradient><linearGradient id="Degradado_sin_nombre_16-2" x1="201.97" y1="276.31" x2="280.79" y2="276.31" xlink:href="#Degradado_sin_nombre_16"/><linearGradient id="Degradado_sin_nombre_16-3" x1="290.89" y1="365.77" x2="369.71" y2="365.77" xlink:href="#Degradado_sin_nombre_16"/><linearGradient id="Degradado_sin_nombre_16-4" x1="291.5" y1="252.66" x2="369.61" y2="252.66" gradientTransform="translate(661.11 505.32) rotate(-180)" xlink:href="#Degradado_sin_nombre_16"/><linearGradient id="Degradado_sin_nombre_16-5" x1="291.5" y1="263.41" x2="369.61" y2="263.41" gradientTransform="translate(661.11 526.83) rotate(-180)" xlink:href="#Degradado_sin_nombre_16"/><linearGradient id="Degradado_sin_nombre_16-6" x1="291.5" y1="274.17" x2="369.61" y2="274.17" gradientTransform="translate(661.11 548.33) rotate(-180)" xlink:href="#Degradado_sin_nombre_16"/><linearGradient id="Degradado_sin_nombre_16-7" x1="291.5" y1="284.92" x2="369.61" y2="284.92" gradientTransform="translate(661.11 569.84) rotate(-180)" xlink:href="#Degradado_sin_nombre_16"/><linearGradient id="Degradado_sin_nombre_16-8" x1="291.5" y1="306.43" x2="369.61" y2="306.43" gradientTransform="translate(661.11 612.85) rotate(-180)" xlink:href="#Degradado_sin_nombre_16"/><linearGradient id="Degradado_sin_nombre_16-9" x1="322.93" y1="295.67" x2="369.61" y2="295.67" gradientTransform="translate(692.54 591.35) rotate(-180)" xlink:href="#Degradado_sin_nombre_16"/><linearGradient id="Degradado_sin_nombre_16-10" x1="291.5" y1="295.67" x2="317.63" y2="295.67" xlink:href="#Degradado_sin_nombre_16"/><linearGradient id="Degradado_sin_nombre_16-11" x1="202.33" y1="338.59" x2="280.43" y2="338.59" gradientTransform="translate(482.76 677.19) rotate(-180)" xlink:href="#Degradado_sin_nombre_16"/><linearGradient id="Degradado_sin_nombre_16-12" x1="202.33" y1="349.35" x2="280.43" y2="349.35" gradientTransform="translate(482.76 698.69) rotate(-180)" xlink:href="#Degradado_sin_nombre_16"/><linearGradient id="Degradado_sin_nombre_16-13" x1="202.33" y1="360.1" x2="280.43" y2="360.1" gradientTransform="translate(482.76 720.2) rotate(-180)" xlink:href="#Degradado_sin_nombre_16"/><linearGradient id="Degradado_sin_nombre_16-14" x1="202.33" y1="370.85" x2="280.43" y2="370.85" gradientTransform="translate(482.76 741.71) rotate(-180)" xlink:href="#Degradado_sin_nombre_16"/><linearGradient id="Degradado_sin_nombre_16-15" x1="202.33" y1="392.36" x2="280.43" y2="392.36" gradientTransform="translate(482.76 784.72) rotate(-180)" xlink:href="#Degradado_sin_nombre_16"/><linearGradient id="Degradado_sin_nombre_16-16" x1="255.61" y1="381.61" x2="280.43" y2="381.61" gradientTransform="translate(536.04 763.21) rotate(-180)" xlink:href="#Degradado_sin_nombre_16"/><linearGradient id="Degradado_sin_nombre_16-17" x1="202.33" y1="381.61" x2="249.98" y2="381.61" xlink:href="#Degradado_sin_nombre_16"/><linearGradient id="Degradado_sin_nombre_16-18" x1="222.53" y1="277.06" x2="260.23" y2="277.06" xlink:href="#Degradado_sin_nombre_16"/><linearGradient id="Degradado_sin_nombre_16-19" x1="228.87" y1="277.06" x2="253.9" y2="277.06" xlink:href="#Degradado_sin_nombre_16"/><linearGradient id="Degradado_sin_nombre_22" x1="240.96" y1="266.28" x2="263.11" y2="266.28" gradientUnits="userSpaceOnUse"><stop offset="0" stop-color="#dfece6"/><stop offset="0" stop-color="#dceae5"/><stop offset="0" stop-color="#cbe0e0"/><stop offset="0" stop-color="#c0d8dd"/><stop offset="0" stop-color="#b9d4db"/><stop offset="0" stop-color="#b7d3da"/></linearGradient></defs><title>Recurso 7</title><g id="Capa_2" data-name="Capa 2"><g id="Capa_13" data-name="Capa 13"><g class="cls-2"><path class="cls-3" d="M100.36,259.81c7-23.36,28.58-9.7,37.33,10.77s27.77,99.84,45.73,120.8c7,8.13,4.74,8.72-1.77,4.66C149.18,375.81,90.67,292,100.36,259.81Z"/><path class="cls-4" d="M187.67,397.66c.2,1.06-.8,1.08-2.66.24-48.8-44-72.41-139.68-72.49-140a1,1,0,0,1,1.91-.48C114.51,257.74,138.44,354.71,187.67,397.66Z"/><path class="cls-5" d="M155.53,274.15c11.51-16.83,25.22-.51,27,18s-3.11,86.54,5.9,107.78c3.49,8.23,1.57,8.14-2.59,3.26C165.11,378.88,139.69,297.31,155.53,274.15Z"/><path class="cls-6" d="M190.25,406c-.12.9-.92.66-2.19-.48C160.32,358.14,165.69,276,165.7,275.71a.82.82,0,0,1,1.64.1C167.33,276.07,161.88,359.36,190.25,406Z"/></g><g class="cls-7"><path class="cls-3" d="M30.14,321.84c-6.36-23.55,19.14-23.33,37.39-10.57s76.31,70.1,102.64,78.42c10.2,3.22,8.63,4.9,1,4.89C132.87,394.56,38.9,354.26,30.14,321.84Z"/><path class="cls-4" d="M177.09,392.77c.73.81-.11,1.35-2.13,1.62C110.27,382.79,39.69,314,39.47,313.8a1,1,0,1,1,1.36-1.41C41.06,312.61,112.6,382.32,177.09,392.77Z"/><path class="cls-5" d="M85.83,304.87c.88-20.36,21.14-13.75,32.45,1s43.07,75.12,61.94,88.4c7.31,5.14,5.63,6.08-.48,4.14C149.28,388.75,84.61,332.91,85.83,304.87Z"/><path class="cls-6" d="M185,398.5c.38.83-.43,1.05-2.11.75-48.59-25.58-87.43-98.19-87.55-98.42a.82.82,0,1,1,1.44-.78C96.86,300.28,136.23,373.88,185,398.5Z"/><path class="cls-5" d="M57,371.73c-15.41,11.2.2,23.57,17.55,24.75s80.76-5.23,100.84,2.62c7.79,3,7.65,1.24,3-2.51C155.05,377.86,78.16,356.31,57,371.73Z"/><path class="cls-6" d="M181.06,400.61c.84-.13.59-.87-.51-2-45-24.65-121.63-17.43-121.87-17.4a.76.76,0,1,0,.14,1.52C59.06,382.69,136.72,375.37,181.06,400.61Z"/></g><path class="cls-8" d="M464.34,259c-8-23-28.95-8.52-36.85,12.29S403.84,372.21,386.75,393.9c-6.62,8.41-4.37,8.91,2,4.59C420.33,376.94,475.34,290.76,464.34,259Z"/><path class="cls-9" d="M382.76,400.34c-.14,1.08.85,1.05,2.68.14,46.95-46,66.61-142.54,66.67-142.85a1,1,0,1,0-1.92-.4C450.12,257.54,430.2,355.41,382.76,400.34Z"/><path class="cls-5" d="M417.48,278.42c-11-17.19-25.19-1.32-27.57,17.13s.35,86.6-9.34,107.54c-3.75,8.12-1.82,8.09,2.49,3.35C404.57,382.79,432.57,302.07,417.48,278.42Z"/><path class="cls-6" d="M374.32,426.1c.09.9.89.69,2.2-.41,29.24-46.48,26.49-128.78,26.48-129a.82.82,0,1,0-1.64.05C401.37,297,404.16,380.38,374.32,426.1Z"/><g class="cls-7"><path class="cls-3" d="M547.11,312.53C553.48,289,528,289.19,509.73,302s-76.32,70.11-102.64,78.42c-10.21,3.22-8.63,4.9-1,4.9C444.39,385.24,538.35,344.94,547.11,312.53Z"/><path class="cls-4" d="M400.16,383.45c-.72.81.11,1.35,2.14,1.62,64.68-11.6,135.26-80.36,135.49-80.58a1,1,0,0,0-1.37-1.42C536.2,303.29,464.65,373,400.16,383.45Z"/><path class="cls-5" d="M496,290.93c-.88-20.37-21.14-13.75-32.44,1s-43.08,75.13-61.94,88.4c-7.32,5.15-5.64,6.09.47,4.14C432.6,374.8,497.26,319,496,290.93Z"/><path class="cls-6" d="M396.92,384.56c-.38.82.43,1,2.11.74,48.59-25.58,87.43-98.19,87.55-98.42a.82.82,0,0,0-1.44-.78C485,286.33,445.65,359.93,396.92,384.56Z"/><path class="cls-5" d="M513.8,368.78c15.41,11.2-.2,23.56-17.55,24.75s-80.76-5.23-100.84,2.62c-7.79,3-7.65,1.24-3-2.51C415.7,374.91,492.59,353.36,513.8,368.78Z"/><path class="cls-6" d="M389.69,397.66c-.84-.13-.6-.87.5-2,45-24.65,121.63-17.43,121.88-17.41a.79.79,0,0,1,.7.84.77.77,0,0,1-.84.69C511.69,379.74,434,372.42,389.69,397.66Z"/></g><path class="cls-10" d="M369.81,56.26a18.32,18.32,0,1,1-5.36,12.95,18.26,18.26,0,0,1,5.36-12.95Zm4-18.15a32.18,32.18,0,0,0-7.18,3,32.85,32.85,0,0,0-6.3,4.75,1.12,1.12,0,0,1-1.34.16l-8.51-4.91,0,0a2.16,2.16,0,0,0-1.55-.18,2.11,2.11,0,0,0-1.29,1l0,.06-6,10.37a2.1,2.1,0,0,0-.2,1.6,2.07,2.07,0,0,0,1,1.28l.06,0,8.44,4.87a1.11,1.11,0,0,1,.53,1.24h0a32.63,32.63,0,0,0-.72,3.87,33.95,33.95,0,0,0,0,7.89,32.63,32.63,0,0,0,.72,3.87,1.14,1.14,0,0,1-.6,1.28l-8.44,4.87h0a2.13,2.13,0,0,0-.77,2.88l6,10.43h0a2.11,2.11,0,0,0,1.29,1,2.08,2.08,0,0,0,1.59-.21l.07,0L359,92.34a1.13,1.13,0,0,1,1.33.16,32.85,32.85,0,0,0,6.3,4.75,32,32,0,0,0,7.23,3.07,1.12,1.12,0,0,1,.81,1.08v9.82a2.12,2.12,0,0,0,2.11,2.1h12.05a2.06,2.06,0,0,0,1.48-.62,2.09,2.09,0,0,0,.62-1.48V101.4a1.12,1.12,0,0,1,.87-1.09,32.4,32.4,0,0,0,13.47-7.81,1.12,1.12,0,0,1,1.4-.12l8.45,4.87a2.11,2.11,0,0,0,2.88-.77l0-.06,6-10.37h0a2.11,2.11,0,0,0-.77-2.88l-8.5-4.91a1.12,1.12,0,0,1-.53-1.24h0a32.61,32.61,0,0,0,.71-3.87,32.54,32.54,0,0,0,0-7.89,32.61,32.61,0,0,0-.71-3.87,1.11,1.11,0,0,1,.59-1.27l8.44-4.88a2.06,2.06,0,0,0,1-1.28,2.1,2.1,0,0,0-.21-1.6l0-.06-6-10.37h0a2.11,2.11,0,0,0-2.88-.77h0l-8.51,4.91a1.12,1.12,0,0,1-1.36-.19,33,33,0,0,0-6.28-4.72,32.35,32.35,0,0,0-7.22-3.07,1.12,1.12,0,0,1-.82-1.08V27.2a2.12,2.12,0,0,0-2.1-2.11H376.74a2.12,2.12,0,0,0-2.11,2.11V37A1.14,1.14,0,0,1,373.77,38.11Z"/><path class="cls-11" d="M167.8,88.7a14.79,14.79,0,1,1-4.33,10.46A14.72,14.72,0,0,1,167.8,88.7ZM171,74a25.44,25.44,0,0,0-5.79,2.47,26.51,26.51,0,0,0-5.09,3.83.89.89,0,0,1-1.08.13l-6.88-4,0,0a1.74,1.74,0,0,0-1.26-.14,1.65,1.65,0,0,0-1,.79l0,0L145,85.55a1.73,1.73,0,0,0,.63,2.33l0,0,6.81,3.93a.91.91,0,0,1,.43,1h0a26.59,26.59,0,0,0-.57,3.13,26.79,26.79,0,0,0,0,6.37,26.59,26.59,0,0,0,.57,3.13.9.9,0,0,1-.48,1l-6.81,3.93h0a1.73,1.73,0,0,0-.63,2.33l4.87,8.43h0a1.72,1.72,0,0,0,2.32.62l.06,0,6.82-3.94a.92.92,0,0,1,1.08.13,26.56,26.56,0,0,0,5.09,3.84,26.23,26.23,0,0,0,5.83,2.48.9.9,0,0,1,.66.87v7.93a1.71,1.71,0,0,0,1.7,1.7h9.73a1.68,1.68,0,0,0,1.2-.5,1.7,1.7,0,0,0,.5-1.2v-7.93a.92.92,0,0,1,.7-.89,26.14,26.14,0,0,0,5.8-2.46A26.49,26.49,0,0,0,196.4,118a.91.91,0,0,1,1.13-.1l6.83,3.94a1.72,1.72,0,0,0,2.32-.62l0,0,4.84-8.38h0a1.68,1.68,0,0,0,.16-1.29,1.72,1.72,0,0,0-.78-1l-6.87-4a.91.91,0,0,1-.43-1h0a26.6,26.6,0,0,0,.58-3.13,26.79,26.79,0,0,0,0-6.37,26.6,26.6,0,0,0-.58-3.13.92.92,0,0,1,.48-1l6.82-3.93a1.74,1.74,0,0,0,.62-2.33l0,0-4.83-8.37h0a1.65,1.65,0,0,0-1-.79,1.68,1.68,0,0,0-1.29.16h0l-6.87,4a.92.92,0,0,1-1.11-.15A26.07,26.07,0,0,0,185.48,74a.92.92,0,0,1-.66-.88V65.23a1.71,1.71,0,0,0-.5-1.21,1.73,1.73,0,0,0-1.2-.5h-9.73a1.75,1.75,0,0,0-1.2.5,1.71,1.71,0,0,0-.5,1.21v7.92A.92.92,0,0,1,171,74Z"/><path class="cls-12" d="M169,176.66a9.9,9.9,0,1,1-2.9,7,9.86,9.86,0,0,1,2.9-7Zm2.14-9.81a17.16,17.16,0,0,0-3.88,1.65,17.53,17.53,0,0,0-3.41,2.57.61.61,0,0,1-.72.09l-4.6-2.66,0,0a1.17,1.17,0,0,0-.84-.09,1.13,1.13,0,0,0-.69.53l0,0-3.24,5.6a1.21,1.21,0,0,0-.11.87,1.14,1.14,0,0,0,.53.69l0,0,4.57,2.64a.59.59,0,0,1,.28.67h0a20.27,20.27,0,0,0-.38,2.09,16.69,16.69,0,0,0-.13,2.13,16.47,16.47,0,0,0,.13,2.13,20,20,0,0,0,.38,2.1.61.61,0,0,1-.32.69l-4.56,2.63h0a1.17,1.17,0,0,0-.53.69,1.2,1.2,0,0,0,.11.87l3.26,5.64h0a1.16,1.16,0,0,0,1.56.41h0l4.57-2.64a.6.6,0,0,1,.72.09,17.64,17.64,0,0,0,7.31,4.22.61.61,0,0,1,.44.59v5.3a1.16,1.16,0,0,0,1.14,1.14h6.51a1.14,1.14,0,0,0,1.14-1.14v-5.3a.62.62,0,0,1,.47-.6,17.1,17.1,0,0,0,3.88-1.65,17.41,17.41,0,0,0,3.4-2.56.61.61,0,0,1,.76-.07l4.57,2.63a1.15,1.15,0,0,0,1.55-.41l0,0,3.24-5.6h0a1.11,1.11,0,0,0,.11-.87,1.17,1.17,0,0,0-.53-.69l-4.59-2.65a.62.62,0,0,1-.29-.67h0a15.88,15.88,0,0,0,.38-2.1,16.47,16.47,0,0,0,.13-2.13,16.69,16.69,0,0,0-.13-2.13,16,16,0,0,0-.38-2.09.61.61,0,0,1,.32-.69l4.56-2.64a1.14,1.14,0,0,0,.53-.69,1.09,1.09,0,0,0-.11-.86l0,0-3.23-5.6h0a1.11,1.11,0,0,0-.69-.53,1.09,1.09,0,0,0-.86.11h0l-4.6,2.66a.61.61,0,0,1-.74-.11,17.6,17.6,0,0,0-3.39-2.55,17.82,17.82,0,0,0-3.91-1.66.61.61,0,0,1-.44-.58V161a1.14,1.14,0,0,0-1.14-1.14h-6.51a1.11,1.11,0,0,0-.8.34,1.13,1.13,0,0,0-.34.8v5.31A.6.6,0,0,1,171.09,166.85Z"/><path class="cls-13" d="M102.29,402.58a3.4,3.4,0,0,1-1.76-.09,8.46,8.46,0,0,1-1.83-.65,9.54,9.54,0,0,1-1-.59,2.33,2.33,0,0,1-.51-.43.76.76,0,0,1,0-.92.93.93,0,0,1,.78-.36,2,2,0,0,1,.65.12,6.56,6.56,0,0,1,1.08.42,6.15,6.15,0,0,1,1.58,1.15c.79.79,1,1.45,1,1.48s-.46-.51-1.26-1.17a6.81,6.81,0,0,0-2.54-1.32c-.36-.11-.68-.13-.79,0s0,.09,0,.2a1.82,1.82,0,0,0,.38.32,10.55,10.55,0,0,0,.91.58,9.62,9.62,0,0,0,1.68.73A10.88,10.88,0,0,1,102.29,402.58Z"/><path class="cls-14" d="M146.54,370.13l-1.66,18.11s17.86,7.76,17.88,11.14l-35.23-1.95L129,369.11Z"/><g class="cls-15"><path class="cls-16" d="M127.53,397.43l.25-2.85,33.68,2.93s1.53.77,1.3,1.87Z"/></g><path class="cls-13" d="M145.47,388.09c0,.17-.88.2-1.76.71s-1.37,1.2-1.52,1.12.15-1.05,1.23-1.65S145.51,387.93,145.47,388.09Z"/><path class="cls-13" d="M149.08,389.82c0,.17-.73.42-1.36,1.12s-.84,1.45-1,1.44-.22-1,.57-1.85S149.08,389.66,149.08,389.82Z"/><path class="cls-13" d="M150.93,394.36c-.16,0-.35-.85.14-1.76s1.32-1.25,1.39-1.1-.46.62-.86,1.38S151.1,394.35,150.93,394.36Z"/><path class="cls-13" d="M145.39,383.92c-.09.15-.86-.13-1.84-.12s-1.75.28-1.83.13.68-.73,1.83-.73S145.48,383.79,145.39,383.92Z"/><path class="cls-13" d="M145.65,380.26a3.3,3.3,0,0,1-1.76-.11,7.44,7.44,0,0,1-1.82-.67,8,8,0,0,1-1-.59,2.18,2.18,0,0,1-.51-.44.76.76,0,0,1,0-.92,1,1,0,0,1,.78-.35,2.35,2.35,0,0,1,.65.12,6.58,6.58,0,0,1,1.08.44,6.1,6.1,0,0,1,1.57,1.16c.77.8,1,1.46,1,1.49s-.45-.51-1.25-1.18a7,7,0,0,0-1.52-1,6.25,6.25,0,0,0-1-.37c-.37-.12-.69-.14-.79,0s0,.09,0,.2a1.77,1.77,0,0,0,.37.32,9.35,9.35,0,0,0,.91.59,9.7,9.7,0,0,0,1.66.75A11.52,11.52,0,0,1,145.65,380.26Z"/><path class="cls-13" d="M145.41,380.49a2.8,2.8,0,0,1-.37-1.73,5.71,5.71,0,0,1,.35-1.91,6,6,0,0,1,.51-1.05,1.44,1.44,0,0,1,1.17-.83.83.83,0,0,1,.71.53,2.21,2.21,0,0,1,.15.66,3.88,3.88,0,0,1-.07,1.19,4.05,4.05,0,0,1-.85,1.78c-.74.87-1.47,1-1.48,1s.57-.39,1.14-1.23a4.1,4.1,0,0,0,.65-1.63,3.47,3.47,0,0,0,0-1c0-.38-.15-.69-.3-.66s-.48.25-.64.54a6.15,6.15,0,0,0-.93,2.68C145.36,379.82,145.51,380.47,145.41,380.49Z"/><path class="cls-17" d="M409,310.17l9.25-2.88Z"/><circle class="cls-18" cx="4.83" cy="267.2" r="3.59"/><circle class="cls-18" cx="603.13" cy="260.85" r="3.59"/><circle class="cls-19" cx="462.86" cy="140.31" r="3.59"/><circle class="cls-19" cx="31.63" cy="228.87" r="3.59"/><circle class="cls-19" cx="591.78" cy="296.35" r="3.59"/><path class="cls-20" d="M533.64,186.26l-.87,10.27s-.56,1.58,4.43,3.37c6.06,2.17,11.08-3.37,11.08-3.37l-.42-10.46"/><path class="cls-20" d="M529.45,164.27s-9.73,16.25-3,22.75c6.12,5.9,19.59,2.2,20.82.14s8.89-20.23,4.7-22.72C544.54,160,533.61,157.27,529.45,164.27Z"/><path class="cls-21" d="M510.55,143.67c-.45-5.86.34-22.47-.68-22.91s-1.46,5.19-2.23,4.67-.72-9.21-1.86-9.37c-1.55-.22-1.14,8.69-1.14,8.69s-.94-9.74-2.34-9.54c-1,.14-.62,7.6-.84,10.48-.16-3.15-1.08-9-2.11-8.82s-.81,6-.91,9.94c-.17-2.44-.66-7.78-1.62-7.66s-1.24,14-1.26,25.67"/><path class="cls-21" d="M509.07,202.41a176.34,176.34,0,0,1-10.23-28.56c-3.94-15.38-3.25-35.37-3.25-35.37L510.38,141s.68,27.9,17.52,55.61"/><path class="cls-22" d="M498.64,127.47c1.22,1.86,2.84,4,2.76,7.66"/><path class="cls-22" d="M507.51,126.77c-1.42,1.27-3,4.69-2.22,6.44"/><path class="cls-23" d="M572.91,119.43c0-.06.09.11.12.17l.14.26.23.53a11,11,0,0,1,.4,1.09,10.65,10.65,0,0,1,.29,1.11,8.77,8.77,0,0,1,.19,1.16,5.23,5.23,0,0,1-.58-1,10.06,10.06,0,0,1-.42-1.08c-.1-.37-.21-.74-.28-1.13l-.09-.57,0-.3v-.15S572.89,119.31,572.91,119.43Z"/><rect class="cls-14" x="180.95" y="91.55" width="211.12" height="341.01" rx="16.38" ry="16.38"/><path class="cls-16" d="M201,115.49h173a8.68,8.68,0,0,1,8.68,8.68V408.72a13.83,13.83,0,0,1-13.83,13.83H204.09a13.83,13.83,0,0,1-13.83-13.83V126.27A10.78,10.78,0,0,1,201,115.49Z"/><g class="cls-24"><polygon class="cls-25" points="336.52 53.61 178.53 450.51 224.45 450.51 382.44 53.61 336.52 53.61"/><polygon class="cls-26" points="396.64 53.61 238.65 450.51 258.12 450.51 416.11 53.61 396.64 53.61"/></g><rect class="cls-27" x="278.51" y="101.09" width="16" height="5.75" rx="2.87" ry="2.87"/><path class="cls-11" d="M516.3,86.91a20.18,20.18,0,1,1-2.87,15.19,20.13,20.13,0,0,1,2.87-15.19Zm.17-20.49a35.5,35.5,0,0,0-12.78,11.47,1.25,1.25,0,0,1-1.41.48L492,75l-.06,0a2.33,2.33,0,0,0-2.87,1.51l0,.07L484.9,89.08A2.34,2.34,0,0,0,486.39,92l.07,0,10.21,3.36a1.24,1.24,0,0,1,.85,1.22h0a35.19,35.19,0,0,0,.11,4.34,36.42,36.42,0,0,0,.63,4.31,35,35,0,0,0,1.15,4.2,35.6,35.6,0,0,0,1.64,4,1.26,1.26,0,0,1-.35,1.51l-8,7.16h0a2.3,2.3,0,0,0-.77,1.61,2.34,2.34,0,0,0,.58,1.68l8.85,9.9h0a2.29,2.29,0,0,0,1.6.76,2.25,2.25,0,0,0,1.68-.58l.06-.05,8-7.17a1.24,1.24,0,0,1,1.48-.13,35.82,35.82,0,0,0,7.87,3.7,35.42,35.42,0,0,0,8.49,1.69,1.25,1.25,0,0,1,1.13,1l2.21,10.59a2.32,2.32,0,0,0,2.75,1.8l13-2.72a2.29,2.29,0,0,0,1.46-1,2.31,2.31,0,0,0,.34-1.75l-2.22-10.59a1.25,1.25,0,0,1,.69-1.38A35.35,35.35,0,0,0,562.7,118a1.24,1.24,0,0,1,1.48-.45L574.41,121a2.35,2.35,0,0,0,1.77-.14,2.33,2.33,0,0,0,1.16-1.35l0-.07,4.12-12.55h0a2.31,2.31,0,0,0-.14-1.77,2.34,2.34,0,0,0-1.34-1.16l-10.29-3.38a1.24,1.24,0,0,1-.85-1.22h0a35.14,35.14,0,0,0-.11-4.34,36.42,36.42,0,0,0-.63-4.31,36.23,36.23,0,0,0-2.79-8.22,1.25,1.25,0,0,1,.36-1.51l8-7.16a2.33,2.33,0,0,0,.76-1.61,2.37,2.37,0,0,0-.58-1.68l0-.06L565,60.58h0a2.36,2.36,0,0,0-1.6-.77,2.3,2.3,0,0,0-1.68.59h0l-8.08,7.22a1.22,1.22,0,0,1-1.51.11,35.81,35.81,0,0,0-16.33-5.37,1.25,1.25,0,0,1-1.13-1l-2.21-10.59a2.32,2.32,0,0,0-1-1.47,2.28,2.28,0,0,0-1.74-.33l-13,2.72a2.32,2.32,0,0,0-1.8,2.74l2.22,10.6A1.23,1.23,0,0,1,516.47,66.42Z"/><path class="cls-21" d="M578.5,136.49c-1-6.46-3.4-21.66-4.49-21.91s-1.54,3.37-1.1,4.85c-.69-2.76-2.6-8.81-3.75-8.77-1.57.06.4,8.76.4,8.76s-2.63-9.42-4-9c-1,.31.73,7.59,1,10.46-.71-3.07-2.64-8.66-3.63-8.32s.26,6.1.85,10c-.6-2.38-2-7.55-2.94-7.27s1.48,12.2,2.91,24.1"/><path class="cls-21" d="M575.44,197.17a175.5,175.5,0,0,0,5.13-29.9c1.22-15.83-2.93-35.4-2.93-35.4l-14.14,5s4.18,27.6-7.61,57.81"/><line class="cls-28" x1="130.81" y1="446.61" x2="113.04" y2="265.26"/><polyline class="cls-28" points="199.98 446.61 182.22 265.26 113.04 265.26"/><line class="cls-28" x1="164.45" y1="446.61" x2="182.22" y2="265.26"/><polyline class="cls-28" points="95.27 446.61 113.04 265.26 182.22 265.26"/><line class="cls-28" x1="197.14" y1="420.92" x2="97.79" y2="420.92"/><line class="cls-28" x1="194.83" y1="398.71" x2="99.97" y2="398.71"/><line class="cls-28" x1="193.05" y1="375.89" x2="102.2" y2="375.89"/><line class="cls-28" x1="190.84" y1="354.15" x2="104.33" y2="354.15"/><line class="cls-28" x1="188.7" y1="331.43" x2="106.46" y2="331.43"/><line class="cls-28" x1="186.49" y1="308.91" x2="108.69" y2="308.91"/><line class="cls-28" x1="183.91" y1="287.65" x2="110.85" y2="287.65"/><path class="cls-14" d="M522.6,411.24l.77,18.42s-18.46,7-18.65,10.39l35.77-.21,0-28.75Z"/><path class="cls-29" d="M534.43,428.05a1.47,1.47,0,0,1,1,1.66,1.4,1.4,0,0,1-1.64,1,1.52,1.52,0,0,1-1.07-1.76,1.46,1.46,0,0,1,1.82-.88"/><g class="cls-15"><path class="cls-16" d="M540.49,439.84l-.12-2.9-34.25,1.29s-1.59.7-1.4,1.82Z"/></g><path class="cls-13" d="M522.79,429.48c0,.18.88.25,1.75.81s1.32,1.29,1.48,1.22-.1-1.08-1.16-1.74S522.75,429.32,522.79,429.48Z"/><path class="cls-13" d="M519.05,431.06c0,.17.72.46,1.32,1.19s.77,1.52.94,1.51.28-1-.48-1.9S519.05,430.89,519.05,431.06Z"/><path class="cls-13" d="M516.94,435.56c.16,0,.4-.84-.05-1.79s-1.28-1.33-1.35-1.19.44.66.8,1.45S516.77,435.54,516.94,435.56Z"/><path class="cls-13" d="M523.08,425.27c.08.15.88-.09,1.86,0s1.76.37,1.85.22-.65-.77-1.81-.83S523,425.13,523.08,425.27Z"/><path class="cls-13" d="M523,421.55a3.45,3.45,0,0,0,1.79,0,8.27,8.27,0,0,0,2.89-1.14,2.21,2.21,0,0,0,.54-.43.77.77,0,0,0,.08-.93,1,1,0,0,0-.77-.39,2.59,2.59,0,0,0-.67.09,6.89,6.89,0,0,0-1.11.39,6.15,6.15,0,0,0-1.65,1.1c-.82.77-1.1,1.43-1,1.46s.48-.49,1.32-1.13a6.93,6.93,0,0,1,1.59-.91,7.31,7.31,0,0,1,1-.33c.37-.1.7-.1.79.07s.05.09,0,.2a2.06,2.06,0,0,1-.4.31,9,9,0,0,1-.94.54,9.74,9.74,0,0,1-1.73.68A10.76,10.76,0,0,0,523,421.55Z"/><path class="cls-13" d="M523.22,421.79c.07,0,.41-.6.47-1.73a6,6,0,0,0-.26-2A5.56,5.56,0,0,0,523,417a1.46,1.46,0,0,0-1.15-.9.83.83,0,0,0-.74.5,2.34,2.34,0,0,0-.18.66,3.78,3.78,0,0,0,0,1.21,4,4,0,0,0,.78,1.84c.7.93,1.43,1.13,1.45,1.07s-.56-.42-1.1-1.31a4.16,4.16,0,0,1-.57-1.68,3.57,3.57,0,0,1,0-1c.06-.38.2-.69.34-.65s.48.28.63.58a6,6,0,0,1,.45,1,6.39,6.39,0,0,1,.36,1.78C523.31,421.11,523.13,421.77,523.22,421.79Z"/><path class="cls-14" d="M583.54,407.43l5.81,23.05,9.86,16.91a2.43,2.43,0,0,1-1,3.41h0a2.44,2.44,0,0,1-2.23,0c-4.42-2.39-20.65-11.25-21-13-.39-2-7.75-23.92-7.75-23.92Z"/><g class="cls-15"><path class="cls-16" d="M598.18,450.8l-23.64-14.54.27,1a3.66,3.66,0,0,0,1.47,2.06c1.93,1.31,7.33,4.8,19.61,11.5a2.41,2.41,0,0,0,2.29,0Z"/></g><g class="cls-15"><path class="cls-16" d="M577.2,427.57a1.48,1.48,0,0,1,.9,1.75,1.43,1.43,0,0,1-1.73.91,1.56,1.56,0,0,1-.94-1.86,1.47,1.47,0,0,1,1.9-.75"/></g><path class="cls-13" d="M590.18,442.24a7.28,7.28,0,0,1,1.51-2.34,7.38,7.38,0,0,1,2.5-1.23c0-.06-.33-.16-.89-.09a3.81,3.81,0,0,0-1.95.93,3.75,3.75,0,0,0-1.15,1.83C590.06,441.89,590.12,442.24,590.18,442.24Z"/><path class="cls-13" d="M592.66,444.86c.13.07.66-.88,1.76-1.55s2.16-.75,2.15-.91a2.73,2.73,0,0,0-2.43.47C592.9,443.64,592.52,444.83,592.66,444.86Z"/><path class="cls-13" d="M586.05,439.15a23.64,23.64,0,0,1,2.55-2.57,25,25,0,0,1,3.18-1.74,6.68,6.68,0,0,0-5.73,4.31Z"/><path class="cls-13" d="M583.7,432.28c.1.13,1.22-.75,2.85-1.27s3.05-.48,3.06-.63a4.71,4.71,0,0,0-3.22.13A4.78,4.78,0,0,0,583.7,432.28Z"/><path class="cls-13" d="M581.82,425.56a11.88,11.88,0,0,1,2.93-1.4,11.57,11.57,0,0,1,3.25-.08c0-.06-.3-.28-.91-.44a5.21,5.21,0,0,0-2.46,0,5.4,5.4,0,0,0-2.19,1.1C582,425.17,581.77,425.52,581.82,425.56Z"/><path class="cls-13" d="M584.36,422.89a2,2,0,0,0-.21-.88,6.17,6.17,0,0,0-1.32-2.08,2.76,2.76,0,0,0-1.49-1,1,1,0,0,0-1,.51,1.53,1.53,0,0,0-.07,1.13,3.44,3.44,0,0,0,3.75,2.27,4,4,0,0,0,3.23-3.06,1.38,1.38,0,0,0-.25-1.13,1,1,0,0,0-1.1-.22,3.43,3.43,0,0,0-1.29,1.2,7.07,7.07,0,0,0-1.08,2.21,2.15,2.15,0,0,0-.13.89,11.44,11.44,0,0,1,1.5-2.88,3.3,3.3,0,0,1,1.15-1,.52.52,0,0,1,.61.12,1,1,0,0,1,.11.75,3.56,3.56,0,0,1-2.82,2.62,3,3,0,0,1-3.22-1.88,1.12,1.12,0,0,1,0-.79.53.53,0,0,1,.55-.29,2.5,2.5,0,0,1,1.28.79A9.46,9.46,0,0,1,584.36,422.89Z"/><path class="cls-30" d="M513.53,274.76l3.54,150.12a2.1,2.1,0,0,0,2.27,1.81l21.38-.15a2.08,2.08,0,0,0,2.24-1.88l-3.32-129.21L567.45,423.7a3.92,3.92,0,0,0,4.11,2.72l17.94-.51c2.41-.06,4.22-1.85,3.84-3.8l-28.16-148Z"/><polygon class="cls-21" points="448.16 358.31 453.12 440.68 437.97 443.96 426.62 360.04 448.16 358.31"/><polygon class="cls-14" points="453.57 440.36 456.15 450.54 438.72 450.54 437.97 443.91 453.57 440.36"/><path class="cls-13" d="M438.36,449.06a14.15,14.15,0,0,0,2.54.13c1.57,0,3.74,0,6.13-.1l6.11-.24a15.36,15.36,0,0,0,2.54-.18,13.71,13.71,0,0,0-2.54-.12c-1.57,0-3.74,0-6.13.1l-6.11.23A16.87,16.87,0,0,0,438.36,449.06Z"/><path class="cls-13" d="M445.75,442.34a22.13,22.13,0,0,0,.49,6.56,11.58,11.58,0,0,0,0-3.29A11.75,11.75,0,0,0,445.75,442.34Z"/><g class="cls-15"><polyline class="cls-16" points="456.15 450.54 438.72 450.54 438.55 449.06 455.83 448.67 456.15 450.36"/></g><polygon class="cls-21" points="393.36 421.41 389.68 446.26 376.27 445.42 379.09 422.64 393.36 421.41"/><path class="cls-14" d="M376.13,442.72h0s-15.06,4.57-15.31,7l28.8.75.26-6.75-1.06.19A23.64,23.64,0,0,1,376.13,442.72Z"/><g class="cls-15"><path class="cls-16" d="M389.62,450.5v-2.09l-27.61.06s-1.3.47-1.18,1.28Z"/></g><path class="cls-13" d="M375.67,442.58c0,.13.7.2,1.38.63s1,1,1.16.91,0-.78-.88-1.28S375.64,442.46,375.67,442.58Z"/><path class="cls-13" d="M372.61,443.62c0,.12.57.35,1,.9s.58,1.11.72,1.11.25-.71-.33-1.38S372.62,443.5,372.61,443.62Z"/><path class="cls-13" d="M370.79,446.82c.13,0,.34-.59,0-1.29s-1-1-1.05-.89.33.48.6,1.06S370.65,446.8,370.79,446.82Z"/><path class="cls-31" d="M439.09,294.5s11.41,17.08,11.41,26.61l2.62,116-18.38,2.42-12.82-113.4S392.47,441,391.47,441s-16.28-2.46-16.28-2.46l23.18-142.41Z"/><path class="cls-14" d="M103.08,392.44l-1.48,18.12s17.93,7.58,18,11l-35.25-1.59,1.14-28.34Z"/><g class="cls-15"><path class="cls-16" d="M84.34,419.93l.23-2.85,33.71,2.59s1.54.75,1.31,1.85Z"/></g><path class="cls-13" d="M102.18,410.41c0,.17-.87.21-1.75.72s-1.35,1.22-1.51,1.15.15-1.06,1.22-1.67S102.23,410.25,102.18,410.41Z"/><path class="cls-13" d="M105.81,412.1c0,.17-.73.43-1.34,1.13s-.82,1.47-1,1.45-.24-1,.54-1.85S105.82,411.94,105.81,412.1Z"/><path class="cls-13" d="M107.71,416.62c-.16,0-.36-.84.13-1.76s1.3-1.26,1.37-1.12-.45.63-.84,1.4S107.88,416.61,107.71,416.62Z"/><path class="cls-13" d="M102.06,406.24c-.08.15-.86-.12-1.83-.1s-1.75.3-1.83.15.67-.74,1.82-.75S102.15,406.11,102.06,406.24Z"/><rect class="cls-32" x="201.36" y="136.55" width="168.46" height="90"/><rect class="cls-33" x="201.97" y="236.9" width="78.82" height="78.82"/><rect class="cls-34" x="290.89" y="326.36" width="78.82" height="78.82"/><polygon class="cls-16" points="289.55 164.92 312.86 204.79 266.24 204.79 289.55 164.92"/><polygon class="cls-16" points="265.93 178.03 272.06 188.21 261.99 204.79 250.4 204.79 265.93 178.03"/><path class="cls-16" d="M254,162.62a4.32,4.32,0,1,0,4.31-4.32A4.32,4.32,0,0,0,254,162.62Z"/><rect class="cls-35" x="291.5" y="249.77" width="78.1" height="5.78" transform="translate(661.11 505.32) rotate(180)"/><rect class="cls-36" x="291.5" y="260.52" width="78.1" height="5.78" transform="translate(661.11 526.83) rotate(180)"/><rect class="cls-37" x="291.5" y="271.28" width="78.1" height="5.78" transform="translate(661.11 548.33) rotate(180)"/><rect class="cls-38" x="291.5" y="282.03" width="78.1" height="5.78" transform="translate(661.11 569.84) rotate(180)"/><rect class="cls-39" x="291.5" y="303.54" width="78.1" height="5.78" transform="translate(661.11 612.85) rotate(180)"/><rect class="cls-40" x="322.93" y="292.78" width="46.68" height="5.78" transform="translate(692.54 591.35) rotate(180)"/><rect class="cls-41" x="291.5" y="292.78" width="26.12" height="5.78"/><rect class="cls-42" x="202.33" y="335.7" width="78.1" height="5.78" transform="translate(482.76 677.19) rotate(180)"/><rect class="cls-43" x="202.33" y="346.46" width="78.1" height="5.78" transform="translate(482.76 698.69) rotate(180)"/><rect class="cls-44" x="202.33" y="357.21" width="78.1" height="5.78" transform="translate(482.76 720.2) rotate(180)"/><rect class="cls-45" x="202.33" y="367.96" width="78.1" height="5.78" transform="translate(482.76 741.71) rotate(180)"/><rect class="cls-46" x="202.33" y="389.47" width="78.1" height="5.78" transform="translate(482.76 784.72) rotate(180)"/><rect class="cls-47" x="255.61" y="378.72" width="24.83" height="5.78" transform="translate(536.04 763.21) rotate(180)"/><rect class="cls-48" x="202.33" y="378.72" width="47.65" height="5.78"/><circle class="cls-16" cx="241.38" cy="277.06" r="21.85"/><circle class="cls-49" cx="241.38" cy="277.06" r="18.85"/><circle class="cls-16" cx="241.38" cy="277.06" r="15.71"/><circle class="cls-50" cx="241.38" cy="277.06" r="12.51"/><circle class="cls-16" cx="241.38" cy="277.06" r="8.09"/><polygon class="cls-51" points="263.11 255.68 241.97 276.94 240.96 277.36 241.38 276.31 262.61 255.21 263.11 255.68"/><polyline class="cls-16" points="257.43 260.36 257.75 255.95 260.25 253.62 260.21 258.21 265 258.21 261.26 260.87 257.9 260.91"/><line class="cls-52" x1="358.73" y1="388.07" x2="301.49" y2="388.07"/><rect class="cls-16" x="309.62" y="381.17" width="5.57" height="6.41"/><rect class="cls-16" x="319.71" y="376.46" width="5.57" height="11.12"/><rect class="cls-16" x="329.41" y="369.41" width="5.57" height="18.18"/><rect class="cls-16" x="339.16" y="363.71" width="5.57" height="23.87"/><rect class="cls-16" x="348.34" y="356.99" width="5.57" height="30.59"/><path class="cls-53" d="M351.37,348.43a76.89,76.89,0,0,1-42.95,17.8"/><polyline class="cls-53" points="347.79 348.13 351.67 348.25 350.68 352.03"/><path class="cls-21" d="M132.81,262.87l.71.45a29.66,29.66,0,0,0,7.35,3.75c1.54.46,3.21.69,4.46,1.69a14,14,0,0,0,1.5,1.16c.15.08,1.63.63,1.57.48a2.12,2.12,0,0,0,1.32,1,.45.45,0,0,0,.2,0,.13.13,0,0,0,.1-.15c.19.38.86.54,1.07.34s-.32-1.14-.32-1.14.36,0,.47-.1a1.21,1.21,0,0,0,.23-.72,8.57,8.57,0,0,0-2.53-6.59"/><path class="cls-54" d="M149.43,267.85a3.26,3.26,0,0,0,.39,1.2,12,12,0,0,0,.57,1.2.17.17,0,0,0,.31-.13,5.18,5.18,0,0,0-.46-1.34,2.28,2.28,0,0,0-.69-1c-.05,0-.12,0-.12.07Z"/><path class="cls-54" d="M146.92,267.93a36,36,0,0,1,2.56,3c.08.11.29.05.24-.1-.38-1.32-1.69-2.12-2.63-3-.11-.11-.27.06-.17.17Z"/><path class="cls-21" d="M129,264.8q10.65,0,21.29-.05a10.87,10.87,0,0,0-1.85-2.7,10.18,10.18,0,0,0-2.64-2A24.17,24.17,0,0,0,135,257.42"/><path class="cls-55" d="M104.17,215.87s9.71,25.31,12.13,27.43,25.55,13.62,25.55,13.62l-7.08,15s-27.83-11.12-31.81-15S86.29,238,85,222.85"/><path class="cls-30" d="M78.46,278.9s-3.13,13.87,3.6,30.69a250.07,250.07,0,0,1,3.52,37.68c.27,20.5-.74,46-.74,55.77l18.53.79s8.59-36,7.48-64c-1.32-33-3-61.26-1.41-67.87"/><path class="cls-56" d="M102.2,403.83s6.92-28.48,7.22-56.83c.32-31.14-2.34-66-2.34-75"/><path class="cls-30" d="M117.47,279.29s28.95,26.42,32.89,42.82c2.85,11.85-3.31,59.95-3.31,59.95H127.39s5-44.7,3.42-49.43c-1.9-5.57-25.9-25.69-25.9-25.69s-11.6-2.18-16-12.17c-4-9-2.14-19.91-2.14-19.91"/><path class="cls-56" d="M116.46,280.41s27.62,28.13,32.46,40.18c3.68,9.16-3.71,61.47-3.71,61.47"/><path class="cls-56" d="M112.86,313.79c-2-1.83-5.51-5-6.57-5.91a7.1,7.1,0,0,0-2.33-1.36A21.82,21.82,0,0,1,91.3,294.77"/><path class="cls-57" d="M417.44,339.58c.63-1.58,2.85-11.79,3.7-12.37,2.31-1.58,7.11-2.77,8.44-11.25"/><path class="cls-56" d="M98.37,289.17s7.66.27,10.86,0"/><line class="cls-56" x1="77.73" y1="289.17" x2="83.91" y2="289.17"/><path class="cls-21" d="M169.35,218.79c2.68-1.22,14.9-6.56,15.19-5.82s-3.59,3.29-3.16,3.41a24.06,24.06,0,0,0,5.42-1.68c1.54-.75,4.14-1.72,4.56-1.09.79,1.2-7.72,5.24-7.72,5.24s1.5-.69,2.27.24c1.1,1.34-1.23,2.58-1.23,2.58s1.33-.68,1.78.48-1.55,2.18-1.55,2.18,1.59-.77,1.79.68c.27,1.91-12.44,6.39-12.44,6.39"/><path class="cls-55" d="M111.33,231S126,247.2,139.65,247.2,179,232.69,179,232.69l-6.14-16.87L143,226.55s-15.74-14.71-23-17.42a39.09,39.09,0,0,0-12.55-2.7"/><line class="cls-56" x1="170.04" y1="216.85" x2="175.67" y2="234.51"/><path class="cls-21" d="M90.49,193.59l-1.7,13.68s13.2,6.93,22-.44v-8Z"/><path class="cls-21" d="M108.41,172.12s15.44,19.46,9.79,26.67c-2.93,3.74-12.5,2.85-17.06,0-3.38-2.12-12.83-13.41-11.39-16.29C95.28,171.47,108.41,172.12,108.41,172.12Z"/><path class="cls-21" d="M114.11,182.27c.39.21,4.45,2,4.48,3.61,0,.92-2.24,1.93-2.24,1.93"/><path class="cls-21" d="M146.75,262.68a15.63,15.63,0,0,1,2.78,4.81.42.42,0,0,1,.06.19c0,.32-.46.35-.76.24a6.43,6.43,0,0,1-1.87-1.11,4.28,4.28,0,0,0-.67-.54,4.18,4.18,0,0,0-1.53-.36,7,7,0,0,1-5.36-3.23"/><path class="cls-58" d="M146.75,262.68a11.26,11.26,0,0,1,2.5,3.7l.47,1a.7.7,0,0,1,.08.4.49.49,0,0,1-.32.36,1.08,1.08,0,0,1-.69,0,6.33,6.33,0,0,1-2-1.15,2.8,2.8,0,0,0-.83-.61,4.09,4.09,0,0,0-1-.22,8.14,8.14,0,0,1-2.21-.55,6.09,6.09,0,0,1-3.32-2.93,6.62,6.62,0,0,0,3.46,2.57,9,9,0,0,0,2.12.46,4.85,4.85,0,0,1,1.15.22,3.16,3.16,0,0,1,1,.68,6.19,6.19,0,0,0,1.82,1.1.62.62,0,0,0,.4,0s0,0,0,0,0-.08,0-.13c-.16-.34-.29-.69-.43-1A13.91,13.91,0,0,0,146.75,262.68Z"/><path class="cls-55" d="M95.74,205.1s-4.76.67-9.49,10.83l14-8.28C96.64,206.88,95.74,205.1,95.74,205.1Z"/><path class="cls-55" d="M126.68,282.68s.78-26.24.29-44.61Z"/><path class="cls-55" d="M81.71,218.63H82.8l.52,5.08a62.77,62.77,0,0,1,2.93-7.78Z"/><path class="cls-55" d="M107.44,206.43l18.24,15.65c.71,2.69,1.1,8.72,1.29,16l.16-24.73-22.61-8.24-4.29,2.55.58.12A8.81,8.81,0,0,0,107.44,206.43Z"/><path class="cls-55" d="M125.66,221.41l-18.25-15.64a8.81,8.81,0,0,1-6.63,1.33l-.58-.12-14,8.29A63.08,63.08,0,0,0,83.29,223l3,29.42L77.21,282h49.45L127,237.4C126.76,230.14,126.37,224.1,125.66,221.41Z"/><path class="cls-56" d="M127.08,243.48s-9.2-7-13.65-10.32"/><path class="cls-59" d="M553.24,298.91l30.14,127.18Z"/><path class="cls-60" d="M526.06,298.57l2.24,128.05Z"/><polyline class="cls-60" points="536.04 276.12 536.88 288.13 540.21 290.29"/><path class="cls-57" d="M406.59,310.17a29.82,29.82,0,0,1,10.91-3.74"/><path class="cls-57" d="M432.21,303s1.25-1.62,8.88-3.12"/><path class="cls-61" d="M532.77,196.53c-4.4,0-11.27-14.08-11.27-14.08L503.83,195.6s5.65,17.57,15.23,28.72"/><path class="cls-55" d="M532.77,196.53s.86,2.48,5.74,2.73c6.28.32,9.77-2.73,9.77-2.73S567,199,568.52,219.47c1.74,23.56,2.22,56.65,2.22,56.65H512.35s.39-37.79,1.62-55.82C515.15,203,532.77,196.53,532.77,196.53Z"/><line class="cls-57" x1="512.35" y1="272.89" x2="570.68" y2="272.89"/><path class="cls-57" d="M530.31,196.2s1.24,6.21,8.84,6.21c9.32,0,11.45-6.61,11.45-6.61"/><path class="cls-61" d="M568.47,222.05A196.76,196.76,0,0,0,578,189.77l-18.75-9.07s-4.46,12.44-11,15.83"/><path class="cls-62" d="M105.17,209c.51,24.35,7.87,49.47,7.87,49.47-23.69,6.74-33.31,4.44-33.31,4.44l-.5-3.82-.75,3.82H77v-3.82l-1.55,3.82c-23.63-.55-31.75-13.44-31.75-13.44A44.12,44.12,0,0,0,62.43,231c5.18-9.48,5.3-20,8.36-30.11,2.57-8.45,5.32-18.84,12.39-24.77,10.21-8.58,23.5-8,30.25-2.41,0,0-.93,2.6-2.19,3.19a32.2,32.2,0,0,0-4.51,3.77c.28,8.72-.88,13.5-.88,13.5Z"/><path class="cls-62" d="M106.43,181.13s7-1.61,7-7.38l-2.07-1.43L104,182.09Z"/><path class="cls-21" d="M107.76,188c-1.88-2.39-3.41-2-4.24-.7-1.11,1.75,1.12,5.39,2.15,6,2.1,1.25,3.81,1.12,4-.58"/><path class="cls-21" d="M107.76,188c-1.88-2.39-3.41-2-4.24-.7-1.11,1.75,1.12,5.39,2.15,6,2.1,1.25,3.81,1.12,4-.58"/><path class="cls-21" d="M107.76,188c-1.88-2.39-3.41-2-4.24-.7-1.11,1.75,1.12,5.39,2.15,6,2.1,1.25,3.81,1.12,4-.58"/><path class="cls-63" d="M96.94,187.94a5.93,5.93,0,0,1-.17-1.4,5.29,5.29,0,0,1,.92-2.78,6.83,6.83,0,0,1,2.34-2.22,11.9,11.9,0,0,1,3.37-.89,8.13,8.13,0,0,0,3.34-1.18,6.65,6.65,0,0,0,2.18-2.82,10.47,10.47,0,0,0,.77-3.16,8.48,8.48,0,0,0,0-1,2.12,2.12,0,0,0,0-.37s0,.49-.11,1.32a10.59,10.59,0,0,1-.82,3,6.46,6.46,0,0,1-2.16,2.7,8.44,8.44,0,0,1-3.31,1.13,11.23,11.23,0,0,0-3.38.93,6.84,6.84,0,0,0-2.36,2.33,5.71,5.71,0,0,0-.9,3,5,5,0,0,0,.14,1.09A1.84,1.84,0,0,0,96.94,187.94Z"/><path class="cls-63" d="M96,186.87a5.75,5.75,0,0,1-.66-1.25,5.43,5.43,0,0,1-.12-2.93,6.94,6.94,0,0,1,1.41-2.9,11.75,11.75,0,0,1,2.84-2,8,8,0,0,0,2.71-2.28,6.67,6.67,0,0,0,1-3.41,10.54,10.54,0,0,0-.39-3.23c-.12-.42-.22-.75-.31-1s-.13-.34-.14-.35.16.47.36,1.28a10.72,10.72,0,0,1,.3,3.11A6.49,6.49,0,0,1,102,175.2a8.5,8.5,0,0,1-2.7,2.23,11.09,11.09,0,0,0-2.84,2.06,7.06,7.06,0,0,0-1.39,3,5.56,5.56,0,0,0,.22,3.1,4,4,0,0,0,.51,1A1.63,1.63,0,0,0,96,186.87Z"/><path class="cls-12" d="M253.23,18.09a9.9,9.9,0,1,1-2.9,7,9.88,9.88,0,0,1,2.9-7Zm2.14-9.81a17.1,17.1,0,0,0-3.88,1.65,17.46,17.46,0,0,0-3.4,2.57.6.6,0,0,1-.73.08l-4.6-2.65,0,0a1.13,1.13,0,0,0-.84-.09,1.09,1.09,0,0,0-.7.53l0,0L238,16a1.11,1.11,0,0,0-.11.87,1.13,1.13,0,0,0,.53.69l0,0L243,20.19a.62.62,0,0,1,.29.67h0a17.71,17.71,0,0,0-.39,2.1,19,19,0,0,0,0,4.26,17.54,17.54,0,0,0,.39,2.09.6.6,0,0,1-.32.69l-4.56,2.64h0A1.15,1.15,0,0,0,238,34.2l3.25,5.63h0a1.12,1.12,0,0,0,.7.53,1.09,1.09,0,0,0,.86-.11l0,0,4.57-2.63a.62.62,0,0,1,.73.08,17.4,17.4,0,0,0,7.3,4.23.62.62,0,0,1,.45.58V47.8A1.14,1.14,0,0,0,257,48.94h6.51a1.13,1.13,0,0,0,.8-.34,1.11,1.11,0,0,0,.34-.8V42.49a.61.61,0,0,1,.46-.59A16.91,16.91,0,0,0,269,40.25a17.83,17.83,0,0,0,3.41-2.57.61.61,0,0,1,.75-.07l4.57,2.64a1.11,1.11,0,0,0,.87.11,1.13,1.13,0,0,0,.69-.53l0,0,3.23-5.61h0a1.15,1.15,0,0,0-.41-1.55L277.5,30a.59.59,0,0,1-.28-.67h0a17.54,17.54,0,0,0,.39-2.09,17.51,17.51,0,0,0,0-4.26,17.71,17.71,0,0,0-.39-2.1.6.6,0,0,1,.33-.68l4.56-2.64a1.09,1.09,0,0,0,.52-.69,1.12,1.12,0,0,0-.11-.87v0l-3.24-5.6h0a1.1,1.1,0,0,0-.69-.53,1.11,1.11,0,0,0-.87.11h0l-4.6,2.65a.59.59,0,0,1-.74-.1A17.3,17.3,0,0,0,269,9.93a17.54,17.54,0,0,0-3.9-1.66.61.61,0,0,1-.44-.58V2.38a1.11,1.11,0,0,0-.34-.8,1.13,1.13,0,0,0-.8-.34H257a1.14,1.14,0,0,0-1.14,1.14V7.69A.62.62,0,0,1,255.37,8.28Z"/><path class="cls-64" d="M434.88,182a7.83,7.83,0,1,1-2.3,5.54,7.82,7.82,0,0,1,2.3-5.54Zm1.69-7.78a13.92,13.92,0,0,0-3.07,1.31,14.14,14.14,0,0,0-2.7,2,.46.46,0,0,1-.57.07l-3.65-2.1h0a.9.9,0,0,0-1.21.34l0,0-2.56,4.45a.91.91,0,0,0-.09.68.89.89,0,0,0,.42.55l0,0,3.61,2.08a.48.48,0,0,1,.23.53h0a15.18,15.18,0,0,0-.31,1.66,15.81,15.81,0,0,0-.1,1.69,15.5,15.5,0,0,0,.1,1.69,14.75,14.75,0,0,0,.31,1.66.5.5,0,0,1-.26.55l-3.61,2.08h0a1,1,0,0,0-.42.55.93.93,0,0,0,.09.69l2.58,4.47h0a.88.88,0,0,0,.55.41.9.9,0,0,0,.68-.08l0,0,3.62-2.09a.48.48,0,0,1,.57.07,14.19,14.19,0,0,0,2.7,2,13.87,13.87,0,0,0,3.09,1.31.47.47,0,0,1,.35.46v4.21a.89.89,0,0,0,.27.63.88.88,0,0,0,.64.27H443a.87.87,0,0,0,.63-.27.85.85,0,0,0,.27-.63v-4.21a.5.5,0,0,1,.37-.47,13.49,13.49,0,0,0,3.07-1.3,13.88,13.88,0,0,0,2.7-2,.48.48,0,0,1,.6-.05l3.62,2.09a.9.9,0,0,0,.68.08.88.88,0,0,0,.55-.41l0,0,2.56-4.44h0a.89.89,0,0,0,.09-.69.91.91,0,0,0-.42-.55l-3.64-2.1a.5.5,0,0,1-.23-.53h0a12.8,12.8,0,0,0,.31-1.66,14.33,14.33,0,0,0,0-3.38,13.13,13.13,0,0,0-.31-1.66.48.48,0,0,1,.26-.54l3.61-2.09a.9.9,0,0,0,.33-1.23v0l-2.57-4.44h0a.9.9,0,0,0-1.23-.33h0l-3.64,2.1a.48.48,0,0,1-.59-.08,14,14,0,0,0-5.78-3.34.48.48,0,0,1-.35-.46v-4.2a.88.88,0,0,0-.27-.64.9.9,0,0,0-.63-.26h-5.16a.9.9,0,0,0-.91.9v4.2A.47.47,0,0,1,436.57,174.17Z"/><path class="cls-11" d="M68.63,120.22a5,5,0,1,1-1.46,3.53,5,5,0,0,1,1.46-3.53Zm1.07-4.94a8.87,8.87,0,0,0-2,.83A9,9,0,0,0,66,117.4a.31.31,0,0,1-.37,0l-2.32-1.34h0a.61.61,0,0,0-.42,0,.56.56,0,0,0-.35.27v0l-1.63,2.82a.57.57,0,0,0-.06.44.58.58,0,0,0,.27.35h0l2.3,1.32a.32.32,0,0,1,.15.34h0a8.86,8.86,0,0,0-.2,1,9.64,9.64,0,0,0-.06,1.08,8.25,8.25,0,0,0,.26,2.13.31.31,0,0,1-.16.34l-2.3,1.33h0a.58.58,0,0,0-.27.35.57.57,0,0,0,.06.44l1.64,2.84h0a.58.58,0,0,0,.35.26.54.54,0,0,0,.43-.05h0l2.3-1.33a.32.32,0,0,1,.37,0,8.67,8.67,0,0,0,1.71,1.3,8.83,8.83,0,0,0,2,.83.31.31,0,0,1,.22.3v2.67a.57.57,0,0,0,.17.4.54.54,0,0,0,.4.17h3.28a.58.58,0,0,0,.58-.57v-2.67a.3.3,0,0,1,.23-.3,9,9,0,0,0,2-.83,8.67,8.67,0,0,0,1.71-1.3.3.3,0,0,1,.38,0l2.3,1.33a.57.57,0,0,0,.44.05.61.61,0,0,0,.35-.26v0l1.63-2.82h0a.62.62,0,0,0,.06-.44.58.58,0,0,0-.27-.35l-2.32-1.34a.29.29,0,0,1-.14-.33h0a9.4,9.4,0,0,0,.19-1.06,7.59,7.59,0,0,0,.07-1.07,7.73,7.73,0,0,0-.07-1.08,8.85,8.85,0,0,0-.19-1,.32.32,0,0,1,.16-.35l2.3-1.32a.58.58,0,0,0,.27-.35.62.62,0,0,0-.06-.44h0l-1.63-2.83h0a.58.58,0,0,0-.35-.27.62.62,0,0,0-.44.06h0l-2.32,1.34a.3.3,0,0,1-.37,0,8.92,8.92,0,0,0-1.71-1.29,8.83,8.83,0,0,0-2-.83.32.32,0,0,1-.22-.3v-2.67a.58.58,0,0,0-.58-.58H70.51a.59.59,0,0,0-.4.17.61.61,0,0,0-.17.41V115A.3.3,0,0,1,69.7,115.28Z"/><path class="cls-21" d="M390.53,218.51,400.59,236s-6,13-22.34,6.86l-4.18-9.25Z"/><path class="cls-21" d="M363.79,206.66s-5,23.29,3.67,27.45c4.48,2.16,17,.82,20-4,2.2-3.55,1.34-20.35-1.35-22.38C375.81,200,363.79,206.66,363.79,206.66Z"/><path class="cls-21" d="M371.8,219.33c.79-3.73,2.72-4.15,4.38-3.14,2.22,1.35,1.73,6.68.91,7.95-1.67,2.58-3.66,3.37-4.78,1.54"/><path class="cls-65" d="M374.87,235.08c2.57-2.14,2.18-6.21,2.18-6.21"/><path class="cls-21" d="M329.72,278.08c-4.82,1.33-19.41,2.92-19.64,3.92s4.9.5,4.56,1.28-8.21,2.07-8.17,3.13c0,1.44,8-.31,8-.31s-3.31.59-2.91,1.82c.28.87,1.63,1.14,4.25.89-1.44.33-2,1-1.69,1.92s1.7.84,3.18.64c-1,.23-1.8.9-1.15,1.49.86.77,6.82.44,17.37-1.35"/><path class="cls-30" d="M379.76,238.18c-6.86,2.62-12.75,9.28-16.36,16.13-5.93,11.23-9.53,19.38-9.53,19.38L324,278.16l1.48,15.93s20.26-.6,36.41-3c11.48-1.73,20.37-25.52,20.37-25.52"/><path class="cls-66" d="M377.75,239.08s3.3,4.41,11.22,1.44,8.2-6.64,8.2-6.64"/><line class="cls-66" x1="378.47" y1="273.73" x2="381.71" y2="266.87"/><path class="cls-21" d="M107.76,188c-1.88-2.39-3.41-2-4.24-.7-1.11,1.75,1.12,5.39,2.15,6,2.1,1.25,3.81,1.12,4-.58"/><path class="cls-62" d="M363.34,210.63a13.55,13.55,0,0,1-.86-2.88,7.88,7.88,0,0,1-.06-2.27.49.49,0,0,1,0-.12.52.52,0,0,0,0,.13A15,15,0,0,0,363.34,210.63Z"/><path class="cls-30" d="M430.33,266.5c-3.55-8-7.82-15.79-12.48-20.45-12.57-12.57-22.91-11.87-22.91-11.87a17.57,17.57,0,0,1-6.52,4,12.38,12.38,0,0,1-8.66,0S372.45,252,376,266.37s12.4,45.91,12.4,45.91l51.15-17.2-8.17-11.29Z"/><path class="cls-67" d="M365.71,272.41a73.77,73.77,0,0,0,6.12-10.32c.16-.31-.36-.58-.54-.29a74,74,0,0,0-5.8,10.49.13.13,0,0,0,.22.12Z"/><path class="cls-67" d="M361.92,270a32.62,32.62,0,0,0,5.2-9.12.32.32,0,0,0-.59-.23c-1.47,3.16-3.21,6.11-4.89,9.16a.17.17,0,0,0,.28.19Z"/><path class="cls-67" d="M369.4,274.8a32.34,32.34,0,0,0,5.2-9.12c.15-.38-.42-.59-.59-.22-1.47,3.16-3.21,6.1-4.89,9.15a.17.17,0,0,0,.28.19Z"/><path class="cls-67" d="M362.3,260c-1.53,2.41-3.12,4.79-4.53,7.28-.19.33.28.68.49.35,1.53-2.42,2.89-5,4.3-7.44.1-.18-.15-.37-.26-.19Z"/><path class="cls-67" d="M377.33,269.38c-1.52,2.41-3.11,4.8-4.52,7.28-.19.33.28.68.49.35,1.53-2.42,2.88-4.95,4.3-7.44.1-.18-.15-.37-.27-.19Z"/><path class="cls-58" d="M363.09,210.77s.57,9.33,9.56,13.39-.85-11.43-.85-11.43Z"/><path class="cls-68" d="M433.68,273.36a4.91,4.91,0,0,1-1.57,1.54c-2,1.09-4.5-.51-6.79-.24-4.3.5-5.7,7-9.94,7.87-3.12.67-6.05-2.06-9.25-2-2.14,0-4.05,1.25-5.86,2.38-3.19,2-6.6,3.81-10.32,4.35s-7.84-.41-10.32-3.23-2.92-7-1.93-10.61,3.21-6.76,5.59-9.66,5-6.58,3.38-9.88c-1.34-2.64-4.71-3.3-7.4-4.53A14.94,14.94,0,0,1,371,233.57c.36-2,1.13-3.9,1.47-5.89a16.41,16.41,0,0,0-.78-8,27.39,27.39,0,0,1-2.3-4.81l-.14-.22a26.9,26.9,0,0,0,1.61,5.09,14.4,14.4,0,0,1-7.55-8.21h0a15,15,0,0,1-.91-5.14.52.52,0,0,1,0-.13h0c.52-3.93,3.83-7.43,7.49-9.28a24.17,24.17,0,0,1,34.88,18.41c.69,5.19-.25,10.84,2.36,15.39,3.45,6,11.34,7.35,17.46,10.63a24.46,24.46,0,0,1,11.84,14A20.61,20.61,0,0,1,433.68,273.36Z"/><path class="cls-69" d="M378.15,219.54l-.07,0-.17-.06a2,2,0,0,1-.58-.43,3.09,3.09,0,0,1-.58-1,14.61,14.61,0,0,1-.41-1.42,5.17,5.17,0,0,0-.7-1.6,7.26,7.26,0,0,0-1.35-1.51,16,16,0,0,0-4.06-2.35A22,22,0,0,1,366,209a6.81,6.81,0,0,1-2.39-3,4.94,4.94,0,0,1-.35-1.44,4.16,4.16,0,0,1,.08-1.11,2.67,2.67,0,0,1,.34-.87s-.14.3-.25.89a4.1,4.1,0,0,0,0,1.08,5,5,0,0,0,.36,1.39,6.72,6.72,0,0,0,2.38,2.91,22.61,22.61,0,0,0,4.17,2.18,15.94,15.94,0,0,1,4.11,2.4A7.39,7.39,0,0,1,375.8,215a5.58,5.58,0,0,1,.7,1.66,13.49,13.49,0,0,0,.37,1.41,2.92,2.92,0,0,0,.53.95A2.32,2.32,0,0,0,378.15,219.54Z"/><path class="cls-69" d="M382.68,212h-.25a2.07,2.07,0,0,1-.69-.21,3,3,0,0,1-.87-.72,11.76,11.76,0,0,1-.85-1.2,5.28,5.28,0,0,0-1.2-1.27,7.29,7.29,0,0,0-1.77-1,15.94,15.94,0,0,0-4.62-.87,21.88,21.88,0,0,1-4.7-.69,6.86,6.86,0,0,1-3.27-2,5.18,5.18,0,0,1-.8-1.24,3.9,3.9,0,0,1-.3-1.07,2.86,2.86,0,0,1,0-.94s0,.33.06.92a3.73,3.73,0,0,0,.33,1,5.28,5.28,0,0,0,.8,1.19,6.83,6.83,0,0,0,3.21,1.95,23.25,23.25,0,0,0,4.66.66,15.75,15.75,0,0,1,4.67.9,7.1,7.1,0,0,1,1.82,1,5.53,5.53,0,0,1,1.21,1.33c.3.45.55.87.82,1.2a2.92,2.92,0,0,0,.82.72A2.37,2.37,0,0,0,382.68,212Z"/><path class="cls-70" d="M533.32,190s9.07.7,12.32-3.89c0,0-2.06,6.92-12.59,7.11Z"/><path class="cls-71" d="M548.76,168.87a11,11,0,0,1,1.32,3.64c.39,2.5-.29,4.84-.57,7.24a.33.33,0,0,0,.06.26,1.1,1.1,0,0,0,.49.21l1.48.33a2.81,2.81,0,0,0,1.86,0,.86.86,0,0,0,.3-.46,41.89,41.89,0,0,0,1.94-6.63,16.11,16.11,0,0,0-1.13-8.1c-.41-.86-.69.11-.88,0s-.48.41-.81.42c-.89,0-1,.64-1.83.76-1,.15-1.62.86-2.6,1-.48.06-1.91-.12.37,1.35"/><path class="cls-71" d="M531.49,163.33c-1.58-.4-.78-.94-1.1-2.54a4.46,4.46,0,0,1,1.66-4.33,8,8,0,0,1,2.35-1.07c3.39-1.06,7.08-1.65,9.84-3.88a4.34,4.34,0,0,1-1.58,3,14.07,14.07,0,0,0,3.11,0,4.79,4.79,0,0,0,2.78-1.26,5.22,5.22,0,0,1-2.37,2.83,15.86,15.86,0,0,0,3.23.85,5.52,5.52,0,0,0,3.26-.48,4.84,4.84,0,0,1-2.84,1.78,8.46,8.46,0,0,0,4.7,2,5.45,5.45,0,0,1-2.39,1.33,7.92,7.92,0,0,0,3.77,1.71,12.47,12.47,0,0,0-1.93,2.16c-1.82,2-4.8,2.5-7.51,2.32a41,41,0,0,1-10.63-2.61,19.36,19.36,0,0,1-4.35-1.89"/><path class="cls-72" d="M550.28,164.27a1.1,1.1,0,0,1-.22.44,2.92,2.92,0,0,1-1,.87,7.49,7.49,0,0,1-4.31.54,6.71,6.71,0,0,1-2.3-.77,6.81,6.81,0,0,1-1.56-1.21,8.89,8.89,0,0,1-.85-1c-.18-.26-.27-.41-.25-.42s.44.54,1.24,1.29a7.39,7.39,0,0,0,1.55,1.12,7,7,0,0,0,2.21.72,7.79,7.79,0,0,0,4.17-.44A3.62,3.62,0,0,0,550.28,164.27Z"/><path class="cls-72" d="M550.3,160.21a1.55,1.55,0,0,1-.31.36,6.59,6.59,0,0,1-1,.83,8.51,8.51,0,0,1-8.24.82,7.6,7.6,0,0,1-1.15-.61,1.83,1.83,0,0,1-.37-.3c0-.05.59.34,1.59.73a9,9,0,0,0,8.06-.8C549.79,160.66,550.26,160.17,550.3,160.21Z"/><path class="cls-20" d="M545.64,182.33c.23,1.4.59,3.12,1.85,3.63,2.58,1,5.54-2.72,5.35-5.65a3.65,3.65,0,0,0-.76-2.36c-1.57-1.56-3.21.15-4.28,1.65"/><path class="cls-73" d="M550,177.47s-.88,2.08-2.45.66c0,0,2.92-4.82,1.14-9.09s5.94,2.58,5.94,2.58Z"/><path class="cls-58" d="M110.75,201.27a9.58,9.58,0,0,1-4-.69,6.16,6.16,0,0,0,4,3Z"/><path class="cls-58" d="M112.23,177.47s.44,1.74-5.45,5.18l0-1.6A11.79,11.79,0,0,0,112.23,177.47Z"/><path class="cls-74" d="M77.73,282s13.27,6.35,44.56,0Z"/><path class="cls-74" d="M85,403.05v1.18s5.07,2,16.94.88l.24-1.28Z"/><path class="cls-74" d="M128.3,382.06V384s10.38,1.33,17.09-.05l.08-1.86Z"/><polygon class="cls-75" points="127.13 249.41 126.99 268.71 134.77 271.92 141.85 256.92 127.13 249.41"/><path class="cls-70" d="M377.08,438.87s5,3.72,13.37,2.05Z"/><path class="cls-70" d="M437.33,439.21l.16,1.15a101.1,101.1,0,0,0,15.5-1.78l-.08-1.41Z"/><path class="cls-76" d="M401.27,307.94a160.33,160.33,0,0,0,40.35-9.37l-2.11-3.49Z"/><path class="cls-77" d="M565.56,276.12h-52a177.74,177.74,0,0,0,52.76,4Z"/><path class="cls-78" d="M523.25,426.69s3.92,2.44,17.23,1.85v-2Z"/><path class="cls-78" d="M571.38,426.42l.35,1.06s9.09,1.86,16.87,0l-.39-1.53Z"/></g></g></svg>