<svg xmlns="http://www.w3.org/2000/svg" xmlns:xlink="http://www.w3.org/1999/xlink" viewBox="0 0 2688.77082 1994.97237"><defs><style>.cls-1,.cls-12,.cls-17,.cls-18,.cls-22,.cls-28,.cls-52,.cls-53,.cls-56,.cls-57,.cls-59,.cls-60,.cls-64,.cls-65,.cls-66{fill:none;}.cls-2,.cls-8,.cls-9{opacity:0.34;}.cls-3,.cls-8{fill:#1c7d77;}.cls-10,.cls-11,.cls-12,.cls-17,.cls-3,.cls-4,.cls-5,.cls-6,.cls-64,.cls-70,.cls-71,.cls-74,.cls-75,.cls-76,.cls-77,.cls-78,.cls-8,.cls-9{fill-rule:evenodd;}.cls-4,.cls-9{fill:#8bc6b1;}.cls-5{fill:#5bb9b2;}.cls-6{fill:#36a37d;}.cls-7{opacity:0.35;}.cls-10{fill:#ddeff6;}.cls-11,.cls-19{fill:#c5e3e9;}.cls-12,.cls-18,.cls-64{stroke:#c5e3e9;}.cls-12,.cls-17,.cls-18,.cls-22,.cls-28,.cls-52,.cls-53,.cls-56,.cls-57,.cls-59,.cls-60,.cls-64,.cls-66{stroke-miterlimit:10;}.cls-12,.cls-18{stroke-width:10.97909px;}.cls-13{fill:#1c2f36;}.cls-14{fill:#444443;}.cls-15,.cls-76{opacity:0.6;}.cls-16{fill:#fff;}.cls-17,.cls-57,.cls-66{stroke:#08272e;}.cls-17,.cls-22,.cls-57{stroke-width:4.79679px;}.cls-20{fill:#f4c7ba;}.cls-21{fill:#f4c7bc;}.cls-22{stroke:#eca291;}.cls-23{fill:#e5937c;}.cls-24{clip-path:url(#clip-path);}.cls-25{fill:url(#linear-gradient);}.cls-26{fill:url(#linear-gradient-2);}.cls-27{fill:#171717;}.cls-28{stroke:#111;}.cls-28,.cls-66{stroke-width:4.42261px;}.cls-29{fill:#e1e1e0;}.cls-30{fill:#71c2cb;}.cls-31{fill:#455a67;}.cls-32{fill:url(#Degradado_sin_nombre_16);}.cls-33{fill:url(#Degradado_sin_nombre_16-2);}.cls-34{fill:url(#Degradado_sin_nombre_16-3);}.cls-35{fill:url(#Degradado_sin_nombre_16-4);}.cls-36{fill:url(#Degradado_sin_nombre_16-5);}.cls-37{fill:url(#Degradado_sin_nombre_16-6);}.cls-38{fill:url(#Degradado_sin_nombre_16-7);}.cls-39{fill:url(#Degradado_sin_nombre_16-8);}.cls-40{fill:url(#Degradado_sin_nombre_16-9);}.cls-41{fill:url(#Degradado_sin_nombre_16-10);}.cls-42{fill:url(#Degradado_sin_nombre_16-11);}.cls-43{fill:url(#Degradado_sin_nombre_16-12);}.cls-44{fill:url(#Degradado_sin_nombre_16-13);}.cls-45{fill:url(#Degradado_sin_nombre_16-14);}.cls-46{fill:url(#Degradado_sin_nombre_16-15);}.cls-47{fill:url(#Degradado_sin_nombre_16-16);}.cls-48{fill:url(#Degradado_sin_nombre_16-17);}.cls-49{fill:url(#Degradado_sin_nombre_16-18);}.cls-50{fill:url(#Degradado_sin_nombre_16-19);}.cls-51{fill:url(#Degradado_sin_nombre_22);}.cls-52,.cls-53{stroke:#fff;}.cls-52{stroke-width:6.15749px;}.cls-53{stroke-width:2.60349px;}.cls-54{fill:#ea988a;}.cls-55{fill:#e3e2e1;}.cls-56,.cls-59,.cls-60{stroke:#535894;}.cls-56{stroke-width:3.31696px;}.cls-58,.cls-70{fill:#de836f;}.cls-59{stroke-width:3.53583px;}.cls-60{stroke-width:3.41986px;}.cls-61{fill:#08272e;}.cls-62{fill:#795224;}.cls-63{fill:#a97948;}.cls-64{stroke-width:8.84521px;}.cls-65{stroke:#de836f;stroke-linejoin:round;stroke-width:3.24724px;}.cls-67{fill:#fdfefe;}.cls-68{fill:#a34a28;}.cls-69{fill:#e78868;}.cls-71,.cls-73{fill:#d8a75b;}.cls-72{fill:#f3dabb;}.cls-74,.cls-75{fill:#010101;}.cls-74,.cls-77{opacity:0.3;}.cls-75{opacity:0.2;}.cls-76,.cls-77,.cls-78{fill:#283236;}.cls-78{opacity:0.5;}</style><clipPath id="clip-path"><path id="SVGID" class="cls-1" d="M843.74661,404.87379H1690.5127a43.47777,43.47777,0,0,1,43.47777,43.47777v1461.532a43.47777,43.47777,0,0,1-43.47777,43.47777H843.74705a43.47821,43.47821,0,0,1-43.47821-43.47821V448.35156A43.47777,43.47777,0,0,1,843.74661,404.87379Z"/></clipPath><linearGradient id="linear-gradient" x1="576.19746" y1="1779.04179" x2="1904.76808" y2="450.47117" gradientUnits="userSpaceOnUse"><stop offset="0.27041" stop-color="#fff" stop-opacity="0.1"/><stop offset="1" stop-color="#fff" stop-opacity="0.3"/></linearGradient><linearGradient id="linear-gradient-2" x1="812.8503" y1="1749.79419" x2="2082.92548" y2="479.71901" xlink:href="#linear-gradient"/><linearGradient id="Degradado_sin_nombre_16" x1="890.5391" y1="802.90847" x2="1635.57952" y2="802.90847" gradientUnits="userSpaceOnUse"><stop offset="0" stop-color="#dbece6"/><stop offset="0" stop-color="#d3e9e5" stop-opacity="0.95918"/><stop offset="0" stop-color="#c8e4e4" stop-opacity="0.90071"/><stop offset="0" stop-color="#bfe0e3" stop-opacity="0.85522"/><stop offset="0" stop-color="#b9dee2" stop-opacity="0.82335"/><stop offset="0" stop-color="#b6dce2" stop-opacity="0.80505"/><stop offset="0" stop-color="#b5dce2" stop-opacity="0.8"/></linearGradient><linearGradient id="Degradado_sin_nombre_16-2" x1="893.2422" y1="1221.9961" x2="1241.83389" y2="1221.9961" xlink:href="#Degradado_sin_nombre_16"/><linearGradient id="Degradado_sin_nombre_16-3" x1="1286.49873" y1="1617.663" x2="1635.09042" y2="1617.663" xlink:href="#Degradado_sin_nombre_16"/><linearGradient id="Degradado_sin_nombre_16-4" x1="1289.2085" y1="1117.42015" x2="1634.62214" y2="1117.42015" gradientTransform="translate(2923.83065 2234.84029) rotate(-180)" xlink:href="#Degradado_sin_nombre_16"/><linearGradient id="Degradado_sin_nombre_16-5" x1="1289.2085" y1="1164.97733" x2="1634.62214" y2="1164.97733" gradientTransform="translate(2923.83065 2329.95466) rotate(-180)" xlink:href="#Degradado_sin_nombre_16"/><linearGradient id="Degradado_sin_nombre_16-6" x1="1289.2085" y1="1212.53518" x2="1634.62214" y2="1212.53518" gradientTransform="translate(2923.83065 2425.07035) rotate(-180)" xlink:href="#Degradado_sin_nombre_16"/><linearGradient id="Degradado_sin_nombre_16-7" x1="1289.2085" y1="1260.09236" x2="1634.62214" y2="1260.09236" gradientTransform="translate(2923.83065 2520.18472) rotate(-180)" xlink:href="#Degradado_sin_nombre_16"/><linearGradient id="Degradado_sin_nombre_16-8" x1="1289.2085" y1="1355.20761" x2="1634.62214" y2="1355.20761" gradientTransform="translate(2923.83065 2710.41523) rotate(-180)" xlink:href="#Degradado_sin_nombre_16"/><linearGradient id="Degradado_sin_nombre_16-9" x1="1428.19513" y1="1307.64999" x2="1634.62214" y2="1307.64999" gradientTransform="translate(3062.81728 2615.29997) rotate(-180)" xlink:href="#Degradado_sin_nombre_16"/><linearGradient id="Degradado_sin_nombre_16-10" x1="1289.2085" y1="1307.64999" x2="1404.73895" y2="1307.64999" xlink:href="#Degradado_sin_nombre_16"/><linearGradient id="Degradado_sin_nombre_16-11" x1="894.83123" y1="1497.46838" x2="1240.24486" y2="1497.46838" gradientTransform="translate(2135.07609 2994.93677) rotate(-180)" xlink:href="#Degradado_sin_nombre_16"/><linearGradient id="Degradado_sin_nombre_16-12" x1="894.83123" y1="1545.02557" x2="1240.24486" y2="1545.02557" gradientTransform="translate(2135.07609 3090.05114) rotate(-180)" xlink:href="#Degradado_sin_nombre_16"/><linearGradient id="Degradado_sin_nombre_16-13" x1="894.83123" y1="1592.58342" x2="1240.24486" y2="1592.58342" gradientTransform="translate(2135.07609 3185.16683) rotate(-180)" xlink:href="#Degradado_sin_nombre_16"/><linearGradient id="Degradado_sin_nombre_16-14" x1="894.83123" y1="1640.1406" x2="1240.24486" y2="1640.1406" gradientTransform="translate(2135.07609 3280.2812) rotate(-180)" xlink:href="#Degradado_sin_nombre_16"/><linearGradient id="Degradado_sin_nombre_16-15" x1="894.83123" y1="1735.25585" x2="1240.24486" y2="1735.25585" gradientTransform="translate(2135.07609 3470.5117) rotate(-180)" xlink:href="#Degradado_sin_nombre_16"/><linearGradient id="Degradado_sin_nombre_16-16" x1="1130.44488" y1="1687.69823" x2="1240.24486" y2="1687.69823" gradientTransform="translate(2370.68974 3375.39645) rotate(-180)" xlink:href="#Degradado_sin_nombre_16"/><linearGradient id="Degradado_sin_nombre_16-17" x1="894.83123" y1="1687.69823" x2="1105.56771" y2="1687.69823" xlink:href="#Degradado_sin_nombre_16"/><linearGradient id="Degradado_sin_nombre_16-18" x1="984.17665" y1="1225.32226" x2="1150.89944" y2="1225.32226" xlink:href="#Degradado_sin_nombre_16"/><linearGradient id="Degradado_sin_nombre_16-19" x1="1012.19359" y1="1225.32226" x2="1122.8825" y2="1225.32226" xlink:href="#Degradado_sin_nombre_16"/><linearGradient id="Degradado_sin_nombre_22" x1="1065.67319" y1="1177.66197" x2="1163.64483" y2="1177.66197" gradientUnits="userSpaceOnUse"><stop offset="0" stop-color="#dbece6"/><stop offset="0" stop-color="#d2e7e4"/><stop offset="0" stop-color="#c1dfdf"/><stop offset="0" stop-color="#b6d9dc"/><stop offset="0" stop-color="#afd5da"/><stop offset="0" stop-color="#add4da"/></linearGradient></defs><title>Recurso 7</title><g id="Capa_2" data-name="Capa 2"><g id="Capa_1-2" data-name="Capa 1"><g class="cls-2"><path class="cls-3" d="M443.84678,1149.04626c31.11684-103.30937,126.38806-42.91437,165.09572,47.61876,38.70754,90.53685,122.82807,441.54,202.27241,534.25994,30.79079,35.94195,20.94026,38.56622-7.849,20.62295C659.769,1662.07159,401.01967,1291.25562,443.84678,1149.04626Z"/><path class="cls-4" d="M830.00947,1758.68059c.85525,4.7165-3.55781,4.79418-11.78849,1.0784-215.8223-194.6601-320.23723-617.77183-320.57566-619.12461a4.34523,4.34523,0,0,1,8.429-2.11556C506.4124,1139.8809,612.25527,1568.76414,830.00947,1758.68059Z"/><path class="cls-5" d="M687.86509,1212.45077c50.88728-74.42569,111.51382-2.24838,119.463,79.64287,7.95518,81.89765-13.74265,382.73362,26.10442,476.66273,15.44056,36.40982,6.93472,36.01141-11.46335,14.44235C730.20088,1675.64154,617.81135,1314.89705,687.86509,1212.45077Z"/><path class="cls-6" d="M841.38623,1795.61476c-.509,3.97688-4.044,2.91862-9.657-2.12579-122.71747-209.58833-98.96362-572.97778-98.88422-574.14477a3.62893,3.62893,0,1,1,7.24431.44319C740.016,1220.96015,715.93446,1589.31378,841.38623,1795.61476Z"/></g><g class="cls-7"><path class="cls-3" d="M133.30509,1423.38811c-28.14487-104.1583,84.65245-103.19664,165.33885-46.7676,80.68825,56.43226,337.51361,310.04659,453.94561,346.81578,45.12946,14.25585,38.15123,21.68714,4.22809,21.65722C587.62519,1744.96333,172.05305,1566.76265,133.30509,1423.38811Z"/><path class="cls-4" d="M783.20876,1737.07722c3.21742,3.55317-.48879,5.95006-9.44031,7.14226-286.0779-51.29576-598.22279-355.42-599.22469-356.39a4.34523,4.34523,0,0,1,6.03989-6.2485C181.59014,1382.559,497.996,1690.82982,783.20876,1737.07722Z"/><path class="cls-5" d="M379.58415,1348.33847c3.8988-90.075,93.50172-60.80966,143.50572,4.52767,50.01248,65.33958,190.48689,332.24784,273.9345,390.95868,32.34229,22.761,24.90933,26.91537-2.10552,18.31819C660.18537,1719.2845,374.2108,1472.33,379.58415,1348.33847Z"/><path class="cls-6" d="M817.96443,1762.4299c1.66834,3.64571-1.89227,4.61426-9.3228,3.29564-214.9051-113.14877-386.67381-434.25879-387.22278-435.29165a3.62893,3.62893,0,1,1,6.38542-3.45C428.3614,1328.01842,602.47391,1653.51673,817.96443,1762.4299Z"/><path class="cls-5" d="M251.86235,1644.0012c-68.16049,49.53918.89565,104.23624,77.61343,109.46938,76.7146,5.22782,357.16653-23.11825,445.98725,11.57767,34.42729,13.452,33.82115,5.51184,13.182-11.09865C685.70329,1671.11561,345.68379,1575.814,251.86235,1644.0012Z"/><path class="cls-6" d="M800.76383,1771.76071c3.69777-.58652,2.61664-3.85773-2.24251-8.96634-199.089-109.008-537.92583-77.05259-539.01333-76.96206a3.39478,3.39478,0,0,0,.61016,6.76209C261.20877,1692.49562,604.67225,1660.10905,800.76383,1771.76071Z"/></g><path class="cls-8" d="M2053.60087,1145.57552c-35.3363-101.94326-128.045-37.68389-162.99923,54.36354-34.954,92.05114-104.57815,446.2149-180.14482,542.12144-29.28766,37.177-19.3376,39.39423,8.68987,20.283C1858.9451,1667.04126,2102.23624,1285.90466,2053.60087,1145.57552Z"/><path class="cls-9" d="M1692.81883,1770.56509c-.66069,4.74767,3.75183,4.64391,11.82284.593,207.63994-203.36538,294.57786-630.41083,294.8604-631.77638a4.34523,4.34523,0,0,0-8.50885-1.76736C1990.71144,1138.9892,1902.584,1571.86,1692.81883,1770.56509Z"/><path class="cls-5" d="M1846.34989,1231.32155c-48.48947-76.00967-111.38552-5.8012-121.94054,75.79511-10.56122,81.60251,1.5379,382.97718-41.28246,475.58864-16.59311,35.89923-8.07889,35.7721,10.99724,14.80035C1789.27365,1692.92778,1913.10307,1335.94841,1846.34989,1231.32155Z"/><path class="cls-6" d="M1655.46457,1884.47431c.382,3.99107,3.94891,3.046,9.7198-1.817,129.33475-205.57084,117.17424-569.53273,117.13207-570.70166a3.62893,3.62893,0,1,0-7.25475.21209C1775.09766,1313.34229,1787.42745,1682.27628,1655.46457,1884.47431Z"/><g class="cls-7"><path class="cls-3" d="M2419.66782,1382.1804c28.14487-104.1583-84.65246-103.19664-165.33885-46.7676-80.68826,56.43226-337.51361,310.04659-453.94562,346.81578-45.12945,14.25585-38.15122,21.68714-4.22809,21.65722C1965.34771,1703.75562,2380.91986,1525.55494,2419.66782,1382.1804Z"/><path class="cls-4" d="M1769.76415,1695.86951c-3.21743,3.55317.48879,5.95006,9.44031,7.14226,286.0779-51.29576,598.22279-355.42005,599.22469-356.39a4.34523,4.34523,0,0,0-6.0399-6.2485C2371.38277,1341.35131,2054.97693,1649.62211,1769.76415,1695.86951Z"/><path class="cls-5" d="M2193.80455,1286.65755c-3.8988-90.075-93.50172-60.80966-143.50573,4.52767-50.01247,65.33959-190.48688,332.24785-273.93449,390.95868-32.34229,22.761-24.90933,26.91537,2.10552,18.3182C1913.20333,1657.60359,2199.1779,1410.64906,2193.80455,1286.65755Z"/><path class="cls-6" d="M1755.42427,1700.749c-1.66834,3.64572,1.89226,4.61427,9.3228,3.29564,214.9051-113.14876,386.67381-434.25879,387.22278-435.29164a3.62893,3.62893,0,1,0-6.38542-3.45006C2145.0273,1266.3375,1970.91479,1591.83581,1755.42427,1700.749Z"/><path class="cls-5" d="M2272.33257,1630.94945c68.16049,49.53918-.89566,104.23624-77.61343,109.46939-76.7146,5.22782-357.16654-23.11826-445.98725,11.57766-34.42729,13.452-33.82116,5.51184-13.182-11.09865C1838.49163,1658.06387,2178.51113,1562.76222,2272.33257,1630.94945Z"/><path class="cls-6" d="M1723.43109,1758.709c-3.69777-.58652-2.61664-3.85773,2.24251-8.96634,199.089-109.00795,537.92583-77.05258,539.01333-76.96205a3.39478,3.39478,0,0,1-.61017,6.76209C2262.98615,1679.44388,1919.52267,1647.05731,1723.43109,1758.709Z"/></g><path class="cls-10" d="M1635.53935,248.80439a80.99134,80.99134,0,1,1-23.72064,57.269,80.74621,80.74621,0,0,1,23.72064-57.269Zm17.49488-80.27619a142.55856,142.55856,0,0,0-31.7409,13.51561,144.09914,144.09914,0,0,0-27.85442,20.99077,4.95383,4.95383,0,0,1-5.92859.71862l-37.63846-21.72207-.20417-.13688a9.40234,9.40234,0,0,0-12.53173,3.55254l-.15475.25982-26.48066,45.85726a9.42058,9.42058,0,0,0,3.42225,12.76024l.25994.14829,37.329,21.54842a4.99475,4.99475,0,0,1,2.34546,5.48407h.00621a144.21923,144.21923,0,0,0,0,69.12556,4.96024,4.96024,0,0,1-2.62391,5.64375L1513.9228,367.81v.01267a9.42876,9.42876,0,0,0-3.42225,12.76024L1537.12975,426.7h.00621a9.39481,9.39481,0,0,0,12.7359,3.41566l.28466-.14829,37.36618-21.58518a4.99658,4.99658,0,0,1,5.91621.73,144.76321,144.76321,0,0,0,27.84821,20.99077,142.9394,142.9394,0,0,0,31.95129,13.57771,4.978,4.978,0,0,1,3.62022,4.77812v43.4061a9.3607,9.3607,0,0,0,9.31378,9.31923h53.27121a9.37108,9.37108,0,0,0,9.31289-9.31923v-43.4061a4.97768,4.97768,0,0,1,3.825-4.84022,142.57461,142.57461,0,0,0,31.7409-13.51561,144.54711,144.54711,0,0,0,27.84743-20.99077,4.97052,4.97052,0,0,1,6.18241-.56907l37.37832,21.57251A9.396,9.396,0,0,0,1848.47309,426.7l.161-.25982,26.48117-45.88261h-.00633a9.39954,9.39954,0,0,0-3.40425-12.73489l-37.60139-21.70939a4.95984,4.95984,0,0,1-2.3447-5.48279h-.00634a144.24024,144.24024,0,0,0,0-69.12556,4.95236,4.95236,0,0,1,2.62353-5.63235l37.3289-21.54843a9.41042,9.41042,0,0,0,3.40425-12.74756l-.14829-.2725-26.48117-45.85726h-.00634a9.38489,9.38489,0,0,0-12.74249-3.42833l.00634.01267-37.63181,21.72207a4.95509,4.95509,0,0,1-6.04045-.83016,143.87625,143.87625,0,0,0-27.74857-20.87923,142.266,142.266,0,0,0-31.93862-13.57772,4.97183,4.97183,0,0,1-3.621-4.77812v-43.4061a9.3491,9.3491,0,0,0-9.31289-9.31923h-53.27121a9.33882,9.33882,0,0,0-9.31378,9.31923V163.688A4.9789,4.9789,0,0,1,1653.03423,168.5282Z"/><path class="cls-11" d="M742.10818,392.2751A65.41332,65.41332,0,1,1,722.95,438.52887a65.21534,65.21534,0,0,1,19.15817-46.25377Zm14.12988-64.83572a115.13876,115.13876,0,0,0-25.6358,10.916,116.38277,116.38277,0,0,0-22.49684,16.95337,4.001,4.001,0,0,1-4.78828.5804l-30.399-17.544-.16491-.11056a7.59387,7.59387,0,0,0-10.12135,2.86924l-.125.20984-21.38733,37.037a7.60859,7.60859,0,0,0,2.764,10.30591l.21.11977,30.14909,17.40376a4.034,4.034,0,0,1,1.89433,4.42925h.005a116.48015,116.48015,0,0,0,0,55.82983,4.00618,4.00618,0,0,1-2.11922,4.55822l-30.13916,17.39353v.01024a7.61521,7.61521,0,0,0-2.764,10.30591l21.5073,37.24684h.005a7.5878,7.5878,0,0,0,10.28626,2.75868l.22991-.11976,30.1791-17.43345a4.03553,4.03553,0,0,1,4.77828.58961,116.91893,116.91893,0,0,0,22.49183,16.95337A115.446,115.446,0,0,0,756.403,549.66852a4.02051,4.02051,0,0,1,2.9239,3.85909V588.5849a7.56027,7.56027,0,0,0,7.52235,7.52676h43.02493a7.56866,7.56866,0,0,0,7.52164-7.52676V553.52761a4.02028,4.02028,0,0,1,3.08931-3.90925,115.15115,115.15115,0,0,0,25.6358-10.916A116.74448,116.74448,0,0,0,868.61211,521.749a4.01447,4.01447,0,0,1,4.99327-.45961l30.18891,17.42321a7.58876,7.58876,0,0,0,10.29158-2.75868l.13-.20985,21.38773-37.05746h-.00511a7.59162,7.59162,0,0,0-2.74948-10.28544L902.48,470.8674a4.00586,4.00586,0,0,1-1.89372-4.42822h-.00512a116.4967,116.4967,0,0,0,0-55.82983,3.9998,3.9998,0,0,1,2.11892-4.549l30.149-17.40377a7.60041,7.60041,0,0,0,2.74948-10.29567l-.11977-.22008-21.38773-37.037h-.00512a7.57979,7.57979,0,0,0-10.29158-2.76892l.00512.01024-30.39364,17.544a4.002,4.002,0,0,1-4.87862-.67048,116.2029,116.2029,0,0,0-22.41137-16.86329,114.90212,114.90212,0,0,0-25.79548-10.96615,4.01554,4.01554,0,0,1-2.92451-3.85909V288.47284a7.5509,7.5509,0,0,0-7.52164-7.52676H766.84922a7.54258,7.54258,0,0,0-7.52235,7.52676v35.05729A4.02125,4.02125,0,0,1,756.23806,327.43938Z"/><path class="cls-12" d="M747.18758,781.30738a43.78235,43.78235,0,1,1-12.82292,30.95851,43.64984,43.64984,0,0,1,12.82292-30.95851Zm9.4574-43.39576a77.06412,77.06412,0,0,0-17.15852,7.30628,77.89718,77.89718,0,0,0-15.05756,11.3472,2.67794,2.67794,0,0,1-3.20488.38847L700.87739,745.211l-.11037-.074a5.08272,5.08272,0,0,0-6.77441,1.92043l-.08366.14046L679.594,771.98749a5.09257,5.09257,0,0,0,1.85,6.89794l.14052.08016,20.17935,11.64866a2.70006,2.70006,0,0,1,1.26791,2.96458h.00336a77.962,77.962,0,0,0,0,37.36794,2.68142,2.68142,0,0,1-1.41844,3.05091L681.444,845.63949v.00685a5.097,5.097,0,0,0-1.85,6.89794l14.39523,24.93h.00336a5.07865,5.07865,0,0,0,6.88478,1.84644l.15388-.08016L721.23071,867.572a2.70106,2.70106,0,0,1,3.19819.39464,78.2561,78.2561,0,0,0,15.0542,11.34721,77.27054,77.27054,0,0,0,17.27225,7.33985,2.691,2.691,0,0,1,1.957,2.58295v23.46451a5.06022,5.06022,0,0,0,5.03485,5.03779h28.79739a5.06581,5.06581,0,0,0,5.03437-5.03779V889.23668a2.69085,2.69085,0,0,1,2.06774-2.61653,77.07291,77.07291,0,0,0,17.15852-7.30627A78.13924,78.13924,0,0,0,831.859,867.96667a2.687,2.687,0,0,1,3.34209-.30762l20.206,11.66168a5.07931,5.07931,0,0,0,6.88835-1.84644l.087-.14045,14.31521-24.80326h-.00343a5.08122,5.08122,0,0,0-1.84027-6.88424L854.5274,833.91067a2.6812,2.6812,0,0,1-1.2675-2.9639h-.00343a77.97337,77.97337,0,0,0,0-37.36794,2.67715,2.67715,0,0,1,1.41823-3.04474L874.854,778.88543a5.0871,5.0871,0,0,0,1.84027-6.89109l-.08016-.1473-14.31521-24.78956h-.00342a5.0733,5.0733,0,0,0-6.88835-1.85329l.00343.00685-20.343,11.74253a2.67863,2.67863,0,0,1-3.26535-.44876,77.776,77.776,0,0,0-15.00035-11.28691,76.90581,76.90581,0,0,0-17.2654-7.33986,2.68767,2.68767,0,0,1-1.95743-2.583V711.83058a5.05393,5.05393,0,0,0-5.03437-5.03779H763.74722a5.04839,5.04839,0,0,0-5.03485,5.03779v23.46451A2.69149,2.69149,0,0,1,756.645,737.91162Z"/><path class="cls-13" d="M452.39007,1780.442c-.00544.31575-3.03508.64956-7.80577-.39217a35.13047,35.13047,0,0,1-8.054-2.87778,36.85925,36.85925,0,0,1-4.37555-2.58126,9.61021,9.61021,0,0,1-2.27433-1.94273,3.32164,3.32164,0,0,1-.16663-4.06509,4.18176,4.18176,0,0,1,3.41453-1.58944,10.16833,10.16833,0,0,1,2.90925.53653,28.07139,28.07139,0,0,1,4.77828,1.88425,27.5679,27.5679,0,0,1,6.98562,5.05033c3.46486,3.51239,4.5709,6.41135,4.30406,6.54678-.356.23546-2.00777-2.22631-5.56363-5.15775a31.227,31.227,0,0,0-6.78567-4.23713,29.1468,29.1468,0,0,0-4.41956-1.58463c-1.63157-.50776-3.036-.58366-3.49275.132-.16655.2742-.1918.38351.132.88206a7.82634,7.82634,0,0,0,1.67249,1.41865,41.11946,41.11946,0,0,0,4.0182,2.54337,43.33216,43.33216,0,0,0,7.41588,3.234C449.49226,1779.68932,452.42217,1780.03042,452.39007,1780.442Z"/><path class="cls-14" d="M648.08859,1636.92611l-7.31977,80.09119s78.95066,34.33764,79.0389,49.27123l-155.80148-8.615,6.28429-125.25986Z"/><g class="cls-15"><path class="cls-16" d="M564.00624,1757.67357,565.134,1745.073l148.95857,12.97146s6.76928,3.4017,5.71518,8.24411Z"/></g><path class="cls-13" d="M643.33773,1716.364c-.06693.75986-3.89025.894-7.76842,3.13369-3.93738,2.13787-6.04916,5.3266-6.73267,4.98652-.69286-.18674.69248-4.67193,5.43652-7.30049C638.99215,1714.51331,643.54171,1715.67476,643.33773,1716.364Z"/><path class="cls-13" d="M659.30552,1724.02639c.13331.74683-3.23262,1.85833-5.99455,4.93339-2.8521,2.99316-3.69645,6.43667-4.45257,6.3622-.72178.08008-1.00167-4.40558,2.50481-8.16278C654.836,1723.37147,659.329,1723.30036,659.30552,1724.02639Z"/><path class="cls-13" d="M667.50549,1744.09792c-.70023.12393-1.54869-3.73613.63507-7.79383,2.15545-4.07507,5.83349-5.52042,6.12075-4.86832.39525.64877-2.03837,2.75663-3.78059,6.11653C668.66076,1740.86858,668.26527,1744.06461,667.50549,1744.09792Z"/><path class="cls-13" d="M642.98093,1697.9268c-.35678.67559-3.78936-.56732-8.10574-.51276-4.31743-.03331-7.74318,1.225-8.1037.55056-.40987-.57465,3.01242-3.20986,8.09793-3.20218C639.95234,1694.7307,643.38793,1697.34927,642.98093,1697.9268Z"/><path class="cls-13" d="M644.15959,1681.74091c-.00863.31568-3.0415.6188-7.80127-.47074a35.16578,35.16578,0,0,1-8.02461-2.95959,36.85644,36.85644,0,0,1-4.34876-2.62554,9.59378,9.59378,0,0,1-2.255-1.96552,3.32055,3.32055,0,0,1-.12486-4.06628,4.1803,4.1803,0,0,1,3.43032-1.55522,10.17339,10.17339,0,0,1,2.90324.56608,28.07115,28.07115,0,0,1,4.759,1.93252,27.56011,27.56011,0,0,1,6.93456,5.12066c3.4287,3.54741,4.50547,6.45784,4.23756,6.59-.3588.232-1.98554-2.24639-5.51155-5.21368a31.21242,31.21242,0,0,0-6.74243-4.3056,29.14734,29.14734,0,0,0-4.40329-1.62928c-1.62635-.52425-3.02983-.614-3.49386.09662-.16937.27251-.19517.38185.12306.88336a7.84,7.84,0,0,0,1.658,1.43551,41.1217,41.1217,0,0,0,3.99224,2.58392,43.30966,43.30966,0,0,0,7.38318,3.30876C641.26955,1680.95892,644.19586,1681.32966,644.15959,1681.74091Z"/><path class="cls-13" d="M643.1085,1682.77694c-.27579.10268-1.63414-2.70749-1.64125-7.65a25.27944,25.27944,0,0,1,3.78641-13.11183c.99822-1.48886,2.22586-3.48852,5.19459-3.66386a3.65105,3.65105,0,0,1,3.13873,2.35584,10.59329,10.59329,0,0,1,.64346,2.90526,17.37726,17.37726,0,0,1-.286,5.255,17.974,17.974,0,0,1-3.77745,7.87679c-3.26907,3.8683-6.49306,4.60193-6.54372,4.341-.232-.39579,2.501-1.71757,5.04492-5.46923a17.99962,17.99962,0,0,0,2.87426-7.1955,16.11813,16.11813,0,0,0,.10561-4.51646c-.15185-1.66943-.69916-3.04-1.32881-2.904-.77348-.05539-2.15954,1.11863-2.87053,2.40439a25.93462,25.93462,0,0,0-2.16666,4.1223,28.12871,28.12871,0,0,0-1.9421,7.70241C642.87338,1679.79061,643.52839,1682.68363,643.1085,1682.77694Z"/><path class="cls-17" d="M1808.67672,1371.75121l40.90912-12.715Z"/><circle class="cls-18" cx="21.36428" cy="1181.71426" r="15.87474"/><circle class="cls-18" cx="2667.40654" cy="1153.6578" r="15.87474"/><circle class="cls-19" cx="2047.03695" cy="620.53578" r="15.87474"/><circle class="cls-19" cx="139.9033" cy="1012.21307" r="15.87474"/><circle class="cls-19" cx="2617.22714" cy="1310.6284" r="15.87474"/><path class="cls-20" d="M2360.10094,823.75434l-3.86063,45.41771s-2.50294,6.99435,19.60091,14.91035c26.78411,9.59143,48.986-14.91035,48.986-14.91035l-1.87792-46.2712"/><path class="cls-20" d="M2341.53346,726.48018s-43.015,71.90732-13.13688,100.65024c27.09147,26.065,86.6683,9.72993,92.09286.6263,5.42465-9.10631,39.334-89.46963,20.77857-100.52352C2408.27967,707.58058,2359.95816,695.5529,2341.53346,726.48018Z"/><path class="cls-21" d="M2257.96421,635.40733c-1.97579-25.94583,1.52352-99.38177-3.02821-101.31679-4.55167-1.93215-6.42146,22.94351-9.86315,20.6564-3.43876-2.28375-3.15533-40.75446-8.21786-41.47254-6.86133-.97183-5.0443,38.44145-5.0443,38.44145s-4.143-43.06987-10.33948-42.19254c-4.38906.62214-2.738,33.63843-3.69065,46.33457-.7176-13.88958-4.79007-39.74234-9.33358-39.0022-4.506.73727-3.62206,26.71811-4.04705,43.98654-.74351-10.80188-2.90974-34.39872-7.13954-33.90945-4.21638.48448-5.49568,61.83251-5.58059,113.53037"/><path class="cls-21" d="M2251.42955,895.17784s-27.84578-58.30879-45.27208-126.31861c-17.42625-68.00933-14.36638-156.417-14.36638-156.417l65.42674,11.0091s2.97833,123.39976,77.47532,245.95145"/><path class="cls-22" d="M2205.3046,563.76826c5.37624,8.18668,12.52729,17.8287,12.179,33.86484"/><path class="cls-22" d="M2244.5193,560.65179c-6.29723,5.60648-13.1101,20.72692-9.82,28.48956"/><path class="cls-23" d="M2533.765,528.1943c-.032-.04125-.06934-.09716-.0962-.12475-.00293.00659.02417.01221.0354-.00208.01172.01038.06177.00367.0647-.021.0083-.01282.02539.03723.03736.05261l.16455.28284.31689.5719c.2124.381.39771.76928.6001,1.15283.36938.77734.74023,1.55371,1.06689,2.34314.65869,1.5769,1.2356,3.17737,1.74463,4.798q.76428,2.4311,1.31348,4.92822a39.09966,39.09966,0,0,1,.79663,5.11817,23.54335,23.54335,0,0,1-2.58716-4.52576,43.1543,43.1543,0,0,1-1.811-4.80395,45.45885,45.45885,0,0,1-1.25611-4.97278c-.16455-.84192-.28051-1.698-.39111-2.55518-.03809-.43359-.0896-.8634-.11206-1.30127l-.02881-.65808.0022-.335.00122-.1029c.01758-.12806.09546-.09583.12646-.02063A1.54281,1.54281,0,0,1,2533.765,528.1943Z"/><rect class="cls-14" x="800.26884" y="404.87379" width="933.72163" height="1508.14569" rx="72.45538" ry="72.45538"/><path class="cls-16" d="M889.11572,510.77834h765.31191a38.378,38.378,0,0,1,38.378,38.378V1807.60358a61.15331,61.15331,0,0,1-61.15331,61.15331H902.607a61.15331,61.15331,0,0,1-61.15331-61.15331V558.44039a47.662,47.662,0,0,1,47.662-47.662Z"/><g class="cls-24"><polygon class="cls-25" points="1488.301 237.102 789.566 1992.411 992.665 1992.411 1691.399 237.102 1488.301 237.102"/><polygon class="cls-26" points="1754.202 237.102 1055.467 1992.411 1141.574 1992.411 1840.309 237.102 1754.202 237.102"/></g><rect class="cls-27" x="1231.74879" y="447.07284" width="70.76172" height="25.42999" rx="12.71498" ry="12.71498"/><path class="cls-11" d="M2283.37586,384.36754A89.3105,89.3105,0,1,1,2270.695,451.5352a89.04014,89.04014,0,0,1,12.68091-67.16766Zm.76939-90.5964a157.202,157.202,0,0,0-31.21077,21.75083,158.9003,158.9003,0,0,0-25.329,28.94239,5.46268,5.46268,0,0,1-6.23706,2.11345l-45.52785-14.95331-.25127-.10168a10.36811,10.36811,0,0,0-12.7249,6.66233l-.1084.31536-18.23509,55.47285a10.38822,10.38822,0,0,0,6.57325,13.00095l.314.1014,45.15467,14.83572a5.50778,5.50778,0,0,1,3.76912,5.39014l.0067-.0014a159.033,159.033,0,0,0,15.59814,74.6129,5.46975,5.46975,0,0,1-1.55869,6.68385l-35.41947,31.6658.00286.01368a10.39723,10.39723,0,0,0-.81458,14.5454l39.14938,43.76909.0067-.0014a10.35981,10.35981,0,0,0,14.51765.813l.27379-.22429,35.46171-31.73031a5.50981,5.50981,0,0,1,6.55058-.547,159.6324,159.6324,0,0,0,34.79541,16.37314,157.62137,157.62137,0,0,0,37.55145,7.44575,5.48931,5.48931,0,0,1,4.98578,4.34051L2361.234,641.912a10.32221,10.32221,0,0,0,12.156,7.95737l57.5-12.02062a10.33364,10.33364,0,0,0,7.94929-12.16046l-9.79456-46.85177a5.489,5.489,0,0,1,3.03647-6.08756,157.21851,157.21851,0,0,0,31.21078-21.75083,159.39458,159.39458,0,0,0,25.32146-28.94081,5.48107,5.48107,0,0,1,6.54477-2.0093l45.21332,14.85059a10.36112,10.36112,0,0,0,12.98327-6.56214l.11511-.31676,18.22992-55.50033-.00684.00143a10.365,10.365,0,0,0-6.54811-12.97765l-45.485-14.948a5.4693,5.4693,0,0,1-3.768-5.389l-.00684.00143a159.05611,159.05611,0,0,0-15.59815-74.61289,5.461,5.461,0,0,1,1.56086-6.67146l35.42975-31.68222a10.377,10.377,0,0,0,.798-14.52766l-.22155-.26067-38.931-43.522-.00684.00143a10.34888,10.34888,0,0,0-14.52762-.82514l.0097.01225-35.71753,31.938a5.46408,5.46408,0,0,1-6.70728.467,158.65464,158.65464,0,0,0-34.6627-16.27522,156.87824,156.87824,0,0,0-37.53778-7.44862,5.48253,5.48253,0,0,1-4.9866-4.34034l-9.79456-46.85177a10.3094,10.3094,0,0,0-12.15505-7.95756l-57.5,12.02061a10.29806,10.29806,0,0,0-7.95025,12.16066l9.79456,46.85177A5.49029,5.49029,0,0,1,2284.14525,293.77114Z"/><path class="cls-21" d="M2558.46616,603.63532c-4.178-28.54808-15.04033-95.78561-19.86062-96.89367-4.81981-1.1047-6.78889,14.92185-4.84044,21.45268-3.05459-12.22366-11.49646-38.96-16.60648-38.78011-6.9256.24463,1.76618,38.7307,1.76618,38.7307s-11.62213-41.67881-17.56919-39.72987c-4.21254,1.38147,3.19562,33.59814,4.48074,46.265-3.13908-13.54948-11.67592-38.28939-16.01989-36.765-4.307,1.51483,1.11333,26.93924,3.71895,44.01581-2.62337-10.505-8.88893-33.35782-12.96764-32.1356-4.06672,1.2155,6.53275,53.973,12.83476,106.58894"/><path class="cls-21" d="M2544.9656,872.01463s17.314-62.25367,22.68449-132.25511c5.37048-70.00048-12.972-156.53884-12.972-156.53884l-62.527,22.18658s18.46283,122.04706-33.65673,255.65966"/><line class="cls-28" x1="578.50664" y1="1975.18028" x2="499.92973" y2="1173.13155"/><polyline class="cls-28" points="884.446 1975.18 805.869 1173.132 499.93 1173.132"/><line class="cls-28" x1="727.29156" y1="1975.18028" x2="805.86891" y2="1173.13155"/><polyline class="cls-28" points="421.352 1975.18 499.929 1173.132 805.869 1173.132"/><line class="cls-28" x1="871.87102" y1="1861.55597" x2="432.48409" y2="1861.55597"/><line class="cls-28" x1="861.65436" y1="1763.34312" x2="442.10635" y2="1763.34312"/><line class="cls-28" x1="853.806" y1="1662.43205" x2="451.99265" y2="1662.43205"/><line class="cls-28" x1="844.00771" y1="1566.2505" x2="461.41591" y2="1566.2505"/><line class="cls-28" x1="834.53979" y1="1465.77726" x2="470.84269" y2="1465.77726"/><line class="cls-28" x1="824.78485" y1="1366.20889" x2="480.68476" y2="1366.20889"/><line class="cls-28" x1="813.34445" y1="1272.17319" x2="490.22609" y2="1272.17319"/><path class="cls-14" d="M2311.2694,1818.75141l3.40432,81.47156s-81.66931,30.82189-82.506,45.94l158.20612-.92686-.09506-127.16093Z"/><path class="cls-29" d="M2363.55307,1893.0816a6.46089,6.46089,0,0,1,4.511,7.34674,6.21159,6.21159,0,0,1-7.24316,4.53522c-3.08012-.765-5.771-4.80471-4.7361-7.80547,1.03493-3.00031,5.25043-5.36343,8.057-3.88188"/><g class="cls-15"><path class="cls-16" d="M2390.3738,1945.23658l-.51118-12.8169-151.49478,5.68091s-7.02523,3.10613-6.20016,8.0624Z"/></g><path class="cls-13" d="M2312.10478,1899.43332c.0296.77261,3.89489,1.09995,7.70992,3.56217,3.88058,2.36177,5.85941,5.697,6.56835,5.38674.71117-.1547-.46725-4.76614-5.14012-7.66511C2316.5983,1897.77645,2311.933,1898.72528,2312.10478,1899.43332Z"/><path class="cls-13" d="M2295.55125,1906.39354c-.1726.74974,3.18106,2.04385,5.824,5.29616,2.738,3.17385,3.42091,6.70283,4.19038,6.66516.72643.11749,1.23493-4.411-2.12815-8.39109C2300.11027,1905.95409,2295.56385,1905.65725,2295.55125,1906.39354Z"/><path class="cls-13" d="M2286.2432,1926.30876c.70266.16053,1.75508-3.70566-.25335-7.9243-1.97883-4.23433-5.63113-5.88179-5.95443-5.23653-.43317.63764,1.92637,2.894,3.52226,6.38356C2285.23473,1922.98111,2285.47508,1926.23746,2286.2432,1926.30876Z"/><path class="cls-13" d="M2313.389,1880.78037c.32734.70176,3.86579-.38473,8.23375-.11345,4.37424.18206,7.78036,1.62773,8.179.96319.44393-.56141-2.88955-3.40164-8.04-3.64826C2316.61623,1877.69531,2313.00564,1880.17547,2313.389,1880.78037Z"/><path class="cls-13" d="M2313.00519,1864.33046c-.00673.32017,3.04919.77889,7.92385-.08654a35.64266,35.64266,0,0,0,8.2745-2.59495,37.45556,37.45556,0,0,0,4.53522-2.44114,9.746,9.746,0,0,0,2.38195-1.87749,3.36844,3.36844,0,0,0,.33-4.11192,4.23979,4.23979,0,0,0-3.39577-1.74656,10.33141,10.33141,0,0,0-2.96847.42779,28.49122,28.49122,0,0,0-4.91591,1.71875,27.94686,27.94686,0,0,0-7.27859,4.83879c-3.65006,3.42047-4.88587,6.31406-4.62131,6.46158.35151.25291,2.12273-2.17613,5.84233-5.00425a31.66057,31.66057,0,0,1,7.04317-4.02268,29.55418,29.55418,0,0,1,4.5406-1.42953c1.67342-.44976,3.099-.47038,3.533.27308.15784.28384.17891.39595-.1686.88785a7.92925,7.92925,0,0,1-1.751,1.37079,41.67748,41.67748,0,0,1-4.17156,2.41693,43.89207,43.89207,0,0,1-7.6427,2.98147C2315.971,1863.68341,2312.98905,1863.91209,2313.00519,1864.33046Z"/><path class="cls-13" d="M2314.01815,1865.4322c.274.11749,1.79005-2.66041,2.04475-7.66466A25.646,25.646,0,0,0,2312.885,1844.3c-.93673-1.55733-2.08018-3.64378-5.07735-3.97022a3.70261,3.70261,0,0,0-3.2967,2.22859,10.72368,10.72368,0,0,0-.79638,2.90974,17.599,17.599,0,0,0,.02646,5.33607,18.21826,18.21826,0,0,0,3.43123,8.16554c3.11644,4.081,6.345,4.98542,6.40867,4.72355.25514-.38967-2.44652-1.86449-4.83475-5.79121a18.24911,18.24911,0,0,1-2.55056-7.43015,16.33949,16.33949,0,0,1,.11928-4.57916c.23676-1.68288.86005-3.04336,1.491-2.87431.78606-.01748,2.13084,1.24075,2.78642,2.57836a26.26411,26.26411,0,0,1,1.9878,4.28321,28.50738,28.50738,0,0,1,1.58109,7.89739C2314.40557,1862.41979,2313.59709,1865.317,2314.01815,1865.4322Z"/><path class="cls-14" d="M2580.78879,1801.88935l25.69611,101.96882,43.57956,74.7916a10.77379,10.77379,0,0,1-4.53114,15.08h0a10.70584,10.70584,0,0,1-9.86188-.15694c-19.569-10.55736-91.36078-49.75331-92.823-57.32112-1.69319-8.76372-34.245-105.76057-34.245-105.76057Z"/><g class="cls-15"><path class="cls-16" d="M2645.53332,1993.72979,2540.957,1929.41214l1.18739,4.29442a16.21217,16.21217,0,0,0,6.50867,9.11034c8.52606,5.78314,32.42091,21.23938,86.71253,50.84428a10.76127,10.76127,0,0,0,10.16773.06861Z"/></g><g class="cls-15"><path class="cls-16" d="M2552.71834,1890.96639a6.51856,6.51856,0,0,1,3.98771,7.73058,6.26678,6.26678,0,0,1-7.627,4.02044c-3.042-.99995-5.44728-5.26657-4.18052-8.20814,1.26541-2.94157,5.684-5.0038,8.39737-3.303"/></g><path class="cls-13" d="M2610.1242,1955.85083c.6506.12151,1.469-5.819,6.70776-10.34078,5.1029-4.67736,11.09679-4.79664,11.052-5.458.01884-.27264-1.48154-.7058-3.946-.38474a17.17893,17.17893,0,0,0-13.73659,12.21917C2609.59507,1954.29664,2609.85022,1955.83737,2610.1242,1955.85083Z"/><path class="cls-13" d="M2621.09544,1967.427c.604.30492,2.94515-3.8895,7.7727-6.84049,4.7617-3.05815,9.55654-3.33572,9.54533-4.01192.14887-.59818-5.32352-1.40038-10.7717,2.05551C2622.15817,1962.025,2620.49278,1967.30007,2621.09544,1967.427Z"/><path class="cls-13" d="M2591.87616,1942.1694c.6076.3502,4.17873-6.11945,11.28289-11.36584,7.02344-5.3585,14.23163-6.9795,14.06527-7.66153.01524-.58563-7.90412.08789-15.4522,5.81453C2594.16888,1934.60338,2591.30893,1942.02052,2591.87616,1942.1694Z"/><path class="cls-13" d="M2581.47485,1911.82551c.43855.53226,5.39075-3.355,12.6039-5.632,7.18308-2.377,13.47292-2.12366,13.51642-2.81287.14214-.57352-6.50153-1.921-14.2267.61477C2585.62309,1906.46163,2581.02375,1911.44347,2581.47485,1911.82551Z"/><path class="cls-13" d="M2573.17434,1882.08384c.47576.49908,5.172-4.43567,12.96442-6.21182,7.7539-1.94969,14.17464.32016,14.37288-.34034.10717-.25829-1.35106-1.22327-4.06125-1.92817a23.47762,23.47762,0,0,0-20.53,4.92085C2573.82409,1880.38033,2572.96179,1881.90223,2573.17434,1882.08384Z"/><path class="cls-13" d="M2584.394,1870.25883c.12959-.03364-.01838-1.46-.92193-3.872a27.61943,27.61943,0,0,0-5.823-9.19823c-1.61517-1.5802-3.4254-3.68638-6.623-4.23882a4.33146,4.33146,0,0,0-4.44822,2.22994,7.04713,7.04713,0,0,0-.33721,5.0186c1.88467,6.40509,9.12779,11.10039,16.619,10.0251a17.66508,17.66508,0,0,0,14.26212-13.52987,6.12721,6.12721,0,0,0-1.08022-4.9908,4.24735,4.24735,0,0,0-4.88363-.98291c-2.886,1.282-4.30518,3.54064-5.71722,5.31679a30.83947,30.83947,0,0,0-4.73969,9.78655c-.67934,2.47925-.7206,3.90878-.58921,3.93255.42913.16681,1.18514-5.68628,6.63018-12.73349,1.40442-1.6627,2.98686-3.71328,5.098-4.51235a2.26223,2.26223,0,0,1,2.664.51881,4.20951,4.20951,0,0,1,.51791,3.32272,15.76752,15.76752,0,0,1-12.50032,11.58735c-6.30329.97171-12.66578-3.16711-14.23028-8.30679a5.11373,5.11373,0,0,1,.08744-3.51374,2.34574,2.34574,0,0,1,2.43711-1.26541c2.19137.24932,4.102,2.01336,5.67417,3.48549C2582.81784,1864.60034,2583.97205,1870.48438,2584.394,1870.25883Z"/><path class="cls-30" d="M2271.12482,1215.17559l15.68313,663.918c.10537,4.463,4.58409,8.025,10.04168,7.98572l94.56195-.68c5.546-.04,9.983-3.77868,9.8664-8.3136l-14.65134-571.43852,122.98533,567.201c1.5524,7.15869,9.30809,12.29216,18.19154,12.04167l79.30212-2.23941c10.69864-.3022,18.66823-8.18524,17.02122-16.83626l-124.544-654.3556Z"/><polygon class="cls-21" points="1982.054 1584.654 2003.971 1948.95 1936.987 1963.462 1886.77 1592.333 1982.054 1584.654"/><polygon class="cls-14" points="2005.963 1947.54 2017.37 1992.539 1940.287 1992.539 1936.987 1963.244 2005.963 1947.54"/><path class="cls-13" d="M1938.71125,1986.00234c-.00118.25729,4.28963.516,11.23071.57731,6.94029.06838,16.52338-.099,27.09111-.44726,10.18774-.3877,19.40208-.73874,27.04686-1.02986,6.91769-.29853,11.201-.53608,11.19973-.80853,0-.25694-4.29069-.49872-11.231-.54665-6.93934-.05358-16.52294.12089-27.09295.46982-10.18428.37888-19.397.72252-27.04163,1.007C1942.99616,1985.50961,1938.71125,1985.73024,1938.71125,1986.00234Z"/><path class="cls-13" d="M1971.36921,1956.30963c-.58885.03524-.578,6.55984.02331,14.57074.60186,8.01441,1.56728,14.47945,2.1561,14.44385s.57855-6.55844-.02335-14.5725C1972.92341,1962.74048,1971.95854,1956.274,1971.36921,1956.30963Z"/><g class="cls-15"><polyline class="cls-16" points="2017.37 1992.539 1940.287 1992.539 1939.55 1986.003 2015.981 1984.294 2017.37 1991.758"/></g><polygon class="cls-21" points="1739.657 1863.746 1723.399 1973.618 1664.106 1969.921 1676.572 1869.188 1739.657 1863.746"/><path class="cls-14" d="M1663.48887,1957.99752h0s-66.61271,20.18425-67.71283,31.07609l127.38213,3.33208,1.14178-29.86646-4.71176.83918A104.76131,104.76131,0,0,1,1663.48887,1957.99752Z"/><g class="cls-15"><path class="cls-16" d="M1723.15817,1992.40605l-.04992-9.26492-122.11383.26962s-5.7427,2.064-5.21838,5.66286Z"/></g><path class="cls-13" d="M1661.4435,1957.36205c.002.55864,3.10422.89312,6.10626,2.76675,3.05706,1.80315,4.55611,4.2601,5.13545,4.05462.57659-.0934-.24211-3.45228-3.92175-5.66356C1665.10741,1956.28,1661.32519,1956.84677,1661.4435,1957.36205Z"/><path class="cls-13" d="M1647.92137,1961.96825c-.16.53714,2.50326,1.55608,4.53882,3.97073,2.11494,2.36,2.56536,4.92517,3.18519,4.91742.5817.10256,1.11859-3.15339-1.47665-6.11153C1651.60375,1961.7663,1647.95242,1961.43711,1647.92137,1961.96825Z"/><path class="cls-13" d="M1639.86641,1976.10935c.56166.13393,1.51792-2.63106.01966-5.727-1.47312-3.10687-4.36667-4.388-4.64534-3.93055-.36631.44938,1.46918,2.138,2.65538,4.69713C1639.14872,1973.68166,1639.25052,1976.03851,1639.86641,1976.10935Z"/><path class="cls-31" d="M1941.90777,1302.44788s50.47392,75.54792,50.47392,117.6829l11.58954,513.1771-81.30032,10.673L1865.993,1442.48508s-130.26233,508.0045-134.66712,508.0045c-4.40519,0-71.9958-10.87034-71.9958-10.87034l102.50431-629.80114Z"/><path class="cls-14" d="M455.86479,1735.58987l-6.50835,80.16062s79.29391,33.53723,79.53374,48.469l-155.88083-7.03778,5.016-125.31706Z"/><g class="cls-15"><path class="cls-16" d="M373.00948,1857.18217l1.00012-12.61139,149.08224,11.46291s6.80337,3.333,5.79834,8.18583Z"/></g><path class="cls-13" d="M451.91869,1815.07169c-.05914.76047-3.881.93333-7.73625,3.21215-3.916,2.17775-5.99536,5.3877-6.68185,5.05442-.69514-.17959.64515-4.6787,5.36234-7.35515C447.55465,1813.265,452.11531,1814.3805,451.91869,1815.07169Z"/><path class="cls-13" d="M467.96327,1822.572c.14087.74544-3.21406,1.8911-5.94472,4.994-2.82123,3.02175-3.63111,6.47376-4.38765,6.4064-.72075.08778-1.04609-4.3948,2.42218-8.1873C463.48739,1821.96236,467.97939,1821.84577,467.96327,1822.572Z"/><path class="cls-13" d="M476.366,1842.55951c-.6989.131-1.58681-3.72014.55618-7.79987,2.1141-4.09668,5.77731-5.5792,6.071-4.93046.40193.64516-2.01023,2.77755-3.7184,6.15492C477.48852,1839.31863,477.12541,1842.5185,476.366,1842.55951Z"/><path class="cls-13" d="M451.37531,1796.639c-.34992.67916-3.79485-.529-8.11051-.43069-4.3176.01041-7.73038,1.30331-8.09766.63254-.41614-.57032,2.97972-3.24016,8.06463-3.28383C448.31411,1793.47386,451.776,1796.05751,451.37531,1796.639Z"/><rect class="cls-32" x="890.5391" y="603.89113" width="745.04041" height="398.03468"/><rect class="cls-33" x="893.2422" y="1047.70025" width="348.59169" height="348.59169"/><rect class="cls-34" x="1286.49873" y="1443.36715" width="348.59169" height="348.59169"/><polygon class="cls-16" points="1280.56 729.396 1383.648 905.706 1177.474 905.706 1280.56 729.396"/><polygon class="cls-16" points="1176.1 787.334 1203.234 832.393 1158.678 905.706 1107.41 905.706 1176.1 787.334"/><path class="cls-16" d="M1123.325,719.20534a19.09469,19.09469,0,1,0,19.0944-19.0944A19.09433,19.09433,0,0,0,1123.325,719.20534Z"/><rect class="cls-35" x="1289.2085" y="1104.63284" width="345.41364" height="25.57461" transform="translate(2923.83065 2234.84029) rotate(180)"/><rect class="cls-36" x="1289.2085" y="1152.19002" width="345.41364" height="25.57461" transform="translate(2923.83065 2329.95466) rotate(180)"/><rect class="cls-37" x="1289.2085" y="1199.74809" width="345.41364" height="25.57417" transform="translate(2923.83065 2425.07035) rotate(180)"/><rect class="cls-38" x="1289.2085" y="1247.30483" width="345.41364" height="25.57506" transform="translate(2923.83065 2520.18472) rotate(180)"/><rect class="cls-39" x="1289.2085" y="1342.42009" width="345.41364" height="25.57506" transform="translate(2923.83065 2710.41523) rotate(180)"/><rect class="cls-40" x="1428.19513" y="1294.86246" width="206.42701" height="25.57506" transform="translate(3062.81728 2615.29997) rotate(180)"/><rect class="cls-41" x="1289.2085" y="1294.86246" width="115.53045" height="25.57506"/><rect class="cls-42" x="894.83123" y="1484.68108" width="345.41364" height="25.57461" transform="translate(2135.07609 2994.93677) rotate(180)"/><rect class="cls-43" x="894.83123" y="1532.23826" width="345.41364" height="25.57461" transform="translate(2135.07609 3090.05114) rotate(180)"/><rect class="cls-44" x="894.83123" y="1579.79633" width="345.41364" height="25.57417" transform="translate(2135.07609 3185.16683) rotate(180)"/><rect class="cls-45" x="894.83123" y="1627.35307" width="345.41364" height="25.57506" transform="translate(2135.07609 3280.2812) rotate(180)"/><rect class="cls-46" x="894.83123" y="1722.46832" width="345.41364" height="25.57506" transform="translate(2135.07609 3470.5117) rotate(180)"/><rect class="cls-47" x="1130.44488" y="1674.9107" width="109.79998" height="25.57506" transform="translate(2370.68974 3375.39645) rotate(180)"/><rect class="cls-48" x="894.83123" y="1674.9107" width="210.73649" height="25.57506"/><circle class="cls-16" cx="1067.53805" cy="1225.32226" r="96.62922"/><circle class="cls-49" cx="1067.53805" cy="1225.32226" r="83.36139"/><circle class="cls-16" cx="1067.53805" cy="1225.32226" r="69.49332"/><circle class="cls-50" cx="1067.53805" cy="1225.32226" r="55.34445"/><circle class="cls-16" cx="1067.53805" cy="1225.32226" r="35.78321"/><polygon class="cls-51" points="1163.645 1130.751 1070.147 1224.773 1065.673 1226.646 1067.533 1221.995 1161.425 1128.678 1163.645 1130.751"/><polyline class="cls-16" points="1138.509 1151.454 1139.93 1131.978 1150.986 1121.659 1150.795 1141.961 1171.994 1141.955 1155.435 1153.708 1140.597 1153.907"/><line class="cls-52" x1="1586.52629" y1="1716.28351" x2="1333.38921" y2="1716.28351"/><rect class="cls-16" x="1369.32911" y="1685.77296" width="24.62994" height="28.36147"/><rect class="cls-16" x="1413.97088" y="1664.9484" width="24.62994" height="49.18603"/><rect class="cls-16" x="1456.85654" y="1633.74071" width="24.62994" height="80.39372"/><rect class="cls-16" x="1499.95894" y="1608.56015" width="24.62994" height="105.57428"/><rect class="cls-16" x="1540.58418" y="1578.83486" width="24.62994" height="135.29957"/><path class="cls-53" d="M1553.95857,1540.955c-87.62612,75.08707-189.93726,78.74438-189.93726,78.74438"/><polyline class="cls-53" points="1538.121 1539.653 1555.292 1540.16 1550.921 1556.901"/><path class="cls-21" d="M587.35628,1162.55931c1.03578.6855,2.08528,1.34933,3.13474,2.01361,10.3206,6.53042,20.81191,13.13957,32.527,16.59318,6.79134,2.00256,14.18108,3.04276,19.71818,7.45608a55.22327,55.22327,0,0,0,6.65383,5.11695c.65807.38035,7.18628,2.81455,6.90456,2.12905.95749,2.33115,3.52659,3.48722,5.8657,4.42481a1.55909,1.55909,0,0,0,.85622.16541c.28968-.05617.5515-.35514.45376-.63376.8456,1.64477,3.81671,2.37008,4.7574,1.48025.94113-.89027-1.41037-5.04576-1.41037-5.04576s1.59081.11013,2.05784-.41926a5.26464,5.26464,0,0,0,.99906-3.2117,37.76352,37.76352,0,0,0-11.18167-29.11093"/><path class="cls-54" d="M660.86076,1184.5892c-.03776,1.81621,1.08233,3.67989,1.76262,5.32805a51.43365,51.43365,0,0,0,2.48407,5.29438c.4344.78852,1.54973.2284,1.38934-.58573a23.66567,23.66567,0,0,0-2.02807-5.89082c-.76751-1.57232-1.56076-3.47859-3.06206-4.45914a.3659.3659,0,0,0-.5459.31326Z"/><path class="cls-54" d="M649.77419,1184.96789c3.93341,4.30147,7.88436,8.33258,11.3181,13.06309.36912.50851,1.27152.23035,1.07358-.45261-1.68423-5.81119-7.483-9.3511-11.6343-13.36786a.53586.53586,0,0,0-.75738.75738Z"/><path class="cls-21" d="M570.28546,1171.10777q47.08418.14993,94.16837-.21406c-2.94325-5.31288-4.82241-8.64487-8.18006-11.96934a43.98707,43.98707,0,0,0-11.69514-8.77136,106.48479,106.48479,0,0,0-47.35993-11.67171"/><path class="cls-55" d="M460.70032,954.71179S503.635,1066.6272,514.36247,1076.008C525.09,1085.38923,627.365,1136.2417,627.365,1136.2417l-31.34833,66.33292S472.97527,1153.42706,455.345,1136.2417c-17.63029-17.18493-73.71469-83.78984-79.35661-150.64242"/><path class="cls-30" d="M346.99686,1233.44663s-13.84541,61.38181,15.92979,135.75194c0,0,14.41859,77.74634,15.58085,166.63058,1.1857,90.67054-3.30846,203.52611-3.30846,246.67174l81.96572,3.48247s37.99011-159.30088,33.06133-283.04335c-5.8199-146.1151-13.435-270.944-6.20251-300.15266"/><path class="cls-56" d="M451.99265,1785.98336s30.60887-125.9382,31.91044-251.32929c1.42983-137.74521-10.3374-291.81869-10.3374-331.86672"/><path class="cls-30" d="M519.50994,1235.20321s128.03862,116.83272,145.48336,189.37033c12.60153,52.39888-14.65323,265.14334-14.65323,265.14334H563.37584s22.26578-197.69,15.1308-218.64127c-8.39014-24.63658-114.528-113.60407-114.528-113.60407s-51.3182-9.63726-70.9214-53.79788c-17.66743-39.80126-9.48915-88.09746-9.48915-88.09746"/><path class="cls-56" d="M515.064,1240.14821S637.21014,1364.55837,658.63279,1417.853c16.27431,40.48676-16.41882,271.86388-16.41882,271.86388"/><path class="cls-56" d="M499.13941,1387.77043c-8.91863-8.09559-24.36547-21.99186-29.06979-26.11816a30.98867,30.98867,0,0,0-10.27328-6.047,96.43589,96.43589,0,0,1-56.03266-51.93158"/><path class="cls-57" d="M1846.17308,1501.83855c2.78087-7.007,12.58784-52.16855,16.35773-54.72977,10.23789-6.95594,31.46361-12.24508,37.31575-49.75434"/><path class="cls-56" d="M435.062,1278.88052s33.85728,1.18084,48.01493,0"/><line class="cls-56" x1="343.78207" y1="1278.88052" x2="371.08283" y2="1278.88052"/><path class="cls-21" d="M748.95526,967.63421c11.86851-5.41283,65.9057-29.04194,67.17808-25.76346,1.22241,3.15774-15.85637,14.54772-13.96394,15.08418,1.042.29543,16.33446-3.66545,23.97672-7.4145,6.81748-3.34349,18.31225-7.59671,20.15164-4.81931,3.49828,5.28324-34.139,23.15456-34.139,23.15456s6.65514-3.06,10.03755,1.05877c4.87814,5.93558-5.446,11.43112-5.446,11.43112s5.91389-3.00605,7.86868,2.10737c2.03086,5.31111-6.8263,9.63111-6.8263,9.63111s7.02355-3.36914,7.91426,3.04231c1.16978,8.42551-55.00132,28.23924-55.00132,28.23924"/><path class="cls-55" d="M492.35823,1021.70147s64.7912,71.57415,125.239,71.57415c60.44689,0,174.23835-64.16009,174.23835-64.16009l-27.18489-74.60762L632.435,1001.93108S562.802,936.87674,530.67482,924.884c-32.12715-11.99322-55.52761-11.90964-55.52761-11.90964"/><line class="cls-56" x1="752.0343" y1="959.03312" x2="776.93091" y2="1037.14964"/><path class="cls-21" d="M400.1946,856.17281l-7.5266,60.49907s58.40625,30.63,97.14066-1.92389V879.46251Z"/><path class="cls-21" d="M479.47,761.22553s68.25291,86.04581,43.29741,117.93c-12.97112,16.57287-55.28916,12.6031-75.46177,0-14.96808-9.35195-56.75921-59.275-50.36483-72.03365C421.368,758.36652,479.47,761.22553,479.47,761.22553Z"/><path class="cls-21" d="M504.67015,806.09473c1.70734.93379,19.68458,8.71579,19.80457,15.95817.06771,4.08641-9.90229,8.53614-9.90229,8.53614"/><path class="cls-21" d="M649.03706,1161.738c7.07175,7.62679,9.43431,15.14566,12.29264,21.25682a2.24709,2.24709,0,0,1,.26889.86506c.04157,1.40462-2.07464,1.53111-3.389,1.03312a27.66487,27.66487,0,0,1-8.24949-4.90776,20.04518,20.04518,0,0,0-2.99411-2.37716c-2.01936-1.15784-4.43941-1.2914-6.74934-1.57666-9.50595-1.17331-19.07692-5.89975-23.691-14.29342"/><path class="cls-58" d="M649.0371,1161.738a43.47594,43.47594,0,0,1,6.355,7.6062,66.54521,66.54521,0,0,1,4.71277,8.75537l2.08069,4.44336a4.74991,4.74991,0,0,1,.29492.709,2.30806,2.30806,0,0,1,.06213,1.06909,2.07514,2.07514,0,0,1-.55444,1.05127,2.50771,2.50771,0,0,1-.86145.54981,4.823,4.823,0,0,1-3.11316.00635,28.20149,28.20149,0,0,1-8.8291-5.15332,12.55693,12.55693,0,0,0-3.6709-2.6648,18.51056,18.51056,0,0,0-4.53894-.93579,38.91217,38.91217,0,0,1-9.76343-2.45337,31.14469,31.14469,0,0,1-8.621-5.14478,23.81085,23.81085,0,0,1-6.06457-7.83837,25.73734,25.73734,0,0,0,6.735,6.98657,33.19578,33.19578,0,0,0,8.55444,4.37988,40.98867,40.98867,0,0,0,9.39686,1.98975,19.32941,19.32941,0,0,1,5.09655,1.00708,9.40158,9.40158,0,0,1,2.398,1.36963c.70777.54345,1.3241,1.11718,1.92468,1.63354a26.84172,26.84172,0,0,0,8.04566,4.84448,2.9308,2.9308,0,0,0,1.72888.09668c.22217-.08691.18482-.103.20264-.105-.00232-.04321.02453-.05737-.00379-.14941a2.9655,2.9655,0,0,0-.17016-.43115c-.688-1.519-1.29175-3.0542-1.90552-4.57447a84.16907,84.16907,0,0,0-4.06152-8.88818A52.20165,52.20165,0,0,0,649.0371,1161.738Z"/><path class="cls-55" d="M423.40827,907.08508s-21.03222,2.97252-41.94027,47.90285l61.79126-36.63335C427.38926,914.93586,423.40827,907.08508,423.40827,907.08508Z"/><path class="cls-55" d="M560.26724,1250.20158s3.42817-116.07105,1.27949-197.31945Z"/><path class="cls-55" d="M361.37839,966.89826h4.821l2.27879,22.46557a273.00252,273.00252,0,0,1,12.98979-34.3759Z"/><path class="cls-55" d="M475.14716,912.97424l80.677,69.18585c3.15122,11.90546,4.87232,38.59362,5.72261,70.722l.70885-109.37775-99.98753-36.4193-19.00879,11.2695c.83139.17923,1.66981.35577,2.56761.50882C463.865,921.93634,475.14716,912.97424,475.14716,912.97424Z"/><path class="cls-55" d="M555.72456,979.21538l-80.67695-69.18585s-11.28219,8.9621-29.32029,5.88917c-.89781-.15306-1.73622-.32959-2.56762-.50883l-61.79126,36.63336a273.00327,273.00327,0,0,0-12.98979,34.37589l13.1998,130.11439-40.12253,130.72336H560.16769l1.27949-197.31945C560.59688,1017.809,558.87578,991.12084,555.72456,979.21538Z"/><path class="cls-56" d="M562.0143,1076.808s-40.69551-31.03476-60.33764-45.61389"/><path class="cls-59" d="M2446.76669,1321.95148l133.30088,562.46258Z"/><path class="cls-60" d="M2326.57421,1320.43751l9.87649,566.353Z"/><polyline class="cls-60" points="2370.716 1221.156 2374.402 1274.27 2389.144 1283.852"/><path class="cls-57" d="M1798.173,1371.75121s18.57786-12.07981,48.26316-16.5436"/><path class="cls-57" d="M1911.50234,1340.24014s5.52826-7.18674,39.25064-13.82065"/><path class="cls-61" d="M2356.24031,869.17205c-19.473,0-49.83766-62.25846-49.83766-62.25846l-78.17516,58.12891s24.99563,77.73578,67.36944,127.03285"/><path class="cls-55" d="M2356.24031,869.17205s3.79187,10.95059,25.36158,12.05529c27.77484,1.42225,43.22529-12.05529,43.22529-12.05529s82.80215,10.988,89.49175,101.45014c7.7046,104.18671,9.832,250.5343,9.832,250.5343H2265.91968s1.73218-167.13111,7.1712-246.86715C2278.30355,897.87507,2356.24031,869.17205,2356.24031,869.17205Z"/><line class="cls-57" x1="2265.91968" y1="1206.86782" x2="2523.90195" y2="1206.86782"/><path class="cls-57" d="M2345.35878,867.72507s5.49091,27.45277,39.06842,27.45277c41.23085,0,50.67148-29.25157,50.67148-29.25157"/><path class="cls-61" d="M2514.14049,982.04047c31.12155-80.94723,42.20213-142.74808,42.20213-142.74808l-82.911-40.12609s-19.734,55.02155-48.60441,70.00575"/><path class="cls-62" d="M465.12965,924.132c2.25557,107.69065,34.80644,218.78653,34.80644,218.78653-104.77185,29.80833-147.31732,19.63639-147.31732,19.63639l-2.2113-16.89439-3.317,16.89439H340.678v-16.89439l-6.85526,16.89439c-104.50624-2.43265-140.41779-59.43986-140.41686-59.44032,35.371-17.90711,63.76887-46.598,82.70379-81.29335,22.886-41.935,23.45474-88.62011,36.98593-133.1908,11.34577-37.37206,23.5195-83.33758,54.781-109.55993,45.15465-37.94605,103.93128-35.20405,133.78388-10.65836,0,0-4.11272,11.49867-9.68525,14.10813-5.57253,2.65345-19.96807,16.70261-19.96807,16.70261,1.23846,38.56528-3.86985,59.67563-3.86985,59.67563Z"/><path class="cls-62" d="M470.68892,801.06572s30.8895-7.11041,30.97151-32.65353l-9.15146-6.32438-32.642,43.21624Z"/><path class="cls-21" d="M476.59351,831.61884c-8.33436-10.56526-15.08136-8.88538-18.76422-3.08424-4.9116,7.73642,4.93707,23.81659,9.52422,26.563,9.29229,5.56116,16.81956,4.97662,17.53348-2.5721"/><path class="cls-21" d="M476.59351,831.61884c-8.33436-10.56526-15.08136-8.88538-18.76422-3.08424-4.9116,7.73642,4.93707,23.81659,9.52422,26.563,9.29229,5.56116,16.81956,4.97662,17.53348-2.5721"/><path class="cls-21" d="M476.59351,831.61884c-8.33436-10.56526-15.08136-8.88538-18.76422-3.08424-4.9116,7.73642,4.93707,23.81659,9.52422,26.563,9.29229,5.56116,16.81956,4.97662,17.53348-2.5721"/><path class="cls-63" d="M428.74073,831.19316a26.325,26.325,0,0,1-.76031-6.211,23.512,23.512,0,0,1,4.06515-12.29642,30.4841,30.4841,0,0,1,10.36488-9.80119c4.30568-2.3021,9.5114-2.92553,14.88474-3.91971,5.39038-.94276,10.51795-2.26253,14.769-5.23547a29.31156,29.31156,0,0,0,9.62416-12.49748,46.60708,46.60708,0,0,0,3.4455-13.96317c.14758-1.92785.231-3.439.20875-4.51463a11.58965,11.58965,0,0,0-.03869-1.63114c-.10357-.06062-.07951,2.18335-.50654,5.85407a45.94962,45.94962,0,0,1-3.62,13.32324,28.53993,28.53993,0,0,1-9.54179,11.90219c-4.18275,2.82723-9.25612,4.0938-14.63409,5.03262-5.37192.999-10.579,1.6543-14.98367,4.10007a30.78473,30.78473,0,0,0-10.42967,10.31823,24.95266,24.95266,0,0,0-3.95038,13.1489,20.24847,20.24847,0,0,0,.60065,4.83078A8.81285,8.81285,0,0,0,428.74073,831.19316Z"/><path class="cls-63" d="M424.51887,826.45271a26.324,26.324,0,0,1-2.90153-5.544,23.512,23.512,0,0,1-.53176-12.94,30.48388,30.48388,0,0,1,6.24318-12.82641c3.21738-3.67246,7.86892-6.09142,12.54657-8.91643,4.71175-2.7829,9.04461-5.82593,11.97433-10.10686a29.31157,29.31157,0,0,0,4.59929-15.08834,46.60647,46.60647,0,0,0-1.69933-14.28124c-.54167-1.85606-.99641-3.29957-1.39655-4.29826a11.589,11.589,0,0,0-.61135-1.51274c-.1183-.02021.69545,2.07115,1.59018,5.65668a45.94923,45.94923,0,0,1,1.31042,13.74393,28.53989,28.53989,0,0,1-4.73212,14.50224c-2.91719,4.12051-7.21811,7.09465-11.91962,9.86948-4.67462,2.829-9.3162,5.27828-12.57556,9.12009a30.78472,30.78472,0,0,0-6.1215,13.33309,24.95268,24.95268,0,0,0,.93976,13.69729,20.24817,20.24817,0,0,0,2.26544,4.30872A8.812,8.812,0,0,0,424.51887,826.45271Z"/><path class="cls-12" d="M1119.94239,80.00413a43.78235,43.78235,0,1,1-12.82292,30.95851,43.64983,43.64983,0,0,1,12.82292-30.95851Zm9.4574-43.39576a77.06458,77.06458,0,0,0-17.15852,7.30628,77.89683,77.89683,0,0,0-15.05756,11.34721,2.678,2.678,0,0,1-3.20488.38847L1073.6322,43.9078l-.11037-.074a5.08273,5.08273,0,0,0-6.77441,1.92044l-.08366.14045-14.31493,24.78955a5.09257,5.09257,0,0,0,1.85,6.89794l.14052.08016L1074.5187,89.311a2.70006,2.70006,0,0,1,1.26791,2.96458h.00336a77.962,77.962,0,0,0,0,37.36794,2.68143,2.68143,0,0,1-1.41844,3.05091l-20.1727,11.64181v.00685a5.097,5.097,0,0,0-1.85,6.89794l14.39523,24.93h.00336a5.07865,5.07865,0,0,0,6.88478,1.84644l.15388-.08016,20.19944-11.66853a2.701,2.701,0,0,1,3.19819.39464,78.256,78.256,0,0,0,15.0542,11.3472,77.27054,77.27054,0,0,0,17.27225,7.33985,2.691,2.691,0,0,1,1.957,2.583v23.4645a5.06022,5.06022,0,0,0,5.03485,5.0378h28.79739a5.06581,5.06581,0,0,0,5.03437-5.0378v-23.4645a2.69084,2.69084,0,0,1,2.06774-2.61653,77.07293,77.07293,0,0,0,17.15852-7.30628,78.13919,78.13919,0,0,0,15.05378-11.3472,2.687,2.687,0,0,1,3.34209-.30763l20.206,11.66168a5.07931,5.07931,0,0,0,6.88835-1.84644l.087-.14045,14.31521-24.80325h-.00343a5.08121,5.08121,0,0,0-1.84027-6.88424l-20.32658-11.73568a2.68118,2.68118,0,0,1-1.2675-2.96389h-.00343a77.97331,77.97331,0,0,0,0-37.36794,2.67715,2.67715,0,0,1,1.41823-3.04474l20.17928-11.64867a5.0871,5.0871,0,0,0,1.84027-6.89109l-.08016-.1473-14.31521-24.78955h-.00342a5.0733,5.0733,0,0,0-6.88835-1.85329l.00343.00685-20.343,11.74253a2.67863,2.67863,0,0,1-3.26535-.44877,77.77685,77.77685,0,0,0-15.00035-11.28691,76.90624,76.90624,0,0,0-17.2654-7.33985,2.68767,2.68767,0,0,1-1.95743-2.583V10.52734a5.05393,5.05393,0,0,0-5.03437-5.0378H1136.502a5.04839,5.04839,0,0,0-5.03485,5.0378v23.4645A2.69149,2.69149,0,0,1,1129.39979,36.60837Z"/><path class="cls-64" d="M1923.30242,804.67541a34.69335,34.69335,0,1,1-10.16094,24.53167,34.58834,34.58834,0,0,1,10.16094-24.53167Zm7.49409-34.387a61.066,61.066,0,0,0-13.5965,5.78953,61.726,61.726,0,0,0-11.93168,8.99158,2.122,2.122,0,0,1-2.53956.30782L1886.606,776.0725l-.08746-.05863a4.02755,4.02755,0,0,0-5.36807,1.52176l-.06629.11129L1869.741,797.29028a4.03538,4.03538,0,0,0,1.466,5.466l.11135.06352,15.99021,9.23046a2.13955,2.13955,0,0,1,1.0047,2.34914h.00266a61.77729,61.77729,0,0,0,0,29.61054,2.12477,2.12477,0,0,1-1.124,2.41755l-15.98494,9.225v.00543a4.03888,4.03888,0,0,0-1.466,5.466l11.40685,19.75466h.00266a4.02435,4.02435,0,0,0,5.45553,1.46312l.12194-.06352,16.00613-9.2462a2.14034,2.14034,0,0,1,2.53426.31271,62.01,62.01,0,0,0,11.929,8.99158,61.229,61.229,0,0,0,13.68662,5.81614,2.13236,2.13236,0,0,1,1.55075,2.04674v18.59339a4.00973,4.00973,0,0,0,3.98964,3.992h22.81918a4.01417,4.01417,0,0,0,3.98926-3.992V890.1991a2.13224,2.13224,0,0,1,1.63849-2.07335,61.07244,61.07244,0,0,0,13.59649-5.78953,61.91741,61.91741,0,0,0,11.92869-8.99158,2.12916,2.12916,0,0,1,2.64829-.24376l16.01133,9.24077a4.02487,4.02487,0,0,0,5.45836-1.46312l.069-.1113,11.34344-19.65422h-.00272a4.02638,4.02638,0,0,0-1.45824-5.4551l-16.10688-9.2994a2.12461,2.12461,0,0,1-1.00437-2.34861h-.00272a61.78637,61.78637,0,0,0,0-29.61054,2.12138,2.12138,0,0,1,1.12382-2.41266l15.99015-9.23046a4.031,4.031,0,0,0,1.45824-5.46053l-.06352-.11672-11.34344-19.64336h-.00271a4.0201,4.0201,0,0,0-5.45836-1.46856l.00271.00543-16.11991,9.30483a2.12255,2.12255,0,0,1-2.58748-.3556,61.63036,61.63036,0,0,0-11.88634-8.9438,60.94025,60.94025,0,0,0-13.68119-5.81613,2.12974,2.12974,0,0,1-1.55108-2.04675V749.62166a4.00477,4.00477,0,0,0-3.98926-3.992h-22.81918a4.00037,4.00037,0,0,0-3.98964,3.992v18.59339A2.13275,2.13275,0,0,1,1930.79651,770.2884Z"/><path class="cls-11" d="M303.51286,531.69809a22.0564,22.0564,0,1,1-6.45985,15.59609,21.98964,21.98964,0,0,1,6.45985-15.59609Zm4.76439-21.86164a38.823,38.823,0,0,0-8.644,3.68071,39.24244,39.24244,0,0,0-7.5856,5.71642,1.34908,1.34908,0,0,1-1.61454.1957L280.183,513.51371l-.05561-.03728a2.56055,2.56055,0,0,0-3.41277.96746l-.04214.07076L269.461,527.003a2.56551,2.56551,0,0,0,.932,3.475l.07079.04038,10.16583,5.86829a1.36022,1.36022,0,0,1,.63874,1.49348H281.27a39.27539,39.27539,0,0,0,0,18.825,1.35082,1.35082,0,0,1-.71457,1.537L270.393,564.10692v.00345a2.56774,2.56774,0,0,0-.932,3.475l7.25194,12.55909h.00169a2.5585,2.5585,0,0,0,3.46838.93018l.07752-.04038,10.17594-5.8783a1.36073,1.36073,0,0,1,1.61117.19881,39.42313,39.42313,0,0,0,7.58391,5.71642,38.92708,38.92708,0,0,0,8.70131,3.69763,1.35566,1.35566,0,0,1,.98589,1.30122v11.8208a2.5492,2.5492,0,0,0,2.53643,2.53791h14.50736a2.552,2.552,0,0,0,2.53619-2.53791V586.07a1.35558,1.35558,0,0,1,1.04167-1.31814,38.82719,38.82719,0,0,0,8.644-3.68071,39.36424,39.36424,0,0,0,7.5837-5.71642,1.35363,1.35363,0,0,1,1.68366-.155l10.17925,5.87485a2.55881,2.55881,0,0,0,3.47017-.93018l.04383-.07076,7.21163-12.49523h-.00173a2.55977,2.55977,0,0,0-.92708-3.4681l-10.24-5.91212a1.35073,1.35073,0,0,1-.63853-1.49313h-.00173a39.281,39.281,0,0,0,0-18.825,1.34867,1.34867,0,0,1,.71447-1.53386l10.16579-5.86829a2.56274,2.56274,0,0,0,.92708-3.47155l-.04038-.07421-7.21163-12.48833h-.00172a2.55579,2.55579,0,0,0-3.47017-.93363l.00173.00345-10.24829,5.91557a1.34942,1.34942,0,0,1-1.645-.22607,39.18153,39.18153,0,0,0-7.55678-5.68605,38.7437,38.7437,0,0,0-8.69785-3.69763,1.354,1.354,0,0,1-.9861-1.30122v-11.8208a2.54605,2.54605,0,0,0-2.53619-2.53791H311.85518a2.54324,2.54324,0,0,0-2.53643,2.53791v11.8208A1.35591,1.35591,0,0,1,308.27725,509.83645Z"/><path class="cls-21" d="M1727.14112,966.38539l44.506,77.45581s-26.67609,57.71194-98.78759,30.326l-18.47811-40.92045Z"/><path class="cls-21" d="M1608.88956,913.97361s-21.9066,103.02329,16.2394,121.39359c19.82831,9.54884,75.28736,3.64471,88.38343-17.502,9.7164-15.69133,5.90089-89.98108-5.99441-98.99218C1662.06763,884.43215,1608.88956,913.97361,1608.88956,913.97361Z"/><path class="cls-21" d="M1644.31107,970.00347c3.51676-16.49534,12.03233-18.34562,19.38668-13.86508,9.808,5.97753,7.646,29.51224,4.01034,35.14166-7.36669,11.40171-16.15243,14.91588-21.13754,6.8244"/><path class="cls-65" d="M1657.88714,1039.66265c11.366-9.44687,9.65534-27.44958,9.65534-27.44958"/><path class="cls-21" d="M1458.22906,1229.82177c-21.30193,5.91745-85.83308,12.9264-86.87372,17.33309-1.03843,4.4058,21.69333,2.23872,20.16311,5.69764-1.52846,3.45627-36.27821,9.16011-36.14288,13.83878.18708,6.34114,35.46268-1.40462,35.46268-1.40462s-14.6605,2.62084-12.90782,8.07391c1.24142,3.86315,7.21637,5.04974,18.81778,3.94143-6.36151,1.43558-8.85276,4.5-7.4822,8.48522,1.363,3.95027,7.52374,3.69155,14.05151,2.81543-4.48983,1.01322-7.951,3.99583-5.055,6.60384,3.78929,3.41115,30.13344,1.95125,76.788-5.9807"/><path class="cls-30" d="M1679.52974,1053.36238c-30.32851,11.61244-56.36661,41.04932-72.36186,71.36983-26.20174,49.66766-42.14612,85.69687-42.14612,85.69687l-132.02456,19.785,6.55032,70.41941s89.62149-2.65666,161.05544-13.39564c50.75477-7.63032,90.05137-112.838,90.05137-112.838"/><path class="cls-66" d="M1670.64247,1057.352s14.611,19.49485,49.62391,6.36546c35.01241-13.12984,36.27728-29.3555,36.27728-29.3555"/><line class="cls-66" x1="1673.82321" y1="1210.5967" x2="1688.17192" y2="1180.27353"/><path class="cls-21" d="M476.59351,831.61884c-8.33436-10.56526-15.08136-8.88538-18.76422-3.08424-4.9116,7.73642,4.93707,23.81659,9.52422,26.563,9.29229,5.56116,16.81956,4.97662,17.53348-2.5721"/><path class="cls-62" d="M1606.91444,931.5177a59.92371,59.92371,0,0,1-3.80338-12.73686,34.87257,34.87257,0,0,1-.26561-10.0394,2.15091,2.15091,0,0,1,.04427-.53069,2.2914,2.2914,0,0,0,0,.575A66.19035,66.19035,0,0,0,1606.91444,931.5177Z"/><path class="cls-30" d="M1903.183,1178.63491c-15.69615-35.38788-34.59589-69.84988-55.19136-90.44508-55.61893-55.61947-101.31831-52.48256-101.31831-52.48256s-8.69891,9.83291-28.82631,17.65507c-20.12632,7.82135-38.31721,0-38.31721,0s-32.3171,61.17931-16.82394,124.6968c15.49425,63.51776,54.87662,203.0148,54.87662,203.0148l226.20514-76.02922-36.15071-49.93978Z"/><path class="cls-67" d="M1617.3751,1204.75948c10.52143-13.70984,18.96794-30.38079,27.07659-45.63179.72254-1.35893-1.57286-2.58707-2.3805-1.27651-9.055,14.69358-19.13972,30.38854-25.64822,46.39775a.547.547,0,0,0,.95213.51055Z"/><path class="cls-67" d="M1600.61825,1194.11089c9.83318-11.49157,17.5323-26.31227,23.01165-40.35848.658-1.68707-1.85024-2.59316-2.59766-.98967-6.51857,13.98691-14.21637,26.99332-21.63,40.47919a.74776.74776,0,0,0,1.216.869Z"/><path class="cls-67" d="M1633.69508,1215.35281c9.83318-11.49157,17.53231-26.31227,23.01166-40.35848.658-1.68707-1.85025-2.59316-2.59766-.98967-6.51858,13.9869-14.21637,26.99332-21.63,40.47919a.74776.74776,0,0,0,1.216.869Z"/><path class="cls-67" d="M1602.28968,1149.91352c-6.73629,10.67169-13.78829,21.212-20.01586,32.19287-.83067,1.46421,1.23711,3.02473,2.17006,1.551,6.77034-10.694,12.75973-21.90977,19.01617-32.90754.44915-.78938-.66867-1.63118-1.17037-.83637Z"/><path class="cls-67" d="M1668.7971,1191.36591c-6.73629,10.67169-13.78829,21.212-20.01587,32.19287-.83066,1.46421,1.23712,3.02473,2.17007,1.55105,6.77034-10.694,12.75973-21.90977,19.01617-32.90754.44914-.78939-.66867-1.63119-1.17037-.83638Z"/><path class="cls-58" d="M1605.80753,932.14152s2.50784,41.25555,42.29228,59.24392-3.78874-50.562-3.78874-50.562Z"/><path class="cls-68" d="M1918.00051,1208.98505c-1.90142,2.65346-4.06846,5.26292-6.94326,6.81072-8.978,4.82076-19.90173-2.2553-30.02914-1.06138-19.01743,2.2113-25.20919,30.78145-43.961,34.8059-13.79851,2.96334-26.757-9.11056-40.90912-9.022-9.46444.04427-17.91177,5.52826-25.91641,10.52582-14.1084,8.80095-29.18965,16.85013-45.64162,19.23824-16.452,2.38838-34.67309-1.81315-45.64107-14.28494-11.01279-12.42751-12.91421-30.95825-8.53587-46.9238,4.37834-16.00982,14.1964-29.89687,24.72277-42.72254,10.39248-12.64859,22.33384-29.10056,14.94789-43.69538-5.92614-11.67548-20.83031-14.59455-32.72686-20.03427-25.60707-11.72-41.39608-41.838-36.44225-69.6118,1.59154-8.801,4.997-17.24828,6.50111-26.04923,1.99-11.80828.44215-23.97046-3.44977-35.38086a121.147,121.147,0,0,1-10.17221-21.27273c-.22081-.35388-.39788-.6635-.61869-.97311,1.59154,9.59725,6.76672,21.62661,7.11979,22.51119-19.50331-9.37591-28.87921-23.92619-33.39036-36.30971v-.04427a66.19039,66.19039,0,0,1-4.02472-22.732,2.29142,2.29142,0,0,1,0-.575v-.04426c2.29984-17.38082,16.93893-32.86,33.12528-41.04193,30.33957-15.34632,68.10881-14.99244,98.18222.8403,30.0734,15.87728,51.65629,46.87981,56.0789,80.58005,3.05134,22.95335-1.10565,47.94092,10.43675,68.064,15.25832,26.57964,50.15276,32.50606,77.21909,47.01234,24.45661,13.135,44.18181,35.5134,52.36352,62.049C1938.43347,1156.17911,1934.36448,1186.5624,1918.00051,1208.98505Z"/><path class="cls-69" d="M1672.39692,970.91725c-.005.0161-.09861-.00073-.2784-.04964a5.28389,5.28389,0,0,1-.77824-.28118,8.10872,8.10872,0,0,1-2.54969-1.89014,13.10272,13.10272,0,0,1-2.57808-4.26639,61.82429,61.82429,0,0,1-1.7863-6.25755,23.91018,23.91018,0,0,0-3.11871-7.07326,32.03584,32.03584,0,0,0-5.96547-6.67662c-4.84063-4.16868-11.15-7.436-17.95566-10.40378-6.78889-3.0025-13.37376-5.91214-18.6136-9.81783a30.18511,30.18511,0,0,1-10.60114-13.32005,22.268,22.268,0,0,1-1.51129-6.36668,17.27381,17.27381,0,0,1,.34279-4.899,11.77563,11.77563,0,0,1,1.50407-3.86935,38.64066,38.64066,0,0,0-1.12178,3.94844,17.869,17.869,0,0,0-.1677,4.78144,22.36162,22.36162,0,0,0,1.61125,6.15893A29.912,29.912,0,0,0,1619.316,923.478c5.15644,3.78424,11.66665,6.639,18.47229,9.64737,6.81472,2.9718,13.24185,6.32064,18.15608,10.62129a32.39862,32.39862,0,0,1,6.06374,6.9269,24.22708,24.22708,0,0,1,3.10285,7.33546c.57983,2.34536.98279,4.46537,1.62675,6.24089a13.15646,13.15646,0,0,0,2.34342,4.1965A9.71012,9.71012,0,0,0,1672.39692,970.91725Z"/><path class="cls-69" d="M1692.43627,937.54582c.00069.01683-.09321.03218-.279.046a5.282,5.282,0,0,1-.82746-.00574,8.10884,8.10884,0,0,1-3.03384-.93238,13.10274,13.10274,0,0,1-3.85252-3.16333,61.81952,61.81952,0,0,1-3.76958-5.30453,23.91026,23.91026,0,0,0-5.29767-5.62957,32.03606,32.03606,0,0,0-7.84951-4.3069c-5.95317-2.31718-12.9907-3.295-20.39639-3.82512-7.40142-.5684-14.57953-1.11723-20.82145-3.05342a30.18512,30.18512,0,0,1-14.43417-9.02567,22.26814,22.26814,0,0,1-3.54666-5.49907,17.27341,17.27341,0,0,1-1.30945-4.7332,11.77585,11.77585,0,0,1,.12858-4.14941,38.64544,38.64544,0,0,0,.25821,4.09657,17.86955,17.86955,0,0,0,1.43535,4.564,22.36215,22.36215,0,0,0,3.57167,5.26989,29.91214,29.91214,0,0,0,14.1678,8.61432c6.12282,1.84948,13.21224,2.37142,20.63141,2.93979,7.41554.53085,14.5913,1.54633,20.65784,3.96342a32.39852,32.39852,0,0,1,8.02557,4.51012,24.22724,24.22724,0,0,1,5.3701,5.88207c1.3283,2.01805,2.41474,3.88258,3.61359,5.342a13.15642,13.15642,0,0,0,3.608,3.17564A9.71,9.71,0,0,0,1692.43627,937.54582Z"/><path class="cls-70" d="M2358.68567,840.404s40.0896,3.05432,54.48465-17.22818c0,0-9.13229,30.62218-55.69176,31.42906Z"/><path class="cls-71" d="M2426.96971,746.83536a48.51507,48.51507,0,0,1,5.81313,16.12061c1.74921,11.05381-1.28254,21.40184-2.50928,32.01533a1.31751,1.31751,0,0,0,.24757,1.125,4.30693,4.30693,0,0,0,2.17607.93121l6.54521,1.48476c2.93741.66634,6.43942,1.27859,8.23084.07268a3.67406,3.67406,0,0,0,1.31814-2.03428c3.41071-9.62886,6.82691-19.27828,8.58236-29.33546,1.62157-9.29016-.28034-25.86-4.98665-35.79884-1.7988-3.79871-3.04386.46424-3.89739-.0532-1.25126-.75856-2.13139,1.79908-3.59759,1.852-3.91469.14127-4.39183,2.82183-8.089,3.35227-4.61706.66243-7.14161,3.8254-11.49758,4.32229-2.12375.24225-8.44721-.55391,1.66414,5.94565"/><path class="cls-71" d="M2350.58614,722.33758c-6.98815-1.78078-3.48167-4.13981-4.88416-11.2136a19.66536,19.66536,0,0,1,7.36037-19.14421,34.119,34.119,0,0,1,10.3736-4.747c14.99229-4.70328,31.31108-7.29971,43.53511-17.172-1.08588,5.05431-2.55517,10.66836-6.98343,13.3359a62.97392,62.97392,0,0,0,13.72233.16095c4.543-.61286,9.07562-2.31674,12.30166-5.57362-2.43666,5.01456-5.30076,10.44229-10.47152,12.52708a73.41528,73.41528,0,0,0,14.28312,3.762c4.89508.60509,10.04623.17037,14.41574-2.1177a21.64254,21.64254,0,0,1-12.55834,7.86406,37.38219,37.38219,0,0,0,20.7829,8.97688,24.267,24.267,0,0,1-10.5675,5.88652,35.33407,35.33407,0,0,0,16.65534,7.5681c-3.52,2.43152-5.64589,6.36606-8.51691,9.53776-8.05118,8.8944-21.241,11.044-33.21359,10.27663-16.15472-1.03542-31.69569-6.3156-47.01393-11.55-6.63137-2.266-13.3388-4.56835-19.22079-8.37781"/><path class="cls-72" d="M2433.678,726.50985a4.79953,4.79953,0,0,1-.959,1.94055,13.08016,13.08016,0,0,1-4.49934,3.831c-4.4491,2.49813-11.54569,3.335-19.06219,2.39385a29.10187,29.10187,0,0,1-17.05682-8.73644,37.70434,37.70434,0,0,1-3.7602-4.483,7.04566,7.04566,0,0,1-1.1045-1.84148c.18706-.14767,1.94971,2.35758,5.48575,5.68356a32.03675,32.03675,0,0,0,6.84032,4.95977,30.47934,30.47934,0,0,0,9.77816,3.16864c7.28242.91017,14.19559.232,18.4713-1.93846C2432.21015,729.39168,2433.489,726.33837,2433.678,726.50985Z"/><path class="cls-72" d="M2433.75367,708.53089c.05581.05516-.405.6513-1.359,1.61966a32.00026,32.00026,0,0,1-4.43479,3.67445,37.6345,37.6345,0,0,1-36.44361,3.62136,31.99838,31.99838,0,0,1-5.0713-2.72983c-1.1258-.76192-1.69494-1.25538-1.65052-1.32055.11974-.19291,2.59552,1.51776,7.0573,3.22356a39.53277,39.53277,0,0,0,35.61639-3.53917C2431.50714,710.53027,2433.5979,708.36509,2433.75367,708.53089Z"/><path class="cls-20" d="M2413.17032,806.3639c1.00714,6.2116,2.57522,13.8292,8.14985,16.04358,11.43674,4.54348,24.52759-12.00234,23.6912-24.95246-.25212-3.89317-.95379-8.01845-3.40028-10.45494-6.91927-6.88992-14.186.68433-18.88959,7.28678"/><path class="cls-73" d="M2432.21443,784.86106s-3.9112,9.21333-10.81677,2.91755c0,0,12.89137-21.28575,5.00175-40.1731s26.28749,11.39237,26.28749,11.39237Z"/><path class="cls-58" d="M489.80866,890.14667s-6.25574.83025-17.49653-3.03953c0,0,5.69329,10.87224,17.49653,13.08354Z"/><path class="cls-58" d="M496.35165,784.88562s1.96045,7.69267-24.1145,22.89539L472.051,800.7A52.05962,52.05962,0,0,0,496.35165,784.88562Z"/><path class="cls-74" d="M343.78205,1247.25687s58.67969,28.08562,197.07547,0Z"/><path class="cls-74" d="M375.9971,1782.53708v5.21566s22.44778,8.84521,74.95267,3.86978l1.04288-5.63916Z"/><path class="cls-74" d="M567.41563,1689.71688v8.44678s45.92683,5.85251,75.5653-.23686l.36341-8.20992Z"/><polygon class="cls-75" points="562.234 1103.06 561.613 1188.419 596.017 1202.575 627.365 1136.242 562.234 1103.06"/><path class="cls-70" d="M1667.69012,1940.95629s22.05427,16.44362,59.131,9.05086Z"/><path class="cls-70" d="M1934.14709,1942.47427l.68539,5.06528s25.78288-.19562,68.579-7.8935l-.374-6.2156Z"/><path class="cls-76" d="M1774.67323,1361.88532s89.47939-6.92721,178.45208-41.44781l-9.33772-15.39279Z"/><path class="cls-77" d="M2501.23831,1221.15649H2271.2661s101.73735,27.12476,233.36421,17.82161Z"/><path class="cls-78" d="M2314.12452,1887.07965s17.33068,10.77746,76.21193,8.19767l-.00663-8.86844Z"/><path class="cls-78" d="M2526.99939,1885.88653l1.54333,4.70466s40.19345,8.21307,74.59891,0l-1.70868-6.78047Z"/></g></g></svg>