<svg xmlns="http://www.w3.org/2000/svg" xmlns:xlink="http://www.w3.org/1999/xlink" viewBox="0 0 3298.29273 2130.16717"><defs><style>.cls-1,.cls-31{fill:none;}.cls-1{stroke:#c5e3e9;stroke-width:9.11987px;}.cls-1,.cls-13{stroke-miterlimit:10;}.cls-1,.cls-11,.cls-12,.cls-13,.cls-14,.cls-15,.cls-16,.cls-17,.cls-18,.cls-21,.cls-22,.cls-25,.cls-26,.cls-27,.cls-28,.cls-30,.cls-32,.cls-34,.cls-36,.cls-37,.cls-41,.cls-44,.cls-45,.cls-46,.cls-47,.cls-48,.cls-49,.cls-52,.cls-53,.cls-54,.cls-55,.cls-57{fill-rule:evenodd;}.cls-2{fill:url(#Degradado_sin_nombre_98);}.cls-3{fill:#f6f6f6;}.cls-4{fill:#ecebeb;}.cls-5{fill:#fdfefe;}.cls-6{fill:#e1e1e0;}.cls-14,.cls-7{fill:#fff;}.cls-8{fill:#eee;}.cls-9{fill:#89a7a8;}.cls-10{fill:#82b3b7;}.cls-11{fill:#385963;}.cls-12{fill:#0d0c10;}.cls-13,.cls-57{fill:#71c2cb;}.cls-13{stroke:#454644;stroke-width:9.71473px;}.cls-15{fill:#2b2b2b;}.cls-16{fill:#444443;}.cls-17{fill:#8a8a8a;}.cls-18{fill:#f0b18b;}.cls-19,.cls-21{fill:#f3c7af;}.cls-20,.cls-37{fill:#e9926c;}.cls-22{fill:#171b2c;}.cls-23{fill:#795224;}.cls-24{fill:#dfe6f3;}.cls-25{fill:#bbccd2;}.cls-26{fill:#eca294;}.cls-27{fill:#092635;}.cls-28{fill:#f1b9a5;}.cls-29{fill:#0c0b0b;opacity:0.3;}.cls-30{fill:#455a67;}.cls-32,.cls-35{fill:#a34a28;}.cls-33,.cls-34{fill:#723520;}.cls-36{fill:#f3c3b7;}.cls-38{fill:#e78868;}.cls-39{fill:#005660;}.cls-40{fill:#959595;}.cls-41{fill:#d8a75b;}.cls-42{fill:#f3dabb;}.cls-43{fill:#a97948;}.cls-44{fill:#aaa5b5;}.cls-45{fill:#d4ced6;}.cls-46{fill:#e2e1e6;}.cls-47{fill:#41a3a8;}.cls-48{fill:#adabba;}.cls-49{fill:#c5e3e9;}.cls-50{fill:#2379b2;}.cls-51{fill:#393838;}.cls-52{fill:#1c7d77;}.cls-53{fill:#8bc6b1;}.cls-54{fill:#5bb9b2;}.cls-55{fill:#36a37d;}.cls-56{fill:#2b2b2e;}</style><linearGradient id="Degradado_sin_nombre_98" y1="1010.24642" x2="3298.29273" y2="1010.24642" gradientUnits="userSpaceOnUse"><stop offset="0" stop-color="#dbece6"/><stop offset="1" stop-color="#aad8e2"/></linearGradient></defs><title>Recurso 5</title><g id="Capa_2" data-name="Capa 2"><g id="Capa_1-2" data-name="Capa 1"><path class="cls-1" d="M104.91881,801.98329A35.77064,35.77064,0,1,1,94.44236,827.2767a35.66235,35.66235,0,0,1,10.47645-25.29341Zm7.72679-35.45477a62.96247,62.96247,0,0,0-14.01869,5.9693,63.64308,63.64308,0,0,0-12.30217,9.27078,2.18792,2.18792,0,0,1-2.61843.31739l-16.62339-9.59377-.09018-.06045a4.15265,4.15265,0,0,0-5.53476,1.569l-.06835.11475L49.69419,794.36885a4.16068,4.16068,0,0,0,1.51147,5.63568l.1148.0655,16.48673,9.51707a2.206,2.206,0,0,1,1.0359,2.42209h.00274a63.69588,63.69588,0,0,0,0,30.53A2.19074,2.19074,0,0,1,67.687,845.0318l-16.4813,9.51148v.00559a4.16431,4.16431,0,0,0-1.51147,5.63569l11.76105,20.36806H61.458a4.14932,4.14932,0,0,0,5.62494,1.50856l.12572-.06549,16.50314-9.53331a2.20679,2.20679,0,0,1,2.613.32243,63.9363,63.9363,0,0,0,12.29943,9.27078,63.13092,63.13092,0,0,0,14.1116,5.99673,2.19858,2.19858,0,0,1,1.59891,2.1103v19.17073a4.13424,4.13424,0,0,0,4.11352,4.11593H141.976a4.13883,4.13883,0,0,0,4.11313-4.11593V890.16262a2.19844,2.19844,0,0,1,1.68936-2.13773,62.96922,62.96922,0,0,0,14.01868-5.9693,63.84094,63.84094,0,0,0,12.2991-9.27078,2.19527,2.19527,0,0,1,2.73052-.25134l16.5085,9.52771a4.14984,4.14984,0,0,0,5.62785-1.50856l.07109-.11475,11.69567-20.26451h-.0028a4.1514,4.1514,0,0,0-1.50352-5.62449l-16.607-9.58816a2.19054,2.19054,0,0,1-1.03556-2.42153h-.0028a63.70524,63.70524,0,0,0,0-30.53,2.18724,2.18724,0,0,1,1.15871-2.48758l16.48667-9.51708a4.1562,4.1562,0,0,0,1.50352-5.63008l-.06549-.12035L198.9659,774.00078h-.0028a4.14494,4.14494,0,0,0-5.62785-1.51415l.0028.00559L176.71759,782.086a2.18847,2.18847,0,0,1-2.66782-.36665,63.5447,63.5447,0,0,0-12.25544-9.22152,62.83283,62.83283,0,0,0-14.106-5.99673,2.19585,2.19585,0,0,1-1.59924-2.1103V745.22005a4.12914,4.12914,0,0,0-4.11313-4.11593H118.4482a4.12458,4.12458,0,0,0-4.11352,4.11593v19.17074A2.199,2.199,0,0,1,112.6456,766.52852Z"/><path class="cls-2" d="M3272.34669,1319.68359c-64.38627-185.77174-241.44865-320.0619-448.37856-320.0619-56.95355,0-108.48077-24.07632-145.09719-62.56218l-14.7285-5.1984a235.13906,235.13906,0,0,0,142.13312-110.12256c95.21148-29.457,164.88743-118.55832,164.88743-223.072,0-128.40767-105.0611-233.42312-233.42312-233.42312H2396.01828c-44.18579,0-81.21245-31.9652-89.238-73.91666a90.65573,90.65573,0,0,1-1.64151-16.96283c0-40.67455,27.13167-75.37587,64.15833-86.82107-.04564-.04565-.09129-.13694-.13693-.18258a81.31964,81.31964,0,0,1,16.0967-1.59587h54.491a56.74847,56.74847,0,0,0,0-113.49686H2082.2037c-37.005,0-72.5791,29.44707-101.60459,49.05743-104.79171,70.8-225.30295,142.87038-356.53225,142.87038H1018.23359A82.10587,82.10587,0,0,0,936.383,346.046a79.155,79.155,0,0,0,1.36792,14.40955,81.90935,81.90935,0,0,0,80.4827,67.44135c28.81883,0,69.03749-.8664,106.97619,4.24071,65.25267,17.69257,113.58788,77.5189,113.58788,148.19791a153.95179,153.95179,0,0,1-153.533,153.53323H1012.397c-27.99808,1.77817-56.1328,2.23433-83.53806,2.23433H574.00473c-87.82441,0-159.64339,71.819-159.64339,159.64339a160.12,160.12,0,0,0,159.64339,159.59775h18.23974c84.4501,0,153.533,69.08286,153.533,153.533a154.07863,154.07863,0,0,1-153.533,153.53295H292.93023C131.8279,1362.41016,0,1494.23806,0,1655.34039c0,161.10261,131.8279,292.88486,292.93023,292.88486h2531.0379c260.874,0,474.3246-213.40521,474.3246-474.279A470.27848,470.27848,0,0,0,3272.34669,1319.68359ZM624.5289,782.7968c5.83657-3.92147,11.85572-7.615,17.96615-11.035C636.38462,775.22715,630.36547,778.921,624.5289,782.7968ZM674.232,756.25794c4.332-1.86945,8.75527-3.5566,13.22392-5.15275C682.9873,752.70134,678.564,754.43386,674.232,756.25794Z"/><path class="cls-3" d="M1517.6475,357.13041V823.32773a.35255.35255,0,0,0,.38059.31517h377.9934a.35255.35255,0,0,0,.38058-.31517V357.13041a.35288.35288,0,0,0-.38058-.31561h-377.9934A.35288.35288,0,0,0,1517.6475,357.13041Z"/><path class="cls-4" d="M1900.41226,827.2767H1513.64053a.35255.35255,0,0,1-.38059-.31517V353.49661a.35256.35256,0,0,1,.38059-.31517h386.77173a.35256.35256,0,0,1,.38059.31517V826.96153A.35256.35256,0,0,1,1900.41226,827.2767Zm-377.99608-7.26716h369.2172a.35257.35257,0,0,0,.38059-.31561V360.76377a.35256.35256,0,0,0-.38059-.31517h-369.2172a.35256.35256,0,0,0-.38059.31517V819.69393A.35257.35257,0,0,0,1522.41618,820.00954Z"/><path class="cls-5" d="M1555.78356,385.92929V794.21992a.35256.35256,0,0,0,.38059.31517h302.38891a.35308.35308,0,0,0,.38113-.31517V385.92929a.35308.35308,0,0,0-.38113-.31517H1556.16415A.35256.35256,0,0,0,1555.78356,385.92929Z"/><path class="cls-4" d="M1622.21107,501.54235h169.63011a.2932.2932,0,0,1,.2932.2932V666.46184a.2932.2932,0,0,1-.2932.2932H1622.21153a.29366.29366,0,0,1-.29366-.29366V501.83555A.2932.2932,0,0,1,1622.21107,501.54235Z"/><path class="cls-6" d="M1778.65992,646.53476c.21879.53063-8.18111,3.57816-24.16651,2.02635a66.61647,66.61647,0,0,1-27.1661-8.99169c-9.29547-5.76521-18.12058-15.06406-21.1078-27.49146-3.10494-12.33124,1.875-27.70246,16.14452-37.58268a45.07965,45.07965,0,0,1,12.23969-5.9397,38.96552,38.96552,0,0,1,15.31291-1.461,29.99635,29.99635,0,0,1,15.30969,5.53728c4.68966,3.52341,7.257,9.47335,6.03679,14.76936-1.10737,5.34587-4.62624,9.4413-8.4058,12.678a56.05414,56.05414,0,0,1-12.82242,7.82182,81.45956,81.45956,0,0,1-30.59087,7.23511,71.37584,71.37584,0,0,1-32.60029-6.144c-10.03946-4.66968-18.62267-11.74632-23.99127-20.59422-5.44172-8.7433-7.17427-19.354-4.30424-28.84028a42.94333,42.94333,0,0,1,18.35819-23.76328,49.37946,49.37946,0,0,1,15.38817-6.43427,46.01191,46.01191,0,0,1,17.32607-.44738c5.71963.99537,11.56344,3.32442,15.72577,7.3464a19.52254,19.52254,0,0,1,6.16364,13.916,23.03892,23.03892,0,0,1-4.10157,13.25717,38.07881,38.07881,0,0,1-9.70616,9.66165,70.71737,70.71737,0,0,1-24.11331,10.61028,74.21076,74.21076,0,0,1-25.3685,1.6217,58.73211,58.73211,0,0,1-22.07808-7.00363c-12.54663-7.05081-19.79455-17.763-21.0863-27.65928-1.42077-10.07742,3.03237-18.34262,7.81289-23.71342a34.12359,34.12359,0,0,1,14.45066-9.56015c3.97633-1.24688,6.24159-1.20415,6.341-.89076.16664.44916-1.79973,1.17477-5.02509,2.95672a34.69679,34.69679,0,0,0-11.23714,10.00175c-3.53338,5.02492-6.45071,12.317-4.601,20.2559,1.682,7.91086,8.21552,16.41154,18.749,21.74317,10.31253,5.42555,24.78093,6.82289,38.6763,3.04976A58.203,58.203,0,0,0,1709.576,565.439c5.56535-4.13371,9.35461-9.45331,9.0396-15.0182-.17847-5.58047-4.42519-9.51386-11.65106-10.6588a30.15975,30.15975,0,0,0-11.12694.434,34.78007,34.78007,0,0,0-10.50122,4.55527,31.64731,31.64731,0,0,0-13.24061,17.47413c-2.01371,6.93151-.81334,14.28191,3.25007,20.94544,3.99944,6.64706,10.66571,12.18212,18.31357,15.76518a55.60444,55.60444,0,0,0,25.19809,4.85486,66.77909,66.77909,0,0,0,24.77987-5.60985,43.79757,43.79757,0,0,0,9.8884-5.77188c2.6921-2.17859,4.565-4.66968,5.017-6.7717a5.29681,5.29681,0,0,0-2.02821-5.44826,16.40656,16.40656,0,0,0-8.19509-2.98877,24.78928,24.78928,0,0,0-9.64973.67886,33.32766,33.32766,0,0,0-8.99229,4.07941,31.75029,31.75029,0,0,0-11.72685,13.37736,25.94465,25.94465,0,0,0-1.97446,15.36409c1.80029,10.07876,8.65417,18.42052,16.21709,23.79355a62.61662,62.61662,0,0,0,23.315,9.63494C1769.90523,646.90157,1778.547,645.52871,1778.65992,646.53476Z"/><rect class="cls-5" x="2033.98653" y="680.83735" width="353.4023" height="316.17454"/><path class="cls-6" d="M2387.38929,997.01189s-.05928-2.02689-.08983-5.86864c-.021-3.87959-.05152-9.55169-.09211-16.94061-.04788-14.84442-.1181-36.54287-.20747-64.18019-.09941-55.24316-.24123-134.18112-.41222-229.18465l.80072.80073c-101.7773.04149-223.2394.09028-353.36993.14318h-.03192l.9444-.94391c-.041,115.02849-.07983,223.26905-.11312,316.17363l-.83128-.83127c105.42754.17327,193.66685.31828,255.60628.42,30.98932.09439,55.38771.16826,72.093.21887,8.32188.04287,14.71628.0757,19.08515.098,2.13861.02052,3.77244.03648,4.92154.047,1.109.016,1.69675.04788,1.69675.04788s-.52439.03146-1.60236.04742c-1.12813.01095-2.73186.02691-4.83125.047-4.33148.0228-10.67207.05518-18.92282.09758-16.66246.05107-40.997.1254-71.90562.21934-62.06894.10168-150.49293.24623-256.14071.42l-.83127.00136v-.8331c-.03375-92.90458-.072-201.14514-.11355-316.17363V679.893h.97674c130.13053.05244,251.59263.10169,353.36993.14319h.80346l-.00137.80163c-.171,95.2142-.31281,174.3268-.41221,229.69217-.08938,27.5598-.1596,49.19761-.20748,64.00007-.04058,7.32189-.07114,12.94292-.09211,16.787C2387.44857,995.10356,2387.38929,997.01189,2387.38929,997.01189Z"/><rect class="cls-6" x="2087.01357" y="800.96794" width="14.88914" height="14.88865"/><rect class="cls-6" x="2123.66314" y="800.96794" width="14.88865" height="14.88865"/><rect class="cls-6" x="2087.01381" y="769.31515" width="182.50759" height="14.88865"/><rect class="cls-6" x="2160.98849" y="800.29216" width="14.88865" height="14.88865"/><rect class="cls-6" x="2196.96182" y="800.96794" width="14.88865" height="14.88865"/><rect class="cls-6" x="2233.61139" y="800.96794" width="14.88868" height="14.88865"/><rect class="cls-6" x="2270.26051" y="800.96794" width="14.88865" height="14.88865"/><rect class="cls-4" x="2306.90962" y="800.96794" width="14.88865" height="14.88865"/><rect class="cls-4" x="2087.01357" y="832.62074" width="14.88914" height="14.88865"/><rect class="cls-6" x="2123.66314" y="832.62074" width="14.88865" height="14.88865"/><rect class="cls-4" x="2160.31225" y="832.62074" width="14.8891" height="14.88865"/><rect class="cls-4" x="2087.01358" y="707.18576" width="44.76966" height="44.76966"/><rect class="cls-6" x="2196.96182" y="832.62074" width="14.88865" height="14.88865"/><rect class="cls-6" x="2233.61139" y="832.62074" width="14.88868" height="14.88865"/><rect class="cls-6" x="2270.93629" y="831.9445" width="14.88865" height="14.8891"/><rect class="cls-6" x="2306.90962" y="832.62074" width="14.88865" height="14.88865"/><rect class="cls-6" x="2087.01357" y="864.27353" width="14.88914" height="14.88865"/><rect class="cls-6" x="2124.33892" y="863.59729" width="14.88865" height="14.8891"/><rect class="cls-6" x="2160.31225" y="864.27353" width="14.8891" height="14.88865"/><rect class="cls-4" x="2196.96182" y="864.27353" width="14.88865" height="14.88865"/><rect class="cls-6" x="2233.61139" y="864.27353" width="14.88868" height="14.88865"/><rect class="cls-6" x="2270.26051" y="864.27353" width="14.88865" height="14.88865"/><rect class="cls-6" x="2306.90962" y="864.27353" width="14.88865" height="14.88865"/><rect class="cls-6" x="2087.01357" y="895.92587" width="14.88914" height="14.8891"/><rect class="cls-6" x="2123.66314" y="895.92587" width="14.88865" height="14.8891"/><rect class="cls-6" x="2160.31225" y="895.92587" width="14.8891" height="14.8891"/><rect class="cls-6" x="2197.63761" y="895.25008" width="14.88865" height="14.88865"/><rect class="cls-6" x="2233.61139" y="895.92587" width="14.88868" height="14.8891"/><rect class="cls-4" x="2270.26051" y="895.92587" width="14.88865" height="14.8891"/><rect class="cls-6" x="2306.90962" y="895.92587" width="14.88865" height="14.8891"/><rect class="cls-6" x="2087.01357" y="927.57866" width="14.88914" height="14.88865"/><rect class="cls-4" x="2123.66314" y="927.57866" width="14.88865" height="14.88865"/><rect class="cls-6" x="2160.31225" y="927.57866" width="14.8891" height="14.88865"/><rect class="cls-6" x="2196.96182" y="927.57866" width="14.88865" height="14.88865"/><rect class="cls-6" x="2233.61139" y="927.57866" width="14.88868" height="14.88865"/><rect class="cls-6" x="2270.93629" y="926.90288" width="14.88865" height="14.88865"/><rect class="cls-6" x="2306.90962" y="927.57866" width="14.88865" height="14.88865"/><path class="cls-7" d="M1360.56005,1162.35878s-.04605-2.191-.0692-6.37438c-.01591-4.20194-.03993-10.39259-.07118-18.46719-.037-16.17582-.09172-39.87705-.16117-70.09937-.07812-60.39573-.18981-146.82948-.32436-251.10427l.62557.62529c-124.22575.03646-273.86771.08044-434.8846.1276h-.03732l.75317-.75289c-.02835,124.92859-.055,242.99524-.07841,346.04492l-.67476-.67448c129.14643.1386,237.791.2555,314.17966.33767,38.22486.07668,68.37315.13745,88.99512.17911,10.30024.035,18.21569.06192,23.586.08015q3.99347.0256,6.07813.03906c1.368.01274,2.08332.03878,2.08332.03878s-.66324.026-2.00582.03906q-2.059.01345-6.004.03906c-5.34.01823-13.21085.04514-23.453.08015-20.58639.04138-50.68283.10214-88.84231.17911-76.49516.08189-185.291.19878-314.61715.33738l-.67477.00087-.00029-.67592c-.02343-103.04968-.05034-221.11633-.0787-346.04492v-.75375h.79108c161.01689.04716,310.65885.09114,434.8846.1276h.62674l-.00087.62615c-.13455,104.438-.24624,191.00744-.32436,251.4975-.06945,30.16184-.12384,53.81562-.16117,69.959-.031,8.0228-.055,14.17352-.07118,18.34855C1360.60572,1160.25925,1360.56005,1162.35878,1360.56005,1162.35878Z"/><rect class="cls-7" x="981.85881" y="880.44655" width="15.72643" height="175.63485"/><rect class="cls-7" x="1012.21969" y="940.09894" width="15.72704" height="115.98246"/><rect class="cls-7" x="1042.58205" y="902.27771" width="15.72646" height="154.69662"/><rect class="cls-7" x="1072.94328" y="887.22891" width="15.72671" height="168.85249"/><rect class="cls-7" x="1103.30478" y="943.66923" width="15.727" height="112.41217"/><rect class="cls-7" x="1133.66627" y="965.71509" width="15.72671" height="90.36631"/><rect class="cls-7" x="1164.02776" y="898.47363" width="15.72729" height="157.60777"/><rect class="cls-7" x="1194.38979" y="926.88867" width="15.72675" height="129.19274"/><rect class="cls-7" x="1224.751" y="904.18222" width="15.72704" height="151.89919"/><rect class="cls-7" x="1255.11278" y="952.59538" width="15.72675" height="103.48602"/><rect class="cls-7" x="1285.47427" y="932.90338" width="15.72675" height="123.17802"/><path class="cls-7" d="M1307.62058,1068.31425c0,.35735-74.59707.64641-166.59647.64641-92.03032,0-166.61205-.28906-166.61205-.64641,0-.35677,74.58173-.64583,166.61205-.64583C1233.02351,1067.66842,1307.62058,1067.95748,1307.62058,1068.31425Z"/><path class="cls-7" d="M1004.29092,1082.1391c0,.35648-5.22537.64583-11.67006.64583-6.44672,0-11.67122-.28935-11.67122-.64583,0-.35706,5.2245-.64641,11.67122-.64641C999.06555,1081.49269,1004.29092,1081.782,1004.29092,1082.1391Z"/><path class="cls-7" d="M1043.00424,1082.84309c0,.35648-6.24536.64583-13.94786.64583-7.7042,0-13.94837-.28935-13.94837-.64583,0-.35706,6.24417-.64641,13.94837-.64641C1036.75888,1082.19668,1043.00424,1082.486,1043.00424,1082.84309Z"/><path class="cls-7" d="M1076.024,1082.84309c0,.35648-6.24533.64583-13.94725.64583-7.7051,0-13.949-.28935-13.949-.64583,0-.35706,6.24388-.64641,13.949-.64641C1069.77863,1082.19668,1076.024,1082.486,1076.024,1082.84309Z"/><path class="cls-7" d="M1109.04313,1082.84309c0,.35648-6.245.64583-13.94667.64583-7.7051,0-13.949-.28935-13.949-.64583,0-.35706,6.24388-.64641,13.949-.64641C1102.79809,1082.19668,1109.04313,1082.486,1109.04313,1082.84309Z"/><path class="cls-7" d="M1142.0632,1082.84309c0,.35648-6.24536.64583-13.94728.64583-7.70477,0-13.94869-.28935-13.94869-.64583,0-.35706,6.24392-.64641,13.94869-.64641C1135.81784,1082.19668,1142.0632,1082.486,1142.0632,1082.84309Z"/><path class="cls-7" d="M1175.08292,1082.84309c0,.35648-6.245.64583-13.94725.64583-7.7051,0-13.94869-.28935-13.94869-.64583,0-.35706,6.24359-.64641,13.94869-.64641C1168.83788,1082.19668,1175.08292,1082.486,1175.08292,1082.84309Z"/><path class="cls-7" d="M1208.10238,1082.84309c0,.35648-6.24533.64583-13.947.64583-7.70452,0-13.94869-.28935-13.94869-.64583,0-.35706,6.24417-.64641,13.94869-.64641C1201.85705,1082.19668,1208.10238,1082.486,1208.10238,1082.84309Z"/><path class="cls-7" d="M1241.12242,1082.84309c0,.35648-6.245.64583-13.94725.64583-7.70481,0-13.949-.28935-13.949-.64583,0-.35706,6.24417-.64641,13.949-.64641C1234.87738,1082.19668,1241.12242,1082.486,1241.12242,1082.84309Z"/><path class="cls-7" d="M1274.14246,1082.84309c0,.35648-6.24533.64583-13.94783.64583-7.70423,0-13.9484-.28935-13.9484-.64583,0-.35706,6.24417-.64641,13.9484-.64641C1267.89713,1082.19668,1274.14246,1082.486,1274.14246,1082.84309Z"/><path class="cls-7" d="M1307.1622,1082.84309c0,.35648-6.24532.64583-13.94753.64583-7.70481,0-13.9487-.28935-13.9487-.64583,0-.35706,6.24389-.64641,13.9487-.64641C1300.91688,1082.19668,1307.1622,1082.486,1307.1622,1082.84309Z"/><rect class="cls-7" x="911.7088" y="814.26411" width="461.19343" height="13.00628"/><polygon class="cls-8" points="149.178 1752.826 149.178 1899.816 364.129 1899.816 601.212 1899.816 601.212 1752.826 149.178 1752.826"/><polygon class="cls-9" points="373.614 1899.816 601.212 1899.816 601.212 1752.826 617.018 1752.826 617.018 1711.732 364.129 1711.732 364.129 1749.024 373.614 1899.816"/><rect class="cls-10" x="212.39877" y="1776.53048" width="91.67069" height="22.12586"/><rect class="cls-7" x="200.60082" y="1826.31791" width="117.71097" height="46.72283"/><path class="cls-11" d="M948.04683,1192.46758s46.237,379.33183,45.32181,391.64738c-.91172,12.31554-13.19968,71.63556-13.19968,71.63556s22.32458-37.42406,27.79839-68.44422,20.07607-240.86256,20.07607-240.86256l-24.63109-13.22726,22.80766-1.36793-37.64828-117.84432s-4.31313-8.75145-10.24668-12.17055c-5.93-3.42617-27.53952-14.26346-27.88115-14.42967-.34159-.17259-5.761-.75965-8.45085,1.02275C941.993,1188.42676,946.46884,1191.47948,948.04683,1192.46758Z"/><path class="cls-12" d="M2302.1021,759.01329l26.21113,14.3748s27.06739-13.14178,56.08734-3.34293c0,0,62.32107-16.06641,92.93227-.5623,30.61043,15.50472,16.31749-30.599,10.67272-33.12575-5.64882-2.52035-65.5808-12.39924-92.417-9.9765-26.83217,2.41634-67.06505,4.62517-67.06505,4.62517Z"/><path class="cls-13" d="M2089.17718,1429.68513c-.13132,68.05794-46.64946,360.88574-46.79469,440.57023-.02652,13.223.43968,31.87535,1.23346,53.80359l-739.73333-62.04663c-2.14959-88.311-45.1516-367.67226-45.02343-433.916.1308-68.05175,1.605-295.992,9.99578-313.55554,8.38611-17.55774,15.28852-45.61813,25.74153-49.114,10.44824-3.48862,257.717-71.148,257.717-71.148l122.48961,24.00734L1800.29868,994.747s230.15393,70.739,240.59178,74.27378c10.4378,3.53551,23.16674,50.20435,31.48506,67.79577"/><path class="cls-14" d="M1800.29868,994.747s6.60171-.8368,30.83474,4.29854c-1.57221,5.1846-10.40872,10.6254-15.294,14.80439-104.2194,89.02132-172.18747,94.57915-278.03495,3.12979-4.99211-4.31519-12.91105-14.35912-14.56791-19.61782,24.17734-4.52952,29.27746-5.4735,29.27746-5.4735l122.625,22.39275Z"/><path class="cls-15" d="M1806.61026,998.02314s-37.08586,121.33093-41.18033,146.31454c-4.088,24.98414-56.724,275.51815-57.03424,318.58614-.14471,19.59564,19.41779,220.45461,40.94649,436.26109l314.88543,26.41165c-3.37565-52.43979-6.263-97.65768-7.70933-123.17395-5.1899-91.7396,2.03573-280.903,14.59217-397.05012,12.55714-116.14708.171-293.06-1.65426-309.91063-1.83232-16.84431-30.955-40.1472-40.199-44.79408Z"/><path class="cls-16" d="M1751.85493,1202.15125c-17.132,82.5713-48.46422,233.4822-48.52178,266.047,0,0,178.84416-164.67735,177.8329-182.47508-1.01074-17.80393-56.674-154.65118-56.674-154.65118S1793.08353,1161.60883,1751.85493,1202.15125Z"/><path class="cls-17" d="M1799.2617,994.52468s7.79593-5.87763,10.40863-5.87542c2.61139.00973,45.80961,18.78021,45.80961,18.78021s56.30463,107.41141,56.2815,120.51967c-.0306,13.11457-171.37056,130.84661-171.37056,130.84661l24.2765-118.75769s33.07651-115.31242,42.71592-143.6477Z"/><path class="cls-18" d="M1443.84226,771.79984c-1.24088.31293-2.45318.66523-3.65116,1.06556l-.03356.01393-.00017-.00691a51.06324,51.06324,0,1,0,43.50747,5.31534c3.0191,14.82385,2.77374,33.62559-16.12051,37.68711l-2.81884-29.3005C1463.58521,774.71424,1451.92136,770.54066,1443.84226,771.79984Z"/><path class="cls-18" d="M1809.85178,729.57059c1.27526.02684,2.539.09057,3.78936.2023l.04093.00938-.00017-.0069a51.06434,51.06434,0,1,1-41.15787,15.081c.43625,15.12258,4.96118,33.375,24.28139,33.02766l-3.92942-29.17239C1791.285,736.89889,1801.6964,730.18013,1809.85178,729.57059Z"/><path class="cls-19" d="M1781.34243,977.51957l.01058.05677c-77.47911,77.44516-164.1062,53.44705-219.46361,9.32666,48.28956,17.28206,210.34485-58.1428,210.34485-58.1428l1.50931,8.07925c.07987-42.47025.231-122.17115.231-122.17115l3.05369-61.74143s-49.36359,7.85242-100.29187,18.94472c-50.89794-11.288-100.22117-19.32963-100.22117-19.32963l2.80737,61.752s-.23462,126.49341-.275,145.69863c-.02032,9.28491-9.6907,22.65969-26.73424,34.28608,88.28892,86.22269,159.36563,86.35712,247.98463.47508A86.69556,86.69556,0,0,1,1781.34243,977.51957Z"/><path class="cls-20" d="M1561.8894,986.903c55.35741,44.12039,141.9845,68.1185,219.46361-9.32666l-.01058-.05677c-4.95626-6.2894-7.65314-12.2924-7.64285-17.15264.00724-3.95766.02338-12.50921.044-23.52748l-1.50931-8.07925S1610.179,1004.18506,1561.8894,986.903Z"/><path class="cls-21" d="M1598.00437,502.82385l-.02042.00323c-94.44116,10.89807-162.822,97.10437-151.9206,191.56869l18.01844,156.22471c10.90129,94.46158,97.12093,162.82839,191.56217,151.93374l.01966-.00662c94.44812-10.89482,162.82886-97.10113,151.92748-191.56886l-18.01773-156.22131C1778.67141,560.29655,1692.45236,491.92562,1598.00437,502.82385Z"/><path class="cls-22" d="M2313.65111,1662.97205c8.10014,32.57971,17.59138,69.71152,27.47811,107.83983-25.10366-.34477-45.231.156-52.5482,2.213-25.86852,7.28148-29.5891,18.17322-29.5891,18.17322-1.07387-3.93571-5.62936-15.49823-11.962-30.68112-11.3973-27.30756-28.58182-66.3209-41.73748-93.75172-12.6077-26.29927-21.57927-42.9364-27.23778-55.93182,8.809,9.44324,22.92563,23.7851,30.19544,26.8076C2217.03764,1641.30027,2285.94182,1656.804,2313.65111,1662.97205Z"/><path class="cls-23" d="M209.28426,1294.29268l-31.60253,12.75238s5.64339,47.19194,14.22153,62.78291l77.26218-20.03352L193.9265,1378.864l7.40989,26.21963,24.22466-6.5549-23.36967,8.83487s11.96983,44.74437,26.21963,66.68906l32.22577-8.26488,66.95282-38.75945-10.80095-73.814L296.24,1312.175l-65.54906-42.1794Z"/><path class="cls-23" d="M263.46552,1458.66292,231.546,1480.32261s6.17623,65.44689,71.249,123.68826,86.63878-84.35881,86.63878-84.35881Z"/><path class="cls-18" d="M1455.74976,612.93837c19.73005,15.29737,38.54586,21.82816,62.43361,29.08486,61.71122,18.74686,131.54858,19.59465,187.96-11.66994,20.49829-11.36066,39.1836-27.22032,49.91541-48.05474,1.60957-3.12478,3.38445-3.02793,3.06649-6.52849s-12.519-19.99964-16.03328-20.06784c-40.328,18.07347-75.64948,34.853-119.83087,35.85324s-88.25975-4.11337-132.0667-9.93979c-4.848-.6448-9.763-1.299-14.6121-.66191-10.97035,1.44125-5.60438,9.64735-13.85368,17.02129"/><path class="cls-24" d="M1319.11346,503.60715q-9.50757,13.61134-19.28844,26.0827S1312.27356,513.09189,1319.11346,503.60715Z"/><polygon class="cls-10" points="130.211 1711.732 130.211 1752.826 617.018 1752.826 617.018 1711.732 364.129 1711.732 130.211 1711.732"/><polygon class="cls-8" points="207.697 1565.041 207.697 1712.031 422.648 1712.031 659.731 1712.031 659.731 1565.041 207.697 1565.041"/><polygon class="cls-9" points="432.133 1712.031 659.731 1712.031 659.731 1565.041 675.537 1565.041 675.537 1523.946 422.648 1523.946 422.648 1561.239 432.133 1712.031"/><rect class="cls-10" x="270.91794" y="1588.74503" width="91.67069" height="22.12586"/><rect class="cls-7" x="259.12" y="1638.53246" width="117.71097" height="46.72283"/><polygon class="cls-10" points="188.73 1523.946 188.73 1565.041 675.537 1565.041 675.537 1523.946 422.648 1523.946 188.73 1523.946"/><path class="cls-23" d="M1145.24309,1134.4285c-2.18868,14.86544-4.51429,29.59422-6.74862,44.27708q-33.65262,218.39807-53.48823,438.52894c-.68383,7.66066-1.50458,15.73183-5.74529,22.1615-4.28635,6.42938-11.44548,10.30522-18.28539,13.81646a1244.6236,1244.6236,0,0,1-209.57474,84.99726c-44.45937,13.49751-90.19538,24.53248-136.66114,24.85171-42.17941.27358-83.85729-8.25347-124.89671-17.8295-66.30164-15.45825-132.55736-33.92594-192.65728-65.89113-60.14556-31.96492-114.181-78.5676-144.96053-139.306-11.39984-22.48045-17.19077-53.7159-2.7815-71.86463a25.14052,25.14052,0,0,1-25.07965-4.14942c-9.84933-8.61835-12.72212-22.84532-12.1293-35.88667,1.45921-32.6493,22.38916-63.65681,52.12-77.19968q-36.04642,10.05445-72.00128,20.10919c-5.28969-14.18133-10.62473-28.90983-9.30245-43.95785,1.00333-11.62778,7.20477-23.43785,16.82617-29.2747a63.83248,63.83248,0,0,1-23.84837,2.37125,276.4675,276.4675,0,0,1-7.70631-66.4383c148.38021-6.6576,291.33436-89.69385,370.67708-215.3203,41.26736-65.435,65.43524-139.94416,98.67707-209.80241S716.4722,670.455,785.05381,634.65966l.04564.13693c-40.85712,32.01056-54.58257,87.91542-69.676,138.166-29.32035,97.765-67.44135,138.02906-126.49257,221.29353,21.02124-18.0118,111.3992-34.56411,151.48093-116.14143,13.908-28.3173,26.76708-58.86892,51.84673-77.92942,10.85239-8.25347,23.34685-13.86211,35.79538-19.37973,38.16664-17.00847,68.44468-16.37,106.61132-33.37876l20.51971,9.75833c13.36058,99.90835,50.20494,161.14825,112.49354,240.35431,21.06688,26.85809,44.82424,52.07439,60.28249,82.48908A178.74958,178.74958,0,0,1,1145.24309,1134.4285Z"/><path class="cls-25" d="M739.5483,1121.56407c65.21821,20.45943,154.38072,44.91794,231.25457,82.71475,5.31184,2.61773-5.512,23.07715-.58353,25.81229,7.51155,4.15823,20.00675,13.849,33.73124,27.4214,35.91115,35.5101,108.97617,313.40277,102.452,341.08729-10.49566,44.5374-102.80425,166.8929-102.80425,166.8929-18.33469,35.40614-41.06314,86.97625-63.38064,142.70388H481.72463c31.9361-103.80933,43.823-174.13214,44.66967-237.51278h.00353c24.479-215.46477-91.36576-262.33768-91.36576-262.33768l119.9825-282.34726c46.67912-16.52895,139.76786-10.31247,139.76786-10.31247C719.38594,1115.66588,717.51088,1114.65019,739.5483,1121.56407Z"/><path class="cls-26" d="M852.77182,861.28535l-22.95267,68.962S795.09981,1092.982,787.067,1114.09072c-2.791,7.322-11.97038,9.55989-26.08884,9.2211,20.31442,29.09346,59.76491,73.47243,116.79822,84.28213,36.41828,6.90044,61.88187.104,79.17046-10.09108-12.17409-6.43079-23.82265-14.07037-23.771-20.342.49723-55.54091,10.03591-153.28583,40.138-171.36165C1007.78416,985.09789,852.77182,861.28535,852.77182,861.28535Z"/><path class="cls-14" d="M772.406,1122.84217c-8.17429,1.08429-19.32633.3105-32.85772-1.2781,14.02863,20.2246,36.67432,42.94244,72.9957,65.95735,89.92923,56.97814,133.23027,25.9297,146.92435,11.28642-8.41336-4.30959-16.947-9.28334-21.92-14.06966h0c-83.92353,41.008-165.13526-61.896-165.13526-61.896Z"/><path class="cls-27" d="M967.15955,1202.51764s35.86235,360.90307,31.50749,391.385c-4.35836,30.489-61.36766,180.66621-111.3449,314.294h85.92941c16.97808-32.70636,29.94646-58.24209,32.30532-64.39633,1.52989-3.97857,7.46982-15.521,15.6342-30.641,14.68855-27.19364,36.6227-65.95027,53.15164-93.08875,52.68128-86.49245,52.54336-66.29543,34.30844-167.61152-16.04943-89.16534-65.29814-254.15914-72.60249-277.09766C1024.949,1240.4934,976.46344,1199.9756,967.15955,1202.51764Z"/><path class="cls-26" d="M712.94171,862.94327q-1.93729.09336-3.84419.32465l-.03748.00707h.00283a51.8907,51.8907,0,1,0,42.27262,14.035c.024,15.369-3.992,34.05306-23.63309,34.30133l3.0803-29.75621C732.02967,869.80905,721.244,863.30258,712.94171,862.94327Z"/><path class="cls-28" d="M936.36715,621.73483h0c-97.2201-10.067-184.9864,61.22973-195.05767,158.44559L724.67019,940.81583c-10.067,97.21232,61.229,184.98286,158.44843,195.05343h0c97.213,10.0642,184.9871-61.2262,195.05767-158.44559L1094.812,816.789C1104.87978,719.57311,1033.57947,631.80257,936.36715,621.73483Z"/><path class="cls-26" d="M740.54879,791.77232l-15.8786,149.04351c-8.42679,81.38784,40.17972,156.13766,113.26879,184.23666-103.4224-42.84554-50.40235-222.6071-50.40235-222.6071,20.94254-3.57046,53.97635-42.60364,73.17536-65.32148,19.1983-22.71077,34.0665-45.63655,67.20078-44.966,33.13711.66981,103.16285,18.06945,103.16285,18.06945,14.64328,34.61183,41.56815,59.796,56.94352,72.13209l6.78936-65.56338a176.28254,176.28254,0,0,0-3.36676-57.04746c-4.28625-2.51375-17.16566-22.92772-21.81759-25.54545C927.30717,654.186,817.15033,720.21031,740.54879,791.77232Z"/><path class="cls-23" d="M1188.01531,1038.62449a637.12094,637.12094,0,0,1-49.20161,177.97414,177.487,177.487,0,0,0,8.39013-47.51445,10.26672,10.26672,0,0,0,0-1.18563,182.8228,182.8228,0,0,0-1.96074-33.47,178.74958,178.74958,0,0,0-17.28206-54.4c-15.45825-30.41469-39.21561-55.631-60.28249-82.48908-62.2886-79.20606-99.133-140.446-112.49354-240.35431l-20.51971-9.75833c-38.16664,17.00875-68.44468,16.37029-106.61132,33.37876-12.44853,5.51762-24.943,11.12626-35.79538,19.37973-25.07965,19.0605-37.9387,49.61212-51.84673,77.92942C700.33013,959.692,609.95217,976.24432,588.93093,994.25612c59.05122-83.26447,97.17222-123.5285,126.49257-221.29353,15.09338-50.25058,28.81883-106.15544,69.676-138.166,1.55023-1.18563,3.10073-2.37126,4.74224-3.51124,18.69562-13.17828,41.08506-20.10947,63.38321-25.17093,57.683-13.087,118.87756-15.04774,175.46624,2.09767s108.20719,54.76487,135.43015,107.29514c13.087,25.21658,20.29177,53.07772,25.53553,81.03015A640.47664,640.47664,0,0,1,1188.01531,1038.62449Z"/><path class="cls-23" d="M1185.51531,1038.62449a638.69845,638.69845,0,0,1-48.86029,176.71234l4.56938,1.9264a185.12012,185.12012,0,0,0-2.32266-118.16992c-13.3991-37.02156-39.652-66.22762-63.95416-96.40782-42.60046-52.9044-81.99108-109.56972-102.14238-175.11137a418.9266,418.9266,0,0,1-12.02625-50.446q-1.148-6.51647-2.11809-13.06239c-.40428-2.72109-.01523-7.194-2.26336-9.06271-2.73644-2.27462-7.45182-3.54378-10.65015-5.06477-3.13355-1.49019-6.46315-3.66358-9.79561-4.6584-3.23031-.96432-7.04784,1.94893-10.01334,3.12089q-7.2507,2.86544-14.69561,5.20045c-18.43486,5.81433-37.50386,9.23374-56.04207,14.67137a240.0028,240.0028,0,0,0-53.88651,22.88124c-15.11425,8.91232-27.08293,21.36817-36.726,35.93351-9.80024,14.80266-17.19167,31.008-24.94718,46.927a173.24142,173.24142,0,0,1-26.44139,40.01453c-18.37145,20.53476-41.35469,36.05151-65.775,48.50613-17.35441,8.85094-36.09013,15.28981-52.99271,24.97671a49.17852,49.17852,0,0,0-7.26875,4.97675l3.92645,3.02957c38.07774-53.641,80.25876-104.98849,106.52126-165.86237,14.03156-32.52376,22.65488-66.6431,33.6275-100.21667,10.65155-32.59115,24.58955-66.04641,51.03335-89.07664,15.16116-13.204,33.674-21.3889,52.81326-27.0099A380.35817,380.35817,0,0,1,897.01875,601.01c41.6035-4.9668,84.28976-3.40545,124.80008,7.81481,34.12727,9.45233,66.47232,26.05273,93.29082,49.27947a202.98787,202.98787,0,0,1,60.41448,91.49877c13.14094,40.31948,18.80607,83.67555,21.27854,125.8758a640.5825,640.5825,0,0,1-5.65451,130.359q-2.36777,16.12943-5.54355,32.122c-.61975,3.14292,4.19845,4.48828,4.82139,1.32919,17.02506-86.33813,17.31234-177.05066-2.41279-262.99474-8.69145-37.86937-23.74092-73.30462-49.8152-102.50728-23.25626-26.04655-52.908-46.03884-85.05253-59.4415-37.838-15.77654-79.2625-21.86567-120.1-20.92425a397.76672,397.76672,0,0,0-63.265,6.73278c-19.78091,3.66662-39.67766,8.29363-58.2048,16.2902C739.69025,647.471,728.47106,729.22383,705.67172,795.08217A449.56151,449.56151,0,0,1,661.8839,886.644c-17.90567,28.61651-38.37865,55.53605-58.204,82.82459q-8.51425,11.71946-16.9077,23.52573c-1.74857,2.46326,1.89971,4.7348,3.92645,3.02957,4.93306-4.15053,11.13682-6.89726,16.93059-9.60066,8.56263-3.99537,17.26595-7.68271,25.85163-11.62819,22.01431-10.11652,43.33935-21.82062,62.17826-37.17512a182.14494,182.14494,0,0,0,29.26174-29.92826c9.488-12.31,16.446-25.792,23.18834-39.72872,7.3462-15.185,14.826-30.46793,24.81042-44.13335,11.03569-15.10421,25.12722-25.99145,41.86263-34.19334a297.46788,297.46788,0,0,1,61.53549-21.73906c20.31568-4.92128,40.40557-9.86574,59.60929-18.31173h-2.5236l9.82027,4.67011,6.6314,3.15362c.82631.393,3.53592,1.11405,4.01875,1.91115-.97785-1.61433-.63117,4.13967-.63771,1.90136a25.656,25.656,0,0,0,.47991,3.34286q.48485,3.30346,1.0139,6.60029,1.0979,6.84812,2.3951,13.66232,2.41941,12.69742,5.58366,25.23815a389.90821,389.90821,0,0,0,35.11927,89.643c16.27982,30.07606,36.08876,58.07672,56.87538,85.17507,23.64345,30.82265,51.67175,59.47894,69.88134,94.05855,22.02105,41.8175,26.08949,92.03178,11.81824,136.99206-.83984,2.64584,3.4138,4.54971,4.56938,1.9264a646.94348,646.94348,0,0,0,49.54293-179.23594C1190.92024,1035.4411,1185.91649,1035.47062,1185.51531,1038.62449Z"/><polyline class="cls-29" points="1826.076 1752.826 1790.597 1899.816 1557.532 1887.02 1478.197 1763.774 1652.137 1726.218 1826.076 1752.826"/><path class="cls-15" d="M1534.66122,999.04557s35.33342,121.05738,39.06594,146.01342c3.7266,24.94931,52.73138,275.09432,52.42694,318.16972-.139,19.14909-21.61615,211.63247-45.6113,421.989l-309.22376,1.80182c1.70741-22.01647.83462-68.44148,1.77408-81.642,6.52194-91.77953,2.03194-280.89705-8.84873-396.95853-10.87675-116.06184,4.07194-293.07862,6.14759-309.9403,2.07243-16.86195,31.53636-40.38784,40.85047-45.102Z"/><path class="cls-16" d="M1585.14,1197.54361c16.81206,82.63644,47.56262,233.6654,47.50506,266.22954,0,0-178.215-165.36063-177.1346-183.15827,1.07292-17.799,57.2647-154.428,57.2647-154.428S1544.05954,1156.8382,1585.14,1197.54361Z"/><path class="cls-29" d="M1609.40755,1317.8749l-71.04278-306.97665s103.5627,270.11736,97.07241,312.10658"/><path class="cls-17" d="M1540.20667,996.9997s-7.76719-5.91747-10.373-5.91911c-2.619-.01036-45.88582,18.60132-45.88582,18.60132s-56.72082,107.19064-56.73834,120.30631c-.03054,13.11388,170.86167,131.497,170.86167,131.497L1574.25275,1142.633s-30.0589-115.21384-39.59153-143.58739Z"/><path class="cls-29" d="M985.97841,1638.53246l-76.239,248.48711H617.01754l181.36633-276.14868s87.11636,65.88059,191.33815,17.16046"/><path class="cls-27" d="M726.04448,1113.88348s65.79894,318.76978,74.81984,411.42991c9.02023,92.65446-19.96572,158.97748-52.56457,228.6029-10.98933,23.46333-46.22645,83.35627-89.62509,154.28029H456.075l21.671-500.73459-58.09992-13.46208c3.45022-25.15591,6.27518-45.98809,8.20543-60.58327l114.39126-202.24457S585.35784,1096.19385,726.04448,1113.88348Z"/><path class="cls-27" d="M442.66457,1272.62614c-37.09517,101.35641-47.18342,448.95724-16.62231,635.57044H588.7911c-66.56564-370.429,73.24395-635.39078,42.5244-729.2604C582.14246,1028.66205,467.05025,1206.01242,442.66457,1272.62614Z"/><path class="cls-30" d="M726.04448,1113.88348s65.79894,318.76978,74.81984,411.42991a328.92125,328.92125,0,0,1-5.70227,102.718c12.11892-94.7884-121.267-317.81634-121.267-317.81634l34.667-16.42568-46.52705-20.98353s21.44045-119.9726,22.80769-140.03806c1.32973-19.51305-9.01035-23.13939-9.59033-23.33248C690.5655,1110.13266,707.44314,1111.54867,726.04448,1113.88348Z"/><path class="cls-31" d="M2284.01578,1119.63765c.90481-43.57655-.76342-81.42034-1.92929-101.23369-1.50346,13.43462-1.49929,31.39688-1.75506,34.597A252.22318,252.22318,0,0,0,2284.01578,1119.63765Z"/><path class="cls-32" d="M2206.84171,1622.29626l-8.94342-12.44186C2200.7129,1614.1299,2203.6522,1618.31466,2206.84171,1622.29626Z"/><path class="cls-32" d="M2172.73348,1464.06643a188.92928,188.92928,0,0,0-1.70023,78.09029C2170.27789,1519.77841,2170.07305,1489.65122,2172.73348,1464.06643Z"/><path class="cls-33" d="M2282.08649,1018.404c.62622-5.59694,1.51349-10.39817,2.79374-13.02019l-3.78315-1.69912S2281.53571,1009.04391,2282.08649,1018.404Z"/><path class="cls-33" d="M2285.40931,1004.425a9.00764,9.00764,0,0,0-.54717.95741l-3.78454-1.68716A16.26108,16.26108,0,0,1,2285.40931,1004.425Z"/><path class="cls-34" d="M2285.40931,1004.425a9.00764,9.00764,0,0,0-.54717.95741l-3.78454-1.68716A16.26108,16.26108,0,0,1,2285.40931,1004.425Z"/><path class="cls-31" d="M2284.88023,1005.38377l24.201,10.8702c-7.78145-7.52957-15.18773-12.8905-21.94581-13.01463C2286.271,1003.26606,2285.52788,1004.05759,2284.88023,1005.38377Z"/><path class="cls-32" d="M2810.66832,1574.82717h24.66941c2.87918-2.199,5.68043-4.4923,8.44245-6.83239l-33.26354,6.65232C2810.5659,1574.705,2810.61906,1574.76956,2810.66832,1574.82717Z"/><path class="cls-33" d="M2843.78018,1567.99478l19.41869-3.88335,30.63679-56.452a283.0322,283.0322,0,0,1-35.15108,46.28318A180.9292,180.9292,0,0,1,2843.78018,1567.99478Z"/><path class="cls-33" d="M2770.22171,1409.07362c53.05267-47.23864,21.57064-142.36217,6.58525-179.08268-1.435-1.84914-2.85247-3.6376-4.31864-5.59472l-384.86091-172.86286c-1.62119,2.54937-3.19925,5.1661-4.681,7.92979-23.02874,22.754-50.18908-20.29957-73.86517-43.20918l-24.201-10.8702c-1.28025,2.622-2.16752,7.42325-2.79374,13.02019,1.16587,19.81335,2.8341,57.65714,1.92929,101.23369,1.13164,6.163,2.43026,12.34612,3.95683,18.59154,6.971,28.51936,16.01711,56.6385,19.90574,85.7387,2.62647,19.65749,2.86777,39.563,2.27134,59.386-.16615,5.51985-.33231,11.33583,2.2616,16.21082,2.54771,4.78815,7.52846,6.5549,12.54456,6.76837-2.369,13.07252-20.96474,25.1907-30.33009,33.36207-9.261,8.08036-26.747,19.62409-28.77847,32.89894l-59.00558,249.70213,255.67535,21.9458,347.99958-69.595C2779.87066,1538.66385,2718.86844,1454.7818,2770.22171,1409.07362Z"/><path class="cls-35" d="M2900.61814,1360.51632a.34322.34322,0,0,0-.04457-.13343,2.05987,2.05987,0,0,1-.13343-.40084c-1.82567-5.16476-16.42967-47.19621-27.60544-69.01348-.40085-.75685-.80142-1.4694-1.15769-2.18167-.80142-1.4694-1.60283-2.89423-2.44881-4.36362-3.78478-6.58959-7.79185-13.13461-11.97719-19.54619-17.09765-26.22519-52.53924-50.803-63.09187-80.23382-8.14785-22.66326-7.16844-46.7065-1.95911-71.15058,8.37069-39.22636,27.73915-79.43241,38.33608-116.61053,22.75212-79.78868,18.12164-160.46764,1.692-241.81431-16.42967-81.30237-66.075-159.04281-141.58916-193.41585-34.195-15.58368-71.81829-23.37553-109.39725-24.35522-216.39081-5.65446-190.61077,9.75095-221.64471,74.04481l-6.189-.62342c-74.75709,63.58158-126.89575,151.96325-152.7201,246.66764a592.934,592.934,0,0,0-20.1696,137.49268c-.57885,18.96762-.35628,37.97953.66771,56.90258a715.45268,715.45268,0,0,0,12.11089,97.42034c12.95661,66.4758,34.86274,134.33159,20.57045,200.54-4.63076,21.37186-12.86774,41.67517-21.14929,61.97848-7.65841,18.83391-15.31655,37.6681-20.03617,57.39256-2.58252,24.97837-2.40452,54.40921-1.6474,76.27105a179.57842,179.57842,0,0,0,26.22491,66.07469l8.727,12.15546a146.03854,146.03854,0,0,0,37.93523,33.66075l63.715,20.92645s147.42162-23.82067,151.91868-24.26581c4.54161-.44541,218.83934-76.67189,218.83934-76.67189H2795.584c-.04457-.04456-.08886-.13343-.13343-.178l32.4585-6.50072a168.99464,168.99464,0,0,0,14.5597-13.71372,277.19048,277.19048,0,0,0,34.32847-45.19253l12.64517-23.331a.138.138,0,0,0,.04457-.08914c.04457-.08913.13343-.3117.3117-.71227.08887-.17828.178-.40085.26714-.62342,2.98309-7.3467,16.964-43.72341,17.36452-82.54919A243.21542,243.21542,0,0,0,2900.61814,1360.51632Zm-138.02695-119.86075-.08914-.08913"/><path class="cls-32" d="M2826.03528,839.9937c-.091,18.23974-1.86945,36.38819-3.96712,54.53665-2.87278,24.89735-6.475,49.977-15.04773,73.55179-8.755,24.12195-22.57174,46.00987-36.79872,67.487,15.68619-86.77543-54.81024-104.37672-60.82938-105.69928a.89056.89056,0,0,0-.31923-.04564.15967.15967,0,0,0-.09129-.04537c-20.33741-14.63749-43.72963-25.30786-67.3047-34.24516-32.55773-12.31188-66.30136-21.751-97.81067-36.57077C2461.514,820.2491,2396.079,739.49254,2391.01758,648.65869c-7.25042,67.94316-49.06495,126.53822-89.87643,181.34874-17.82923,23.985-36.16026,48.79109-43.18246,77.83785-6.11044,25.53581-2.96407,52.257.22794,78.2943l-11.81036-5.28968c-13.087-78.20273-.31922-160.09928,33.698-231.736,34.01722-71.59076,88.8731-132.7853,154.99217-176.46929,19.7446-12.996,40.76583-24.6694,63.6568-30.55162,27.54191-7.06785,56.72561-5.51762,84.58675.04564a301.66743,301.66743,0,0,1,242.72529,297.855Z"/><path class="cls-36" d="M2431.525,1127.11759c.15962.562,5.575,28.58768,5.78424,30.63758a176.75693,176.75693,0,0,1,.40033,32.01216c-.67339,8.42454-.68316,22.26992-5.53733,29.42872a26.1514,26.1514,0,0,1-6.4394,6.22476c-15.22725,11.09689-33.00934,19.81653-49.20963,29.47l118.14136,97.94362,108.618-53.19925,61.55913-58.13918-58.51917-39.13945s-27.35962-10.63985-25.07965-92.71869C2583.52257,1027.56769,2418.60514,1081.62389,2431.525,1127.11759Z"/><path class="cls-37" d="M2757.39128,975.21322a33.448,33.448,0,1,1-56.41142-20.70257c-.0155,9.90829,2.57363,21.95382,15.23611,22.11387l-1.98585-19.18365c-.80391-7.766,6.14953-11.96071,11.502-12.19236q1.249.06019,2.47833.2093l.02417.00456h-.00183a33.45654,33.45654,0,0,1,29.15851,29.75085"/><polygon class="cls-25" points="2420.433 1260.858 2503.278 1293.935 2556.543 1282.535 2637.153 1241.496 2719.561 1330.795 2741.221 1840.175 2718.421 1908.197 2352.45 1891.873 2281.807 1789.828 2281.807 1588.45 2376.523 1296.215 2420.433 1260.858"/><path class="cls-14" d="M2420.74171,1259.81105s100.50447,57.08543,192.44193-9.57519v21.29754s-96.82668,58.05828-192.44193,7.27363Z"/><path class="cls-31" d="M2382.95392,1059.47845c103.29017-101.83847,290.24753-22.83669,290.24753-22.83669S2451.46512,931.62631,2382.95392,1059.47845Z"/><path class="cls-20" d="M2581.64581,1108.03736s-102.30647,28.15823-150.596,10.87631c1.6109,24.54626,68.996,63.7273,150.59617,14.81862Z"/><path class="cls-36" d="M2728.68076,922.30048c0,113.07068-120.44171,215.457-222.925,215.457s-212.1692-91.71276-208.77486-204.73259c3.9084-130.13177,99.27657-306.55055,196.92861-285.4605C2594.08306,669.199,2728.68076,809.2298,2728.68076,922.30048Z"/><path class="cls-27" d="M2524.25877,1895.48188l-363.29-7.615c-42.54428-221.93227,121.15752-584.1733,121.15752-584.1733,8.66371-6.56632,29.32036-15.45825,29.32036-15.45825l28.72754,79.57094,38.53151-10.03192,21.11252,71.45412-24.35018,18.331,119.19679,269.30979Z"/><path class="cls-37" d="M2378.85254,708.091c0,4.111-1.268,8.39456-1.30691,12.60111-.34234,37.0217,20.68817,72.71254,44.551,99.57983,19.59093,22.05758,43.04,40.35279,67.22857,57.24222,27.52416,19.21844,56.37173,36.85643,87.29729,50.075,15.663,6.69486,121.1333,46.20813,130.11832,48.2902,8.73976,2.02523,13.02915,3.18242,18.01338-7.50862l3.92661-8.45072-56.5432-98.03862L2416.93622,700.16881l-34.05058-38.16466Z"/><path class="cls-32" d="M2810.58881,859.74576c-.08887,17.80993-1.8254,35.53072-3.87364,53.25151-2.80509,24.31065-6.32245,48.79931-14.69314,71.81856-8.54869,23.55354-22.03984,44.92567-35.93156,65.89669-1.55826,2.40451-3.16109,4.80876-4.76419,7.213,5.61017-33.527-9.79525-68.07836-33.61619-92.34444a165.08993,165.08993,0,0,0-21.32729-18.12164.1559.1559,0,0,0-.08914-.04429c-19.85817-14.29257-42.69915-24.7115-65.71868-33.43819-31.79052-12.02176-64.739-21.23843-95.50581-35.709-80.41182-37.80153-144.30483-116.65509-149.247-205.34846-7.07957,66.34209-47.90876,123.55638-87.75853,177.07531-17.40909,23.41983-35.30815,47.64134-42.16488,76.00363-5.96644,24.93407-2.89422,51.02555.22257,76.44932l-11.532-5.165c-12.7786-76.35991-.3117-156.32659,32.90391-226.27519,33.21562-69.90375,86.77884-129.65626,151.33984-172.31085,19.27932-12.68974,39.8052-24.08808,62.15675-29.83169,26.8929-6.90129,55.38889-5.3876,82.5935.04457a294.55875,294.55875,0,0,1,237.00555,290.83619Z"/><path class="cls-38" d="M2827.7119,845.76236c.01012.08463-.44614.19939-1.35562.34285a25.47955,25.47955,0,0,1-4.0769.29981,39.3049,39.3049,0,0,1-15.312-3.49879,64.92872,64.92872,0,0,1-20.23531-14.42982c-6.8613-6.90146-13.26347-15.89015-20.68288-25.26616a119.63411,119.63411,0,0,0-28.33747-26.299,156.89114,156.89114,0,0,0-40.37451-18.61144c-30.24108-9.3258-65.28635-11.46324-101.96554-11.195-36.67346.07316-72.23946.15636-103.75009-7.13243-31.71289-6.59447-57.6045-22.48607-74.68531-39.80357a112.8589,112.8589,0,0,1-19.66294-26.33632c-4.33224-8.68887-7.14677-16.63036-8.34029-23.36112-2.52331-13.44718-1.02568-20.987-1.02568-20.987.64123-.01865-.13341,7.56995,2.9092,20.56668,1.44743,6.50841,4.46136,14.14,8.89258,22.45738a113.1608,113.1608,0,0,0,19.6945,25.17006c16.979,16.55,42.20352,31.63973,73.20919,37.834,30.88948,6.8986,66.008,6.715,102.76888,6.63464,36.728-.26825,72.469,2.004,103.30825,11.78887a158.762,158.762,0,0,1,41.32273,19.56683,121.35579,121.35579,0,0,1,28.79508,27.54418c7.3476,9.65431,13.44287,18.63009,19.92976,25.51721a65.35217,65.35217,0,0,0,19.03605,14.589C2819.85791,846.97022,2827.81088,845.147,2827.7119,845.76236Z"/><path class="cls-38" d="M2841.53233,777.91755c-.8696.06143,2.389-7.71655-2.78985-19.79083-5.111-12.04035-20.36627-24.8323-41.74923-34.45293-21.37649-9.73055-48.70446-17.65077-79.61108-21.41368-30.86782-3.44125-65.49855-.944-101.681.5528-36.22933,1.66971-71.21889,1.95419-102.56677-3.60127-31.25414-5.68316-58.26368-16.80864-78.1515-30.35382-20.01551-13.432-32.91738-28.65016-39.795-40.11669-3.36043-5.81732-5.785-10.40458-6.97948-13.73915-1.34321-3.25375-1.95743-4.98812-1.77963-5.06085.59806-.27478,3.236,6.66268,10.58408,17.6152,7.31238,10.9008,20.33062,25.30266,40.13277,37.996,19.67769,12.80326,46.233,23.3,76.87457,28.58874,30.72234,5.1643,65.29327,4.76182,101.43692,3.09049,36.17922-1.48059,70.85844-3.8809,102.549-.08081,31.44972,4.12174,59.02661,12.54465,80.67627,22.95245,21.6044,10.26557,37.23147,24.06614,42.06442,37.17813a31.54434,31.54434,0,0,1,2.10946,15.40078C2842.31789,776.20258,2841.66973,777.95635,2841.53233,777.91755Z"/><path class="cls-38" d="M2804.51681,994.83719c-.16346-.00795-.20546-2.05258-.2235-5.93421-.01416-3.88162-.03419-9.60416-.31461-16.95512-.74906-14.58275-2.01754-36.23649-11.36029-60.70209a119.596,119.596,0,0,0-21.78363-36.26339,98.60907,98.60907,0,0,0-39.88982-26.82326c-32.4594-12.34258-71.476-10.40055-111.633-12.11817-40.3191-1.832-78.93654-8.269-111.64932-21.48232-32.86877-12.84118-58.62579-33.09444-75.5686-53.55006-17.13079-20.52717-25.46182-41.03357-29.03284-55.36366a96.205,96.205,0,0,1-2.95476-16.80477c-.31519-3.88971-.4052-5.92791-.2508-5.93943.52548-.06692.85823,8.18055,4.88867,22.28279,4.0384,13.99716,12.66066,33.90061,29.77136,53.77779,16.97064,19.83034,42.28992,39.33978,74.67407,51.75753,32.21759,12.773,70.31369,19.02529,110.33441,20.844,39.80545,1.7445,79.35784-.20995,112.88174,12.7318a101.83089,101.83089,0,0,1,41.21683,28.22834,121.37689,121.37689,0,0,1,21.95869,37.59333c9.16693,25.19193,9.91484,47.10329,10.14227,61.79319.01182,7.40257-.24831,13.14039-.52743,17.02171C2804.92107,992.81378,2804.6634,994.84383,2804.51681,994.83719Z"/><path class="cls-24" d="M802.53264,2130.16717h35.30248C816.12756,2128.71853,803.81623,2128.64227,802.53264,2130.16717Z"/><path class="cls-29" d="M2420.74171,1270.39146s55.292,268.64033,78.447,356.41909-51.07816-143.0616-51.07816-143.0616S2416.03837,1349.44623,2420.74171,1270.39146Z"/><path class="cls-30" d="M2424.30506,1224.39622l-119.36928,63.8391,16.48589,88.141,42.842,23.04008-32.92347,22.46221s101.07217,188.67533,163.32434,294.99071C2494.66452,1716.86928,2400.36539,1290.51529,2424.30506,1224.39622Z"/><path class="cls-29" d="M1635.43718,1323.00483c-6.49029,41.98922-26.02963-5.12993-26.02963-5.12993"/><path class="cls-39" d="M600.2834,1801.36168c-6.01319-30.35791-10.82856-60.9563-14.71851-91.67163-1.9978-15.353-3.63171-30.7522-5.13574-46.166q-2.166-23.12988-3.50635-46.3374c-1.63635-30.93579-2.23175-62-.05-92.97657a347.69317,347.69317,0,0,1,6.07172-46.15478,187.01673,187.01673,0,0,1,6.17065-22.46094c.67487-1.822,1.27429-3.668,2.04218-5.45434l1.09875-2.6958c.36957-.89673.8006-1.7688,1.20423-2.6504a87.634,87.634,0,0,1,5.5971-10.17871c-7.47467,13.59082-11.33624,28.71753-13.9176,43.86133-1.31134,7.58667-2.29242,15.23-3.03577,22.89624-.7351,7.66724-1.33465,15.34986-1.67926,23.0503-.35546,7.699-.5689,15.405-.69732,23.114q-.13917,11.5653.05212,23.135c.13178,7.71265.31256,15.42554.59424,23.13647q.43616,11.56677,1.09918,23.126c.81769,15.41577,1.95294,30.81738,3.24457,46.208,1.25421,15.39477,2.79138,30.76733,4.36841,46.13891q2.44116,23.049,5.24,46.06983,1.35974,11.5155,2.85785,23.01709l1.54046,11.49609Z"/><path class="cls-30" d="M962.20066,1200.89151S999.543,1582.11564,998.667,1593.9026c-.87259,11.787-22.71157,73.94737-22.71157,73.94737s38.355-59.37749,43.59391-89.06625,19.2144-230.52473,19.2144-230.52473l-23.57392-12.65954,21.82876-1.30921L1000.9862,1221.5038s-4.128-8.37584-9.80689-11.64819c-5.67551-3.27912-26.35752-13.65127-26.68449-13.81035-.32693-.16517-5.51371-.727-8.08813.97886C956.40669,1197.02412,960.69039,1199.94582,962.20066,1200.89151Z"/><path class="cls-15" d="M2061.0273,1081.62389c51.0305,63.96327,66.55239,148.42107,79.59213,229.20088,30.3837,188.224,56.30831,378.21369,51.40729,568.81118-.131,5.09331-.37623,10.48927-3.20634,14.726-3.66132,5.48095-10.60324,7.55736-17.00956,9.10814a464.84505,464.84505,0,0,1-159.293,10.29208c-46.34665-274.2639-5.76219-555.218,43.11145-829.04284"/><path class="cls-40" d="M1984.6731,1166.19322a6.64952,6.64952,0,0,0-.47534,1.57715l-.3479,1.62646-.63867,3.26612-1.25073,6.5371-2.46509,13.08106-5.04346,26.135c-1.66479,8.71484-3.46923,17.3999-5.18481,26.10376l-5.34277,26.07007-5.50293,26.03662c-1.90552,8.66431-3.71216,17.34888-5.667,26.00317l-5.80981,25.97534-2.96436,12.977-1.46435,6.49268-.71924,3.24951-.33105,1.63013a6.65313,6.65313,0,0,0-.19434,1.6355,6.65037,6.65037,0,0,1,.02368-1.65894l.16138-1.66064.38086-3.31348.90014-6.605c.624-4.39917,1.32642-8.78418,2.009-13.17261q2.14709-13.147,4.51953-26.25024c1.54-8.74365,3.26831-17.44946,4.92578-26.16943l5.271-26.09888c1.853-8.67969,3.68261-17.36426,5.59252-26.032,1.95826-8.65747,3.855-17.32813,5.93165-25.96q3.03075-12.96606,6.33471-25.87207c1.12549-4.29638,2.23-8.59741,3.41455-12.88012l1.80982-6.41529.97265-3.19043.51441-1.58691A6.66938,6.66938,0,0,1,1984.6731,1166.19322Z"/><path class="cls-41" d="M1441.27684,533.09624a146.88757,146.88757,0,0,0-32.77334,70.13456c-5.00779,29.36963-.93961,59.4401,3.13334,88.95389l10.05827,72.88511c.51748,3.74981.764,7.53217,1.43448,11.264.40562,2.26137.26633,6.29179,3.93405,4.65589a13.58731,13.58731,0,0,0,3.31144-2.76816c3.39837-3.10813,8.1399-4.01275,12.5837-4.3557,2.73428-.211,11.74821,1.2465,12.63814-2.14678.46889-1.78819-.40351-4.31674-.64983-6.12174l-1.02138-7.48461c-1.2165-8.91451-2.95781-17.86132-3.54187-26.84146-.6725-10.34-.26913-20.70759-.21677-31.05874.08884-17.56279,1.74727-35.63907,6.8357-52.67309,2.53024-8.47023,5.70782-17.74249,10.61559-25.16917,2.64987-4.00993,12.19494-12.52553,10.34162-18.02237-.71609-2.1239-10.10928-7.741-11.53722-9.46863-16.8376-20.37145-25.84617-36.20467-21.47237-62.26941"/><path class="cls-41" d="M1721.4559,588.419a178.95725,178.95725,0,0,1,26.91317,44.58169c13.74256,32.94158,16.77232,68.73169,23.84567,103.4432a5.30386,5.30386,0,0,0,1.54512,3.27885c1.39141,1.11969,3.55259.905,5.431.62362l15.13784-2.26735c6.79367-1.01757,14.7274-2.80416,17.40357-8.50012,1.15034-2.44836,1.04756-5.17563.9255-7.80166-1.57711-33.9281-3.16138-67.92673-8.61487-101.44773-5.03758-30.96448-13.69495-62.10424-32.92381-87.97808-1.32676-1.78525-2.83954-3.63942-5.10826-4.36311-3.32587-1.06092-6.96921.65-10.00948,2.3715a201.52548,201.52548,0,0,0-23.17525,15.308c-9.12263,6.98173-17.95958,15.36291-20.28559,25.79957s-2.90128,16.17992,8.91538,16.95167"/><path class="cls-41" d="M1470.51048,605.47416c-21.471,1.162-13.59662-8.67578-23.8925-27.553s-8.72414-43.6106,3.87847-61.03273c6.67831-9.23224,15.93-16.24847,25.28529-22.75334,38.466-26.746,82.58433-48.67969,108.56617-87.6659,1.4155,15.34922,2.239,32.6328-7.98322,44.17006,13.34216-2.96942,26.80814-5.98031,39.18832-11.77358s23.75826-14.68157,30.03442-26.82408c-2.46338,16.44013-5.77466,34.43685-18.629,44.97781,14.70345.31166,29.5262.61436,43.99377-2.02722s28.7369-8.47,39.13021-18.8752a64.53152,64.53152,0,0,1-28.72318,33.57,111.46217,111.46217,0,0,0,67.13626,7.01733,72.357,72.357,0,0,1-24.82124,26.16868,105.35569,105.35569,0,0,0,54.13618,6.688c-7.84816,10.05608-10.39008,23.1462-15.732,34.7299-14.98034,32.48419-50.59391,50.3574-85.34415,58.84586-46.88875,11.45355-95.81481,10.28217-144.06627,9.04267-20.88838-.53658-42.0256-1.10889-62.15752-6.70518"/><path class="cls-42" d="M1710.65482,543.281c.17842.02106.21317,2.35695-.99892,6.37636a39.00135,39.00135,0,0,1-9.3874,14.91111c-10.43253,11.07379-29.8788,19.78075-52.10483,23.80259a86.77277,86.77277,0,0,1-56.31994-9.65447,112.41812,112.41812,0,0,1-14.695-9.4039c-3.23485-2.54676-4.9376-4.04608-4.78413-4.25515.40062-.58689,7.64908,4.97026,20.675,11.28195a95.52356,95.52356,0,0,0,23.884,8.0151,90.87946,90.87946,0,0,0,30.64669.3c21.53234-3.9015,40.5982-11.99332,50.82947-21.98016C1709.04712,552.78921,1709.96423,542.9616,1710.65482,543.281Z"/><path class="cls-42" d="M1694.84453,492.05712c.20795.10721-.57187,2.21419-2.42314,5.81988a95.41365,95.41365,0,0,1-9.34326,14.40808,112.21495,112.21495,0,0,1-100.46693,42.78839,95.40913,95.40913,0,0,1-16.86287-3.247c-3.88243-1.16443-5.94169-2.06121-5.8734-2.28621.16876-.65564,8.738,2.005,22.95386,2.88155a117.87489,117.87489,0,0,0,98.18642-41.81718C1690.23454,499.74854,1694.25353,491.72421,1694.84453,492.05712Z"/><path class="cls-43" d="M1224.98925,998.35485c.007.13232-.237.28267-.72514.44964a4.83641,4.83641,0,0,1-2.19457.21442c-1.93211-.26594-4.87094-1.69258-8.32948-6.39064-3.44857-4.6412-7.39656-12.41108-11.19236-23.70307-3.8329-11.1625-7.45733-25.5442-11.638-40.59145-4.1568-15.05565-9.33747-30.01017-15.7885-42.67179-6.42642-12.67885-13.92941-23.34127-22.13982-31.45461-16.49611-16.38018-35.44953-21.87272-55.23942-23.72319-19.79048-2.15366-38.9831-4.22323-56.126-17.51243-17.239-12.2214-31.51145-38.54863-41.0558-66.54972a314.504,314.504,0,0,1-11.10775-42.19348,357.39427,357.39427,0,0,1-4.94113-36.86418c-1.61508-21.079-.94887-32.71793-.94887-32.71793.34571.01063.0706,11.77014,1.95745,32.1804.90375,10.21619,2.674,22.27691,5.22216,35.49216a303.40463,303.40463,0,0,0,11.10282,40.3808c9.47492,26.80066,23.37231,51.83894,40.22206,63.39388,16.80032,12.64368,35.74955,14.52934,55.58707,16.67725,19.81621,1.85348,39.14765,7.59885,55.97524,24.73026,8.38737,8.49024,16.08537,19.67874,22.66954,32.99977,6.5974,13.26013,11.93054,29.11924,16.05892,44.63748,4.1472,15.47582,7.60576,29.81846,11.23633,40.93549,3.57422,11.18858,7.29162,19.0056,10.54815,23.87667C1220.77338,999.74861,1225.03107,997.40343,1224.98925,998.35485Z"/><path class="cls-43" d="M1231.15622,885.21488c-.5006-.025,2.4262-8.88788,1.17705-23.79854-1.21546-14.86273-8.06624-31.759-18.82581-45.58175-10.74061-13.95242-25.10081-26.42642-42.06477-34.37-16.98679-7.55749-36.92963-8.49156-57.61116-10.78754-20.73214-2.096-40.56991-5.69628-57.534-15.8166-16.89322-10.26129-30.62695-26.50294-39.99408-44.81441A177.47539,177.47539,0,0,1,999.372,657.96343c-1.09144-7.28125-1.82461-12.99753-2.03619-17.08889a44.13112,44.13112,0,0,1-.3023-6.20569c.37666-.25876.90331,8.27037,3.53608,22.094,2.61976,13.75826,7.98059,32.31317,17.41784,49.60418,9.35153,17.40744,22.91581,32.85186,39.51732,42.5762,16.66457,9.58575,36.28189,12.99888,56.96578,15.08334,20.67745,2.3148,40.63422,3.36941,58.03658,11.44529,17.2213,8.43047,31.65235,21.529,42.45323,36.31583,10.79506,14.61294,17.71577,32.74794,18.6247,48.851a77.10516,77.10516,0,0,1-.95078,18.51255A33.55962,33.55962,0,0,1,1231.15622,885.21488Z"/><path class="cls-43" d="M1155.42,1170.90041c-.09-.03061.20627-2.85835.80308-8.21924.599-5.36042,1.48249-13.263,2.47531-23.44494,1.862-20.222,4.53963-50.26813,3.1514-85.16608-.74279-17.30451-2.60441-35.72085-6.4858-52.67969-3.84738-16.95143-9.99741-31.738-18.06514-41.82228-16.18291-20.9386-38.25812-22.94447-60.39755-30.13962a117.32085,117.32085,0,0,1-58.94259-43.06911c-16.33338-21.6761-27.5395-52.73054-33.79557-83.00553a380.01007,380.01007,0,0,1-7.54467-79.91913c.10109-10.14685.51078-18.15451.97858-23.55452.43226-5.40776.7007-8.23238.78866-8.22973.30368-.02926-.8001,11.39664-.75591,31.34944a380.62687,380.62687,0,0,0,8.20471,77.81849c6.36937,29.41511,17.44752,59.3901,33.57668,80.42343a117.07651,117.07651,0,0,0,58.30866,42.02989c21.939,7.19,44.31517,9.24311,60.99839,31.13676,8.30554,10.55632,14.69057,26.20529,18.58595,43.92145,3.936,17.71768,5.73228,36.75476,6.37556,54.53675,1.17657,35.87954-1.83185,66.21881-4.00166,86.52606-1.15077,10.22093-2.193,18.111-2.95559,23.43572C1155.962,1168.15558,1155.5008,1170.92719,1155.42,1170.90041Z"/><path class="cls-15" d="M1273.08535,1089.34529c-88.49686,191.27513-128.17291,401.033-161.91847,609.06928-7.61233,46.9289-14.9825,94.59864-9.537,141.828,1.96256,17.02165,6.46013,35.32172,19.97895,45.8493,8.68449,6.76292,19.8516,9.2839,30.65506,11.39164q35.69214,6.9635,71.93,10.57929c9.35523.93282,19.29912,1.59238,27.66927-2.68911,13.28671-6.79642,17.87221-23.20119,20.92917-37.80882,34.30025-163.90379,46.21954-331.6378,53.42215-498.93717,1.83191-42.551,3.35792-85.305-1.40335-127.62843a432.82274,432.82274,0,0,0-46.06391-151.05058"/><path class="cls-40" d="M1331.53712,1160.80333a6.65086,6.65086,0,0,1,.64,1.53051l.51453,1.58716.97266,3.19043,1.80993,6.41529c1.18445,4.28247,2.28894,8.58374,3.41431,12.88012q3.2785,12.91113,6.33484,25.87207c2.07666,8.63184,3.97351,17.30249,5.93176,25.96,1.90991,8.66773,3.73938,17.3523,5.59229,26.032l5.27124,26.09887c1.65734,8.72,3.38562,17.42578,4.92566,26.16944q2.39612,13.09825,4.51953,26.25c.68261,4.38867,1.385,8.77343,2.00891,13.17285l.90039,6.60473.38074,3.31372.16137,1.66065a6.65553,6.65553,0,0,1,.02368,1.65893,6.65649,6.65649,0,0,0-.19433-1.63574l-.33106-1.62988-.71911-3.24951-1.4646-6.49268-2.96411-12.97705-5.81006-25.97534c-1.95484-8.65454-3.76135-17.33887-5.66675-26.00317l-5.50293-26.03663-5.343-26.07006c-1.71545-8.70411-3.5199-17.38892-5.18457-26.10376l-5.04346-26.135-2.4652-13.08106-1.25062-6.53711-.63891-3.26611-.34778-1.62671A6.65615,6.65615,0,0,0,1331.53712,1160.80333Z"/><path class="cls-7" d="M1291.25454,1294.92187a54.182,54.182,0,0,0-2.07317,14.68815v17.15848l1.91871-30.35986C1291.13181,1295.90823,1291.20528,1295.41811,1291.25454,1294.92187Z"/><path class="cls-7" d="M2129.36845,1309.62143v405.743a55.01905,55.01905,0,0,1-54.71923,54.71923h-730.7297a54.88006,54.88006,0,0,1-54.71923-54.71923V1326.76683l1.9151-30.36932c0-.50153.09128-.95769.13693-1.45922a54.9861,54.9861,0,0,1,52.6672-40.03609h730.7297A54.88007,54.88007,0,0,1,2129.36845,1309.62143Z"/><path class="cls-44" d="M1776.54908,1875.327H1664.2518c-10.79615,0-20.154-47.05774-20.80023-104.58353v-.02062c-.64813-57.50517,7.65571-104.5423,18.448-104.5423h112.30074c10.79424,0,20.1521,47.03713,20.7983,104.5423v.02062C1795.64482,1828.2693,1787.34291,1875.327,1776.54908,1875.327Z"/><path class="cls-45" d="M1766.20541,1875.327H1662.633c-9.95736,0-18.58818-47.05774-19.18418-104.58353v-.02062c-.59777-57.50517,7.06091-104.5423,17.01471-104.5423h103.57562c9.95559,0,18.58639,47.03713,19.18239,104.5423v.02062C1783.81752,1828.2693,1776.16062,1875.327,1766.20541,1875.327Z"/><path class="cls-46" d="M2288.84474,1840.17491h207.71243a6.74047,6.74047,0,0,0,6.72071-6.72071V1490.46973a6.74054,6.74054,0,0,0-6.72078-6.72078H2282.12458v349.70581A6.73991,6.73991,0,0,0,2288.84474,1840.17491Z"/><path class="cls-47" d="M2272.72017,1782.81925h214.66115a7.30461,7.30461,0,0,1,7.2832,7.2832v77.94139a7.30461,7.30461,0,0,1-7.2832,7.2832H2278.52008a7.29831,7.29831,0,0,1-7.27692-7.27692v-83.75387A1.48134,1.48134,0,0,1,2272.72017,1782.81925Z"/><path class="cls-14" d="M2244.49033,1741.22514h194.84741c0-34.91861,37.64054-38.76861,37.64054-38.76861h-194.8537S2244.49033,1706.30653,2244.49033,1741.22514Z"/><path class="cls-48" d="M2310.92514,1517.61357h131.20233a6.004,6.004,0,0,1,5.98308,5.98936v.00565a6.00324,6.00324,0,0,1-5.98308,5.98372H2310.92514a6.00055,6.00055,0,0,1-5.98936-5.98372v-.00565A6.00538,6.00538,0,0,1,2310.92514,1517.61357Z"/><path class="cls-48" d="M2310.92514,1666.21965h131.20233a6.00311,6.00311,0,0,1,5.98308,5.98308v.00628a6.00444,6.00444,0,0,1-5.98308,5.98937H2310.92514a6.0058,6.0058,0,0,1-5.98936-5.98937v-.00628A6.00447,6.00447,0,0,1,2310.92514,1666.21965Z"/><path class="cls-48" d="M2310.92514,1594.43326h131.20233a6.00311,6.00311,0,0,1,5.98308,5.98309v.00627a6.00443,6.00443,0,0,1-5.98308,5.98937H2310.92514a6.00579,6.00579,0,0,1-5.98936-5.98937v-.00627A6.00447,6.00447,0,0,1,2310.92514,1594.43326Z"/><path class="cls-48" d="M2310.92514,1761.30185h131.20233a6.00443,6.00443,0,0,1,5.98308,5.98936h0a6.00443,6.00443,0,0,1-5.98308,5.98937H2310.92514a6.00579,6.00579,0,0,1-5.98936-5.98937h0A6.00579,6.00579,0,0,1,2310.92514,1761.30185Z"/><path class="cls-49" d="M319.04242,469.44261a54.55229,54.55229,0,1,1-15.97719,38.57392,54.38719,54.38719,0,0,1,15.97719-38.57392ZM330.82623,415.372a96.02159,96.02159,0,0,0-21.37931,9.10353A97.0593,97.0593,0,0,0,290.68539,438.614a3.3367,3.3367,0,0,1-3.99325.484L261.3405,424.467l-.13753-.0922a6.333,6.333,0,0,0-8.44083,2.39284l-.10423.175-17.83624,30.88748a6.3453,6.3453,0,0,0,2.30508,8.59474l.17509.09988,25.14322,14.5141a3.36423,3.36423,0,0,1,1.5798,3.69382h.00418a97.14028,97.14028,0,0,0,0,46.56,3.341,3.341,0,0,1-1.76735,3.80139l-25.13494,14.50555v.00854a6.35083,6.35083,0,0,0-2.30508,8.59475L252.758,589.2654h.00418a6.328,6.328,0,0,0,8.57836,2.30064l.19173-.09988,25.16825-14.53885a3.36548,3.36548,0,0,1,3.98491.49171,97.50608,97.50608,0,0,0,18.75735,14.13848,96.27757,96.27757,0,0,0,21.521,9.14536,3.353,3.353,0,0,1,2.43842,3.21834v29.23648a6.305,6.305,0,0,0,6.27337,6.277h35.88119a6.312,6.312,0,0,0,6.27276-6.277V603.9212a3.35276,3.35276,0,0,1,2.57638-3.26017,96.03139,96.03139,0,0,0,21.3793-9.10353A97.36058,97.36058,0,0,0,424.542,577.419a3.34793,3.34793,0,0,1,4.1642-.3833L453.88263,591.566a6.32876,6.32876,0,0,0,8.5828-2.30064l.10841-.175,17.83658-30.90455h-.00427a6.33111,6.33111,0,0,0-2.293-8.57767l-25.32667-14.62251a3.34074,3.34074,0,0,1-1.57929-3.693H451.203a97.15422,97.15422,0,0,0,0-46.56,3.33568,3.33568,0,0,1,1.7671-3.7937l25.14313-14.5141a6.33844,6.33844,0,0,0,2.293-8.58621l-.09988-.18354L462.4697,426.76766h-.00427a6.32126,6.32126,0,0,0-8.5828-2.30918l.00427.00854-25.34716,14.631a3.33754,3.33754,0,0,1-4.06859-.55915,96.909,96.909,0,0,0-18.69025-14.06336,95.82406,95.82406,0,0,0-21.51247-9.14536,3.34881,3.34881,0,0,1-2.43894-3.21834V382.87537a6.29716,6.29716,0,0,0-6.27276-6.277H339.67554a6.29024,6.29024,0,0,0-6.27337,6.277v29.23648A3.35356,3.35356,0,0,1,330.82623,415.372Z"/><path class="cls-49" d="M2731.63108,92.84427a54.55227,54.55227,0,1,1-15.9772,38.57392,54.38717,54.38717,0,0,1,15.9772-38.57392Zm11.7838-54.07059a96.02131,96.02131,0,0,0-21.3793,9.10353A97.05936,97.05936,0,0,0,2703.274,62.01569a3.33668,3.33668,0,0,1-3.99324.484l-25.35165-14.631-.13752-.0922a6.333,6.333,0,0,0-8.44083,2.39284l-.10424.175L2647.41033,81.2318a6.34528,6.34528,0,0,0,2.30508,8.59474l.17509.09988,25.14322,14.5141a3.36423,3.36423,0,0,1,1.5798,3.69382h.00418a97.13984,97.13984,0,0,0,0,46.56,3.341,3.341,0,0,1-1.76735,3.80139l-25.13494,14.50555v.00854a6.3508,6.3508,0,0,0-2.30508,8.59475l17.93628,31.06248h.00419a6.32795,6.32795,0,0,0,8.57835,2.30064l.19174-.09988,25.16825-14.53885a3.36547,3.36547,0,0,1,3.9849.49171,97.50639,97.50639,0,0,0,18.75735,14.13848,96.27765,96.27765,0,0,0,21.521,9.14536,3.353,3.353,0,0,1,2.43842,3.21834v29.23648a6.305,6.305,0,0,0,6.27336,6.277h35.88119a6.312,6.312,0,0,0,6.27277-6.277V227.32286a3.35277,3.35277,0,0,1,2.57637-3.26017,96.03126,96.03126,0,0,0,21.37931-9.10353,97.36058,97.36058,0,0,0,18.75683-14.13848,3.34793,3.34793,0,0,1,4.1642-.3833l25.17643,14.53032a6.32875,6.32875,0,0,0,8.58279-2.30064l.10842-.175,17.83657-30.90455h-.00426a6.33113,6.33113,0,0,0-2.293-8.57767l-25.32667-14.62251a3.34072,3.34072,0,0,1-1.57929-3.693h-.00427a97.15422,97.15422,0,0,0,0-46.56,3.33567,3.33567,0,0,1,1.76709-3.7937l25.14314-14.5141a6.33847,6.33847,0,0,0,2.293-8.58621l-.09988-.18354-17.83658-30.88747h-.00427a6.32125,6.32125,0,0,0-8.58279-2.30918l.00427.00854-25.34717,14.631a3.33755,3.33755,0,0,1-4.06859-.55915,96.90862,96.90862,0,0,0-18.69024-14.06336,95.82414,95.82414,0,0,0-21.51248-9.14536,3.34882,3.34882,0,0,1-2.43893-3.21834V6.277A6.29716,6.29716,0,0,0,2788.14538,0h-35.88119a6.29024,6.29024,0,0,0-6.27336,6.277V35.51351A3.35356,3.35356,0,0,1,2743.41488,38.77368Z"/><path class="cls-1" d="M3089.07845,392.444a35.77063,35.77063,0,1,1-10.47645,25.29341,35.66236,35.66236,0,0,1,10.47645-25.29341Zm7.72679-35.45478a62.96223,62.96223,0,0,0-14.01868,5.96931,63.64243,63.64243,0,0,0-12.30218,9.27078,2.18791,2.18791,0,0,1-2.61842.31738l-16.6234-9.59376-.09018-.06046a4.15264,4.15264,0,0,0-5.53476,1.569l-.06834.11475-11.69545,20.25331a4.1607,4.1607,0,0,0,1.51147,5.63569l.11481.06549,16.48673,9.51708a2.206,2.206,0,0,1,1.03589,2.42209h.00274a63.6958,63.6958,0,0,0,0,30.53,2.19073,2.19073,0,0,1-1.15887,2.49262l-16.4813,9.51148v.0056a4.1643,4.1643,0,0,0-1.51147,5.63568l11.76105,20.36807h.00274a4.14932,4.14932,0,0,0,5.62494,1.50856l.12572-.06549,16.50314-9.53331a2.2068,2.2068,0,0,1,2.613.32242,63.93589,63.93589,0,0,0,12.29943,9.27078,63.1308,63.1308,0,0,0,14.11161,5.99673,2.19859,2.19859,0,0,1,1.5989,2.1103v19.17074a4.13425,4.13425,0,0,0,4.11352,4.11593h23.52776a4.13885,4.13885,0,0,0,4.11313-4.11593V480.62332a2.19845,2.19845,0,0,1,1.68936-2.13773,62.969,62.969,0,0,0,14.01869-5.9693,63.84077,63.84077,0,0,0,12.29909-9.27078,2.19527,2.19527,0,0,1,2.73052-.25133l16.5085,9.52771a4.14983,4.14983,0,0,0,5.62785-1.50856l.07109-.11475,11.69567-20.26451h-.0028a4.1514,4.1514,0,0,0-1.50352-5.62449l-16.607-9.58817a2.19055,2.19055,0,0,1-1.03556-2.42153h-.0028a63.70516,63.70516,0,0,0,0-30.53,2.18727,2.18727,0,0,1,1.15871-2.48759l16.48667-9.51707a4.15621,4.15621,0,0,0,1.50352-5.63009l-.06549-.12035-11.69567-20.25331h-.0028a4.14493,4.14493,0,0,0-5.62785-1.51416l.0028.0056-16.62046,9.59376a2.18847,2.18847,0,0,1-2.66782-.36664,63.54413,63.54413,0,0,0-12.25543-9.22152,62.83265,62.83265,0,0,0-14.106-5.99673,2.19587,2.19587,0,0,1-1.59924-2.11031V335.68076a4.12912,4.12912,0,0,0-4.11313-4.11593h-23.52776a4.12456,4.12456,0,0,0-4.11352,4.11593v19.17073A2.199,2.199,0,0,1,3096.80524,356.98922Z"/><rect class="cls-50" x="789.64559" y="1820.53232" width="379.84379" height="56.75861"/><rect class="cls-6" x="789.64559" y="1833.63036" width="100.41852" height="30.56254"/><rect class="cls-51" x="823.53848" y="1763.77437" width="379.84379" height="56.75795"/><rect class="cls-6" x="945.78728" y="1777.4178" width="257.59499" height="28.37964"/><rect class="cls-50" x="766.81053" y="1707.01576" width="379.84385" height="56.75861" transform="translate(1913.46491 3470.79013) rotate(180)"/><rect class="cls-6" x="1046.23581" y="1720.1138" width="100.41857" height="30.56254" transform="translate(2192.89018 3470.79013) rotate(180)"/><path class="cls-52" d="M3177.65179,1413.73265c-20.44857-76.65754-91.88453-34.5023-122.45479,31.12885-30.57026,65.63389-100.62136,321.636-161.18272,387.91966-23.47233,25.69433-16.29408,27.85391,5.28536,15.341C3006.93464,1785.72582,3205.79532,1519.25457,3177.65179,1413.73265Z"/><path class="cls-53" d="M2879.55056,1852.74c-.73911,3.4464,2.50249,3.60691,8.6388,1.06885,163.18277-138.00965,249.83933-446.53307,250.11976-447.51939a3.19519,3.19519,0,0,0-6.14542-1.75238C3131.88332,1405.53023,3044.042,1718.262,2879.55056,1852.74Z"/><path class="cls-54" d="M2996.82207,1454.61384c-35.656-55.8925-81.90556-4.26582-89.667,55.73472-7.766,60.00511,1.13087,281.61616-30.3564,349.71652-12.20148,26.39793-5.94068,26.30445,8.08665,10.8832C2954.852,1794.04861,3045.908,1531.54953,2996.82207,1454.61384Z"/><path class="cls-55" d="M2870.32353,1879.61854c.28089,2.93478,2.90377,2.23984,7.1473-1.33606,95.10424-151.16324,86.16221-418.79681,86.1312-419.65636a2.66848,2.66848,0,1,0-5.33467.156C2958.29381,1459.64573,2967.36033,1730.93545,2870.32353,1879.61854Z"/><path class="cls-54" d="M3173.60394,1644.81742c61.62616,6.42586,37.8201,66.67128-9.07975,98.257-46.89978,31.5812-235.83394,116.83057-279.58561,171.62549-16.957,21.24109-19.49555,15.96434-12.47735-2.20883C2907.47105,1821.85784,3088.77773,1635.97388,3173.60394,1644.81742Z"/><path class="cls-55" d="M2871.308,1928.29038c-2.56947.9886-3.08616-1.49155-1.875-6.53256,86.56308-142.70273,313.98576-247.15809,314.71125-247.501a2.4963,2.4963,0,0,1,2.10213,4.52847C3185.51586,1679.1241,2954.98974,1785.009,2871.308,1928.29038Z"/><path class="cls-27" d="M2708.75334,1224.39622s41.651,4.4676,50.32839,11.04914c0,0,272.83476,417.96481,230.27536,639.88168L2566.96,1881.787l-20.41821-233.16578Z"/><path class="cls-30" d="M2609.31148,1196.234l126.04229,28.16224-21.50392,114.96953-45.20824,28.66845,34.23543,24.59719s-101.67285,189.76026-163.925,296.07564C2538.952,1688.707,2633.25115,1262.353,2609.31148,1196.234Z"/><path class="cls-39" d="M2757.5713,1521.922q25.08471,51.03478,46.10473,103.978c7.07618,17.60009,13.72168,35.37475,20.07374,53.25927q9.4464,26.85609,17.50146,54.19947c5.25122,18.25439,9.9917,36.6809,13.63989,55.36474,1.79566,9.34571,3.322,18.75293,4.42456,28.22534a229.03883,229.03883,0,0,1,1.68335,28.58838c-.113,4.78662-.272,9.58008-.86377,14.354l-.19262,1.79077-.27051,1.78442c-.19116,1.18848-.34668,2.38062-.56836,3.56446l-.73633,3.5415c-.231,1.18237-.60767,2.33887-.905,3.5083-.60669,2.35791-1.36108,4.56177-2.04639,6.84692l-2.13891,6.78931c-1.45239,4.519-2.9292,9.032-4.53662,13.50977-.81031,2.23681-1.64722,4.46606-2.54981,6.67871a44.319,44.319,0,0,1-3.15307,6.55127,8.08156,8.08156,0,0,1-.59058.803,2.84722,2.84722,0,0,1-.989.80078,1.34447,1.34447,0,0,1-1.11939-.022,1.51217,1.51217,0,0,1-.6394-.64282,3.7052,3.7052,0,0,1-.36548-1.07348,18.96567,18.96567,0,0,1-.2168-3.70826c.04932-2.40674.25049-4.77783.48291-7.14477.96826-9.457,2.49732-18.81446,4.18042-28.14209q-.9298,7.04662-1.67822,14.11133c-.51758,4.70556-.99438,9.417-1.29761,14.12915-.14624,2.354-.25927,4.71411-.22241,7.04541a17.76977,17.76977,0,0,0,.30786,3.36621,2.2394,2.2394,0,0,0,.21362.5979c.0315.06274.06275.05273-.03686-.01a.36227.36227,0,0,0-.26367-.0293,1.99066,1.99066,0,0,0,.34082-.35376,6.4429,6.4429,0,0,0,.43652-.64477,43.03763,43.03763,0,0,0,2.76563-6.34961c.8081-2.20484,1.55664-4.44043,2.27929-6.686,1.45435-4.48852,2.82447-9.01318,4.148-13.55249l1.95484-6.81982c.61645-2.2688,1.33471-4.57251,1.84643-6.81934a88.38115,88.38115,0,0,0,2.28711-13.76269c.489-4.64356.55542-9.33667.57935-14.0188-.28223-18.76734-3.02906-37.49634-6.78516-55.96729-3.74267-18.491-8.48535-36.79419-13.781-54.93432-5.23121-18.1626-11.05542-36.16187-17.1919-54.05616-6.09888-17.90942-12.63965-35.67065-19.31006-53.38647q-10.08948-26.54187-20.80176-52.85816C2772.5066,1556.75206,2765.10157,1539.31529,2757.5713,1521.922Z"/><rect class="cls-56" x="94.44236" y="1875.32704" width="2980.03353" height="65.73907"/><rect class="cls-7" x="2476.97828" y="1483.74895" width="179.96346" height="356.42596"/><path class="cls-57" d="M2467.454,1782.81925H2521.718c.9931.00627,11.78853.41682,17.83941,13.60335,6.34467,13.83,5.67047,27.66056,24.48478,27.66056h8.10425c18.81431,0,18.29265-14.15514,24.49105-27.66056,6.1915-13.51107,16.84-13.59708,17.83313-13.60335h48.13346a4.78548,4.78548,0,0,1,4.77146,4.77145v86.82052a.91852.91852,0,0,1-.91583.91582H2467.46027a.91852.91852,0,0,1-.91583-.91582v-90.68243A.91222.91222,0,0,1,2467.454,1782.81925Z"/><path class="cls-48" d="M2688.62367,1683.01071h-177.2045c0-34.91861-34.44089-38.7686-34.44089-38.7686h177.20449S2688.62367,1648.0921,2688.62367,1683.01071Z"/><path class="cls-46" d="M2505.17808,1522.46859h135.8188a6.00621,6.00621,0,0,1,5.98937,5.98937h0a6.0062,6.0062,0,0,1-5.98937,5.98936h-135.8188a6.00986,6.00986,0,0,1-5.98937-5.98936h0A6.00986,6.00986,0,0,1,2505.17808,1522.46859Z"/><path class="cls-46" d="M2505.17808,1588.44954h135.8188a6.00138,6.00138,0,0,1,5.98937,5.98372h0a6.0062,6.0062,0,0,1-5.98937,5.98936h-135.8188a6.0058,6.0058,0,0,1-5.98937-5.98936h0A6.001,6.001,0,0,1,2505.17808,1588.44954Z"/><path class="cls-46" d="M2505.17808,1726.21751h135.8188a6.00621,6.00621,0,0,1,5.98937,5.98937h0a6.0062,6.0062,0,0,1-5.98937,5.98936h-135.8188a6.00986,6.00986,0,0,1-5.98937-5.98936h0A6.00986,6.00986,0,0,1,2505.17808,1726.21751Z"/></g></g></svg>