<svg xmlns="http://www.w3.org/2000/svg" xmlns:xlink="http://www.w3.org/1999/xlink" viewBox="0 0 4633.04495 2726.57624"><defs><style>.cls-1,.cls-31{fill:none;}.cls-1{stroke:#c5e3e9;stroke-width:12.8105px;}.cls-1,.cls-13{stroke-miterlimit:10;}.cls-1,.cls-11,.cls-12,.cls-13,.cls-14,.cls-15,.cls-16,.cls-17,.cls-18,.cls-21,.cls-22,.cls-25,.cls-26,.cls-27,.cls-28,.cls-30,.cls-32,.cls-34,.cls-36,.cls-37,.cls-41,.cls-44,.cls-45,.cls-46,.cls-47,.cls-48,.cls-49,.cls-52,.cls-53,.cls-54,.cls-55,.cls-57{fill-rule:evenodd;}.cls-2{fill:url(#Degradado_sin_nombre_98);}.cls-3{fill:#f7f7f7;}.cls-4{fill:#ebebeb;}.cls-5{fill:#feffff;}.cls-6{fill:#e1e0df;}.cls-14,.cls-7{fill:#fff;}.cls-8{fill:#eee;}.cls-9{fill:#89a7a8;}.cls-10{fill:#82b3b7;}.cls-11{fill:#395a64;}.cls-12{fill:#0d0c10;}.cls-13,.cls-57{fill:#71c2cb;}.cls-13{stroke:#464745;stroke-width:13.64608px;}.cls-15{fill:#2b2b2b;}.cls-16{fill:#444443;}.cls-17{fill:#8a8a8a;}.cls-18{fill:#f0b18b;}.cls-19,.cls-21{fill:#f3c7af;}.cls-20,.cls-37{fill:#e9926b;}.cls-22{fill:#171b2c;}.cls-23{fill:#795224;}.cls-24{fill:#dfe6f3;}.cls-25{fill:#bbccd2;}.cls-26{fill:#eca294;}.cls-27{fill:#092635;}.cls-28{fill:#f1b9a5;}.cls-29{fill:#0c0b0b;opacity:0.3;}.cls-30{fill:#455a67;}.cls-32,.cls-35{fill:#a34a28;}.cls-33,.cls-34{fill:#723520;}.cls-36{fill:#f3c3b7;}.cls-38{fill:#e78868;}.cls-39{fill:#005660;}.cls-40{fill:#959595;}.cls-41{fill:#d8a75b;}.cls-42{fill:#f3dabb;}.cls-43{fill:#a97948;}.cls-44{fill:#aaa5b5;}.cls-45{fill:#d4ced6;}.cls-46{fill:#e2e1e6;}.cls-47{fill:#41a3a8;}.cls-48{fill:#adabba;}.cls-49{fill:#c5e3e9;}.cls-50{fill:#2379b2;}.cls-51{fill:#393838;}.cls-52{fill:#1c7d77;}.cls-53{fill:#8bc6b1;}.cls-54{fill:#5bb9b2;}.cls-55{fill:#36a37d;}.cls-56{fill:#2b2b2e;}.cls-58{fill:url(#Degradado_sin_nombre_6);}.cls-59{fill:url(#Degradado_sin_nombre_6-2);}.cls-60{fill:url(#Degradado_sin_nombre_189);}</style><linearGradient id="Degradado_sin_nombre_98" y1="1389.43055" x2="4633.04495" y2="1389.43055" gradientUnits="userSpaceOnUse"><stop offset="0" stop-color="#dbece6"/><stop offset="1" stop-color="#aad8e2"/></linearGradient><linearGradient id="Degradado_sin_nombre_6" x1="2298.78296" y1="2042.69565" x2="2751.76031" y2="2159.6898" gradientUnits="userSpaceOnUse"><stop offset="0" stop-color="#424242"/><stop offset="0.72624" stop-color="#131313"/><stop offset="1"/></linearGradient><linearGradient id="Degradado_sin_nombre_6-2" x1="2280.02624" y1="2115.31782" x2="2733.00359" y2="2232.31197" xlink:href="#Degradado_sin_nombre_6"/><linearGradient id="Degradado_sin_nombre_189" x1="2320.38643" y1="2185.83325" x2="2342.37389" y2="2185.83325" gradientUnits="userSpaceOnUse"><stop offset="0" stop-color="#0c0f13"/><stop offset="0.07614" stop-color="#0b141c" stop-opacity="0.97734"/><stop offset="0.18946" stop-color="#072134" stop-opacity="0.91488"/><stop offset="0.24992" stop-color="#052a45" stop-opacity="0.87274"/><stop offset="0.41241" stop-color="#134062" stop-opacity="0.65978"/><stop offset="0.71444" stop-color="#387ab0" stop-opacity="0.09976"/><stop offset="0.7401" stop-color="#3c7fb7" stop-opacity="0.04703"/><stop offset="1" stop-color="#4082ba" stop-opacity="0"/></linearGradient></defs><title>Recurso 3</title><g id="Capa_2" data-name="Capa 2"><g id="Capa_1-2" data-name="Capa 1"><path class="cls-1" d="M147.37732,1126.52968a50.24628,50.24628,0,1,1-14.71606,35.52914,50.09419,50.09419,0,0,1,14.71606-35.52914Zm10.85367-49.80261a88.44259,88.44259,0,0,0-19.69176,8.385,89.398,89.398,0,0,0-17.28062,13.02248,3.07331,3.07331,0,0,1-3.678.44583L94.23,1085.10417l-.12667-.08492a5.83314,5.83314,0,0,0-7.77457,2.204l-.096.16119-16.42835,28.44942a5.84443,5.84443,0,0,0,2.12313,7.91633l.16127.092,23.15857,13.36844a3.09869,3.09869,0,0,1,1.4551,3.40226h.00386a89.472,89.472,0,0,0,0,42.88486,3.0773,3.0773,0,0,1-1.62785,3.50133l-23.151,13.36058v.00786a5.84952,5.84952,0,0,0-2.12313,7.91634l16.52051,28.6106h.00385a5.82846,5.82846,0,0,0,7.90124,2.11905l.1766-.092,23.18163-13.39124a3.09982,3.09982,0,0,1,3.67036.4529,89.80989,89.80989,0,0,0,17.27676,13.02247,88.67823,88.67823,0,0,0,19.82229,8.42349,3.08832,3.08832,0,0,1,2.24595,2.9643v26.92874a5.8073,5.8073,0,0,0,5.77818,5.78157h33.049a5.81374,5.81374,0,0,0,5.77763-5.78157v-26.92874a3.08812,3.08812,0,0,1,2.373-3.00283,88.451,88.451,0,0,0,19.69176-8.385,89.67578,89.67578,0,0,0,17.27629-13.02247,3.08367,3.08367,0,0,1,3.83551-.35305l23.18916,13.38339a5.82918,5.82918,0,0,0,7.90532-2.11905l.09986-.16118,16.42867-28.46515H296.004a5.8314,5.8314,0,0,0-2.112-7.90061l-23.32755-13.4683a3.077,3.077,0,0,1-1.45463-3.40147H269.106a89.48547,89.48547,0,0,0,0-42.88486,3.07237,3.07237,0,0,1,1.62761-3.49425l23.1585-13.36845a5.83815,5.83815,0,0,0,2.112-7.90847l-.092-.169-16.42867-28.44942h-.00394a5.82231,5.82231,0,0,0-7.90532-2.1269l.00393.00786-23.34642,13.47617a3.07411,3.07411,0,0,1-3.74744-.515,89.25971,89.25971,0,0,0-17.215-12.95329,88.25993,88.25993,0,0,0-19.81442-8.42348,3.08449,3.08449,0,0,1-2.24642-2.9643v-26.92874a5.8001,5.8001,0,0,0-5.77763-5.78157h-33.049a5.79372,5.79372,0,0,0-5.77818,5.78157v26.92874A3.08886,3.08886,0,0,1,158.231,1076.72707Z"/><path class="cls-2" d="M4596.59907,1824.09067c-90.44209-260.94979-339.158-449.58446-629.82827-449.58446-80.0015,0-152.38074-33.81951-203.81508-87.87983l-20.68883-7.30208c85.12562-23.05913,156.73665-79.68132,199.65151-154.68693,133.74164-41.37766,231.614-166.53648,231.614-313.34468,0-180.37165-147.57719-327.88473-327.88472-327.88473h-480.0094c-62.06688,0-114.07747-44.90086-125.35077-103.82923a127.342,127.342,0,0,1-2.3058-23.82734c0-57.13471,38.11131-105.879,90.1219-121.9558-.06411-.06412-.12823-.19235-.19234-.25646a114.228,114.228,0,0,1,22.61072-2.24168h76.54241a79.71343,79.71343,0,0,0,0-159.42675H2924.82934c-51.98018,0-101.95039,41.3637-142.72192,68.91-147.19879,99.45125-316.47848,200.68713-500.81362,200.68713H1430.29209c-63.21978,0-114.97392,51.75413-114.97392,114.97391a111.18789,111.18789,0,0,0,1.9215,20.24081,115.0564,115.0564,0,0,0,113.05242,94.7335c40.48122,0,96.97556-1.217,150.26728,5.95683,91.65911,24.8524,159.55459,108.88924,159.55459,208.1706,0,62.96371-27.35015,119.84236-70.71381,159.36264a214.94862,214.94862,0,0,1-144.95082,56.30239H1422.09357c-39.32832,2.49775-78.8486,3.13851-117.34421,3.13851H806.29281c-123.36516,0-224.24784,100.88267-224.24784,224.24784a224.91732,224.91732,0,0,0,224.24784,224.18372h25.621c118.62534,0,215.66463,97.03929,215.66463,215.66463a214.61039,214.61039,0,0,1-52.651,140.72314c-39.64851,45.79769-98.06435,74.9415-163.01367,74.9415H411.47315C185.176,1884.10783,0,2069.2838,0,2295.581c0,226.29757,185.176,411.40943,411.47315,411.40943H3966.7708c366.44445,0,666.27415-299.766,666.27415-666.21A660.59072,660.59072,0,0,0,4596.59907,1824.09067Zm-3719.336-737.154c8.19852-5.50842,16.65349-10.69666,25.2367-15.5006C893.91657,1076.30375,885.4616,1081.49238,877.26308,1086.93669Zm69.817-37.2786c6.08507-2.626,12.29836-4.99589,18.57538-7.238C959.37842,1044.6622,953.16513,1047.09583,947.08006,1049.65809Z"/><path class="cls-3" d="M2131.80868,501.65386v654.85792a.49523.49523,0,0,0,.53461.44271H2663.303a.49523.49523,0,0,0,.53459-.44271V501.65386a.49568.49568,0,0,0-.53459-.44334H2132.34329A.49568.49568,0,0,0,2131.80868,501.65386Z"/><path class="cls-4" d="M2669.47058,1162.05882H2126.18017a.49523.49523,0,0,1-.53461-.44271V496.54953a.49523.49523,0,0,1,.53461-.44272h543.29041a.49523.49523,0,0,1,.53461.44272v665.06658A.49523.49523,0,0,1,2669.47058,1162.05882Zm-530.96342-10.208h518.63191a.49526.49526,0,0,0,.53461-.44334V506.75756a.49523.49523,0,0,0-.53461-.44271H2138.50716a.49523.49523,0,0,0-.53461.44271v644.64989A.49525.49525,0,0,0,2138.50716,1151.85079Z"/><path class="cls-5" d="M2185.37764,542.10705v573.51757a.49523.49523,0,0,0,.53461.44272h424.75956a.496.496,0,0,0,.53536-.44272V542.10705a.496.496,0,0,0-.53536-.44271H2185.91225A.49523.49523,0,0,0,2185.37764,542.10705Z"/><path class="cls-4" d="M2278.687,704.50637h238.276a.41186.41186,0,0,1,.41186.41186V936.16544a.41186.41186,0,0,1-.41186.41186H2278.68766a.4125.4125,0,0,1-.4125-.4125V704.91823A.41186.41186,0,0,1,2278.687,704.50637Z"/><path class="cls-6" d="M2498.44754,908.17427c.30733.74536-11.49184,5.02617-33.94621,2.84637a93.57468,93.57468,0,0,1-38.15966-12.63044c-13.05717-8.09827-25.45362-21.16018-29.6497-38.61669-4.36145-17.32145,2.63378-38.91308,22.67787-52.79163a63.32275,63.32275,0,0,1,17.19284-8.34339,54.73433,54.73433,0,0,1,21.50974-2.05223c7.27538.736,14.98267,2.83323,21.50521,7.77811,6.58748,4.94926,10.19383,13.307,8.47976,20.74622-1.55551,7.50924-6.49838,13.262-11.80746,17.80857a78.738,78.738,0,0,1-18.01139,10.98715,114.42451,114.42451,0,0,1-42.97037,10.163c-15.33985.609-31.5571-1.99908-45.793-8.6304-14.10222-6.5594-26.15888-16.4998-33.7-28.92828-7.64386-12.28153-10.07754-27.18619-6.04607-40.51135,3.87894-13.27951,12.99071-25.15209,25.78737-33.37979a69.36264,69.36264,0,0,1,21.61545-9.0381,64.632,64.632,0,0,1,24.33759-.62842c8.03425,1.39817,16.24292,4.66974,22.08967,10.31933a27.42289,27.42289,0,0,1,8.65794,19.54752,32.36229,32.36229,0,0,1-5.7614,18.62208,53.48863,53.48863,0,0,1-13.634,13.57152,99.33533,99.33533,0,0,1-33.87148,14.904,104.24215,104.24215,0,0,1-35.63461,2.278,82.49985,82.49985,0,0,1-31.01264-9.83785c-17.624-9.90414-27.805-24.95137-29.6195-38.85243-1.99572-14.15555,4.25951-25.76551,10.97461-33.30976a47.93268,47.93268,0,0,1,20.29856-13.429c5.58546-1.75146,8.76743-1.69143,8.90712-1.25122.23408.63093-2.528,1.65017-7.05864,4.15324a48.73791,48.73791,0,0,0-15.78458,14.04926c-4.96327,7.05839-9.06119,17.30144-6.46289,28.453,2.3627,11.11222,11.54017,23.053,26.33633,30.54218,14.48579,7.62117,34.80927,9.584,54.32781,4.28394a81.75648,81.75648,0,0,0,27.18506-12.73613c7.81754-5.80654,13.14023-13.27888,12.69774-21.09576-.25069-7.83877-6.216-13.36393-16.366-14.9722a42.36483,42.36483,0,0,0-15.62978.60967,48.85491,48.85491,0,0,0-14.75085,6.3987c-9.02268,5.87658-15.848,14.79836-18.59882,24.54555-2.82862,9.73655-1.14248,20.06152,4.56531,29.42164,5.61793,9.337,14.98191,17.112,25.7247,22.145,10.69522,5.04618,23.14679,7.19784,35.39525,6.81953a93.80336,93.80336,0,0,0,34.80778-7.88,61.52194,61.52194,0,0,0,13.89-8.10764c3.78154-3.06023,6.4123-6.55941,7.04734-9.51208.6894-2.99081-.41153-5.58768-2.849-7.65305-2.5628-2.10476-6.91743-3.69052-11.51148-4.19827a34.82109,34.82109,0,0,0-13.55477.95358,46.81444,46.81444,0,0,0-12.63129,5.73026,44.59915,44.59915,0,0,0-16.47248,18.79091,36.44386,36.44386,0,0,0-2.77347,21.58162c2.52882,14.15743,12.15633,25.87494,22.77981,33.42232,10.83265,7.58677,22.79416,11.4924,32.75014,13.534C2486.15,908.68952,2498.289,906.76109,2498.44754,908.17427Z"/><rect class="cls-5" x="2857.09966" y="956.35842" width="496.41705" height="444.12397"/><path class="cls-6" d="M3353.51735,1400.48239s-.08326-2.84713-.12618-8.24355c-.02946-5.44959-.07238-13.41708-.12938-23.79614-.06726-20.85165-.1659-51.331-.29144-90.15261-.13964-77.599-.33884-188.4815-.579-321.931l1.12476,1.12476c-142.96452.05829-313.57986.12683-496.37157.20113h-.04484l1.32657-1.32589c-.05765,161.57818-.11214,313.6215-.15889,444.12269l-1.16768-1.16767c148.09192.2434,272.0399.44708,359.045.58992,43.53007.13259,77.802.23635,101.26763.30745,11.68958.06021,20.67166.10633,26.80853.13772,3.00406.02882,5.29906.05124,6.91318.066,1.55776.02242,2.38339.06725,2.38339.06725s-.7366.0442-2.2508.06662c-1.58466.01537-3.83738.03779-6.78636.066-6.08435.032-14.99085.07751-26.5805.13708-23.40543.07173-57.58768.17614-101.00438.30809-87.187.14284-211.39436.34588-359.79565.58992l-1.16768.00192v-1.17024c-.0474-130.50119-.1012-282.54451-.15949-444.12269V955.0319h1.372c182.79171.07366,353.40705.14283,496.37157.20112h1.12861l-.00192,1.126c-.2402,133.74545-.4394,244.87332-.579,322.64394-.12554,38.71268-.22418,69.10687-.29144,89.89959-.057,10.28491-.09992,18.18066-.12938,23.58029C3353.60062,1397.8018,3353.51735,1400.48239,3353.51735,1400.48239Z"/><rect class="cls-6" x="2931.58566" y="1125.10343" width="20.91447" height="20.91378"/><rect class="cls-6" x="2983.06657" y="1125.10343" width="20.91378" height="20.91378"/><rect class="cls-6" x="2931.586" y="1080.6414" width="256.36471" height="20.91378"/><rect class="cls-6" x="3035.49674" y="1124.15418" width="20.91378" height="20.91378"/><rect class="cls-6" x="3086.02775" y="1125.10343" width="20.91378" height="20.91378"/><rect class="cls-6" x="3137.50865" y="1125.10343" width="20.91383" height="20.91378"/><rect class="cls-6" x="3188.98892" y="1125.10343" width="20.91378" height="20.91378"/><rect class="cls-4" x="3240.46919" y="1125.10343" width="20.91378" height="20.91378"/><rect class="cls-4" x="2931.58566" y="1169.56547" width="20.91447" height="20.91378"/><rect class="cls-6" x="2983.06657" y="1169.56547" width="20.91378" height="20.91378"/><rect class="cls-4" x="3034.54684" y="1169.56547" width="20.91442" height="20.91378"/><rect class="cls-4" x="2931.58568" y="993.3695" width="62.88703" height="62.88703"/><rect class="cls-6" x="3086.02775" y="1169.56547" width="20.91378" height="20.91378"/><rect class="cls-6" x="3137.50865" y="1169.56547" width="20.91383" height="20.91378"/><rect class="cls-6" x="3189.93818" y="1168.61557" width="20.91378" height="20.91442"/><rect class="cls-6" x="3240.46919" y="1169.56547" width="20.91378" height="20.91378"/><rect class="cls-6" x="2931.58566" y="1214.02751" width="20.91447" height="20.91378"/><rect class="cls-6" x="2984.01583" y="1213.07761" width="20.91378" height="20.91442"/><rect class="cls-6" x="3034.54684" y="1214.02751" width="20.91442" height="20.91378"/><rect class="cls-4" x="3086.02775" y="1214.02751" width="20.91378" height="20.91378"/><rect class="cls-6" x="3137.50865" y="1214.02751" width="20.91383" height="20.91378"/><rect class="cls-6" x="3188.98892" y="1214.02751" width="20.91378" height="20.91378"/><rect class="cls-6" x="3240.46919" y="1214.02751" width="20.91378" height="20.91378"/><rect class="cls-6" x="2931.58566" y="1258.48891" width="20.91447" height="20.91442"/><rect class="cls-6" x="2983.06657" y="1258.48891" width="20.91378" height="20.91442"/><rect class="cls-6" x="3034.54684" y="1258.48891" width="20.91442" height="20.91442"/><rect class="cls-6" x="3086.977" y="1257.53965" width="20.91378" height="20.91378"/><rect class="cls-6" x="3137.50865" y="1258.48891" width="20.91383" height="20.91442"/><rect class="cls-4" x="3188.98892" y="1258.48891" width="20.91378" height="20.91442"/><rect class="cls-6" x="3240.46919" y="1258.48891" width="20.91378" height="20.91442"/><rect class="cls-6" x="2931.58566" y="1302.95094" width="20.91447" height="20.91378"/><rect class="cls-4" x="2983.06657" y="1302.95094" width="20.91378" height="20.91378"/><rect class="cls-6" x="3034.54684" y="1302.95094" width="20.91442" height="20.91378"/><rect class="cls-6" x="3086.02775" y="1302.95094" width="20.91378" height="20.91378"/><rect class="cls-6" x="3137.50865" y="1302.95094" width="20.91383" height="20.91378"/><rect class="cls-6" x="3189.93818" y="1302.00169" width="20.91378" height="20.91378"/><rect class="cls-6" x="3240.46919" y="1302.95094" width="20.91378" height="20.91378"/><path class="cls-7" d="M1911.15112,1632.74182s-.06468-3.0776-.0972-8.954c-.02235-5.90238-.05609-14.59825-.1-25.94047-.052-22.72185-.12885-56.01449-.22639-98.46717-.10974-84.83666-.26663-206.2484-.45563-352.72108l.87874.87833c-174.4974.05121-384.69643.113-610.87359.17924h-.05243l1.058-1.05757c-.03983,175.48466-.07722,341.33049-.11014,486.08228l-.94783-.94742c181.40938.19469,334.02022.35889,441.3218.47432,53.6937.10771,96.04238.19306,125.00964.25159,14.46854.04918,25.58722.087,33.13082.11258q5.60954.036,8.53783.05487c1.9216.01789,2.92639.05447,2.92639.05447s-.93163.03658-2.81753.05487q-2.89225.0189-8.43371.05487c-7.50093.0256-18.557.0634-32.94391.11258-28.91728.05812-71.19315.14348-124.795.25159-107.4512.115-260.27456.27923-441.93634.47391l-.94783.00122-.00041-.94945c-.03292-144.75179-.07072-310.59762-.11055-486.08228v-1.05878h1.11122c226.17716.06625,436.37619.128,610.87359.17924h.88035l-.00122.87954c-.189,146.70191-.34588,268.30428-.45562,353.27344-.09755,42.36773-.174,75.59371-.22639,98.27-.04349,11.26947-.07722,19.90925-.1,25.77383C1911.21528,1629.79266,1911.15112,1632.74182,1911.15112,1632.74182Z"/><rect class="cls-7" x="1379.19717" y="1236.74542" width="22.09059" height="246.71072"/><rect class="cls-7" x="1421.84448" y="1320.53793" width="22.09145" height="162.91822"/><rect class="cls-7" x="1464.49387" y="1267.41122" width="22.09064" height="217.29921"/><rect class="cls-7" x="1507.14168" y="1246.27247" width="22.091" height="237.18367"/><rect class="cls-7" x="1549.78986" y="1325.55304" width="22.0914" height="157.9031"/><rect class="cls-7" x="1592.43803" y="1356.52042" width="22.09099" height="126.93572"/><rect class="cls-7" x="1635.0862" y="1262.0677" width="22.09181" height="221.38844"/><rect class="cls-7" x="1677.73513" y="1301.98172" width="22.09105" height="181.47442"/><rect class="cls-7" x="1720.3829" y="1270.08643" width="22.09145" height="213.36971"/><rect class="cls-7" x="1763.03148" y="1338.09143" width="22.09105" height="145.36471"/><rect class="cls-7" x="1805.67965" y="1310.43047" width="22.09105" height="173.02567"/><path class="cls-7" d="M1836.78812,1500.63938c0,.50195-104.785.908-234.01468.908-129.27313,0-234.03656-.406-234.03656-.908,0-.50115,104.76343-.90719,234.03656-.90719C1732.00314,1499.73219,1836.78812,1500.13823,1836.78812,1500.63938Z"/><path class="cls-7" d="M1410.7071,1520.05887c0,.50073-7.34.90718-16.3927.90718-9.05557,0-16.39433-.40645-16.39433-.90718,0-.50156,7.33876-.908,16.39433-.908C1403.36713,1519.15087,1410.7071,1519.55731,1410.7071,1520.05887Z"/><path class="cls-7" d="M1465.08692,1521.04774c0,.50074-8.77274.90719-19.59228.90719-10.82193,0-19.593-.40645-19.593-.90719,0-.50155,8.77106-.908,19.593-.908C1456.31418,1520.13975,1465.08692,1520.54619,1465.08692,1521.04774Z"/><path class="cls-7" d="M1511.469,1521.04774c0,.50074-8.77268.90719-19.59141.90719-10.8232,0-19.59385-.40645-19.59385-.90719,0-.50155,8.77065-.908,19.59385-.908C1502.69636,1520.13975,1511.469,1520.54619,1511.469,1521.04774Z"/><path class="cls-7" d="M1557.8504,1521.04774c0,.50074-8.77228.90719-19.5906.90719-10.8232,0-19.59385-.40645-19.59385-.90719,0-.50155,8.77065-.908,19.59385-.908C1549.07812,1520.13975,1557.8504,1520.54619,1557.8504,1521.04774Z"/><path class="cls-7" d="M1604.233,1521.04774c0,.50074-8.77274.90719-19.59147.90719-10.82274,0-19.59345-.40645-19.59345-.90719,0-.50155,8.77071-.908,19.59345-.908C1595.4603,1520.13975,1604.233,1520.54619,1604.233,1521.04774Z"/><path class="cls-7" d="M1650.61516,1521.04774c0,.50074-8.77228.90719-19.59142.90719-10.8232,0-19.59345-.40645-19.59345-.90719,0-.50155,8.77025-.908,19.59345-.908C1641.84288,1520.13975,1650.61516,1520.54619,1650.61516,1521.04774Z"/><path class="cls-7" d="M1696.99692,1521.04774c0,.50074-8.77268.90719-19.591.90719-10.82239,0-19.59345-.40645-19.59345-.90719,0-.50155,8.77106-.908,19.59345-.908C1688.22424,1520.13975,1696.99692,1520.54619,1696.99692,1521.04774Z"/><path class="cls-7" d="M1743.3795,1521.04774c0,.50074-8.77228.90719-19.59141.90719-10.82279,0-19.59386-.40645-19.59386-.90719,0-.50155,8.77107-.908,19.59386-.908C1734.60722,1520.13975,1743.3795,1520.54619,1743.3795,1521.04774Z"/><path class="cls-7" d="M1789.76208,1521.04774c0,.50074-8.77268.90719-19.59222.90719-10.822,0-19.593-.40645-19.593-.90719,0-.50155,8.77107-.908,19.593-.908C1780.9894,1520.13975,1789.76208,1520.54619,1789.76208,1521.04774Z"/><path class="cls-7" d="M1836.14426,1521.04774c0,.50074-8.77269.90719-19.59183.90719-10.82279,0-19.59344-.40645-19.59344-.90719,0-.50155,8.77065-.908,19.59344-.908C1827.37157,1520.13975,1836.14426,1520.54619,1836.14426,1521.04774Z"/><rect class="cls-7" x="1280.65887" y="1143.78029" width="647.82906" height="18.26966"/><polygon class="cls-8" points="209.547 2462.16 209.547 2668.633 511.485 2668.633 844.51 2668.633 844.51 2462.16 209.547 2462.16"/><polygon class="cls-9" points="524.808 2668.633 844.51 2668.633 844.51 2462.16 866.712 2462.16 866.712 2404.435 511.485 2404.435 511.485 2456.819 524.808 2668.633"/><rect class="cls-10" x="298.35225" y="2495.45636" width="128.76795" height="31.07974"/><rect class="cls-7" x="281.77991" y="2565.39176" width="165.34621" height="65.63062"/><path class="cls-11" d="M1331.70217,1675.035s64.94825,532.83974,63.66262,550.13913c-1.28066,17.2994-18.54131,100.625-18.54131,100.625s31.35888-52.56883,39.04783-96.1422,28.20044-338.33477,28.20044-338.33477l-34.59879-18.58007,32.03747-1.92149-52.88378-165.53354s-6.05857-12.293-14.39331-17.09572c-8.32979-4.81267-38.68421-20.03559-39.16408-20.26907-.47983-.24242-8.09233-1.06705-11.87074,1.43665C1323.19852,1669.359,1329.4856,1673.64708,1331.70217,1675.035Z"/><path class="cls-12" d="M3233.71617,1066.17058l36.81824,20.192s38.021-18.46,78.78475-4.69574c0,0,87.54114-22.56816,130.54007-.78985,42.99785,21.77917,22.92085-42.98181,14.99175-46.53108-7.93478-3.54028-92.12-17.417-129.8163-14.01378-37.6906,3.39418-94.20491,6.49689-94.20491,6.49689Z"/><path class="cls-13" d="M2934.62484,2008.24973c-.18447,95.59961-65.52755,506.92888-65.73155,618.86007-.03726,18.57412.61762,44.77466,1.73262,75.57681L1831.53748,2615.531c-3.01948-124.04868-63.42352-516.46177-63.24349-609.513.18374-95.59091,2.25453-415.77391,14.04087-440.44512,11.7798-24.663,21.47548-64.07886,36.1586-68.98939,14.67643-4.9004,362.00986-99.94014,362.00986-99.94014l172.05866,33.72262,176.28109-33.06493s323.29256,99.36557,337.9544,104.33087c14.66175,4.96626,32.54184,70.521,44.22642,95.23133"/><path class="cls-14" d="M2528.84307,1397.301s9.27329-1.17545,43.31293,6.03807c-2.20844,7.2827-14.62091,14.92528-21.4832,20.79541-146.39488,125.04646-241.86825,132.85342-390.55006,4.39636-7.01231-6.06146-18.13589-20.17-20.46324-27.55675,33.96142-6.36253,41.12545-7.68851,41.12545-7.68851l172.2489,31.45464Z"/><path class="cls-15" d="M2537.70881,1401.90288s-52.09375,170.4311-57.84516,205.52506c-5.74239,35.09472-79.67906,387.01477-80.11485,447.5115-.20327,27.5256,27.27577,309.66812,57.5167,612.80711l442.31319,37.09992c-4.74172-73.66112-8.79756-137.17777-10.82915-173.01995-7.29014-128.86477,2.85956-394.57872,20.49733-557.72826,17.63876-163.14946.24027-411.6554-2.3237-435.32518-2.57382-23.66087-43.48182-56.394-56.46674-62.92134Z"/><path class="cls-16" d="M2460.79512,1688.63749c-24.06505,115.98624-68.07671,327.96773-68.15756,373.71089,0,0,251.21876-231.31893,249.79826-256.319-1.41976-25.00882-79.60877-217.23537-79.60877-217.23537S2518.7081,1631.68838,2460.79512,1688.63749Z"/><path class="cls-17" d="M2527.38644,1396.98867s10.95079-8.2562,14.6208-8.25309c3.66816.01366,64.34782,26.38019,64.34782,26.38019s79.09,150.87862,79.05748,169.29153c-.043,18.42177-240.72074,183.79758-240.72074,183.79758l34.10071-166.81652s46.46189-161.977,60.00218-201.779Z"/><path class="cls-18" d="M2028.136,1084.1316c-1.743.43955-3.44593.93443-5.12871,1.49676l-.04715.01957-.00023-.0097a71.72749,71.72749,0,1,0,61.11407,7.46635c4.24087,20.82275,3.89621,47.23318-22.64417,52.93832l-3.95956-41.15782C2055.86848,1088.22539,2039.4845,1082.36285,2028.136,1084.1316Z"/><path class="cls-18" d="M2542.26212,1024.813c1.79132.0377,3.56642.12723,5.32282.28416l.0575.01318-.00023-.0097a71.72906,71.72906,0,1,1-57.81364,21.184c.61281,21.24237,6.96888,46.88119,34.10759,46.39327l-5.51958-40.97785C2516.1818,1035.10693,2530.80642,1025.66922,2542.26212,1024.813Z"/><path class="cls-19" d="M2502.21561,1373.10192l.01485.07975c-108.83333,108.78564-230.51664,75.076-308.27607,13.101,67.83137,24.27575,295.46714-81.672,295.46714-81.672l2.1201,11.34875c.1122-59.65709.32448-171.61134.32448-171.61134l4.28945-86.72694s-69.34,11.03013-140.878,26.61126c-71.49531-15.856-140.77865-27.15194-140.77865-27.15194l3.94346,86.74179s-.32956,177.68273-.38625,204.65992c-.02854,13.04233-13.61233,31.8296-37.553,48.16095,124.01765,121.11527,223.85767,121.3041,348.339.66734C2517.47577,1389.49035,2508.54267,1381.13077,2502.21561,1373.10192Z"/><path class="cls-20" d="M2193.95439,1386.28265c77.75943,61.975,199.44274,95.68466,308.27607-13.101l-.01485-.07975c-6.962-8.83458-10.75022-17.26688-10.73575-24.094.01016-5.55925.03284-17.57143.06177-33.04857l-2.1201-11.34875S2261.78576,1410.5584,2193.95439,1386.28265Z"/><path class="cls-21" d="M2244.68436,706.30648l-.02869.00452c-132.65958,15.3083-228.7127,136.40055-213.39979,269.09266l25.31013,219.44568c15.31283,132.68828,136.42381,228.72175,269.0835,213.41825l.02762-.0093c132.66936-15.30373,228.7224-136.396,213.40945-269.09289l-25.30913-219.44091C2498.46369,787.0372,2377.35353,690.99795,2244.68436,706.30648Z"/><path class="cls-22" d="M3249.93883,2335.94314c11.37809,45.76406,24.71025,97.92236,38.59794,151.48042-35.26261-.48429-63.53507.219-73.81339,3.10849-36.337,10.22816-41.56322,25.52756-41.56322,25.52756-1.50844-5.52841-7.90745-21.77-16.80282-43.09715-16.00957-38.35837-40.14831-93.15962-58.6278-131.69114-17.70978-36.942-30.312-60.31188-38.26036-78.56628,12.37389,13.26472,32.20317,33.41043,42.41492,37.65609C3114.22784,2305.50123,3211.01615,2327.27894,3249.93883,2335.94314Z"/><path class="cls-23" d="M293.97735,1818.06669l-44.39143,17.913s7.92716,66.28956,19.9767,88.18989l108.52862-28.14068-105.68662,40.83347,10.40853,36.83018L316.841,1964.485l-32.8269,12.41017s16.81378,62.85151,36.83018,93.67678l45.26689-11.60952,94.04726-54.44462-15.17187-103.685-28.86421-57.64724L324.047,1783.93705Z"/><path class="cls-23" d="M370.08467,2048.95424l-44.83674,30.42493s8.67562,91.93192,100.082,173.74239,121.69974-118.49711,121.69974-118.49711Z"/><path class="cls-18" d="M2044.86218,860.98211c27.7144,21.48791,54.14459,30.66157,87.69923,40.85491,86.68449,26.33333,184.78363,27.52421,264.02356-16.39252,28.79353-15.9581,55.0404-38.23585,70.11516-67.50153,2.26094-4.38932,4.75407-4.25328,4.30744-9.17044s-17.58514-28.09308-22.52162-28.18889c-56.64789,25.38744-106.26329,48.95725-168.324,50.36233s-123.97669-5.778-185.51142-13.96223c-6.80993-.90573-13.714-1.82462-20.52532-.92977-15.40984,2.02449-7.87237,13.55144-19.46,23.90947"/><path class="cls-24" d="M1852.93194,707.40676q-13.35508,19.11957-27.09408,36.63784S1843.32407,720.72978,1852.93194,707.40676Z"/><polygon class="cls-10" points="182.905 2404.435 182.905 2462.16 866.712 2462.16 866.712 2404.435 511.485 2404.435 182.905 2404.435"/><polygon class="cls-8" points="291.747 2198.381 291.747 2404.855 593.685 2404.855 926.71 2404.855 926.71 2198.381 291.747 2198.381"/><polygon class="cls-9" points="607.009 2404.855 926.71 2404.855 926.71 2198.381 948.913 2198.381 948.913 2140.656 593.685 2140.656 593.685 2193.041 607.009 2404.855"/><rect class="cls-10" x="380.55295" y="2231.67794" width="128.76795" height="31.07974"/><rect class="cls-7" x="363.98061" y="2301.61334" width="165.34621" height="65.63062"/><polygon class="cls-10" points="265.105 2140.656 265.105 2198.381 948.913 2198.381 948.913 2140.656 593.685 2140.656 265.105 2140.656"/><path class="cls-23" d="M1608.69975,1593.50872c-3.07439,20.88118-6.34113,41.5704-9.47964,62.19511q-47.27117,306.77936-75.13384,615.99272c-.96055,10.76077-2.11345,22.09819-8.07029,31.12981-6.02095,9.03123-16.07723,14.47553-25.68511,19.4077a1748.2981,1748.2981,0,0,1-294.3854,119.39394c-62.45118,18.95968-126.69562,34.46027-191.96513,34.90869-59.24855.3843-117.79263-11.59349-175.43987-25.04475-93.13257-21.71389-186.20064-47.65507-270.62178-92.55593-84.48526-44.90047-160.38769-110.36232-203.62313-195.68029-16.01312-31.57783-24.14752-75.45363-3.9071-100.94679-11.14508,4.612-25.813,2.36991-35.22888-5.8286-13.83516-12.106-17.8705-32.09036-17.03779-50.40928,2.04973-45.86181,31.4496-89.41742,73.212-108.44083q-50.63369,14.12329-101.13875,28.247c-7.43031-19.92023-14.92434-40.60906-13.067-61.74669,1.40936-16.33331,10.1204-32.92269,23.63539-41.1216a89.664,89.664,0,0,1-33.49933,3.33086,388.34881,388.34881,0,0,1-10.82489-93.32453c208.42667-9.3518,409.23147-125.99114,520.68257-302.45607,57.96743-91.91517,91.91557-196.57673,138.60969-294.70519S1006.414,941.77461,1102.74918,891.49356l.06411.19234c-57.39117,44.96459-76.671,123.493-97.8724,194.079-41.1857,137.32856-94.73349,193.88663-177.68155,310.84654,29.52811-25.30081,156.4802-48.55151,212.7822-163.14151,19.53632-39.77674,37.59917-82.692,72.828-109.46588,15.24413-11.59349,32.79484-19.47182,50.28105-27.22231,53.61191-23.89145,96.14285-22.99463,149.75476-46.88647l28.82362,13.70733c18.76733,140.33923,70.52186,226.36168,158.01739,337.62083,29.59222,37.727,62.96371,73.14783,84.6776,115.87074A251.08557,251.08557,0,0,1,1608.69975,1593.50872Z"/><path class="cls-25" d="M1038.8285,1575.43832c91.6107,28.73894,216.85548,63.09531,324.83861,116.18773,7.46143,3.67707-7.7426,32.416-.81966,36.258,10.55132,5.841,28.10307,19.45338,47.38159,38.51828,50.44366,49.88033,153.07661,440.23053,143.91226,479.11841-14.743,62.56079-144.407,234.43108-144.407,234.43108-25.75437,49.73428-57.68056,122.17377-89.0295,200.45324H676.66882c44.86-145.81886,61.55732-244.59989,62.74658-333.62939h.005c34.38518-302.659-128.33963-368.50042-128.33963-368.50042l168.537-396.60748c65.56921-23.21787,196.32908-14.48571,196.32908-14.48571C1010.50685,1567.15325,1007.873,1565.72654,1038.8285,1575.43832Z"/><path class="cls-26" d="M1197.87129,1209.83008l-32.24115,96.86947s-48.76955,228.5901-60.05311,258.2411c-3.92048,10.28506-16.81455,13.4286-36.64646,12.95269,28.53526,40.867,83.95056,103.20524,164.0641,118.3894,51.156,9.69291,86.9242.146,111.20913-14.17473-17.10069-9.03321-33.46319-19.76436-33.39066-28.574.69845-78.01719,14.09724-215.3175,56.381-240.70823C1415.614,1383.74705,1197.87129,1209.83008,1197.87129,1209.83008Z"/><path class="cls-14" d="M1084.98308,1577.23364c-11.48226,1.52308-27.1473.43616-46.15458-1.79532,19.70574,28.40909,51.51568,60.32038,102.53559,92.649,126.32177,80.036,187.14586,36.42292,206.38165,15.85381-11.81807-6.0536-23.80505-13.04013-30.79058-19.76336h0c-117.88567,57.60306-231.96214-86.94408-231.96214-86.94408Z"/><path class="cls-27" d="M1358.54942,1689.15216s50.37511,506.95322,44.25793,549.77052c-6.12211,42.82724-86.20191,253.77816-156.40392,441.48238h120.70329c23.84877-45.942,42.0652-81.81148,45.37863-90.45621,2.149-5.58863,10.4927-21.80209,21.96106-43.04085,20.6327-38.19837,51.44315-92.639,74.661-130.75988,74.00033-121.49419,73.80659-93.12385,48.19237-235.44051-22.54431-125.24875-91.723-357.0122-101.98324-389.23347C1439.7251,1742.49594,1371.6184,1685.5814,1358.54942,1689.15216Z"/><path class="cls-26" d="M1001.45477,1212.15892q-2.72129.13114-5.39985.456l-.05266.00994h.004a72.88982,72.88982,0,1,0,59.37949,19.71467c.03378,21.58848-5.6075,47.83365-33.19692,48.18238l4.32684-41.79793C1028.26725,1221.80314,1013.11686,1212.66363,1001.45477,1212.15892Z"/><path class="cls-28" d="M1315.296,873.33831h0c-136.5631-14.141-259.84664,86.00817-273.99356,222.56532l-23.37286,225.64129c-14.141,136.55218,86.00717,259.84168,222.56928,273.98761h0c136.55317,14.137,259.84764-86.0032,273.99356-222.56532l23.3679-225.6403C1552.00223,1010.76977,1451.84814,887.48026,1315.296,873.33831Z"/><path class="cls-26" d="M1040.23388,1112.18653l-22.30434,209.35839c-11.837,114.32386,56.43963,219.32342,159.10636,258.79351-145.27535-60.18426-70.79916-312.69168-70.79916-312.69168,29.41756-5.01536,75.81949-59.84447,102.78795-91.75576,26.96746-31.90136,47.85252-64.10474,94.39557-63.16287,46.547.94087,144.91077,25.38179,144.91077,25.38179,20.56911,48.61854,58.38994,83.99427,79.98741,101.32248l9.53687-92.09554a247.62082,247.62082,0,0,0-4.72922-80.13341c-6.02081-3.531-24.11225-32.20611-30.64672-35.88318C1302.56959,918.92186,1147.8345,1011.66483,1040.23388,1112.18653Z"/><path class="cls-23" d="M1668.781,1458.93476a894.95,894.95,0,0,1-69.1125,249.99668,249.31152,249.31152,0,0,0,11.78544-66.74259,14.41912,14.41912,0,0,0,0-1.66543,256.80671,256.80671,0,0,0-2.75421-47.0147,251.08557,251.08557,0,0,0-24.27575-76.41457c-21.71389-42.72291-55.08538-78.14373-84.6776-115.87074-87.49553-111.25915-139.25006-197.2816-158.01739-337.62083l-28.82362-13.70733c-53.61191,23.89184-96.14285,22.995-149.75476,46.88647-17.48621,7.75049-35.03692,15.62882-50.28105,27.22231-35.22887,26.77389-53.29172,69.68914-72.828,109.46588-56.302,114.59-183.25409,137.8407-212.7822,163.14151,82.94806-116.95991,136.49585-173.518,177.68155-310.84654,21.20136-70.586,40.48123-149.11439,97.8724-194.079,2.17757-1.66542,4.35552-3.33085,6.66132-4.93216,26.26137-18.51127,57.71136-28.24737,89.03312-35.3571,81.02617-18.383,166.9849-21.13725,246.47387,2.94655s151.99644,76.92711,190.236,150.71531c18.383,35.42122,28.50344,74.5572,35.86924,113.82141C1692.09622,1230.97177,1691.00705,1347.099,1668.781,1458.93476Z"/><polyline class="cls-29" points="2565.052 2462.16 2515.216 2668.633 2187.833 2650.658 2076.393 2477.538 2320.723 2424.783 2565.052 2462.16"/><path class="cls-15" d="M2155.70751,1403.33907s49.63214,170.04684,54.87513,205.10209c5.23469,35.04579,74.0707,386.41941,73.64306,446.92656-.1953,26.89833-30.36376,297.27583-64.06927,592.75945l-434.36034,2.531c2.39836-30.92608,1.17238-96.13836,2.492-114.68085,9.16124-128.92086,2.85423-394.5704-12.42963-557.59961-15.27834-163.02971,5.71977-411.6816,8.63539-435.36686,2.9111-23.68564,44.29849-56.732,57.38183-63.35385Z"/><path class="cls-16" d="M2226.614,1682.16524c23.61556,116.07772,66.81024,328.22505,66.7294,373.96724,0,0-250.335-232.27873-248.81738-257.27871,1.50711-25.00184,80.43856-216.92185,80.43856-216.92185S2168.90914,1624.98717,2226.614,1682.16524Z"/><path class="cls-29" d="M2260.70216,1851.19217l-99.79235-431.20389s145.47243,379.42838,136.35565,438.40979"/><path class="cls-17" d="M2163.4971,1400.46527s-10.91042-8.31215-14.57076-8.31445c-3.6788-.01455-64.45489,26.12889-64.45489,26.12889s-79.67458,150.56853-79.69919,168.99184c-.0429,18.4208,240.00592,184.71124,240.00592,184.71124l-33.45725-166.94943s-42.22312-161.83854-55.61342-201.69429Z"/><path class="cls-29" d="M1384.98389,2301.61334l-107.09133,349.0448H866.712l254.7616-387.90045s122.37058,92.54113,268.76882,24.10495"/><path class="cls-27" d="M1019.86,1564.64955s92.42643,447.76945,105.09791,577.92725c12.67053,130.14985-28.04545,223.31246-73.83639,321.11386-15.43649,32.95848-64.93335,117.08887-125.89455,216.7144H640.63934l30.44086-703.37173-81.61179-18.90992c4.84646-35.336,8.81463-64.59852,11.526-85.10008l160.68307-284.08885S822.24029,1539.80128,1019.86,1564.64955Z"/><path class="cls-27" d="M621.802,1787.63215c-52.10683,142.37329-66.27759,630.64114-23.349,892.77291h228.61c-93.50341-520.33413,102.88429-892.52056,59.73316-1024.3773C817.72372,1444.94073,656.056,1694.0612,621.802,1787.63215Z"/><path class="cls-30" d="M1019.86,1564.64955s92.42643,447.76945,105.09791,577.92725c5.19519,53.35472,1.41579,100.48892-8.00986,144.28584,17.02319-133.14734-170.34124-446.43017-170.34124-446.43017l48.696-23.07282-65.35559-29.47515s30.117-168.52307,32.0375-196.70861c1.86784-27.40959-12.65665-32.50344-13.47135-32.77467C970.02336,1559.38084,993.731,1561.36989,1019.86,1564.64955Z"/><path class="cls-31" d="M3208.31068,1572.73232c1.271-61.2111-1.07236-114.36951-2.71-142.20091-2.11189,18.87132-2.106,44.10255-2.46531,48.59764C3200.56605,1511.287,3202.62985,1541.79017,3208.31068,1572.73232Z"/><path class="cls-32" d="M3099.90582,2278.80667l-12.56264-17.47682C3091.29681,2267.33555,3095.42559,2273.21381,3099.90582,2278.80667Z"/><path class="cls-32" d="M3051.99468,2056.54444c-8.57108,35.69175-9.09378,73.43831-2.38828,109.69185C3048.54537,2134.80194,3048.25764,2092.48288,3051.99468,2056.54444Z"/><path class="cls-33" d="M3205.60065,1430.53141c.87962-7.86191,2.126-14.60611,3.92431-18.28921l-5.31413-2.38672S3204.827,1417.38352,3205.60065,1430.53141Z"/><path class="cls-33" d="M3210.26814,1410.89539a12.65134,12.65134,0,0,0-.7686,1.34486l-5.31607-2.36991A22.84141,22.84141,0,0,1,3210.26814,1410.89539Z"/><path class="cls-34" d="M3210.26814,1410.89539a12.65134,12.65134,0,0,0-.7686,1.34486l-5.31607-2.36991A22.84141,22.84141,0,0,1,3210.26814,1410.89539Z"/><path class="cls-31" d="M3209.525,1412.2422l33.99465,15.26916c-10.93044-10.57664-21.33389-18.107-30.82682-18.28139C3211.47851,1409.2675,3210.43469,1410.37935,3209.525,1412.2422Z"/><path class="cls-32" d="M3948.08882,2212.12781h34.65262c4.04433-3.08886,7.9792-6.31025,11.85894-9.59732l-46.72462,9.34438C3947.945,2211.95618,3948.01963,2212.04688,3948.08882,2212.12781Z"/><path class="cls-33" d="M3994.60038,2202.53049l27.277-5.45486,43.03488-79.297a397.56931,397.56931,0,0,1-49.376,65.01305A254.1473,254.1473,0,0,1,3994.60038,2202.53049Z"/><path class="cls-33" d="M3891.27429,1979.29715c74.522-66.35516,30.29983-199.97326,9.25016-251.55381-2.01571-2.59744-4.0068-5.10965-6.0663-7.85878l-540.60632-242.817c-2.27726,3.58106-4.49392,7.25673-6.57531,11.13882-32.348,31.96213-70.49957-28.51438-103.75691-60.69505L3209.525,1412.2422c-1.79835,3.6831-3.04469,10.4273-3.92431,18.28921,1.63767,27.8314,3.981,80.98981,2.71,142.20091,1.58958,8.6571,3.41373,17.34234,5.55807,26.11515,9.792,40.06057,22.49891,79.559,27.9612,120.43542,3.68935,27.61248,4.0283,55.57328,3.1905,83.41837-.23339,7.75362-.46679,15.9232,3.17682,22.771,3.57872,6.72583,10.57508,9.20755,17.62109,9.5074-3.32773,18.36271-29.44875,35.38486-42.60406,46.863-13.00871,11.35031-37.571,27.56556-40.42454,46.21248l-82.88394,350.75151,359.142,30.82683,488.82795-97.75863C3904.828,2161.32993,3819.1394,2043.50251,3891.27429,1979.29715Z"/><path class="cls-35" d="M4074.43952,1911.0897a.48215.48215,0,0,0-.06261-.18743,2.89214,2.89214,0,0,1-.18743-.563c-2.56448-7.25484-23.07842-66.29555-38.77681-96.94184-.56305-1.06312-1.12573-2.064-1.62618-3.06455-1.12573-2.064-2.25146-4.06545-3.43979-6.12948-5.3164-9.25626-10.94505-18.44992-16.82412-27.45614-24.01672-36.838-73.8008-71.36191-88.62387-112.70282-11.44512-31.83462-10.06935-65.60767-2.75191-99.94378,11.75813-55.10047,38.96462-111.57709,53.84991-163.80044,31.95944-112.07755,25.4551-225.40565,2.37667-339.67166-23.07843-114.2038-92.81416-223.40422-198.88742-271.68732-48.03307-21.8901-100.8817-32.83514-153.66811-34.21129-303.95978-7.94271-267.74707,13.697-311.33982,104.00924l-8.69359-.8757c-105.00976,89.31176-178.24788,213.4597-214.52282,346.489-17.19935,62.981-26.26818,127.90075-28.33183,193.13318-.81309,26.64343-.50045,53.34908.93792,79.92991a1004.98339,1004.98339,0,0,0,17.01192,136.84437c18.19988,93.37721,48.971,188.69286,28.89489,281.69445-6.50472,30.02062-18.075,58.54026-29.708,87.05991-10.75761,26.45562-21.51484,52.91162-28.1444,80.61817-3.62761,35.0866-3.37757,76.42751-2.31406,107.13639,6.1291,33.21038,18.57512,65.10722,36.8376,92.81378l12.25859,17.07453a205.13738,205.13738,0,0,0,53.28686,47.28258l89.49919,29.395s207.08017-33.46042,213.39708-34.08569c6.37952-.62566,307.3992-107.69945,307.3992-107.69945h164.61353c-.0626-.06261-.12482-.18743-.18743-.25l45.5938-9.13143a237.38294,237.38294,0,0,0,20.45172-19.26339,389.36344,389.36344,0,0,0,48.2205-63.481l17.76241-32.77254a.19386.19386,0,0,0,.06261-.1252c.0626-.12521.18743-.43785.43785-1.00053.12482-.25041.25-.56305.37524-.87569,4.19028-10.31977,23.82891-61.41739,24.39159-115.95519A341.64042,341.64042,0,0,0,4074.43952,1911.0897Zm-193.88367-168.366-.12521-.12521"/><path class="cls-32" d="M3969.67448,1179.92212c-.12784,25.621-2.626,51.11377-5.57253,76.60653-4.03534,34.9728-9.09535,70.20168-21.13725,103.3167-12.298,33.88363-31.70606,64.62914-51.69041,94.79762,22.03408-121.89169-76.99083-146.61586-85.4458-148.47364a1.25094,1.25094,0,0,0-.44842-.06411.22424.22424,0,0,0-.12823-.06372c-28.56755-20.561-61.42612-35.54945-94.54154-48.10349-45.73318-17.29425-93.13218-30.55316-137.39267-51.37022-115.67879-54.38051-207.594-167.81761-214.70369-295.41007-10.18452,95.43837-68.92055,177.74567-126.24761,254.73689-25.04435,33.69128-50.79358,68.53585-60.65752,109.33726-8.58321,35.86963-4.16357,73.4043.32018,109.97841l-16.58977-7.43031c-18.383-109.84979-.44841-224.8882,47.33489-325.51481,47.7833-100.5621,124.83825-186.52083,217.71436-247.88284,27.73484-18.25519,57.263-34.65261,89.41742-42.91524,38.68757-9.92806,79.68132-7.7505,118.8173.06411,95.63032,19.08752,184.0868,72.31513,245.70527,147.897C3935.9832,985.01,3970.31524,1082.434,3969.67448,1179.92212Z"/><path class="cls-36" d="M3415.51382,1583.23924c.22421.78949,7.83106,40.15653,8.125,43.036a248.289,248.289,0,0,1,.56233,44.96683c-.9459,11.83378-.95962,31.28209-7.77818,41.33793a36.73466,36.73466,0,0,1-9.04529,8.74379c-21.38941,15.58757-46.36755,27.83588-69.12377,41.39588l165.95077,137.57942,152.57352-74.72791,86.47087-81.66693-82.2007-54.97839s-38.4315-14.94558-35.22887-130.24007C3629.02179,1443.40351,3397.36561,1519.33515,3415.51382,1583.23924Z"/><path class="cls-37" d="M3873.25165,1369.86224a46.98377,46.98377,0,1,1-79.24-29.08047c-.02178,13.918,3.61512,30.83807,21.40186,31.0629l-2.78949-26.94689c-1.12924-10.90878,8.63812-16.801,16.1566-17.12635q1.7544.08456,3.48126.294l.03394.00641h-.00256a46.99572,46.99572,0,0,1,40.95837,41.7904"/><polygon class="cls-25" points="3399.933 1771.101 3516.304 1817.565 3591.124 1801.551 3704.355 1743.904 3820.112 1869.34 3850.537 2584.856 3818.511 2680.405 3304.439 2657.475 3205.208 2514.135 3205.208 2231.263 3338.254 1820.767 3399.933 1771.101"/><path class="cls-14" d="M3400.36681,1769.631s141.17659,80.18676,270.31928-13.45007v29.91622s-136.01047,81.5533-270.31928,10.21713Z"/><path class="cls-31" d="M3347.28707,1488.22791c145.08961-143.05044,407.70483-32.07824,407.70483-32.07824S3443.52336,1308.63659,3347.28707,1488.22791Z"/><path class="cls-20" d="M3626.38554,1556.43763s-143.70783,39.55329-211.5392,15.27773c2.2628,34.47962,96.91732,89.51644,211.53939,20.81541Z"/><path class="cls-36" d="M3832.92257,1295.53679c0,158.8281-169.182,302.648-313.13828,302.648s-298.02978-128.82706-293.26181-287.58373c5.49-182.79346,139.45178-430.60533,276.62162-400.98057C3643.8559,940.01027,3832.92257,1136.7087,3832.92257,1295.53679Z"/><path class="cls-27" d="M3545.77513,2662.545l-510.3061-10.69665c-59.76108-311.74377,170.18752-820.57639,170.18752-820.57639,12.16974-9.22358,41.18571-21.71389,41.18571-21.71389l40.353,111.77168,54.12443-14.09163,29.65634,100.37015-34.2042,25.74922,167.43331,378.294Z"/><path class="cls-37" d="M3341.52594,994.641c0,5.77465-1.78115,11.79167-1.83579,17.70052-.48086,52.00363,29.06026,102.13784,62.57983,139.87777,27.519,30.98384,60.45738,56.68275,94.43462,80.407,38.66264,26.99575,79.18423,51.77148,122.62473,70.33931,22.00151,9.40413,170.15349,64.90761,182.77457,67.83226,12.27657,2.84481,18.30178,4.47028,25.303-10.5472l5.51564-11.87056-79.42509-137.71286-358.47616-227.1543-47.83016-53.60913Z"/><path class="cls-32" d="M3947.97713,1207.66744c-.12482,25.01725-2.5641,49.90928-5.44122,74.80132-3.94024,34.14868-8.881,68.5474-20.63915,100.88208-12.00817,33.08518-30.95892,63.10618-50.47234,92.56374-2.18886,3.37757-4.44032,6.75477-6.69216,10.132,7.88049-47.09477-13.75918-95.62829-47.22-129.71437a231.89737,231.89737,0,0,0-29.958-25.45509.21894.21894,0,0,0-.1252-.06223c-27.89437-20.07648-59.97864-34.71173-92.31371-46.96994-44.65549-16.88672-90.93755-29.83319-134.15506-50.1597-112.95286-53.09905-202.70208-163.86305-209.64427-288.44883-9.94453,93.1894-67.29646,173.55715-123.27263,248.7341-24.45419,32.89736-49.59664,66.92083-59.22815,106.76077-8.38094,35.02437-4.06545,71.67455.31264,107.38681l-16.19883-7.25522c-17.94985-107.26122-.43785-219.5888,46.21945-317.84417,46.65731-98.19239,121.89648-182.12553,212.584-242.04156,27.08128-17.825,55.91356-33.836,87.31033-41.904,37.77591-9.69411,77.80365-7.56785,116.01741.0626,93.37683,18.63773,179.74886,70.611,239.91531,144.41185C3915.07977,1017.34839,3948.60279,1112.47661,3947.97713,1207.66744Z"/><path class="cls-38" d="M3972.02959,1188.02524c.01423.11889-.62667.28009-1.90421.48159a35.78911,35.78911,0,0,1-5.72674.42115,55.21084,55.21084,0,0,1-21.50852-4.91468A91.20392,91.20392,0,0,1,3914.466,1163.744c-9.63793-9.69435-18.63093-22.32059-29.05282-35.49088a168.04828,168.04828,0,0,0-39.80507-36.9417c-16.34991-10.79657-35.56946-19.65871-56.71326-26.14311-42.479-13.09976-91.70641-16.10217-143.22893-15.72536-51.51446.10277-101.47331.21964-145.73564-10.01877-44.54646-9.26313-80.91589-31.58573-104.90895-55.91127a158.53078,158.53078,0,0,1-27.62013-36.99409c-6.08542-12.20509-10.03892-23.36034-11.71543-32.8149-3.54446-18.889-1.44076-29.48-1.44076-29.48.90073-.02619-.18739,10.63336,4.0865,28.88961,2.03318,9.14223,6.26677,19.86223,12.49123,31.54543a158.95435,158.95435,0,0,0,27.66446,35.35586c23.85,23.2475,59.28243,44.44369,102.83547,53.14463,43.38982,9.69032,92.72009,9.43239,144.35735,9.31955,51.591-.37681,101.79571,2.815,145.115,16.55959,21.59315,6.8068,41.30437,16.12433,58.0452,27.48512a170.46555,170.46555,0,0,1,40.44786,38.69076c10.321,13.5612,18.88293,26.1693,27.99493,35.8435a91.79876,91.79876,0,0,0,26.73956,20.49294C3960.99726,1189.7219,3972.16863,1187.16079,3972.02959,1188.02524Z"/><path class="cls-38" d="M3991.44288,1092.725c-1.22152.08628,3.35577-10.83928-3.91885-27.79979-7.17927-16.91282-28.60808-34.88142-58.64429-48.39533-30.02713-13.66831-68.41418-24.79367-111.82808-30.07935-43.3594-4.83386-92.00448-1.326-142.82923.7765-50.8906,2.34541-100.03973,2.745-144.07346-5.05863-43.90205-7.983-81.84181-23.61075-109.77783-42.63739-28.11538-18.86771-46.23837-40.24431-55.89928-56.35111-4.72033-8.17146-8.12605-14.61509-9.80394-19.2991-1.88677-4.57048-2.74955-7.00671-2.4998-7.10888.84008-.386,4.5455,9.35893,14.86723,24.74372,10.27155,15.31213,28.558,35.54213,56.3737,53.37223,27.64085,17.98449,64.9426,32.729,107.98414,40.158,43.15506,7.2542,91.71614,6.68885,142.48639,4.34117,50.82021-2.07977,99.53341-5.45143,144.04849-.11353,44.17678,5.78973,82.91348,17.62122,113.32432,32.24085,30.34727,14.41984,52.29829,33.80522,59.087,52.22337a44.30967,44.30967,0,0,1,2.96312,21.63316C3992.54633,1090.316,3991.63587,1092.77951,3991.44288,1092.725Z"/><path class="cls-38" d="M3939.44792,1397.42764c-.2296-.01117-.2886-2.88322-.314-8.33567-.01988-5.45243-.048-13.49077-.44192-23.81651-1.05219-20.4841-2.834-50.90066-15.95757-85.267-6.64121-17.02927-16.34123-34.92365-30.599-50.93845a138.51422,138.51422,0,0,0-56.03242-37.67809c-45.59506-17.33737-100.40087-14.60945-156.80866-17.02215-56.63542-2.57331-110.88055-11.61525-156.83153-30.17578-46.1701-18.03774-82.35046-46.48708-106.14969-75.22068-24.06328-28.8341-35.7657-57.639-40.78184-77.76822a135.13617,135.13617,0,0,1-4.15049-23.60531c-.44274-5.46381-.56917-8.32682-.3523-8.343.73814-.094,1.20554,11.491,6.867,31.30018,5.67266,19.66153,17.78416,47.6195,41.81922,75.54058,23.83831,27.85527,59.4038,55.25978,104.89315,72.70274,45.25539,17.942,98.76821,26.72445,154.98452,29.2791,55.9139,2.45047,111.47235-.2949,158.56268,17.88411,23.34783,8.70935,43.39352,22.88775,57.89645,39.65178,14.60326,16.75684,24.31538,35.28177,30.84492,52.80659,12.87661,35.38658,13.92718,66.165,14.24665,86.79963.01659,10.39824-.3488,18.458-.74087,23.91C3940.01578,1394.58539,3939.65383,1397.437,3939.44792,1397.42764Z"/><path class="cls-29" d="M3400.36681,1784.49314s77.66762,377.35362,110.19292,500.65467-71.74845-200.95573-71.74845-200.95573S3393.76013,1895.53977,3400.36681,1784.49314Z"/><path class="cls-30" d="M3405.37218,1719.88456l-167.67561,89.67349,23.1574,123.80981,60.17927,32.36393L3274.7863,1997.284s141.974,265.02841,229.41839,414.36747C3504.20469,2411.65148,3371.74462,1812.76067,3405.37218,1719.88456Z"/><path class="cls-29" d="M2297.26546,1858.39807c-9.11678,58.98141-36.5633-7.2059-36.5633-7.2059"/><path class="cls-39" d="M843.20584,2530.33636c-4.35009-21.29907-7.99414-42.73413-11.46264-64.1958q-5.07751-32.21227-9.21216-64.57373c-2.80615-21.56592-5.10132-43.19678-7.21387-64.84815q-3.04248-32.49023-4.92529-65.08935c-1.1438-21.73486-1.91626-43.4978-2.052-65.27783-.02271-21.77784.385-43.57788,1.98169-65.32447a489.05145,489.05145,0,0,1,8.52636-64.83325A256.32893,256.32893,0,0,1,827.481,2044.632c.95459-2.55786,1.803-5.14917,2.88818-7.65625l1.553-3.78344c.52149-1.25855,1.13208-2.48145,1.69947-3.72a123.09982,123.09982,0,0,1,7.8623-14.29761,122.56738,122.56738,0,0,0-6.9751,14.68457c-.49243,1.26147-1.04419,2.49634-1.498,3.772l-1.3545,3.82666c-.95141,2.53125-1.667,5.14771-2.48657,7.72241a266.966,266.966,0,0,0-7.23315,31.606c-1.84693,10.656-3.22144,21.39307-4.26685,32.16162-1.03247,10.76978-1.87476,21.56153-2.35889,32.37818-.499,10.81445-.79907,21.63916-.97924,32.46753q-.19557,16.24584.073,32.49755c.18531,10.8335.43921,21.66773.83472,32.49927q.61268,16.24731,1.54419,32.48438.88074,16.23962,2.02222,32.46753c.76587,10.8186,1.66064,21.62768,2.53515,32.44018,1.762,21.62476,3.92115,43.218,6.13623,64.8103q3.4314,32.376,7.36377,64.71289Q838.74138,2498.0473,843.20584,2530.33636Z"/><path class="cls-30" d="M1351.58376,1686.868s52.454,535.49782,51.22359,552.05472c-1.2257,16.55691-31.90248,103.87237-31.90248,103.87237s53.87654-83.40636,61.23548-125.10956,26.99008-323.81341,26.99008-323.81341l-33.11381-17.78261,30.66241-1.839-50.614-158.42882s-5.79853-11.76537-13.77555-16.362c-7.97226-4.60612-37.02387-19.17566-37.48315-19.39912-.45924-.232-7.745-1.02126-11.36124,1.375C1343.44509,1681.43553,1349.46232,1685.53957,1351.58376,1686.868Z"/><path class="cls-15" d="M2895.08328,1519.33515c71.68151,89.84792,93.48479,208.48407,111.80144,321.95383,42.67937,264.39437,79.09515,531.26911,72.21079,798.99754-.184,7.15447-.52849,14.73407-4.50388,20.68525-5.143,7.699-14.89416,10.61566-23.893,12.794a652.95888,652.95888,0,0,1-223.75562,14.45708c-65.10219-385.253-8.094-779.90342,60.55779-1164.53968"/><path class="cls-40" d="M2787.83023,1638.128a3.30062,3.30062,0,0,0-.39465,1.07775l-.27258,1.13514-.48865,2.28479-.89758,4.58789-1.75672,9.18286-3.46289,18.37488c-2.34912,12.24035-4.66528,24.48742-7.08447,36.71191-2.33838,12.24194-4.87329,24.44153-7.28284,36.668l-7.50525,36.62073-7.73,36.57373c-2.67675,12.1709-5.21423,24.36987-7.9602,36.527l-4.04907,18.24975-4.11243,18.23779-4.1637,18.22889-2.05713,9.12036-1.01025,4.56445-.46484,2.2898-.20374,1.14941a3.305,3.305,0,0,0-.06885,1.14575,3.309,3.309,0,0,1-.05139-1.15845l.08435-1.16967.22656-2.33252.53467-4.65479,1.26465-9.27771c.87671-6.17969,1.863-12.33911,2.82214-18.5039l3.08179-18.45484c1.03906-6.14941,2.17273-12.28015,3.26673-18.4187,2.16345-12.28223,4.59094-24.51135,6.91918-36.76038,2.41358-12.23169,4.9137-24.44555,7.40455-36.66125,2.60278-12.19226,5.1726-24.3916,7.85559-36.56714,2.75048-12.16113,5.41528-24.3407,8.33215-36.46606q4.25739-18.21333,8.89856-36.34241c1.58069-6.03528,3.13257-12.077,4.79614-18.09277l2.54236-9.01172,1.36646-4.48145.72277-2.22937.38916-1.10608A3.30721,3.30721,0,0,1,2787.83023,1638.128Z"/><path class="cls-41" d="M2024.53237,748.82948a206.32984,206.32984,0,0,0-46.036,98.51659c-7.03435,41.25493-1.31986,83.49431,4.40133,124.95174l14.12865,102.38023c.72689,5.26728,1.07317,10.58029,2.015,15.82224.56976,3.17651.3741,8.838,5.52607,6.54,1.85484-.82731,3.15015-2.5146,4.65152-3.88837,4.77361-4.36593,11.43394-5.63663,17.67607-6.11837,3.84079-.29642,16.50247,1.75093,17.75253-3.01554.65864-2.51184-.5668-6.06364-.9128-8.59908L2042.3,1064.90548c-1.7088-12.522-4.15478-25.08943-4.9752-37.70367-.94465-14.5244-.378-29.08752-.30449-43.62757.1248-24.6701,2.45435-50.06148,9.602-73.98882,3.55418-11.898,8.01767-24.92251,14.91151-35.35463,3.72223-5.63266,17.13-17.59435,14.52667-25.31566-1.00588-2.98339-14.2003-10.87361-16.2061-13.30038-23.65143-28.61537-36.30559-50.856-30.1618-87.46859"/><path class="cls-41" d="M2418.09421,826.54022a251.37661,251.37661,0,0,1,37.80438,62.623c19.30391,46.27236,23.55974,96.546,33.49554,145.30455.34164,1.67657.76327,3.47339,2.1704,4.60574,1.95448,1.57281,4.99024,1.2712,7.62883.876l21.26381-3.18491c9.54294-1.42935,20.68728-3.93893,24.44645-11.93993,1.61585-3.43916,1.47149-7.27011,1.3-10.95884-2.21533-47.65812-4.44072-95.4153-12.10113-142.50157-7.07619-43.49519-19.237-87.23656-46.24741-123.581-1.86367-2.50771-3.98864-5.11222-7.17546-6.12878-4.67179-1.49024-9.78951.91308-14.06012,3.33121a283.07962,283.07962,0,0,0-32.5538,21.50276c-12.81437,9.8071-25.22747,21.58-28.49476,36.24014s-4.07537,22.7276,12.52325,23.81167"/><path class="cls-41" d="M2065.59627,850.49729c-30.15994,1.63228-19.0989-12.18671-33.56131-38.70322s-12.25462-61.25892,5.448-85.73143c9.38088-12.96835,22.37658-22.82391,35.51773-31.96116,54.03238-37.56958,116.00453-68.37937,152.5007-123.14252,1.98832,21.56074,3.14506,45.83863-11.21387,62.0448,18.74146-4.1711,37.65685-8.40043,55.047-16.53811s33.37274-20.62291,42.18875-37.67925c-3.46027,23.09311-8.11156,48.37275-26.16781,63.17942,20.65364.43778,41.47487.863,61.79717-2.8476s40.36614-11.89768,54.96541-26.51361a90.64617,90.64617,0,0,1-40.34687,47.15509,156.56879,156.56879,0,0,0,94.30495,9.8571,101.63831,101.63831,0,0,1-34.8659,36.75861,147.99094,147.99094,0,0,0,76.044,9.39447c-11.02415,14.12557-14.59474,32.513-22.09843,48.78439-21.04258,45.62988-71.06824,70.736-119.88119,82.65959-65.86369,16.08857-134.58913,14.44315-202.367,12.70205-29.34149-.75373-59.03251-1.55763-87.31141-9.41862"/><path class="cls-42" d="M2402.92216,763.13587c.25061.02958.29943,3.31075-1.40317,8.95674a54.7843,54.7843,0,0,1-13.18628,20.94533c-14.65438,15.55514-41.97015,27.78563-73.19061,33.435a121.88812,121.88812,0,0,1-79.11147-13.56146,157.9126,157.9126,0,0,1-20.64179-13.20945c-4.54392-3.57739-6.93574-5.68346-6.72017-5.97712.56275-.8244,10.7445,6.98162,29.04173,15.84752a134.18088,134.18088,0,0,0,33.54943,11.25865,127.65712,127.65712,0,0,0,43.0488.42143c30.246-5.48037,57.02747-16.84677,71.39912-30.87509C2400.66386,776.4918,2401.9521,762.68715,2402.92216,763.13587Z"/><path class="cls-42" d="M2380.71376,691.18267c.2921.15058-.80329,3.11022-3.40373,8.17506a134.02715,134.02715,0,0,1-13.12429,20.23874,157.62613,157.62613,0,0,1-141.12386,60.104,134.019,134.019,0,0,1-23.68693-4.561c-5.45358-1.63565-8.34618-2.89533-8.25025-3.21139.23705-.921,12.27415,2.81638,32.24282,4.04766A165.57652,165.57652,0,0,0,2361.288,717.236C2374.2382,701.98664,2379.88359,690.715,2380.71376,691.18267Z"/><path class="cls-43" d="M1720.71757,1402.36883c.00991.18586-.33293.39705-1.01859.63159a6.79345,6.79345,0,0,1-3.08266.3012c-2.714-.37356-6.84212-2.37753-11.70026-8.97681-4.84413-6.5194-10.38979-17.4336-15.72168-33.29522-5.384-15.67973-10.47516-35.88142-16.34772-57.018-5.839-21.14837-13.11615-42.15468-22.17779-59.94019-9.02706-17.80973-19.56636-32.787-31.09935-44.18366-23.17175-23.0089-49.79524-30.72417-77.5937-33.32348-27.79928-3.0252-54.75876-5.93228-78.839-24.59935-24.21523-17.16716-44.2635-54.14848-57.67025-93.481a441.7749,441.7749,0,0,1-15.60283-59.26832,502.022,502.022,0,0,1-6.9407-51.78238c-2.26868-29.60925-1.33286-45.95821-1.33286-45.95821.4856.01493.09917,16.53328,2.74959,45.20316,1.26947,14.35047,3.75618,31.29192,7.33546,49.85512a426.1868,426.1868,0,0,0,15.5959,56.72208c13.30923,37.64635,32.83061,72.81711,56.49912,89.04811,23.59906,17.76032,50.21666,20.40907,78.082,23.42619,27.83544,2.60355,54.98992,10.674,78.62729,34.7381,11.78157,11.92607,22.59479,27.64233,31.84345,46.35411,9.26723,18.62624,16.75858,40.9032,22.55764,62.70136,5.82548,21.73857,10.68365,41.88539,15.78343,57.50125,5.02064,15.71638,10.2424,26.69679,14.81678,33.53908C1714.79562,1404.32661,1720.77632,1401.03239,1720.71757,1402.36883Z"/><path class="cls-43" d="M1729.38019,1243.44341c-.70319-.0351,3.408-12.48464,1.65338-33.42933-1.70733-20.87738-11.33049-44.61127-26.44424-64.02776-15.08711-19.59868-35.25859-37.12066-59.08752-48.2788-23.861-10.61584-51.87431-11.92791-80.92524-15.153-29.122-2.94424-56.98772-8.00146-80.81678-22.21726-23.72957-14.41383-43.02106-37.22815-56.17887-62.9499-13.28144-25.55334-20.55954-52.95924-23.78329-73.15945-1.53312-10.22781-2.563-18.25736-2.86019-24.00442-.43121-5.63585-.58018-8.62387-.42464-8.717.52909-.36348,1.26887,11.61723,4.96707,31.035,3.67991,19.326,11.21016,45.38966,24.46649,69.678,13.1359,24.45187,32.18937,46.14633,55.50917,59.80592,23.40839,13.46491,50.96444,18.25926,80.01868,21.18727,29.0452,3.25154,57.07807,4.73293,81.52281,16.077,24.19041,11.84211,44.46142,30.24135,59.63318,51.01211,15.16362,20.5265,24.885,46.00037,26.16175,68.62008a108.30825,108.30825,0,0,1-1.33554,26.0042C1730.34,1240.709,1729.4818,1243.52979,1729.38019,1243.44341Z"/><path class="cls-43" d="M1622.99511,1644.74008c-.12637-.043.28974-4.01507,1.12807-11.54541.84137-7.52967,2.08243-18.63026,3.477-32.93263,2.61548-28.40543,6.37673-70.61063,4.42671-119.63106-1.04339-24.30729-3.65836-50.17636-9.11047-73.99809-5.40434-23.81133-14.04316-44.58178-25.37574-58.74691-22.7318-29.412-53.74041-32.22964-84.83922-42.33652a164.79821,164.79821,0,0,1-82.79545-60.4983c-22.94318-30.448-38.68418-74.06953-47.472-116.5962-8.91941-42.69713-10.94592-83.86914-10.59784-112.26078.142-14.25307.71748-25.50126,1.37459-33.08655.60719-7.59617.98426-11.56385,1.10781-11.56013.42658-.0411-1.12388,16.00862-1.06181,44.03592.09139,27.82488,2.47859,67.87677,11.525,109.31006,8.94691,41.31881,24.50816,83.42406,47.16447,112.96915,22.44772,30.206,50.93523,48.75871,81.905,59.03854,30.81732,10.09968,62.24863,12.98362,85.68321,43.73717,11.66662,14.82825,20.63555,36.81005,26.10731,61.69558,5.52887,24.88766,8.052,51.62866,8.95562,76.60667,1.65269,50.39926-2.57317,93.01622-5.621,121.54139-1.61646,14.35714-3.08048,25.44009-4.15166,32.91969C1623.75636,1640.88446,1623.10855,1644.77769,1622.99511,1644.74008Z"/><path class="cls-15" d="M1788.27719,1530.18125c-124.30975,268.68029-180.04189,563.32289-227.44359,855.54728-10.69289,65.92007-21.04562,132.88079-13.39648,199.223,2.75678,23.91,9.07442,49.6157,28.064,64.40358,12.19893,9.49974,27.88513,13.04092,43.06054,16.00162q50.136,9.78147,101.03856,14.86051c13.1411,1.31031,27.10909,2.23678,38.86646-3.77734,18.66358-9.54679,25.10473-32.59023,29.39878-53.10929,48.18087-230.23232,64.92365-465.84489,75.041-700.84692,2.57326-59.77048,4.71681-119.82624-1.97125-179.27707a607.97705,607.97705,0,0,0-64.70505-212.17768"/><path class="cls-40" d="M1870.38309,1630.55682a3.30412,3.30412,0,0,1,.50928,1.04163l.3894,1.10607.72266,2.22937,1.36645,4.48145,2.54224,9.01172c1.66357,6.01575,3.21558,12.05749,4.79639,18.09277q4.60473,18.13641,8.89843,36.34241c2.917,12.12537,5.58179,24.30493,8.33228,36.46606,2.68286,12.17554,5.25268,24.37488,7.85547,36.56714,2.491,12.2157,4.991,24.42957,7.40454,36.66126,2.32812,12.249,4.75586,24.478,6.91919,36.76037,1.094,6.13855,2.22778,12.26929,3.2666,18.4187l3.082,18.45484c.959,6.16479,1.94531,12.32422,2.822,18.5039l1.26465,9.27784.53467,4.65454.22656,2.33276.08447,1.16943a3.31185,3.31185,0,0,1-.05151,1.15845,3.30344,3.30344,0,0,0-.06885-1.14551l-.20386-1.14965-.46484-2.28955-1.01-4.5647-2.05713-9.12024-4.16382-18.22888-4.11254-18.2378-4.04883-18.24987c-2.7461-12.157-5.28369-24.356-7.96021-36.52686l-7.73-36.57373-7.50537-36.62073c-2.40942-12.22644-4.94458-24.426-7.28271-36.668-2.41919-12.22448-4.73536-24.47155-7.08448-36.71191l-3.46289-18.37488-1.75683-9.18286-.89746-4.58789-.48877-2.28479-.27246-1.13513A3.3011,3.3011,0,0,0,1870.38309,1630.55682Z"/><path class="cls-7" d="M1813.79909,1818.95051a76.10789,76.10789,0,0,0-2.91215,20.63214v24.10218l2.69517-42.64589C1813.62668,1820.336,1813.72989,1819.64757,1813.79909,1818.95051Z"/><path class="cls-7" d="M2991.0807,1839.59868v569.939a77.28412,77.28412,0,0,1-76.863,76.863H1887.77651a77.08891,77.08891,0,0,1-76.863-76.863V1863.68248l2.6901-42.65918c0-.70448.12823-1.34524.19234-2.04972a77.23786,77.23786,0,0,1,73.98055-56.23789h1026.4412A77.08891,77.08891,0,0,1,2991.0807,1839.59868Z"/><path class="cls-44" d="M2495.48248,2634.23389h-157.7417c-15.16514,0-28.31-66.10106-29.21767-146.90637v-.029c-.91042-80.77635,10.75382-146.84845,25.91355-146.84845h157.74657c15.16245,0,28.30725,66.0721,29.215,146.84845v.029C2522.30588,2568.13283,2510.64436,2634.23389,2495.48248,2634.23389Z"/><path class="cls-45" d="M2480.95294,2634.23389H2335.46686c-13.9869,0-26.11044-66.10106-26.94762-146.90637v-.029c-.83969-80.77635,9.91831-146.84845,23.90022-146.84845H2477.91c13.98442,0,26.10794,66.0721,26.94512,146.84845v.029C2505.69232,2568.13283,2494.93683,2634.23389,2480.95294,2634.23389Z"/><path class="cls-46" d="M3215.09381,2584.8564h291.76944a9.4682,9.4682,0,0,0,9.44045-9.44045V2093.63262a9.46829,9.46829,0,0,0-9.44054-9.44054h-301.209v491.22466A9.46742,9.46742,0,0,0,3215.09381,2584.8564Z"/><path class="cls-47" d="M3192.444,2504.29006h301.53016a10.26065,10.26065,0,0,1,10.23057,10.23057v109.4827a10.26064,10.26064,0,0,1-10.23057,10.23056H3200.591a10.25179,10.25179,0,0,1-10.22174-10.22175V2506.36478A2.08082,2.08082,0,0,1,3192.444,2504.29006Z"/><path class="cls-14" d="M3152.79007,2445.86366h273.69822c0-49.04946,52.8729-54.45747,52.8729-54.45747h-273.707S3152.79007,2396.8142,3152.79007,2445.86366Z"/><path class="cls-48" d="M3246.10971,2131.761H3430.407a8.43373,8.43373,0,0,1,8.40432,8.41314v.00794a8.43263,8.43263,0,0,1-8.40432,8.4052H3246.10971a8.42885,8.42885,0,0,1-8.41314-8.4052v-.00794A8.43565,8.43565,0,0,1,3246.10971,2131.761Z"/><path class="cls-48" d="M3246.10971,2340.505H3430.407a8.43244,8.43244,0,0,1,8.40432,8.40432v.00882a8.43431,8.43431,0,0,1-8.40432,8.41314H3246.10971a8.43622,8.43622,0,0,1-8.41314-8.41314v-.00882A8.43436,8.43436,0,0,1,3246.10971,2340.505Z"/><path class="cls-48" d="M3246.10971,2239.66808H3430.407a8.43245,8.43245,0,0,1,8.40432,8.40433v.00881a8.4343,8.4343,0,0,1-8.40432,8.41314H3246.10971a8.43621,8.43621,0,0,1-8.41314-8.41314v-.00881A8.43437,8.43437,0,0,1,3246.10971,2239.66808Z"/><path class="cls-48" d="M3246.10971,2474.065H3430.407a8.4343,8.4343,0,0,1,8.40432,8.41314h0a8.4343,8.4343,0,0,1-8.40432,8.41314H3246.10971a8.43621,8.43621,0,0,1-8.41314-8.41314h0A8.43621,8.43621,0,0,1,3246.10971,2474.065Z"/><path class="cls-49" d="M448.15243,659.41651a76.62848,76.62848,0,1,1-22.44285,54.184,76.39655,76.39655,0,0,1,22.44285-54.184Zm16.55246-75.95185a134.879,134.879,0,0,0-30.03107,12.78755,136.33664,136.33664,0,0,0-26.35395,19.86,4.687,4.687,0,0,1-5.60923.67991L367.0997,596.24022l-.19318-.12951a8.89583,8.89583,0,0,0-11.85666,3.36117l-.14642.24582-25.05419,43.387a8.9131,8.9131,0,0,0,3.23789,12.07287l.246.1403,35.31817,20.38765a4.72569,4.72569,0,0,1,2.21911,5.18865h.00588a136.45037,136.45037,0,0,0,0,65.40189,4.69307,4.69307,0,0,1-2.48257,5.33974l-35.30654,20.37566v.012a8.92083,8.92083,0,0,0-3.23789,12.07286L355.044,827.72916h.00588a8.88873,8.88873,0,0,0,12.04984,3.23166l.26933-.1403,35.35333-20.42242a4.7274,4.7274,0,0,1,5.59751.6907,136.96517,136.96517,0,0,0,26.34807,19.86,135.23948,135.23948,0,0,0,30.23013,12.84631,4.70985,4.70985,0,0,1,3.42521,4.52073v41.06789a8.85646,8.85646,0,0,0,8.81206,8.81722h50.40158a8.86629,8.86629,0,0,0,8.81123-8.81722V848.31587a4.70955,4.70955,0,0,1,3.619-4.57949,134.8934,134.8934,0,0,0,30.03108-12.78755,136.76078,136.76078,0,0,0,26.34734-19.86,4.70274,4.70274,0,0,1,5.84937-.53841l35.36481,20.41043a8.88986,8.88986,0,0,0,12.05608-3.23166l.15229-.24582,25.05468-43.411h-.006a8.8932,8.8932,0,0,0-3.22087-12.04888l-35.57586-20.53994a4.69267,4.69267,0,0,1-2.2184-5.18745h-.006a136.47039,136.47039,0,0,0,0-65.40189,4.68558,4.68558,0,0,1,2.4822-5.32895l35.318-20.38765a8.9035,8.9035,0,0,0,3.22087-12.06087l-.1403-.25782-25.05467-43.387h-.006a8.87935,8.87935,0,0,0-12.05608-3.24366l.006.012-35.60464,20.55193a4.6882,4.6882,0,0,1-5.71507-.78543,136.12573,136.12573,0,0,0-26.25381-19.75451,134.60182,134.60182,0,0,0-30.21814-12.84631,4.704,4.704,0,0,1-3.42592-4.52073V537.81728a8.84548,8.84548,0,0,0-8.81123-8.81722H477.13534a8.83573,8.83573,0,0,0-8.81206,8.81722v41.06789A4.7107,4.7107,0,0,1,464.70489,583.46466Z"/><path class="cls-49" d="M3837.06682,130.41646a76.62848,76.62848,0,1,1-22.44285,54.184,76.39655,76.39655,0,0,1,22.44285-54.184Zm16.55246-75.95186a134.87947,134.87947,0,0,0-30.03107,12.78755,136.33684,136.33684,0,0,0-26.35395,19.86,4.687,4.687,0,0,1-5.60923.67991l-35.61094-20.55193-.19318-.12951a8.89587,8.89587,0,0,0-11.85667,3.36117l-.14641.24582-25.0542,43.387a8.91312,8.91312,0,0,0,3.2379,12.07287l.24594.14029,35.31818,20.38766a4.72568,4.72568,0,0,1,2.21911,5.18864h.00588a136.45032,136.45032,0,0,0,0,65.40189,4.69306,4.69306,0,0,1-2.48257,5.33974l-35.30654,20.37566v.012a8.92086,8.92086,0,0,0-3.2379,12.07287l25.19474,43.63283h.00587a8.88874,8.88874,0,0,0,12.04985,3.23167l.26932-.1403,35.35333-20.42243a4.72743,4.72743,0,0,1,5.59752.6907,136.9646,136.9646,0,0,0,26.34807,19.86,135.23971,135.23971,0,0,0,30.23013,12.8463,4.70984,4.70984,0,0,1,3.4252,4.52073V360.3837a8.85647,8.85647,0,0,0,8.81207,8.81723h50.40158a8.86629,8.86629,0,0,0,8.81123-8.81723V319.31581a4.70953,4.70953,0,0,1,3.619-4.57948,134.89425,134.89425,0,0,0,30.03107-12.78755,136.76058,136.76058,0,0,0,26.34735-19.86,4.70275,4.70275,0,0,1,5.84936-.53841l35.36482,20.41044a8.88985,8.88985,0,0,0,12.05608-3.23167l.15229-.24582,25.05468-43.411h-.006a8.89321,8.89321,0,0,0-3.22087-12.04889l-35.57586-20.53994a4.69267,4.69267,0,0,1-2.2184-5.18745h-.006a136.47044,136.47044,0,0,0,0-65.40189,4.68557,4.68557,0,0,1,2.48221-5.32894l35.318-20.38765a8.90351,8.90351,0,0,0,3.22087-12.06088l-.1403-.25781-25.05467-43.387h-.006a8.87936,8.87936,0,0,0-12.05608-3.24365l.006.012-35.60465,20.55193a4.68816,4.68816,0,0,1-5.71506-.78543,136.12573,136.12573,0,0,0-26.25381-19.75451,134.60182,134.60182,0,0,0-30.21814-12.84631,4.704,4.704,0,0,1-3.42592-4.52073V8.81722A8.84549,8.84549,0,0,0,3916.45131,0h-50.40158a8.83576,8.83576,0,0,0-8.81207,8.81722V49.88511A4.71068,4.71068,0,0,1,3853.61928,54.4646Z"/><path class="cls-1" d="M4339.16589,551.25813a50.24628,50.24628,0,1,1-14.71606,35.52914,50.09417,50.09417,0,0,1,14.71606-35.52914Zm10.85366-49.8026a88.44166,88.44166,0,0,0-19.69176,8.385,89.398,89.398,0,0,0-17.28062,13.02247,3.07329,3.07329,0,0,1-3.678.44583l-23.35055-13.47617-.12667-.08492a5.83311,5.83311,0,0,0-7.77456,2.204l-.096.16118L4261.593,540.56227a5.84442,5.84442,0,0,0,2.12313,7.91634l.16126.092L4287.036,561.939a3.0987,3.0987,0,0,1,1.4551,3.40227h.00385a89.47246,89.47246,0,0,0,0,42.88485,3.07729,3.07729,0,0,1-1.62785,3.50133l-23.15094,13.36058v.00787a5.84948,5.84948,0,0,0-2.12313,7.91633l16.5205,28.61061h.00386a5.82845,5.82845,0,0,0,7.90123,2.119l.1766-.092,23.18163-13.39124a3.09982,3.09982,0,0,1,3.67036.4529,89.80969,89.80969,0,0,0,17.27677,13.02248,88.67813,88.67813,0,0,0,19.82228,8.42348,3.0883,3.0883,0,0,1,2.246,2.9643v26.92874a5.80731,5.80731,0,0,0,5.77819,5.78157h33.049a5.81374,5.81374,0,0,0,5.77763-5.78157V675.12184a3.0881,3.0881,0,0,1,2.373-3.00282,88.45194,88.45194,0,0,0,19.69176-8.385,89.67583,89.67583,0,0,0,17.27629-13.02248,3.08364,3.08364,0,0,1,3.8355-.353l23.18917,13.38338a5.82919,5.82919,0,0,0,7.90532-2.119l.09986-.16119,16.42867-28.46515h-.00393a5.83138,5.83138,0,0,0-2.112-7.9006l-23.32755-13.46831a3.077,3.077,0,0,1-1.45463-3.40147h-.00393a89.48545,89.48545,0,0,0,0-42.88485,3.07239,3.07239,0,0,1,1.62762-3.49426l23.15849-13.36844a5.83814,5.83814,0,0,0,2.112-7.90847l-.092-.16906-16.42867-28.44941h-.00393a5.8223,5.8223,0,0,0-7.90532-2.12691l.00393.00786-23.34642,13.47617a3.07411,3.07411,0,0,1-3.74744-.515,89.25925,89.25925,0,0,0-17.215-12.95328,88.26016,88.26016,0,0,0-19.81442-8.42349,3.08449,3.08449,0,0,1-2.24642-2.9643V471.524a5.8001,5.8001,0,0,0-5.77763-5.78157h-33.049a5.79374,5.79374,0,0,0-5.77819,5.78157V498.4527A3.08886,3.08886,0,0,1,4350.01955,501.45553Z"/><rect class="cls-50" x="1109.19916" y="2557.26485" width="533.55888" height="79.72767"/><rect class="cls-6" x="1109.19916" y="2575.6634" width="141.05586" height="42.93057"/><rect class="cls-51" x="1156.80781" y="2477.53811" width="533.55888" height="79.72674"/><rect class="cls-6" x="1328.52823" y="2496.70276" width="361.83846" height="39.86431"/><rect class="cls-50" x="1077.12321" y="2397.81044" width="533.55895" height="79.72767" transform="translate(2687.80538 4875.34855) rotate(180)"/><rect class="cls-6" x="1469.62623" y="2416.20899" width="141.05594" height="42.93057" transform="translate(3080.3084 4875.34855) rotate(180)"/><path class="cls-52" d="M4463.58307,1985.84159c-28.7237-107.67928-129.06833-48.46467-172.00977,43.72608-42.94143,92.1946-141.34078,451.79554-226.4101,544.90288-32.9711,36.0923-22.888,39.12583,7.42425,21.54918C4223.78015,2508.37286,4503.11572,2134.06611,4463.58307,1985.84159Z"/><path class="cls-53" d="M4044.84631,2602.50633c-1.03821,4.84109,3.5152,5.06655,12.13475,1.50139,229.21952-193.85935,350.94424-627.236,351.33816-628.62141a4.48823,4.48823,0,0,0-8.63236-2.46154C4399.293,1974.31983,4275.90414,2413.60784,4044.84631,2602.50633Z"/><path class="cls-54" d="M4209.57523,2043.26658c-50.08521-78.51107-115.05109-5.99211-125.95346,78.28944-10.90878,84.28795,1.5885,395.58051-42.641,491.2397-17.13916,37.08063-8.34476,36.94932,11.35915,15.28741C4150.62067,2520.06372,4278.52517,2151.33658,4209.57523,2043.26658Z"/><path class="cls-55" d="M4031.88529,2640.26207c.39456,4.12242,4.07886,3.14626,10.03967-1.87674,133.591-212.33593,121.0303-588.27539,120.98675-589.48278a3.74835,3.74835,0,1,0-7.4935.21906C4155.45536,2050.33477,4168.19091,2431.41,4031.88529,2640.26207Z"/><path class="cls-54" d="M4457.89713,2310.44169c86.565,9.02628,53.12513,93.65179-12.75413,138.01967-65.87918,44.36148-331.27116,164.10954-392.72825,241.07885-23.81912,29.83694-27.385,22.42478-17.52668-3.1027C4084.06565,2559.12678,4338.74348,2298.01935,4457.89713,2310.44169Z"/><path class="cls-55" d="M4033.26818,2708.63042c-3.60927,1.38866-4.33507-2.09516-2.63384-9.17616,121.59341-200.45164,441.04945-347.178,442.06852-347.65964a3.5065,3.5065,0,0,1,2.95282,6.36106C4474.62956,2358.63159,4150.8142,2507.366,4033.26818,2708.63042Z"/><path class="cls-27" d="M3804.93091,1719.88456s58.50631,6.27554,70.69528,15.5205c0,0,383.24545,587.1067,323.46313,898.82883l-593.33262,9.0741-28.681-327.52324Z"/><path class="cls-30" d="M3665.247,1680.32562l177.049,39.55894-30.20611,161.49536-63.50311,40.27,48.08982,34.55118s-142.81779,266.55239-230.26215,415.89145C3566.41445,2372.09254,3698.87452,1773.20174,3665.247,1680.32562Z"/><path class="cls-39" d="M3873.50437,2137.81292c11.874,23.835,22.95746,48.05689,33.7792,72.39307q16.10962,36.5592,30.98346,73.66284c9.93976,24.72241,19.27457,49.69019,28.197,74.81226q13.26933,37.72375,24.58417,76.13281c7.37631,25.6416,14.03513,51.5249,19.15939,77.76977,2.52256,13.12769,4.66657,26.3418,6.21521,39.64771a321.7275,321.7275,0,0,1,2.36475,40.15723c-.15909,6.72387-.3822,13.457-1.21344,20.16284l-.27063,2.51538-.37988,2.50683c-.26877,1.66919-.487,3.34375-.79831,5.00684l-1.03455,4.97461c-.32416,1.66089-.85348,3.2854-1.271,4.928l-.66976,2.45264-.731,2.3894-1.474,4.77588-3.00455,9.53662c-2.03891,6.34814-4.11694,12.68652-6.36987,18.97778-1.13355,3.14331-2.30469,6.27661-3.56827,9.38672a62.227,62.227,0,0,1-4.41821,9.21314,11.35428,11.35428,0,0,1-.83036,1.13256,4.02849,4.02849,0,0,1-1.40106,1.13575,1.92417,1.92417,0,0,1-1.60275-.03076,2.16279,2.16279,0,0,1-.91418-.91651,5.24765,5.24765,0,0,1-.51932-1.51855,26.69,26.69,0,0,1-.31272-5.217c.05967-3.38355.35251-6.7146.68589-10.03931,1.39639-13.28247,3.55453-26.42383,5.91085-39.52759q-1.30586,9.89832-2.35729,19.822c-.71625,6.61109-1.37058,13.231-1.78379,19.8501-.19845,3.30664-.34692,6.62134-.305,9.89331a24.93136,24.93136,0,0,0,.42416,4.72,3.11839,3.11839,0,0,0,.29432.82984c.042.085.08236.06543-.06781-.02808a.542.542,0,0,0-.4007-.04126c-.00366-.00928.07428-.04468.16791-.147a2.90318,2.90318,0,0,0,.2991-.33863,9.01481,9.01481,0,0,0,.61209-.90112,60.46078,60.46078,0,0,0,3.89578-8.90845c1.13935-3.09521,2.19556-6.23388,3.21534-9.38647,2.04766-6.30322,3.96878-12.6604,5.82891-19.03613l2.74582-9.57984,1.34528-4.79907.66672-2.40137.58157-2.37842c.35892-1.59155.82816-3.15087,1.098-4.76538l.89423-4.8186c.27072-1.61157.45065-3.24316.681-4.86279l.32324-2.43384.21634-2.45142c.68692-6.523.78012-13.11523.81357-19.69214-.39646-26.36206-4.25464-52.67016-9.53086-78.616-5.2572-25.97388-11.91934-51.68408-19.358-77.16529-7.34817-25.51269-15.52905-50.79565-24.14889-75.93164-8.56708-25.157-17.75455-50.106-27.12433-74.99072q-14.17465-37.2821-29.22309-74.24756Q3889.39378,2174.44976,3873.50437,2137.81292Z"/><rect class="cls-56" x="132.66126" y="2634.23389" width="4185.99271" height="92.34234"/><rect class="cls-7" x="3479.36119" y="2084.19208" width="252.79102" height="500.66432"/><path class="cls-57" d="M3465.98261,2504.29006h76.22362c1.395.00882,16.5591.58551,25.05865,19.10835,8.91224,19.42668,7.96519,38.85423,34.39327,38.85423H3613.042c26.42807,0,25.69531-19.88344,34.40208-38.85423,8.69708-18.97872,23.65485-19.09953,25.04984-19.10835H3740.106a6.72208,6.72208,0,0,1,6.70237,6.70237v121.955a1.29022,1.29022,0,0,1-1.28644,1.28644H3465.99143a1.29022,1.29022,0,0,1-1.28644-1.28644V2505.56769A1.28138,1.28138,0,0,1,3465.98261,2504.29006Z"/><path class="cls-48" d="M3776.65517,2364.091H3527.73961c0-49.04947-48.37842-54.45748-48.37842-54.45748h248.91556S3776.65517,2315.04157,3776.65517,2364.091Z"/><path class="cls-46" d="M3518.97287,2138.58077h190.78192a8.43679,8.43679,0,0,1,8.41314,8.41314h0a8.43679,8.43679,0,0,1-8.41314,8.41314H3518.97287a8.44193,8.44193,0,0,1-8.41314-8.41314h0A8.44193,8.44193,0,0,1,3518.97287,2138.58077Z"/><path class="cls-46" d="M3518.97287,2231.26288h190.78192a8.43,8.43,0,0,1,8.41314,8.4052h0a8.43679,8.43679,0,0,1-8.41314,8.41314H3518.97287a8.43622,8.43622,0,0,1-8.41314-8.41314h0A8.42943,8.42943,0,0,1,3518.97287,2231.26288Z"/><path class="cls-46" d="M3518.97287,2424.78275h190.78192a8.4368,8.4368,0,0,1,8.41314,8.41314h0a8.43679,8.43679,0,0,1-8.41314,8.41314H3518.97287a8.44193,8.44193,0,0,1-8.41314-8.41314h0A8.44193,8.44193,0,0,1,3518.97287,2424.78275Z"/><polygon class="cls-23" points="843.206 1427.092 941.547 1372.762 951.74 1331.51 1127.301 1000.069 1178.797 898.201 1122.361 878.574 1068.931 911.848 893.086 1192.51 819.339 1389.646 843.206 1427.092"/><polygon class="cls-23" points="1511.638 1392.719 1503.384 1427.092 1544.796 1606.891 1592.438 1644.74 1614.529 1580.338 1602.762 1455.024 1549.79 1389.646 1511.638 1392.719"/><path class="cls-58" d="M2376.92789,2064.24969a56.28328,56.28328,0,0,1,75.057,0,59.11616,59.11616,0,0,1,12.61321,16.19485,60.96913,60.96913,0,0,1,6.61819,20.633h-44.90416v20.55491h70.28644q1.0884-21.64345-5.29452-38.77422a83.29821,83.29821,0,0,0-17.82994-29.0417,76.82909,76.82909,0,0,0-26.78374-18.14138,86.42753,86.42753,0,0,0-63.84507-.2335,79.338,79.338,0,0,0-25.92737,16.73978,78.13827,78.13827,0,0,0-17.36766,25.53357h26.37725A58.3615,58.3615,0,0,1,2376.92789,2064.24969Z"/><path class="cls-59" d="M2452.92222,2158.60212a56.2833,56.2833,0,0,1-75.057,0,59.1077,59.1077,0,0,1-12.6132-16.19484,60.96608,60.96608,0,0,1-6.61834-20.633h44.9043v-20.55492h-70.28658q-1.0884,21.64346,5.29467,38.77423a83.2983,83.2983,0,0,0,17.82994,29.0417,76.82589,76.82589,0,0,0,26.78359,18.14138,86.42753,86.42753,0,0,0,63.84507.2335,79.33591,79.33591,0,0,0,25.92722-16.73978,78.136,78.136,0,0,0,17.36766-25.53357h-26.3771A58.36451,58.36451,0,0,1,2452.92222,2158.60212Z"/><path class="cls-60" d="M2350.04443,2187.29876l-.03835-.70063c-.86893-.7293-1.72961-1.469-2.57273-2.23038C2348.24206,2185.30729,2349.09521,2186.27479,2350.04443,2187.29876Z"/></g></g></svg>