<svg xmlns="http://www.w3.org/2000/svg" xmlns:xlink="http://www.w3.org/1999/xlink" viewBox="0 0 723.32 427.25"><defs><style>.cls-1,.cls-31{fill:none;}.cls-1{stroke:#cce3e9;stroke-miterlimit:10;stroke-width:2px;}.cls-1,.cls-11,.cls-12,.cls-13,.cls-14,.cls-15,.cls-16,.cls-17,.cls-18,.cls-21,.cls-22,.cls-25,.cls-26,.cls-27,.cls-28,.cls-30,.cls-32,.cls-34,.cls-36,.cls-37,.cls-41,.cls-44,.cls-45,.cls-46,.cls-47,.cls-49,.cls-50,.cls-53,.cls-54,.cls-55,.cls-56{fill-rule:evenodd;}.cls-2{fill:url(#Degradado_sin_nombre_98);}.cls-3{fill:#f5f5f5;}.cls-4{fill:#ecebeb;}.cls-5{fill:#fcfcfc;}.cls-6{fill:#e0e0df;}.cls-14,.cls-7{fill:#fff;}.cls-8{fill:#edeeee;}.cls-9{fill:#91a5a6;}.cls-10{fill:#90b1b5;}.cls-11{fill:#445862;}.cls-12{fill:#0c0d18;}.cls-13{fill:#54a7ac;}.cls-15{fill:#2c2c2c;}.cls-16{fill:#444;}.cls-17{fill:#898989;}.cls-18{fill:#e3b08b;}.cls-19,.cls-21{fill:#e6c4ae;}.cls-20,.cls-37{fill:#d9926d;}.cls-22{fill:#0d1631;}.cls-23{fill:#6e5128;}.cls-24{fill:#e0e6f3;}.cls-25{fill:#e1e1e1;}.cls-26{fill:#dda192;}.cls-27{fill:#112837;}.cls-28{fill:#e5b8a3;}.cls-29{fill:#141313;opacity:0.3;}.cls-30{fill:#4c5864;}.cls-32,.cls-35{fill:#8e4a2c;}.cls-33,.cls-34{fill:#633522;}.cls-36{fill:#e8c2b5;}.cls-38{fill:#cf8769;}.cls-39{fill:#1f555e;}.cls-40{fill:#939393;}.cls-41{fill:#caa560;}.cls-42{fill:#ebdabb;}.cls-43{fill:#9c794d;}.cls-44{fill:#a7a5b3;}.cls-45{fill:#d1cdd5;}.cls-46{fill:#e2e1e6;}.cls-47{fill:#468e8e;}.cls-48,.cls-49{fill:#abaab9;}.cls-50{fill:#cce3e9;}.cls-51{fill:#4978ae;}.cls-52{fill:#393939;}.cls-53{fill:#497b76;}.cls-54{fill:#9dc5b0;}.cls-55{fill:#7eb7b0;}.cls-56{fill:#65a27e;}.cls-57{fill:#2c2c2f;}</style><linearGradient id="Degradado_sin_nombre_98" y1="221.55" x2="723.32" y2="221.55" gradientUnits="userSpaceOnUse"><stop offset="0" stop-color="#dfece6"/><stop offset="1" stop-color="#b7d7e1"/></linearGradient></defs><title>Recurso 6</title><g id="Capa_2" data-name="Capa 2"><g id="Capa_2-2" data-name="Capa 2"><path class="cls-1" d="M23,175.88a7.83,7.83,0,1,1-2.3,5.54,7.82,7.82,0,0,1,2.3-5.54Zm1.69-7.78a13.92,13.92,0,0,0-3.07,1.31,14.14,14.14,0,0,0-2.7,2,.46.46,0,0,1-.57.07l-3.65-2.1h0a.9.9,0,0,0-1.21.34l0,0-2.56,4.45a.86.86,0,0,0-.09.68.89.89,0,0,0,.42.55l0,0,3.62,2.08a.48.48,0,0,1,.23.53h0a13.13,13.13,0,0,0-.31,1.66,15.81,15.81,0,0,0-.1,1.69,15.5,15.5,0,0,0,.1,1.69,12.8,12.8,0,0,0,.31,1.66.5.5,0,0,1-.26.55l-3.61,2.08h0a1,1,0,0,0-.42.55.88.88,0,0,0,.09.69l2.58,4.47h0a.88.88,0,0,0,.55.41.9.9,0,0,0,.68-.08l0,0,3.62-2.09a.48.48,0,0,1,.57.07,14.19,14.19,0,0,0,2.7,2,13.87,13.87,0,0,0,3.09,1.31.47.47,0,0,1,.35.46v4.21a.89.89,0,0,0,.27.63.88.88,0,0,0,.64.27h5.16a.87.87,0,0,0,.63-.27.85.85,0,0,0,.27-.63v-4.21a.48.48,0,0,1,.37-.46,13.82,13.82,0,0,0,5.77-3.35.48.48,0,0,1,.6-.05l3.62,2.09a.9.9,0,0,0,.68.08.88.88,0,0,0,.55-.41l0,0,2.56-4.44h0a.89.89,0,0,0,.09-.69.91.91,0,0,0-.42-.55l-3.64-2.1a.48.48,0,0,1-.23-.53h0a12.8,12.8,0,0,0,.31-1.66,14.33,14.33,0,0,0,0-3.38,13.13,13.13,0,0,0-.31-1.66.48.48,0,0,1,.26-.54l3.61-2.09a.9.9,0,0,0,.33-1.23v0l-2.57-4.44h0a.9.9,0,0,0-1.23-.33h0l-3.65,2.1a.46.46,0,0,1-.58-.08,14,14,0,0,0-5.78-3.34.48.48,0,0,1-.35-.46v-4.2a.88.88,0,0,0-.27-.64.9.9,0,0,0-.63-.26H26a.9.9,0,0,0-.91.9v4.2A.47.47,0,0,1,24.7,168.1Z"/><path class="cls-2" d="M717.63,289.41c-14.12-40.74-53-70.19-98.33-70.19a43.83,43.83,0,0,1-31.82-13.72l-3.23-1.14a51.57,51.57,0,0,0,31.17-24.15,51.18,51.18,0,0,0-15-100.11H525.45a19.92,19.92,0,0,1-5.86-39l0,0a17.83,17.83,0,0,1,3.53-.35H535a12.45,12.45,0,0,0,0-24.89H456.63c-8.12,0-15.92,6.46-22.28,10.76-23,15.52-49.41,31.33-78.19,31.33H223.3a18,18,0,0,0-18,18,17.36,17.36,0,0,0,.3,3.16A18,18,0,0,0,223.3,93.84c6.32,0,15.14-.19,23.46.93A33.67,33.67,0,0,1,238,160.94H222c-6.14.39-12.31.49-18.32.49H125.88a35,35,0,0,0-17.72,65.15,34.7,34.7,0,0,0,17.72,4.86h4a33.67,33.67,0,0,1,0,67.34H64.24a64.24,64.24,0,1,0,0,128.47H619.3c57.21,0,104-46.8,104-104A103.13,103.13,0,0,0,717.63,289.41ZM137,171.67c1.28-.86,2.6-1.67,3.94-2.42C139.56,170,138.24,170.82,137,171.67Zm10.9-5.82c.95-.41,1.92-.78,2.9-1.13C149.78,165.07,148.81,165.45,147.86,165.85Z"/><path class="cls-3" d="M332.82,78.32V180.56a.08.08,0,0,0,.09.07H415.8a.07.07,0,0,0,.08-.07V78.32a.07.07,0,0,0-.08-.07H332.91A.08.08,0,0,0,332.82,78.32Z"/><path class="cls-4" d="M416.76,181.42H331.94a.08.08,0,0,1-.08-.07V77.52a.08.08,0,0,1,.08-.07h84.82a.08.08,0,0,1,.09.07V181.35A.08.08,0,0,1,416.76,181.42Zm-82.89-1.59h81a.08.08,0,0,0,.08-.07V79.12a.08.08,0,0,0-.08-.07h-81a.08.08,0,0,0-.09.07V179.76A.08.08,0,0,0,333.87,179.83Z"/><path class="cls-5" d="M341.19,84.63v89.54a.07.07,0,0,0,.08.07h66.31a.08.08,0,0,0,.09-.07V84.63s0-.06-.09-.06H341.27S341.19,84.6,341.19,84.63Z"/><rect class="cls-4" x="355.69" y="109.99" width="37.33" height="36.23" rx="0.06" ry="0.06"/><path class="cls-6" d="M390.06,141.79c.05.11-1.79.78-5.3.44a14.58,14.58,0,0,1-5.95-2,10.07,10.07,0,0,1-4.63-6,7.87,7.87,0,0,1,3.54-8.24,10,10,0,0,1,2.68-1.31,8.82,8.82,0,0,1,3.36-.32,6.69,6.69,0,0,1,3.36,1.22,3.29,3.29,0,0,1,1.32,3.24,5.11,5.11,0,0,1-1.84,2.78,12.21,12.21,0,0,1-2.82,1.71,17.72,17.72,0,0,1-6.7,1.59,15.51,15.51,0,0,1-7.15-1.35,11.94,11.94,0,0,1-5.26-4.51,7.79,7.79,0,0,1-.95-6.33,9.43,9.43,0,0,1,4-5.21,10.78,10.78,0,0,1,3.37-1.41,9.91,9.91,0,0,1,3.8-.1,6.62,6.62,0,0,1,3.45,1.61,4.27,4.27,0,0,1,1.35,3.05,5,5,0,0,1-.9,2.91,8.1,8.1,0,0,1-2.13,2.12,15.49,15.49,0,0,1-5.28,2.33,16.22,16.22,0,0,1-5.57.35,12.87,12.87,0,0,1-4.84-1.53,8.65,8.65,0,0,1-4.62-6.07,6.46,6.46,0,0,1,1.71-5.2,7.61,7.61,0,0,1,3.17-2.1c.87-.27,1.37-.26,1.39-.19s-.39.26-1.1.65a7.76,7.76,0,0,0-2.47,2.19,5.61,5.61,0,0,0-1,4.44,7.47,7.47,0,0,0,4.12,4.77,12,12,0,0,0,8.48.67,12.7,12.7,0,0,0,4.24-2,4.09,4.09,0,0,0,2-3.29c0-1.23-1-2.09-2.55-2.34a6.71,6.71,0,0,0-2.44.1,7.46,7.46,0,0,0-2.3,1,7,7,0,0,0-2.91,3.84,5.64,5.64,0,0,0,.72,4.59,9.21,9.21,0,0,0,4,3.46,12.17,12.17,0,0,0,5.53,1.06,14.43,14.43,0,0,0,5.43-1.23,9.92,9.92,0,0,0,2.17-1.26,3,3,0,0,0,1.1-1.49,1.14,1.14,0,0,0-.44-1.19,3.59,3.59,0,0,0-1.8-.66,5.54,5.54,0,0,0-2.12.15,7.34,7.34,0,0,0-2,.89,7,7,0,0,0-2.57,2.94,5.6,5.6,0,0,0-.43,3.37,8.46,8.46,0,0,0,3.55,5.22,13.8,13.8,0,0,0,5.12,2.11C388.14,141.87,390,141.57,390.06,141.79Z"/><rect class="cls-5" x="446.06" y="149.31" width="77.5" height="69.34"/><path class="cls-6" d="M523.56,218.65s0-.45,0-1.29,0-2.1,0-3.72c0-3.25,0-8,0-14.07,0-12.12-.05-29.43-.09-50.26l.18.17-77.5,0h0l.2-.21c0,25.22,0,49,0,69.34l-.18-.19,56.05.1,15.81,0,4.19,0h0l-4.15,0-15.77.05-56.17.09h-.19v-.18c0-20.38,0-44.12,0-69.34v-.21h.21l77.5,0h.17v.18c0,20.88-.07,38.23-.09,50.37,0,6,0,10.79,0,14,0,1.6,0,2.83,0,3.68S523.56,218.65,523.56,218.65Z"/><rect class="cls-6" x="457.68" y="175.65" width="3.27" height="3.27"/><rect class="cls-6" x="465.72" y="175.65" width="3.27" height="3.27"/><rect class="cls-6" x="457.68" y="168.71" width="40.02" height="3.27"/><rect class="cls-6" x="473.91" y="175.51" width="3.27" height="3.27"/><rect class="cls-6" x="481.8" y="175.65" width="3.27" height="3.27"/><rect class="cls-6" x="489.83" y="175.65" width="3.27" height="3.27"/><rect class="cls-6" x="497.87" y="175.65" width="3.27" height="3.27"/><rect class="cls-4" x="505.91" y="175.65" width="3.27" height="3.27"/><rect class="cls-4" x="457.68" y="182.59" width="3.27" height="3.27"/><rect class="cls-6" x="465.72" y="182.59" width="3.27" height="3.27"/><rect class="cls-4" x="473.76" y="182.59" width="3.27" height="3.27"/><rect class="cls-4" x="457.68" y="155.09" width="9.82" height="9.82"/><rect class="cls-6" x="481.8" y="182.59" width="3.27" height="3.27"/><rect class="cls-6" x="489.83" y="182.59" width="3.27" height="3.27"/><rect class="cls-6" x="498.02" y="182.45" width="3.27" height="3.27"/><rect class="cls-6" x="505.91" y="182.59" width="3.27" height="3.27"/><rect class="cls-6" x="457.68" y="189.54" width="3.27" height="3.27"/><rect class="cls-6" x="465.87" y="189.39" width="3.27" height="3.27"/><rect class="cls-6" x="473.76" y="189.54" width="3.27" height="3.27"/><rect class="cls-4" x="481.8" y="189.54" width="3.27" height="3.27"/><rect class="cls-6" x="489.83" y="189.54" width="3.27" height="3.27"/><rect class="cls-6" x="497.87" y="189.54" width="3.27" height="3.27"/><rect class="cls-6" x="505.91" y="189.54" width="3.27" height="3.27"/><rect class="cls-6" x="457.68" y="196.48" width="3.27" height="3.27"/><rect class="cls-6" x="465.72" y="196.48" width="3.27" height="3.27"/><rect class="cls-6" x="473.76" y="196.48" width="3.27" height="3.27"/><rect class="cls-6" x="481.94" y="196.33" width="3.27" height="3.27"/><rect class="cls-6" x="489.83" y="196.48" width="3.27" height="3.27"/><rect class="cls-4" x="497.87" y="196.48" width="3.27" height="3.27"/><rect class="cls-6" x="505.91" y="196.48" width="3.27" height="3.27"/><rect class="cls-6" x="457.68" y="203.42" width="3.27" height="3.27"/><rect class="cls-4" x="465.72" y="203.42" width="3.27" height="3.27"/><rect class="cls-6" x="473.76" y="203.42" width="3.27" height="3.27"/><rect class="cls-6" x="481.8" y="203.42" width="3.27" height="3.27"/><rect class="cls-6" x="489.83" y="203.42" width="3.27" height="3.27"/><rect class="cls-6" x="498.02" y="203.27" width="3.27" height="3.27"/><rect class="cls-6" x="505.91" y="203.42" width="3.27" height="3.27"/><path class="cls-7" d="M298.37,254.91s0-.48,0-1.4,0-2.28,0-4c0-3.55,0-8.75,0-15.37,0-13.25-.05-32.2-.07-55.07l.13.14-95.37,0h0l.17-.16c0,27.4,0,53.29,0,75.89l-.15-.15,68.9.07,19.52,0,5.17,0h0l-5.15,0L272,255l-69,.07h-.14v-.15c0-22.6,0-48.49,0-75.89v-.17H203l95.37,0h.14V179c0,22.9-.05,41.89-.07,55.15,0,6.62,0,11.8,0,15.34,0,1.76,0,3.11,0,4S298.37,254.91,298.37,254.91Z"/><rect class="cls-7" x="215.32" y="193.08" width="3.45" height="38.52"/><rect class="cls-7" x="221.98" y="206.16" width="3.45" height="25.44"/><rect class="cls-7" x="228.64" y="197.87" width="3.45" height="33.93"/><rect class="cls-7" x="235.3" y="194.57" width="3.45" height="37.03"/><rect class="cls-7" x="241.96" y="206.95" width="3.45" height="24.65"/><rect class="cls-7" x="248.61" y="211.78" width="3.45" height="19.82"/><rect class="cls-7" x="255.27" y="197.04" width="3.45" height="34.56"/><rect class="cls-7" x="261.93" y="203.27" width="3.45" height="28.33"/><rect class="cls-7" x="268.59" y="198.29" width="3.45" height="33.31"/><rect class="cls-7" x="275.25" y="208.91" width="3.45" height="22.69"/><rect class="cls-7" x="281.91" y="204.59" width="3.45" height="27.01"/><path class="cls-7" d="M286.76,234.28c0,.08-16.36.14-36.53.14s-36.54-.06-36.54-.14,16.36-.14,36.54-.14S286.76,234.2,286.76,234.28Z"/><path class="cls-7" d="M220.24,237.31a21.92,21.92,0,0,1-5.12,0,23.48,23.48,0,0,1,5.12,0Z"/><path class="cls-7" d="M228.73,237.47a33.51,33.51,0,0,1-6.12,0,33.51,33.51,0,0,1,6.12,0Z"/><path class="cls-7" d="M236,237.47a33.4,33.4,0,0,1-6.11,0,33.4,33.4,0,0,1,6.11,0Z"/><path class="cls-7" d="M243.21,237.47a33.4,33.4,0,0,1-6.11,0,33.4,33.4,0,0,1,6.11,0Z"/><path class="cls-7" d="M250.46,237.47a33.51,33.51,0,0,1-6.12,0,33.51,33.51,0,0,1,6.12,0Z"/><path class="cls-7" d="M257.7,237.47a33.51,33.51,0,0,1-6.12,0,33.51,33.51,0,0,1,6.12,0Z"/><path class="cls-7" d="M264.94,237.47a33.51,33.51,0,0,1-6.12,0,33.51,33.51,0,0,1,6.12,0Z"/><path class="cls-7" d="M272.18,237.47a33.51,33.51,0,0,1-6.12,0,33.51,33.51,0,0,1,6.12,0Z"/><path class="cls-7" d="M279.42,237.47a33.51,33.51,0,0,1-6.12,0,33.51,33.51,0,0,1,6.12,0Z"/><path class="cls-7" d="M286.66,237.47a33.51,33.51,0,0,1-6.12,0,33.51,33.51,0,0,1,6.12,0Z"/><rect class="cls-7" x="199.94" y="178.57" width="101.14" height="2.85"/><polygon class="cls-8" points="32.72 384.4 32.72 416.63 79.85 416.63 131.85 416.63 131.85 384.4 32.72 384.4"/><polygon class="cls-9" points="81.93 416.63 131.85 416.63 131.85 384.4 135.31 384.4 135.31 375.38 79.85 375.38 79.85 383.56 81.93 416.63"/><rect class="cls-10" x="46.58" y="389.6" width="20.1" height="4.85"/><rect class="cls-7" x="43.99" y="400.51" width="25.81" height="10.25"/><path class="cls-11" d="M207.91,261.51s10.14,83.19,9.94,85.89-2.9,15.71-2.9,15.71,4.9-8.21,6.1-15,4.4-52.82,4.4-52.82l-5.4-2.9,5-.3-8.25-25.85a7.34,7.34,0,0,0-2.25-2.67c-1.3-.75-6-3.12-6.12-3.16a3.08,3.08,0,0,0-1.85.22S207.56,261.29,207.91,261.51Z"/><path class="cls-12" d="M504.85,166.45l5.75,3.16a17.78,17.78,0,0,1,12.3-.74s13.67-3.52,20.38-.12,3.58-6.71,2.34-7.27-14.38-2.72-20.26-2.18-14.71,1-14.71,1Z"/><path class="cls-13" d="M458.16,313.53c0,14.93-10.23,79.14-10.26,96.62,0,2.9.09,7,.27,11.8L285.94,408.34c-.47-19.36-9.9-80.63-9.87-95.16,0-14.92.35-64.91,2.19-68.76s3.35-10,5.65-10.77,56.51-15.6,56.51-15.6l26.87,5.26,27.52-5.16s50.47,15.51,52.76,16.29,5.08,11,6.9,14.87"/><path class="cls-14" d="M394.81,218.15s1.45-.18,6.76.94c-.34,1.14-2.28,2.33-3.35,3.25-22.86,19.52-37.76,20.74-61,.69a13.58,13.58,0,0,1-3.19-4.31l6.42-1.2,26.89,4.91Z"/><path class="cls-15" d="M396.19,218.87s-8.13,26.61-9,32.08-12.44,60.43-12.51,69.87c0,4.3,4.26,48.35,9,95.67l69.06,5.8c-.74-11.5-1.38-21.42-1.69-27-1.14-20.11.44-61.6,3.2-87.07s0-64.27-.37-68-6.78-8.81-8.81-9.83Z"/><path class="cls-16" d="M384.18,263.63c-3.75,18.11-10.62,51.21-10.64,58.35,0,0,39.22-36.12,39-40s-12.43-33.91-12.43-33.91S393.23,254.74,384.18,263.63Z"/><path class="cls-17" d="M394.58,218.1a8,8,0,0,1,2.28-1.29c.58,0,10.05,4.12,10.05,4.12s12.35,23.56,12.34,26.43-37.58,28.7-37.58,28.7L387,250s7.26-25.29,9.37-31.5Z"/><path class="cls-18" d="M316.64,169.26c-.28.07-.54.14-.8.23h0a11.2,11.2,0,1,0,9.54,1.17c.66,3.25.61,7.37-3.54,8.26l-.61-6.42C321,169.9,318.41,169,316.64,169.26Z"/><path class="cls-18" d="M396.9,160c.28,0,.56,0,.83,0h0a11.21,11.21,0,1,1-9,3.31c.09,3.31,1.08,7.32,5.32,7.24l-.86-6.4C392.83,161.6,395.11,160.13,396.9,160Z"/><path class="cls-19" d="M390.65,214.37h0c-17,17-36,11.72-48.13,2.05,10.59,3.79,46.13-12.75,46.13-12.75l.33,1.77c0-9.31,0-26.79,0-26.79l.67-13.54s-10.82,1.72-22,4.15c-11.16-2.47-22-4.24-22-4.24l.62,13.55s-.05,27.74-.06,31.95c0,2-2.13,5-5.87,7.52,19.37,18.91,34.95,18.93,54.39.1A19,19,0,0,1,390.65,214.37Z"/><path class="cls-20" d="M342.52,216.43c12.14,9.67,31.14,14.94,48.13-2.05h0a6.56,6.56,0,0,1-1.68-3.76c0-.87,0-2.74,0-5.16l-.33-1.77S353.11,220.22,342.52,216.43Z"/><path class="cls-21" d="M350.44,110.27h0a38,38,0,0,0-33.32,42l4,34.26a38,38,0,0,0,42,33.32h0a38,38,0,0,0,33.32-42l-4-34.26A38,38,0,0,0,350.44,110.27Z"/><path class="cls-22" d="M507.39,364.69c1.77,7.15,3.85,15.29,6,23.65-5.5-.07-9.92,0-11.52.49-5.67,1.59-6.49,4-6.49,4-.24-.86-1.23-3.4-2.62-6.73-2.5-6-6.27-14.54-9.16-20.56-2.76-5.76-4.73-9.41-6-12.26,1.93,2.07,5,5.21,6.62,5.88C486.2,359.94,501.31,363.34,507.39,364.69Z"/><path class="cls-23" d="M45.9,283.84,39,286.64S40.2,297,42.08,300.41L59,296l-16.5,6.38,1.62,5.75,5.32-1.44-5.13,1.94s2.63,9.81,5.75,14.62l7.07-1.81L71.84,313l-2.37-16.19-4.5-9-14.38-9.25Z"/><path class="cls-23" d="M57.78,319.89l-7,4.75S52.13,339,66.4,351.76s19-18.5,19-18.5Z"/><path class="cls-18" d="M319.25,134.42c4.32,3.35,8.45,4.79,13.69,6.38,13.53,4.11,28.85,4.29,41.22-2.56,4.49-2.49,8.59-6,10.95-10.54.35-.69.74-.67.67-1.43s-2.75-4.39-3.52-4.4c-8.84,4-16.59,7.64-26.28,7.86s-19.35-.9-29-2.18a12.28,12.28,0,0,0-3.2-.15c-2.41.32-1.23,2.12-3,3.74"/><path class="cls-24" d="M289.28,110.44q-2.08,3-4.23,5.72S287.78,112.52,289.28,110.44Z"/><polygon class="cls-10" points="28.55 375.38 28.55 384.4 135.31 384.4 135.31 375.38 79.85 375.38 28.55 375.38"/><polygon class="cls-8" points="45.55 343.22 45.55 375.45 92.69 375.45 144.68 375.45 144.68 343.22 45.55 343.22"/><polygon class="cls-9" points="94.77 375.45 144.68 375.45 144.68 343.22 148.15 343.22 148.15 334.2 92.69 334.2 92.69 342.38 94.77 375.45"/><rect class="cls-10" x="59.41" y="348.41" width="20.1" height="4.85"/><rect class="cls-7" x="56.83" y="359.33" width="25.81" height="10.25"/><polygon class="cls-10" points="41.39 334.2 41.39 343.22 148.15 343.22 148.15 334.2 92.69 334.2 41.39 334.2"/><path class="cls-23" d="M251.15,248.78c-.48,3.26-1,6.49-1.48,9.71q-7.38,47.89-11.73,96.17a10.37,10.37,0,0,1-1.26,4.86,10.09,10.09,0,0,1-4,3,273,273,0,0,1-46,18.64c-9.75,3-19.78,5.38-30,5.45-9.25.06-18.39-1.81-27.39-3.91-14.54-3.39-29.07-7.44-42.25-14.45s-25-17.23-31.79-30.55C52.81,332.8,51.54,326,54.7,322a5.51,5.51,0,0,1-5.5-.91c-2.16-1.89-2.79-5-2.66-7.87A20,20,0,0,1,58,296.26l-15.79,4.41c-1.16-3.11-2.33-6.34-2-9.64a8.47,8.47,0,0,1,3.69-6.42,14,14,0,0,1-5.23.52,60.63,60.63,0,0,1-1.69-14.57c32.54-1.46,63.89-19.67,81.29-47.22,9-14.35,14.35-30.69,21.64-46s17.28-30.3,32.32-38.15v0c-9,7-12,19.28-15.28,30.3C150.46,191,142.1,199.78,129.15,218c4.61-3.95,24.43-7.58,33.22-25.47,3-6.21,5.87-12.91,11.37-17.09a38.39,38.39,0,0,1,7.85-4.25c8.37-3.73,15-3.59,23.38-7.32l4.5,2.14c2.93,21.91,11,35.34,24.67,52.71,4.62,5.89,9.83,11.42,13.22,18.09A39.2,39.2,0,0,1,251.15,248.78Z"/><path class="cls-25" d="M162.18,246c14.31,4.49,33.86,9.85,50.72,18.14,1.16.57-1.21,5.06-.13,5.66a39.59,39.59,0,0,1,7.4,6c7.87,7.79,23.9,68.73,22.47,74.81-2.31,9.76-22.55,36.59-22.55,36.59-4,7.77-9,19.08-13.9,31.3H105.64c7-22.77,9.61-38.19,9.8-52.09h0c5.37-47.25-20-57.53-20-57.53l26.32-61.92c10.23-3.62,30.65-2.26,30.65-2.26C157.76,244.67,157.35,244.44,162.18,246Z"/><path class="cls-26" d="M187,188.88,182,204s-7.61,35.69-9.38,40.32c-.61,1.61-2.62,2.1-5.72,2,4.46,6.38,13.11,16.12,25.62,18.49,8,1.51,13.57,0,17.36-2.22-2.67-1.41-5.22-3.08-5.21-4.46.11-12.18,2.2-33.61,8.8-37.58C221,216,187,188.88,187,188.88Z"/><path class="cls-14" d="M169.39,246.24a31.52,31.52,0,0,1-7.21-.28c3.08,4.44,8,9.42,16,14.47,19.72,12.49,29.22,5.68,32.22,2.47a21.76,21.76,0,0,1-4.8-3.09h0c-18.41,9-36.22-13.57-36.22-13.57Z"/><path class="cls-27" d="M212.1,263.71S220,342.86,219,349.54s-13.46,39.63-24.42,68.93h18.85c3.72-7.17,6.56-12.77,7.08-14.12.34-.87,1.64-3.41,3.43-6.72,3.22-6,8-14.46,11.65-20.42,11.56-19,11.53-14.53,7.53-36.75-3.52-19.56-14.32-55.74-15.92-60.77C224.77,272,214.14,263.16,212.1,263.71Z"/><path class="cls-26" d="M156.35,189.24c-.28,0-.57,0-.84.08h0a11.37,11.37,0,1,0,9.27,3.08c0,3.37-.88,7.46-5.18,7.52l.67-6.53C160.54,190.75,158.17,189.32,156.35,189.24Z"/><path class="cls-28" d="M205.35,136.35h0a39.09,39.09,0,0,0-42.78,34.74l-3.65,35.23a39.09,39.09,0,0,0,34.75,42.78h0a39.09,39.09,0,0,0,42.78-34.75l3.64-35.23A39.07,39.07,0,0,0,205.35,136.35Z"/><path class="cls-26" d="M162.4,173.64l-3.48,32.68a39.13,39.13,0,0,0,24.84,40.41c-22.68-9.4-11-48.82-11-48.82,4.59-.79,11.83-9.35,16-14.33s7.47-10,14.73-9.86,22.63,4,22.63,4c3.21,7.59,9.11,13.12,12.48,15.82l1.49-14.38a38.35,38.35,0,0,0-.74-12.51c-.94-.55-3.76-5-4.78-5.6C203.36,143.46,179.2,157.94,162.4,173.64Z"/><path class="cls-23" d="M260.53,227.77a139.72,139.72,0,0,1-10.79,39,38.92,38.92,0,0,0,1.84-10.42,2.25,2.25,0,0,0,0-.26,40.09,40.09,0,0,0-.43-7.34,39.2,39.2,0,0,0-3.79-11.93c-3.39-6.67-8.6-12.2-13.22-18.09-13.66-17.37-21.74-30.8-24.67-52.71l-4.5-2.14c-8.37,3.73-15,3.59-23.38,7.32a38.39,38.39,0,0,0-7.85,4.25c-5.5,4.18-8.32,10.88-11.37,17.09-8.79,17.89-28.61,21.52-33.22,25.47,12.95-18.26,21.31-27.09,27.74-48.53,3.31-11,6.32-23.28,15.28-30.3.34-.26.68-.52,1-.77,4.1-2.89,9-4.41,13.9-5.52,12.65-2.87,26.07-3.3,38.48.46s23.73,12,29.7,23.53a63.89,63.89,0,0,1,5.6,17.77A140.46,140.46,0,0,1,260.53,227.77Z"/><polyline class="cls-29" points="400.46 384.4 392.68 416.63 341.57 413.83 324.17 386.8 362.32 378.56 400.46 384.4"/><path class="cls-15" d="M336.55,219.09s7.75,26.55,8.57,32,11.56,60.33,11.5,69.78c0,4.2-4.74,46.41-10,92.54l-67.82.4c.38-4.83.18-15,.39-17.91,1.43-20.13.45-61.6-1.94-87.05s.89-64.27,1.35-68,6.91-8.86,9-9.89Z"/><path class="cls-16" d="M347.62,262.62c3.69,18.13,10.43,51.25,10.42,58.39,0,0-39.08-36.27-38.84-40.17S331.75,247,331.75,247,338.61,253.7,347.62,262.62Z"/><path class="cls-29" d="M353,289l-15.58-67.32s22.71,59.24,21.28,68.45"/><path class="cls-17" d="M337.77,218.64a7.9,7.9,0,0,0-2.28-1.29c-.57,0-10.06,4.07-10.06,4.07S313,244.93,313,247.81s37.47,28.84,37.47,28.84l-5.22-26.07s-6.6-25.27-8.69-31.49Z"/><path class="cls-29" d="M216.23,359.33l-16.72,54.5h-64.2l39.78-60.56s19.1,14.44,42,3.76"/><path class="cls-27" d="M159.22,244.28s14.43,69.9,16.41,90.22-4.38,34.87-11.53,50.14c-2.41,5.14-10.13,18.28-19.65,33.83H100l4.75-109.81-12.74-3c.76-5.52,1.38-10.09,1.8-13.29l25.08-44.35S128.37,240.4,159.22,244.28Z"/><path class="cls-27" d="M97.08,279.09c-8.14,22.23-10.35,98.46-3.65,139.38h35.69c-14.6-81.24,16.07-139.34,9.33-159.93C127.66,225.59,102.42,264.48,97.08,279.09Z"/><path class="cls-30" d="M159.22,244.28s14.43,69.9,16.41,90.22A72.24,72.24,0,0,1,174.38,357c2.66-20.79-26.59-69.7-26.59-69.7l7.6-3.6-10.2-4.6s4.7-26.31,5-30.71-2-5.08-2.11-5.12C151.44,243.45,155.14,243.76,159.22,244.28Z"/><path class="cls-31" d="M500.89,245.54c.2-9.56-.17-17.86-.43-22.2-.33,2.94-.32,6.88-.38,7.58A55.25,55.25,0,0,0,500.89,245.54Z"/><path class="cls-32" d="M484,355.77,482,353C482.62,354,483.26,354.9,484,355.77Z"/><path class="cls-32" d="M476.48,321.07a41.54,41.54,0,0,0-.37,17.13A133.2,133.2,0,0,1,476.48,321.07Z"/><path class="cls-33" d="M500.46,223.34a10.2,10.2,0,0,1,.62-2.86l-.83-.37S500.34,221.28,500.46,223.34Z"/><path class="cls-33" d="M501.19,220.27a2,2,0,0,0-.12.21l-.83-.37A3.57,3.57,0,0,1,501.19,220.27Z"/><path class="cls-34" d="M501.19,220.27a2,2,0,0,0-.12.21l-.83-.37A3.57,3.57,0,0,1,501.19,220.27Z"/><path class="cls-31" d="M501.08,220.48l5.3,2.39c-1.7-1.66-3.33-2.83-4.81-2.86C501.38,220,501.22,220.19,501.08,220.48Z"/><path class="cls-32" d="M616.38,345.36h5.41c.63-.48,1.25-1,1.85-1.5l-7.29,1.46Z"/><path class="cls-33" d="M623.64,343.86l4.26-.85,6.72-12.38a61.28,61.28,0,0,1-7.71,10.15A38,38,0,0,1,623.64,343.86Z"/><path class="cls-33" d="M607.51,309c11.64-10.36,4.73-31.22,1.45-39.27-.32-.41-.63-.8-1-1.23l-84.4-37.91c-.36.56-.7,1.14-1,1.74-5.05,5-11-4.45-16.2-9.47l-5.3-2.39a10.2,10.2,0,0,0-.62,2.86c.26,4.34.63,12.64.43,22.2.25,1.35.53,2.71.87,4.08,1.52,6.25,3.51,12.42,4.36,18.8a79.72,79.72,0,0,1,.5,13,7.13,7.13,0,0,0,.49,3.56,3.09,3.09,0,0,0,2.76,1.48c-.52,2.87-4.6,5.52-6.66,7.32s-5.86,4.3-6.31,7.21L484,355.77,540,360.58l76.32-15.26C609.63,337.43,596.25,319,607.51,309Z"/><path class="cls-35" d="M636.11,298.36v0l0-.08A155.56,155.56,0,0,0,630,283.11c-.09-.16-.18-.32-.26-.48-.17-.32-.35-.63-.53-.95q-1.25-2.18-2.63-4.29c-3.75-5.75-11.52-11.14-13.84-17.6-1.78-5-1.57-10.24-.43-15.6,1.84-8.6,6.09-17.42,8.41-25.57,5-17.5,4-35.19.37-53s-14.49-34.88-31.05-42.42a61.74,61.74,0,0,0-24-5.34c-47.46-1.24-41.8,2.14-48.61,16.24l-1.35-.14c-16.4,13.94-27.83,33.33-33.5,54.1a130.1,130.1,0,0,0-4.42,30.15c-.13,4.16-.08,8.33.15,12.48A158,158,0,0,0,481,252c2.84,14.58,7.65,29.46,4.51,44a82.48,82.48,0,0,1-4.63,13.59,88.6,88.6,0,0,0-4.4,12.59,130.4,130.4,0,0,0-.36,16.72,39.38,39.38,0,0,0,5.75,14.49l1.92,2.67a31.9,31.9,0,0,0,8.31,7.38l14,4.59s32.33-5.22,33.31-5.32,48-16.81,48-16.81h25.7l0,0,7.11-1.43a36.31,36.31,0,0,0,3.2-3,60.89,60.89,0,0,0,7.53-9.91l2.77-5.11v0l.07-.16.06-.14a53.9,53.9,0,0,0,3.8-18.1A53.1,53.1,0,0,0,636.11,298.36ZM500.48,224l-.81-.36a3.84,3.84,0,0,1,.93.15A2,2,0,0,0,500.48,224Zm105.36,48.12,0,0"/><path class="cls-32" d="M619.75,184.21a109,109,0,0,1-.87,12,70.68,70.68,0,0,1-3.3,16.13c-1.92,5.29-5,10.09-8.07,14.8,3.44-19-12-22.89-13.34-23.18h-.09a63.93,63.93,0,0,0-14.76-7.51c-7.14-2.7-14.54-4.77-21.45-8-18.06-8.49-32.41-26.2-33.52-46.12-1.59,14.9-10.76,27.75-19.71,39.77-3.91,5.26-7.93,10.7-9.47,17.07-1.34,5.6-.65,11.46.05,17.17l-2.59-1.16A86.24,86.24,0,0,1,500,164.28a96.55,96.55,0,0,1,34-38.7,47.2,47.2,0,0,1,14-6.7c6-1.55,12.44-1.21,18.55,0a66.16,66.16,0,0,1,53.23,65.32Z"/><path class="cls-36" d="M533.24,247.18c0,.12,1.22,6.27,1.27,6.72a39.19,39.19,0,0,1,.08,7c-.14,1.85-.15,4.88-1.21,6.45a5.74,5.74,0,0,1-1.41,1.37c-3.34,2.43-7.24,4.34-10.8,6.46l25.91,21.48L570.9,285l13.5-12.75-12.83-8.58s-6-2.33-5.5-20.33S530.4,237.2,533.24,247.18Z"/><path class="cls-37" d="M604.7,213.87a7.33,7.33,0,1,1-12.37-4.54c0,2.17.56,4.81,3.34,4.85l-.44-4.21a2.53,2.53,0,0,1,2.53-2.68l.54.05h0a7.35,7.35,0,0,1,6.39,6.53"/><polygon class="cls-25" points="530.8 276.51 548.97 283.76 560.65 281.26 578.33 272.26 596.4 291.85 601.15 403.55 596.15 418.47 515.89 414.89 500.4 392.51 500.4 348.35 521.17 284.26 530.8 276.51"/><path class="cls-14" d="M530.87,276.28s22,12.52,42.2-2.1v4.67s-21.23,12.73-42.2,1.59Z"/><path class="cls-31" d="M522.58,232.35c22.66-22.34,63.66-5,63.66-5S537.61,204.31,522.58,232.35Z"/><path class="cls-20" d="M566.16,243s-22.44,6.18-33,2.39c.36,5.38,15.13,14,33,3.25Z"/><path class="cls-36" d="M598.4,202.26c0,24.8-26.41,47.25-48.88,47.25S503,229.4,503.73,204.61c.86-28.53,21.77-67.22,43.19-62.6C568.89,146.76,598.4,177.47,598.4,202.26Z"/><path class="cls-27" d="M553.57,415.68,473.9,414c-9.33-48.67,26.57-128.11,26.57-128.11a42.83,42.83,0,0,1,6.43-3.39L513.2,300l8.45-2.2,4.63,15.67-5.34,4,26.14,59.06Z"/><path class="cls-37" d="M521.69,155.29c0,.9-.28,1.84-.29,2.76-.08,8.12,4.54,15.94,9.77,21.84a83.09,83.09,0,0,0,14.74,12.55,107.89,107.89,0,0,0,19.15,11c3.43,1.47,26.56,10.14,28.53,10.59s2.86.7,3.95-1.65l.86-1.85L586,189l-56-35.46-7.47-8.37Z"/><path class="cls-32" d="M616.37,188.54a106.14,106.14,0,0,1-.85,11.68A69.09,69.09,0,0,1,612.29,216c-1.87,5.17-4.83,9.85-7.88,14.45-.34.53-.69,1.06-1,1.58,1.23-7.35-2.15-14.93-7.37-20.25a36.8,36.8,0,0,0-4.68-4h0a62.28,62.28,0,0,0-14.41-7.33c-7-2.64-14.2-4.66-20.95-7.83-17.63-8.29-31.64-25.59-32.73-45-1.55,14.55-10.5,27.1-19.24,38.83-3.82,5.14-7.74,10.45-9.25,16.67-1.31,5.47-.63,11.19,0,16.77l-2.53-1.13a84.21,84.21,0,0,1,7.22-49.63,94.28,94.28,0,0,1,33.19-37.79,46.08,46.08,0,0,1,13.63-6.54,41,41,0,0,1,18.11,0,64.61,64.61,0,0,1,52,63.78Z"/><path class="cls-38" d="M620.12,185.48s-.1,0-.3.07a5.68,5.68,0,0,1-.89.07,8.66,8.66,0,0,1-3.36-.77,14.29,14.29,0,0,1-4.44-3.16c-1.5-1.52-2.9-3.49-4.53-5.54a26.08,26.08,0,0,0-6.22-5.77,34.13,34.13,0,0,0-8.85-4.08c-6.63-2.05-14.32-2.52-22.36-2.46s-15.84,0-22.75-1.56A32.53,32.53,0,0,1,530,153.55a24.47,24.47,0,0,1-4.31-5.78,19.34,19.34,0,0,1-1.83-5.12,13.26,13.26,0,0,1-.23-4.6,43.42,43.42,0,0,0,.64,4.51,20.37,20.37,0,0,0,2,4.92,24.74,24.74,0,0,0,4.32,5.52,32.21,32.21,0,0,0,16,8.3c6.78,1.51,14.48,1.47,22.54,1.45s15.89.44,22.66,2.59a35,35,0,0,1,9.06,4.29,26.68,26.68,0,0,1,6.31,6c1.61,2.12,2.95,4.09,4.37,5.6a14.49,14.49,0,0,0,4.18,3.2A10.51,10.51,0,0,0,620.12,185.48Z"/><path class="cls-38" d="M623.15,170.6a8.88,8.88,0,0,0-.61-4.34c-1.12-2.64-4.47-5.45-9.16-7.56A60.26,60.26,0,0,0,595.93,154c-6.77-.76-14.37-.21-22.3.12s-15.62.43-22.5-.79A45.2,45.2,0,0,1,534,146.68a29,29,0,0,1-8.73-8.8,20.28,20.28,0,0,1-1.53-3,3.85,3.85,0,0,1-.39-1.11c.13-.06.71,1.46,2.32,3.86a30.44,30.44,0,0,0,8.8,8.34,45.6,45.6,0,0,0,16.86,6.27c6.74,1.13,14.32,1,22.24.67s15.54-.85,22.49,0a58.86,58.86,0,0,1,17.69,5c4.74,2.25,8.17,5.28,9.23,8.15a6.89,6.89,0,0,1,.46,3.38A3.47,3.47,0,0,1,623.15,170.6Z"/><path class="cls-38" d="M615,218.17a7.66,7.66,0,0,1,0-1.3c0-.85,0-2.11-.07-3.72a41.69,41.69,0,0,0-2.5-13.31,26.31,26.31,0,0,0-4.77-8A21.69,21.69,0,0,0,598.9,186c-7.12-2.7-15.67-2.28-24.48-2.66s-17.31-1.81-24.49-4.71a41.08,41.08,0,0,1-16.57-11.74A31.12,31.12,0,0,1,527,154.75a20.62,20.62,0,0,1-.64-3.69,7.07,7.07,0,0,1-.06-1.3c.12,0,.19,1.8,1.07,4.89a32,32,0,0,0,6.53,11.79,41,41,0,0,0,16.38,11.35c7.06,2.8,15.42,4.17,24.2,4.57s17.4,0,24.75,2.79a22.34,22.34,0,0,1,9,6.2,26.28,26.28,0,0,1,4.81,8.24,39.53,39.53,0,0,1,2.23,13.55c0,1.62-.06,2.88-.12,3.73A5.53,5.53,0,0,1,615,218.17Z"/><path class="cls-29" d="M530.87,278.6s12.13,58.91,17.21,78.16-11.21-31.37-11.21-31.37S529.84,295.94,530.87,278.6Z"/><path class="cls-30" d="M531.65,268.51l-26.17,14,3.61,19.33,9.4,5.05-7.22,4.93s22.16,41.38,35.81,64.69C547.08,376.51,526.4,283,531.65,268.51Z"/><path class="cls-29" d="M358.65,290.14c-1.42,9.21-5.7-1.13-5.7-1.13"/><path class="cls-39" d="M131.64,395c-1.33-6.65-2.35-13.37-3.22-20.1s-1.47-13.51-1.9-20.29a173.38,173.38,0,0,1,0-20.39,80.31,80.31,0,0,1,1.33-10.12,29.91,29.91,0,0,1,3.52-9.53,31.07,31.07,0,0,0-3,9.63,78.84,78.84,0,0,0-1.06,10.07c-.13,3.38-.2,6.76-.15,10.14s.2,6.77.39,10.15c.34,6.76,1,13.51,1.66,20.25q.52,5.06,1.16,10.1C130.73,388.32,131.18,391.68,131.64,395Z"/><path class="cls-30" d="M211,263.36s8.19,83.6,8,86.18-5,16.22-5,16.22,8.41-13,9.56-19.53,4.21-50.56,4.21-50.56l-5.17-2.77,4.79-.29-7.9-24.73a7.07,7.07,0,0,0-2.15-2.56c-1.25-.72-5.78-3-5.85-3a3,3,0,0,0-1.78.22S210.68,263.15,211,263.36Z"/><path class="cls-15" d="M452,237.2c11.19,14,14.59,32.55,17.45,50.27,6.66,41.27,12.35,82.94,11.27,124.74a6,6,0,0,1-.7,3.23c-.8,1.2-2.32,1.65-3.73,2a101.89,101.89,0,0,1-34.93,2.26c-10.17-60.15-1.27-121.76,9.45-181.81"/><path class="cls-40" d="M435.24,255.75c-.46,1.88-.77,3.81-1.13,5.72L433,267.2l-2.3,11.44-2.45,11.41-1.27,5.7c-.43,1.9-.91,3.79-1.25,5.7.35-3.88,1.11-7.71,1.76-11.55s1.48-7.64,2.23-11.46,1.63-7.61,2.54-11.4S434,259.45,435.24,255.75Z"/><path class="cls-41" d="M316.07,116.91a32.18,32.18,0,0,0-7.18,15.38c-1.1,6.44-.21,13,.68,19.51l2.21,16c.11.82.17,1.65.31,2.47.09.5.06,1.38.87,1a3,3,0,0,0,.72-.6,4.51,4.51,0,0,1,2.76-1c.6-.05,2.58.27,2.77-.47a3.61,3.61,0,0,0-.14-1.34l-.22-1.64c-.27-2-.65-3.92-.78-5.89-.15-2.27-.06-4.54-.05-6.81a41.45,41.45,0,0,1,1.5-11.55,21.16,21.16,0,0,1,2.33-5.52c.58-.88,2.68-2.75,2.27-4-.16-.46-2.22-1.69-2.53-2.07-3.69-4.47-5.67-7.94-4.71-13.66"/><path class="cls-41" d="M377.52,129a39.53,39.53,0,0,1,5.9,9.78c3,7.22,3.68,15.07,5.23,22.68a1.14,1.14,0,0,0,.34.72,1.55,1.55,0,0,0,1.19.14l3.32-.5c1.49-.22,3.23-.61,3.82-1.86a3.56,3.56,0,0,0,.2-1.71A197,197,0,0,0,395.63,136c-1.11-6.79-3-13.62-7.22-19.29a2.33,2.33,0,0,0-1.12-1,2.92,2.92,0,0,0-2.2.52,43.78,43.78,0,0,0-5.08,3.36c-2,1.53-3.94,3.36-4.45,5.65s-.63,3.55,2,3.72"/><path class="cls-41" d="M322.48,132.78c-4.7.26-3-1.9-5.23-6a12.85,12.85,0,0,1,.85-13.39,22.39,22.39,0,0,1,5.54-5c8.44-5.86,18.11-10.67,23.81-19.22.31,3.37.49,7.16-1.75,9.69a41.74,41.74,0,0,0,8.59-2.59,13.84,13.84,0,0,0,6.59-5.88c-.54,3.61-1.27,7.55-4.09,9.86a47.83,47.83,0,0,0,9.65-.44A16.13,16.13,0,0,0,375,95.64a14.12,14.12,0,0,1-6.3,7.36,24.42,24.42,0,0,0,14.73,1.54,15.87,15.87,0,0,1-5.45,5.74,23.18,23.18,0,0,0,11.88,1.47c-1.72,2.2-2.28,5.07-3.45,7.61-3.29,7.13-11.1,11-18.72,12.91-10.28,2.51-21,2.25-31.59,2-4.58-.12-9.22-.24-13.64-1.47"/><path class="cls-42" d="M375.15,119.14a3.06,3.06,0,0,1-.22,1.4,8.53,8.53,0,0,1-2.06,3.27c-2.29,2.43-6.55,4.34-11.43,5.22a18.92,18.92,0,0,1-12.35-2.12,24.93,24.93,0,0,1-3.22-2.06,5,5,0,0,1-1.05-.93c.09-.13,1.68,1.09,4.54,2.47a20.65,20.65,0,0,0,5.23,1.76,19.84,19.84,0,0,0,6.72.07c4.73-.86,8.91-2.63,11.15-4.82A10.41,10.41,0,0,0,375.15,119.14Z"/><path class="cls-42" d="M371.68,107.91a3.9,3.9,0,0,1-.53,1.28,20.13,20.13,0,0,1-2,3.15,24.59,24.59,0,0,1-22,9.39,21.31,21.31,0,0,1-3.7-.71,4.15,4.15,0,0,1-1.29-.51c0-.14,1.92.44,5,.64A25.86,25.86,0,0,0,368.65,112C370.67,109.6,371.55,107.84,371.68,107.91Z"/><path class="cls-43" d="M268.64,218.94s-.05.06-.16.1a1.08,1.08,0,0,1-.48.05,3,3,0,0,1-1.83-1.41,19.42,19.42,0,0,1-2.45-5.19c-.84-2.45-1.64-5.61-2.55-8.91a50.84,50.84,0,0,0-3.46-9.35,26.63,26.63,0,0,0-4.86-6.9c-3.62-3.59-7.77-4.8-12.11-5.2s-8.55-.93-12.31-3.84c-3.78-2.68-6.91-8.46-9-14.6a69.14,69.14,0,0,1-2.43-9.25,78.5,78.5,0,0,1-1.09-8.09,59.48,59.48,0,0,1-.2-7.17c.07,0,0,2.58.43,7.06a75.92,75.92,0,0,0,1.14,7.78,65.24,65.24,0,0,0,2.44,8.86c2.07,5.87,5.12,11.36,8.82,13.9,3.68,2.77,7.84,3.18,12.19,3.65s8.58,1.67,12.27,5.43a27.57,27.57,0,0,1,5,7.24,53.28,53.28,0,0,1,3.53,9.78c.91,3.4,1.66,6.54,2.46,9a21.65,21.65,0,0,0,2.31,5.24C267.72,219.25,268.65,218.73,268.64,218.94Z"/><path class="cls-43" d="M270,194.13a21.57,21.57,0,0,0,.26-5.22,19.58,19.58,0,0,0-4.13-10,25.36,25.36,0,0,0-9.22-7.53c-3.73-1.66-8.1-1.87-12.64-2.37s-8.89-1.25-12.61-3.47a24.38,24.38,0,0,1-8.77-9.83,38.9,38.9,0,0,1-3.72-11.42c-.24-1.59-.4-2.85-.44-3.75a10.49,10.49,0,0,1-.07-1.36c.08-.05.2,1.82.78,4.85a38.18,38.18,0,0,0,3.82,10.88,23.83,23.83,0,0,0,8.66,9.33c3.66,2.11,8,2.85,12.49,3.31s8.92.74,12.73,2.51a25.65,25.65,0,0,1,9.31,8,20.81,20.81,0,0,1,4.09,10.71,17.29,17.29,0,0,1-.21,4.06A7.33,7.33,0,0,1,270,194.13Z"/><path class="cls-43" d="M253.39,256.78s0-.63.17-1.8.33-2.91.54-5.14a138.26,138.26,0,0,0,.7-18.68,66.07,66.07,0,0,0-1.43-11.55,23.15,23.15,0,0,0-4-9.18c-3.55-4.59-8.39-5-13.24-6.61a25.66,25.66,0,0,1-12.93-9.44c-3.58-4.75-6-11.56-7.41-18.2a83.92,83.92,0,0,1-1.66-17.53c0-2.23.12-4,.22-5.17s.15-1.8.17-1.8-.17,2.5-.16,6.87a83.25,83.25,0,0,0,1.79,17.07c1.4,6.45,3.83,13,7.37,17.64a25.63,25.63,0,0,0,12.79,9.21c4.81,1.58,9.71,2,13.37,6.83a24.56,24.56,0,0,1,4.08,9.64,67.5,67.5,0,0,1,1.4,12,134.77,134.77,0,0,1-.88,19c-.25,2.24-.48,4-.65,5.14S253.4,256.79,253.39,256.78Z"/><path class="cls-15" d="M279.19,238.89c-19.41,41.95-28.11,87.95-35.51,133.57-1.67,10.3-3.29,20.75-2.09,31.11.43,3.73,1.42,7.74,4.38,10.05,1.9,1.49,4.35,2,6.72,2.5q7.83,1.53,15.78,2.32c2,.21,4.23.35,6.07-.59,2.91-1.49,3.91-5.09,4.59-8.29,7.52-35.94,10.13-72.73,11.71-109.42.4-9.33.74-18.71-.31-28A94.73,94.73,0,0,0,280.43,239"/><path class="cls-40" d="M292,254.57c1.23,3.69,2.07,7.51,3,11.29s1.7,7.59,2.54,11.4,1.54,7.63,2.23,11.46,1.41,7.66,1.76,11.55c-.34-1.91-.82-3.81-1.25-5.7l-1.27-5.7-2.45-11.41L294.26,266l-1.12-5.73C292.78,258.38,292.46,256.45,292,254.57Z"/><path class="cls-7" d="M283.17,284a12.21,12.21,0,0,0-.45,3.22V291l.42-6.66Z"/><path class="cls-7" d="M467,287.2v89a12.07,12.07,0,0,1-12,12H294.72a12,12,0,0,1-12-12V291l.42-6.66c0-.11,0-.21,0-.32a12.06,12.06,0,0,1,11.55-8.78H455A12,12,0,0,1,467,287.2Z"/><path class="cls-44" d="M389.6,411.26H365c-2.36,0-4.42-10.32-4.56-22.93h0c-.14-12.61,1.68-22.92,4-22.92h24.62c2.37,0,4.42,10.31,4.57,22.92h0C393.79,400.94,392,411.26,389.6,411.26Z"/><path class="cls-45" d="M387.33,411.26H364.62c-2.19,0-4.08-10.32-4.21-22.93h0c-.13-12.61,1.55-22.92,3.73-22.92h22.72c2.18,0,4.07,10.31,4.2,22.92h0C391.19,400.94,389.51,411.26,387.33,411.26Z"/><path class="cls-46" d="M502,403.55H547.5a1.47,1.47,0,0,0,1.47-1.47V326.86a1.47,1.47,0,0,0-1.47-1.47h-47v76.69A1.48,1.48,0,0,0,502,403.55Z"/><path class="cls-47" d="M498.41,391h47.08a1.6,1.6,0,0,1,1.59,1.6v17.09a1.6,1.6,0,0,1-1.59,1.6H499.68a1.59,1.59,0,0,1-1.59-1.59V391.3A.32.32,0,0,1,498.41,391Z"/><path class="cls-14" d="M492.22,381.85H535c0-7.65,8.25-8.5,8.25-8.5H500.47S492.22,374.2,492.22,381.85Z"/><rect class="cls-48" x="505.48" y="332.81" width="31.4" height="2.63" rx="1.31" ry="1.31"/><rect class="cls-48" x="505.48" y="365.4" width="31.4" height="2.63" rx="1.31" ry="1.31"/><rect class="cls-48" x="505.48" y="349.66" width="31.4" height="2.63" rx="1.31" ry="1.31"/><path class="cls-49" d="M506.79,386.26h28.77a1.31,1.31,0,0,1,1.31,1.31h0a1.31,1.31,0,0,1-1.31,1.31H506.79a1.31,1.31,0,0,1-1.31-1.31h0A1.31,1.31,0,0,1,506.79,386.26Z"/><path class="cls-50" d="M70,103a12,12,0,1,1-3.51,8.46A11.89,11.89,0,0,1,70,103Zm2.58-11.86a21.23,21.23,0,0,0-4.69,2,20.81,20.81,0,0,0-4.11,3.1.73.73,0,0,1-.88.1l-5.56-3.2,0,0a1.33,1.33,0,0,0-1-.12,1.37,1.37,0,0,0-.84.64l0,0L51.5,100.4a1.39,1.39,0,0,0-.14,1,1.41,1.41,0,0,0,.64.84l0,0,5.51,3.18a.74.74,0,0,1,.35.81h0a20.9,20.9,0,0,0-.46,2.53,20.8,20.8,0,0,0,0,5.15,20.55,20.55,0,0,0,.46,2.53.72.72,0,0,1-.39.84L52,120.53h0a1.41,1.41,0,0,0-.64.84,1.36,1.36,0,0,0,.14,1l3.93,6.82h0a1.39,1.39,0,0,0,.84.63,1.32,1.32,0,0,0,1-.13l0,0,5.52-3.19a.75.75,0,0,1,.88.11,21,21,0,0,0,8.83,5.1.77.77,0,0,1,.54.71v6.41a1.38,1.38,0,0,0,1.37,1.38h7.87a1.4,1.4,0,0,0,1.38-1.38v-6.41a.72.72,0,0,1,.56-.71,21.12,21.12,0,0,0,8.8-5.1.76.76,0,0,1,.92-.09l5.52,3.19a1.32,1.32,0,0,0,1,.13,1.39,1.39,0,0,0,.84-.63l0,0,3.91-6.78h0a1.38,1.38,0,0,0-.5-1.88l-5.55-3.21a.73.73,0,0,1-.35-.81h0a20.55,20.55,0,0,0,.46-2.53,20.8,20.8,0,0,0,0-5.15A20.9,20.9,0,0,0,99,106.3a.73.73,0,0,1,.39-.83l5.51-3.18a1.37,1.37,0,0,0,.64-.84,1.39,1.39,0,0,0-.14-1l0,0-3.91-6.77h0a1.37,1.37,0,0,0-.84-.64,1.4,1.4,0,0,0-1,.13h0L94,96.29a.71.71,0,0,1-.89-.12A21.67,21.67,0,0,0,89,93.09a21,21,0,0,0-4.72-2,.73.73,0,0,1-.53-.7V84a1.39,1.39,0,0,0-.41-1,1.36,1.36,0,0,0-1-.4H74.49a1.36,1.36,0,0,0-1,.4,1.38,1.38,0,0,0-.4,1v6.41A.75.75,0,0,1,72.55,91.09Z"/><path class="cls-50" d="M599.05,20.36a12,12,0,1,1-3.5,8.46,11.94,11.94,0,0,1,3.5-8.46ZM601.63,8.5a21.15,21.15,0,0,0-4.68,2,21.58,21.58,0,0,0-4.12,3.1.73.73,0,0,1-.87.11L586.4,10.5l0,0a1.4,1.4,0,0,0-1-.12,1.37,1.37,0,0,0-.84.64l0,0-3.91,6.77a1.34,1.34,0,0,0-.13,1.05,1.37,1.37,0,0,0,.64.84l0,0,5.52,3.18a.73.73,0,0,1,.34.81h0a20.92,20.92,0,0,0-.47,2.53,22.26,22.26,0,0,0,0,5.16,20.75,20.75,0,0,0,.47,2.52.75.75,0,0,1-.39.84l-5.51,3.18h0a1.37,1.37,0,0,0-.64.84,1.34,1.34,0,0,0,.13,1l3.93,6.81h0a1.45,1.45,0,0,0,.84.64,1.39,1.39,0,0,0,1-.14l0,0L592,43.93a.74.74,0,0,1,.87.11,21.58,21.58,0,0,0,4.12,3.1,21,21,0,0,0,4.71,2,.72.72,0,0,1,.54.7v6.41a1.34,1.34,0,0,0,.4,1,1.39,1.39,0,0,0,1,.41h7.86a1.4,1.4,0,0,0,1.38-1.38V49.85a.72.72,0,0,1,.56-.71,21.23,21.23,0,0,0,4.69-2,21.58,21.58,0,0,0,4.12-3.1.73.73,0,0,1,.91-.08l5.52,3.18a1.39,1.39,0,0,0,1,.14,1.43,1.43,0,0,0,.83-.64l0,0,3.91-6.78h0a1.39,1.39,0,0,0-.51-1.88l-5.55-3.21a.74.74,0,0,1-.35-.81h0a20.75,20.75,0,0,0,.47-2.52,22.26,22.26,0,0,0,0-5.16,20.92,20.92,0,0,0-.47-2.53.74.74,0,0,1,.39-.83l5.51-3.18a1.39,1.39,0,0,0,.51-1.88l0,0L630.5,11h0a1.35,1.35,0,0,0-.83-.64,1.39,1.39,0,0,0-1,.14h0l-5.56,3.21a.73.73,0,0,1-.89-.13,21.35,21.35,0,0,0-4.1-3.08,20.83,20.83,0,0,0-4.72-2,.73.73,0,0,1-.53-.7V1.38A1.38,1.38,0,0,0,611.44,0h-7.86a1.43,1.43,0,0,0-1,.4,1.38,1.38,0,0,0-.4,1V7.79A.72.72,0,0,1,601.63,8.5Z"/><path class="cls-1" d="M677.44,86.06a7.85,7.85,0,1,1-2.3,5.55,7.81,7.81,0,0,1,2.3-5.55Zm1.69-7.77a13.46,13.46,0,0,0-3.07,1.31,14.14,14.14,0,0,0-2.7,2,.47.47,0,0,1-.57.07l-3.65-2.1,0,0a.9.9,0,0,0-.66-.07.86.86,0,0,0-.55.42l0,0-2.56,4.44a.89.89,0,0,0-.09.69,1,1,0,0,0,.42.55h0l3.62,2.09a.48.48,0,0,1,.23.53h0a14.75,14.75,0,0,0-.31,1.66,14.33,14.33,0,0,0,0,3.38,14.75,14.75,0,0,0,.31,1.66.48.48,0,0,1-.26.54l-3.61,2.09h0a1,1,0,0,0-.42.55.89.89,0,0,0,.09.69l2.58,4.46h0a.9.9,0,0,0,1.23.33h0l3.62-2.09a.48.48,0,0,1,.57.07,13.73,13.73,0,0,0,2.7,2,13.9,13.9,0,0,0,3.09,1.32.47.47,0,0,1,.35.46v4.21a.91.91,0,0,0,.27.63.88.88,0,0,0,.64.27h5.16a.92.92,0,0,0,.9-.9V105.4a.48.48,0,0,1,.37-.47,13.27,13.27,0,0,0,3.07-1.31,13.73,13.73,0,0,0,2.7-2,.47.47,0,0,1,.6,0l3.62,2.08a.9.9,0,0,0,1.23-.33l0,0,2.56-4.45h0a.86.86,0,0,0,.09-.68.88.88,0,0,0-.42-.55l-3.64-2.1a.48.48,0,0,1-.23-.53h0a12.8,12.8,0,0,0,.31-1.66,14.33,14.33,0,0,0,0-3.38,12.8,12.8,0,0,0-.31-1.66.48.48,0,0,1,.26-.54l3.61-2.09a.91.91,0,0,0,.33-1.24v0l-2.57-4.44h0a.86.86,0,0,0-.55-.42.9.9,0,0,0-.68.08h0l-3.65,2.1a.48.48,0,0,1-.58-.08,13.62,13.62,0,0,0-2.69-2,13.9,13.9,0,0,0-3.09-1.32.48.48,0,0,1-.35-.46v-4.2a.92.92,0,0,0-.9-.91h-5.16a.88.88,0,0,0-.64.27.92.92,0,0,0-.27.64v4.2A.47.47,0,0,1,679.13,78.29Z"/><rect class="cls-51" x="173.17" y="399.25" width="83.3" height="12.45"/><rect class="cls-6" x="173.17" y="402.12" width="22.02" height="6.7"/><rect class="cls-52" x="180.6" y="386.8" width="83.3" height="12.45"/><rect class="cls-6" x="207.41" y="389.79" width="56.49" height="6.22"/><rect class="cls-51" x="168.16" y="374.35" width="83.3" height="12.45" transform="translate(419.63 761.15) rotate(180)"/><rect class="cls-6" x="229.44" y="377.22" width="22.02" height="6.7" transform="translate(480.9 761.15) rotate(180)"/><path class="cls-53" d="M696.86,310c-4.48-16.81-20.15-7.56-26.85,6.83s-22.07,70.54-35.35,85.07c-5.15,5.64-3.57,6.11,1.16,3.37C659.42,391.61,703,333.17,696.86,310Z"/><path class="cls-54" d="M631.49,406.31c-.16.75.55.79,1.89.23,35.79-30.26,54.79-97.92,54.86-98.14a.7.7,0,0,0-.49-.86.68.68,0,0,0-.86.48C686.83,308.23,667.56,376.82,631.49,406.31Z"/><path class="cls-55" d="M657.21,319c-7.82-12.26-18-.94-19.67,12.22s.25,61.76-6.65,76.69c-2.68,5.79-1.31,5.77,1.77,2.39C648,393.44,668,335.87,657.21,319Z"/><path class="cls-56" d="M629.47,412.2c.06.65.63.49,1.56-.29,20.86-33.15,18.9-91.84,18.89-92a.59.59,0,0,0-1.17,0C648.76,320.1,650.75,379.6,629.47,412.2Z"/><path class="cls-55" d="M696,360.71c13.51,1.41,8.29,14.62-2,21.55s-51.71,25.62-61.31,37.64c-3.72,4.65-4.27,3.5-2.74-.49C637.61,399.54,677.37,358.77,696,360.71Z"/><path class="cls-56" d="M629.68,422.88c-.56.21-.68-.33-.41-1.44,19-31.29,68.86-54.2,69-54.27a.54.54,0,0,1,.72.26.55.55,0,0,1-.26.73C698.59,368.23,648,391.45,629.68,422.88Z"/><path class="cls-27" d="M594,268.51s9.14,1,11,2.42c0,0,59.83,91.67,50.5,140.33l-92.63,1.42-4.48-51.14Z"/><path class="cls-30" d="M572.23,262.34l27.64,6.17-4.72,25.21L585.24,300l7.5,5.4S570.45,347,556.8,370.34C556.8,370.34,577.48,276.84,572.23,262.34Z"/><path class="cls-39" d="M604.74,333.76c3.68,7.46,7,15.08,10.1,22.8s5.88,15.58,8.24,23.57c1.15,4,2.17,8.05,3,12.14a63.47,63.47,0,0,1,1.36,12.46,25.43,25.43,0,0,1-.79,6.25c-.56,2-1.2,4-1.89,6a18.38,18.38,0,0,1-1.25,2.9.83.83,0,0,1-.35.35c-.12.09-.37-.05-.38-.14a.85.85,0,0,1-.08-.24,4.46,4.46,0,0,1,0-.81c0-.53.06-1.05.11-1.57.21-2.07.55-4.12.91-6.17-.26,2.06-.5,4.13-.65,6.19,0,.52,0,1,0,1.55a4.42,4.42,0,0,0,.07.74.39.39,0,0,0,0,.13s-.06,0-.06,0a1.58,1.58,0,0,0,.16-.22,18.45,18.45,0,0,0,1.11-2.86c.63-2,1.23-4,1.74-6a25.39,25.39,0,0,0,.64-6.1,69.71,69.71,0,0,0-1.49-12.27c-.82-4.06-1.87-8.07-3-12-2.28-8-5.07-15.8-8-23.57q-2.19-5.82-4.57-11.59C608,341.4,606.39,337.57,604.74,333.76Z"/><rect class="cls-57" x="20.71" y="411.26" width="653.53" height="15.99"/><rect class="cls-7" x="543.2" y="325.39" width="39.47" height="78.16"/><path class="cls-13" d="M541.12,391H553a4.62,4.62,0,0,1,3.91,3c1.39,3,1.24,6.06,5.37,6.06h1.78c4.12,0,4-3.1,5.37-6.06s3.69-3,3.91-3h10.55a1.06,1.06,0,0,1,1.05,1v19a.2.2,0,0,1-.2.2H541.12a.2.2,0,0,1-.2-.2V391.17A.2.2,0,0,1,541.12,391Z"/><path class="cls-49" d="M589.62,369.09H550.76c0-7.66-7.56-8.51-7.56-8.51h38.87S589.62,361.43,589.62,369.09Z"/><path class="cls-46" d="M549.39,333.88h29.78a1.32,1.32,0,0,1,1.32,1.31h0a1.33,1.33,0,0,1-1.32,1.32H549.39a1.32,1.32,0,0,1-1.31-1.32h0A1.31,1.31,0,0,1,549.39,333.88Z"/><path class="cls-46" d="M549.39,348.35h29.78a1.32,1.32,0,0,1,1.32,1.31h0a1.32,1.32,0,0,1-1.32,1.31H549.39a1.31,1.31,0,0,1-1.31-1.31h0A1.31,1.31,0,0,1,549.39,348.35Z"/><path class="cls-46" d="M549.39,378.56h29.78a1.32,1.32,0,0,1,1.32,1.32h0a1.32,1.32,0,0,1-1.32,1.31H549.39a1.31,1.31,0,0,1-1.31-1.31h0A1.32,1.32,0,0,1,549.39,378.56Z"/></g></g></svg>